<?xml version="1.0" encoding="UTF-8" standalone="no"?>
<svg
   height="22"
   width="22.000004"
   version="1.1"
   id="svg857"
   sodipodi:docname="pattern-documentation.svg"
   inkscape:version="1.3.2 (091e20ef0f, 2023-11-25)"
   xmlns:inkscape="http://www.inkscape.org/namespaces/inkscape"
   xmlns:sodipodi="http://sodipodi.sourceforge.net/DTD/sodipodi-0.dtd"
   xmlns:xlink="http://www.w3.org/1999/xlink"
   xmlns="http://www.w3.org/2000/svg"
   xmlns:svg="http://www.w3.org/2000/svg">
  <defs
     id="defs861">
    <linearGradient
       gradientTransform="matrix(1.0499563,0,0,1.0498968,-516.43977,-526.26655)"
       gradientUnits="userSpaceOnUse"
       x2="426.69501"
       y2="499.92099"
       y1="547.67499"
       id="a-6"
       x1="389.32001">
      <stop
         stop-color="#18222a"
         style="stop-color:#1e2b35;stop-opacity:1"
         id="stop216" />
      <stop
         stop-color="#566069"
         offset="1"
         style="stop-color:#6d7983;stop-opacity:1"
         id="stop218" />
    </linearGradient>
    <linearGradient
       id="d-3"
       gradientUnits="userSpaceOnUse"
       x1="10"
       x2="30"
       y1="10"
       y2="30"
       gradientTransform="matrix(0.82164929,0,0,0.77777884,-9.1358737,-31.887605)">
      <stop
         offset="0"
         id="stop232" />
      <stop
         offset="1"
         stop-opacity="0"
         id="stop234" />
    </linearGradient>
    <linearGradient
       id="e-6"
       gradientUnits="userSpaceOnUse"
       x1="10"
       x2="22"
       y1="10"
       y2="22"
       gradientTransform="matrix(0.82164929,0,0,0.77777884,-9.1358737,-31.887605)">
      <stop
         offset="0"
         stop-color="#171e25"
         id="stop219" />
      <stop
         offset="1"
         stop-opacity="0"
         id="stop221" />
    </linearGradient>
    <linearGradient
       id="b-7">
      <stop
         offset="0"
         stop-color="#292c2f"
         id="stop237" />
      <stop
         offset="1"
         stop-opacity="0"
         id="stop239" />
    </linearGradient>
    <linearGradient
       id="a-5"
       gradientUnits="userSpaceOnUse"
       x1="567.30701"
       x2="567.30701"
       y1="691.461"
       y2="39.515999">
      <stop
         offset="0"
         stop-color="#73ba25"
         id="stop242" />
      <stop
         offset="1"
         stop-color="#96cb5c"
         id="stop244" />
    </linearGradient>
    <linearGradient
       id="linearGradient1777"
       gradientTransform="matrix(0.5357143,0,0,0.49999999,-251.26766,-266.79828)"
       gradientUnits="userSpaceOnUse"
       x1="409.57101"
       x2="409.57101"
       y1="543.79797"
       y2="503.798">
      <stop
         offset="0"
         stop-color="#73ba25"
         id="stop840-3" />
      <stop
         offset="1"
         stop-color="#96cb5c"
         id="stop842-5" />
    </linearGradient>
    <linearGradient
       id="linearGradient1781"
       gradientTransform="matrix(0.71428568,0,0,0.79999998,-43.819118,-16.498295)"
       gradientUnits="userSpaceOnUse"
       x1="4"
       x2="4"
       y1="27"
       y2="2">
      <stop
         offset="0"
         stop-color="#173f4f"
         id="stop825-6" />
      <stop
         offset="1"
         stop-color="#516f7b"
         id="stop827-2" />
    </linearGradient>
    <linearGradient
       id="linearGradient1785"
       gradientUnits="userSpaceOnUse"
       x1="17"
       x2="17"
       y1="30"
       y2="27"
       gradientTransform="matrix(0.71428568,0,0,0.71428568,-43.819118,-16.326863)">
      <stop
         offset="0"
         stop-color="#292c2f"
         stop-opacity=".6"
         id="stop820-9" />
      <stop
         offset="1"
         stop-color="#292c2f"
         stop-opacity=".4"
         id="stop822-1" />
    </linearGradient>
    <linearGradient
       id="linearGradient1789"
       gradientUnits="userSpaceOnUse"
       x1="17"
       x2="28"
       y1="14"
       y2="25"
       gradientTransform="matrix(0.71428568,0,0,0.71428568,-43.819118,-16.326863)">
      <stop
         offset="0"
         stop-color="#292c2f"
         id="stop835-2" />
      <stop
         offset="1"
         stop-opacity="0"
         id="stop837-7" />
    </linearGradient>
    <linearGradient
       id="linearGradient1793"
       gradientUnits="userSpaceOnUse"
       x1="17"
       x2="17"
       y1="22"
       y2="6"
       gradientTransform="matrix(0.71428568,0,0,0.71428568,-43.819118,-16.326863)">
      <stop
         offset="0"
         stop-color="#eff0f1"
         id="stop830-0" />
      <stop
         offset="1"
         stop-color="#fcfcfc"
         id="stop832-9" />
    </linearGradient>
    <linearGradient
       id="lg0"
       x1="108"
       y1="106"
       x2="116"
       y2="106"
       gradientUnits="userSpaceOnUse"
       gradientTransform="matrix(0.5,0,0,0.5,-120.56875,4.3749999)">
      <stop
         offset="0"
         stop-color="#e8e7e4"
         id="stop3771" />
      <stop
         offset="0.5"
         stop-color="#ffffff"
         id="stop3773" />
      <stop
         offset="1"
         stop-color="#c2bfba"
         id="stop3775" />
    </linearGradient>
    <linearGradient
       id="SVGID_1_"
       gradientUnits="userSpaceOnUse"
       x1="50"
       y1="754.75311"
       x2="50"
       y2="828.35699"
       gradientTransform="matrix(0.42135466,0,0,0.42135466,-136.89825,-344.66521)">
      <stop
         offset="0"
         style="stop-color:#35762e"
         id="stop4" />
      <stop
         offset="1"
         style="stop-color:#6daa43"
         id="stop6" />
    </linearGradient>
    <linearGradient
       inkscape:collect="always"
       xlink:href="#a-6"
       id="linearGradient744"
       gradientUnits="userSpaceOnUse"
       gradientTransform="matrix(0.44998135,0,0,0.44995584,-194.84982,-224.68603)"
       x1="389.32001"
       y1="547.67499"
       x2="426.69501"
       y2="499.92099" />
    <linearGradient
       id="d-7"
       x1="47.967999"
       x2="47"
       y1="1110.1"
       y2="1106.5"
       gradientTransform="matrix(0.21428574,0,0,0.21428574,4.114105,-222.33451)"
       gradientUnits="userSpaceOnUse">
      <stop
         stop-color="#f6f5f4"
         offset="0"
         id="stop2956" />
      <stop
         stop-color="#fcfcfc"
         offset="1"
         id="stop2958" />
    </linearGradient>
    <linearGradient
       id="c-0"
       x1="23"
       x2="26.679001"
       y1="24"
       y2="25.83"
       gradientUnits="userSpaceOnUse"
       gradientTransform="matrix(0.42857151,0,0,0.42857151,4.114105,4.491263)">
      <stop
         stop-color="#f6f5f4"
         offset="0"
         id="stop2961" />
      <stop
         stop-color="#deddda"
         offset="1"
         id="stop2963" />
    </linearGradient>
  </defs>
  <sodipodi:namedview
     id="namedview859"
     pagecolor="#ffffff"
     bordercolor="#666666"
     borderopacity="1.0"
     inkscape:showpageshadow="2"
     inkscape:pageopacity="0.0"
     inkscape:pagecheckerboard="0"
     inkscape:deskcolor="#d1d1d1"
     showgrid="false"
     inkscape:zoom="7.375"
     inkscape:cx="32.135593"
     inkscape:cy="35.525424"
     inkscape:window-width="1920"
     inkscape:window-height="994"
     inkscape:window-x="0"
     inkscape:window-y="0"
     inkscape:window-maximized="1"
     inkscape:current-layer="svg857">
    <inkscape:grid
       type="xygrid"
       id="grid291"
       originx="65"
       originy="10"
       spacingy="1"
       spacingx="1"
       units="px"
       visible="false" />
  </sodipodi:namedview>
  <linearGradient
     id="c"
     gradientUnits="userSpaceOnUse"
     x1="17"
     x2="17"
     y1="30"
     y2="27"
     gradientTransform="matrix(0.71428568,0,0,0.71428568,-43.819118,-16.326863)">
    <stop
       offset="0"
       stop-color="#292c2f"
       stop-opacity=".6"
       id="stop820" />
    <stop
       offset="1"
       stop-color="#292c2f"
       stop-opacity=".4"
       id="stop822" />
  </linearGradient>
  <linearGradient
     id="b"
     gradientTransform="matrix(0.71428568,0,0,0.79999998,-43.819118,-16.498295)"
     gradientUnits="userSpaceOnUse"
     x1="4"
     x2="4"
     y1="27"
     y2="2">
    <stop
       offset="0"
       stop-color="#173f4f"
       id="stop825" />
    <stop
       offset="1"
       stop-color="#516f7b"
       id="stop827" />
  </linearGradient>
  <linearGradient
     id="e"
     gradientUnits="userSpaceOnUse"
     x1="17"
     x2="17"
     y1="22"
     y2="6"
     gradientTransform="matrix(0.71428568,0,0,0.71428568,-43.819118,-16.326863)">
    <stop
       offset="0"
       stop-color="#eff0f1"
       id="stop830" />
    <stop
       offset="1"
       stop-color="#fcfcfc"
       id="stop832" />
  </linearGradient>
  <linearGradient
     id="d"
     gradientUnits="userSpaceOnUse"
     x1="17"
     x2="28"
     y1="14"
     y2="25"
     gradientTransform="matrix(0.71428568,0,0,0.71428568,-43.819118,-16.326863)">
    <stop
       offset="0"
       stop-color="#292c2f"
       id="stop835" />
    <stop
       offset="1"
       stop-opacity="0"
       id="stop837" />
  </linearGradient>
  <linearGradient
     id="a"
     gradientTransform="matrix(0.5357143,0,0,0.49999999,-251.26766,-266.79828)"
     gradientUnits="userSpaceOnUse"
     x1="409.57101"
     x2="409.57101"
     y1="543.79797"
     y2="503.798">
    <stop
       offset="0"
       stop-color="#73ba25"
       id="stop840" />
    <stop
       offset="1"
       stop-color="#96cb5c"
       id="stop842" />
  </linearGradient>
  <rect
     width="17.99925"
     x="-20.00005"
     y="2.0016906"
     rx="8.9996252"
     height="17.998228"
     transform="scale(-1,1)"
     style="display:inline;fill:url(#linearGradient744);stroke-width:1.25992;stroke-opacity:0.55"
     id="rect223-2"
     ry="8.999114" />
  <path
     style="display:inline;opacity:0.3;fill:#000000;fill-opacity:1;stroke-width:1.25992;stroke-opacity:0.55"
     d="M 2.0057,10.775842 C 2.0042,10.850832 2,10.925441 2,11.00088 2,15.986429 6.013842,20 10.999601,20 c 4.985761,0 8.999664,-4.013571 8.999664,-8.99912 0,-0.07545 -0.0032,-0.149593 -0.0057,-0.225038 -0.118843,4.880665 -4.085867,8.774135 -8.994258,8.774135 -4.910193,0 -8.875419,-3.89347 -8.994204,-8.774135"
     id="path225-9" />
  <path
     d="M 2.0057,11.224158 C 2.0042,11.149168 2,11.074989 2,10.99912 2,6.013618 6.013842,2 10.999601,2 c 4.985761,0 8.999664,4.013618 8.999664,8.99912 0,0.07545 -0.0032,0.150023 -0.0057,0.225038 -0.118843,-4.880664 -4.085867,-8.774135 -8.994258,-8.774135 -4.910193,0 -8.875419,3.893471 -8.994204,8.774135"
     style="display:inline;opacity:0.3;fill:#ffffff;fill-opacity:1;stroke-width:1.25992;stroke-opacity:0.55"
     id="path229-1" />
  <rect
     x="6.8997993"
     y="13.062675"
     width="8.3571444"
     height="3.4285715"
     ry="0.85714287"
     fill="#588f1c"
     id="rect2968"
     style="stroke-width:0.214286" />
  <rect
     x="6.6855164"
     y="14.776978"
     width="7.500001"
     height="1.7142643"
     ry="0"
     fill="#588f1c"
     id="rect2970"
     style="stroke-width:0.214286" />
  <rect
     x="7.114109"
     y="12.205547"
     width="8.1428528"
     height="3.8571429"
     ry="0.85714287"
     fill="#ffffff"
     id="rect2972"
     style="stroke-width:0.214286" />
  <rect
     x="7.114109"
     y="12.205547"
     width="3.6428564"
     height="3.8571429"
     ry="0"
     fill="#ffffff"
     id="rect2974"
     style="stroke-width:0.214286" />
  <path
     d="m 7.114101,11.77697 v 3.857141 h 7.285714 c 0.474858,0 0.857144,-0.38228 0.857144,-0.857144 v -2.142853 c 0,-0.474855 -0.382286,-0.857144 -0.857144,-0.857144 z"
     fill="url(#d)"
     id="path2976"
     style="fill:url(#d-7);stroke-width:0.428572" />
  <path
     d="m 7.114101,11.348398 v 3.857141 h 7.285714 c 0.474858,0 0.857144,-0.38228 0.857144,-0.857142 v -2.142855 c 0,-0.474856 -0.382286,-0.857144 -0.857144,-0.857144 z"
     fill="url(#c)"
     id="path2978"
     style="fill:url(#c-0);stroke-width:0.428572" />
  <rect
     x="6.6855164"
     y="13.491261"
     width="7.2857127"
     height="1.2856926"
     ry="0"
     fill="#588f1c"
     id="rect2980"
     style="stroke-width:0.214286" />
  <rect
     x="6.6855164"
     y="12.634109"
     width="8.5714273"
     height="2.1428139"
     ry="0.85714287"
     fill="#588f1c"
     id="rect2982"
     style="stroke-width:0.214286" />
  <rect
     x="7.5426788"
     y="5.3484006"
     width="7.7142859"
     height="9.0000019"
     ry="0.85714287"
     fill="#73ba25"
     id="rect2984"
     style="stroke-width:0.214286" />
  <path
     d="m 6.685527,5.348396 v 9.000001 h 4.285716 V 5.348396 H 7.542674 v 0.214285 c 0,0.118715 -0.09556,0.214286 -0.214288,0.214286 -0.118712,0 -0.214285,-0.09556 -0.214285,-0.214286 V 5.348396 Z"
     fill="#73ba25"
     id="path2986"
     style="stroke-width:0.428572" />
  <path
     d="m 7.542674,15.205539 v 1.285717 h 0.85714 v -1.285717 z"
     fill="#a51d2d"
     id="path2988"
     style="stroke-width:0.214286" />
  <path
     d="M 7.542674,16.491256 6.685527,16.919828 H 7.114101 L 7.542674,17.3484 8.399814,16.491256 Z"
     fill="#c01c28"
     id="path2990"
     style="stroke-width:0.214286" />
  <path
     d="m 10.97111,7.067351 a 2.9999406,2.9999406 0 0 0 -2.361723,1.15583 c 0.365914,0.09776 0.624923,0.181778 0.70246,0.207841 0.0011,-0.0476 0.0092,-0.473223 0.0092,-0.473223 0,0 9.59e-4,-0.01003 0.0064,-0.01482 0.0068,-0.0067 0.01636,-0.0043 0.01636,-0.0043 0.09626,0.01393 2.150441,0.318435 3.016312,0.823008 0.106918,0.06256 0.15971,0.12907 0.225662,0.196498 0.239353,0.247546 0.555619,1.27688 0.589598,1.489155 0.0012,0.0083 -0.0089,0.01738 -0.01338,0.02082 h -9.7e-5 c -0.02457,0.01917 -0.05138,0.03912 -0.07824,0.05695 -0.204883,0.137457 -0.676861,0.46787 -1.282435,0.413923 -0.543958,-0.04812 -1.254605,-0.360144 -2.111348,-0.924657 0.08426,0.197226 0.16723,0.39506 0.25027,0.592775 0.124072,0.06447 1.32163,0.67468 1.912616,0.662723 0.47604,-0.01026 0.985178,-0.242111 1.188876,-0.364706 0,0 0.04478,-0.02697 0.06422,-0.0119 0.02132,0.01644 0.01541,0.04166 0.0106,0.06743 -0.01254,0.05848 -0.04109,0.165142 -0.06045,0.215778 l -0.01636,0.04129 c -0.02332,0.06246 -0.04571,0.120529 -0.08887,0.156289 -0.119988,0.109104 -0.311497,0.195907 -0.611578,0.32633 -0.463839,0.202899 -1.216352,0.331937 -1.915047,0.327496 -0.250243,-0.0058 -0.492004,-0.03335 -0.704293,-0.05816 -0.435675,-0.04921 -0.790166,-0.08911 -1.00631,0.06726 a 2.9999406,2.9999406 0 0 0 2.25804,1.030524 2.9999406,2.9999406 0 0 0 2.999941,-2.999991 2.9999406,2.9999406 0 0 0 -2.999941,-2.999989 z m 0.669122,1.740672 c -0.234811,-0.0076 -0.458715,0.07539 -0.630378,0.23564 -0.171581,0.159736 -0.269774,0.377504 -0.278469,0.612173 -0.01622,0.484088 0.36384,0.891966 0.847518,0.909824 0.23588,0.008 0.459296,-0.07498 0.630973,-0.236225 0.171145,-0.159236 0.269335,-0.37702 0.278463,-0.6116726 C 12.504949,9.234106 12.124433,8.825348 11.640228,8.808037 Z m -0.0074,0.258894 c 0.338382,0.01198 0.603294,0.296265 0.591935,0.6345494 -0.0055,0.1631346 -0.07402,0.3143666 -0.193592,0.4265156 -0.11972,0.111627 -0.27619,0.169675 -0.440368,0.164715 -0.337601,-0.01246 -0.602552,-0.297039 -0.591139,-0.6353896 0.0052,-0.1637464 0.07515,-0.3149924 0.194165,-0.4266194 0.119025,-0.111627 0.274753,-0.169661 0.439018,-0.163742 z m 0.100299,0.307628 c -0.150351,0 -0.271779,0.08092 -0.271779,0.181581 0,0.09968 0.121428,0.1810914 0.271779,0.1810914 0.150258,0 0.272169,-0.08136 0.272169,-0.1810914 0,-0.100682 -0.121823,-0.181581 -0.272169,-0.181581 z"
     id="path3000"
     style="fill:#ffffff;stroke-width:0.0496088" />
  <path
     d="m 7.114101,5.562681 v 9.214286 H 7.542674 V 5.562681 c 0,0.118715 -0.09556,0.214286 -0.214288,0.214286 -0.118712,0 -0.214285,-0.09556 -0.214285,-0.214286 z"
     fill="#588f1c"
     id="path3006"
     style="stroke-width:0.428572" />
</svg>
