<?xml version="1.0" encoding="UTF-8" standalone="no"?>
<svg
   viewBox="0 0 64 64"
   version="1.1"
   id="svg12"
   sodipodi:docname="folder-gimp.svg"
   inkscape:version="1.3.2 (091e20ef0f, 2023-11-25)"
   xmlns:inkscape="http://www.inkscape.org/namespaces/inkscape"
   xmlns:sodipodi="http://sodipodi.sourceforge.net/DTD/sodipodi-0.dtd"
   xmlns:xlink="http://www.w3.org/1999/xlink"
   xmlns="http://www.w3.org/2000/svg"
   xmlns:svg="http://www.w3.org/2000/svg"
   xmlns:rdf="http://www.w3.org/1999/02/22-rdf-syntax-ns#"
   xmlns:cc="http://creativecommons.org/ns#"
   xmlns:dc="http://purl.org/dc/elements/1.1/">
  <metadata
     id="metadata16">
    <rdf:RDF>
      <cc:Work
         rdf:about="">
        <dc:format>image/svg+xml</dc:format>
        <dc:type
           rdf:resource="http://purl.org/dc/dcmitype/StillImage" />
      </cc:Work>
    </rdf:RDF>
  </metadata>
  <sodipodi:namedview
     pagecolor="#ffffff"
     bordercolor="#666666"
     borderopacity="1"
     objecttolerance="10"
     gridtolerance="10"
     guidetolerance="10"
     inkscape:pageopacity="0"
     inkscape:pageshadow="2"
     inkscape:window-width="1920"
     inkscape:window-height="996"
     id="namedview14"
     showgrid="false"
     inkscape:zoom="5.2149125"
     inkscape:cx="47.555927"
     inkscape:cy="39.118585"
     inkscape:window-x="0"
     inkscape:window-y="0"
     inkscape:window-maximized="1"
     inkscape:current-layer="svg12"
     inkscape:showpageshadow="2"
     inkscape:pagecheckerboard="0"
     inkscape:deskcolor="#d1d1d1">
    <inkscape:grid
       type="xygrid"
       id="grid2873"
       originx="0"
       originy="0"
       spacingy="1"
       spacingx="1"
       units="px"
       visible="false" />
  </sodipodi:namedview>
  <defs
     id="defs3051">
    <style
       type="text/css"
       id="current-color-scheme">.ColorScheme-Text { color:#31363b; }
.ColorScheme-Background { color:#eff0f1; }
.ColorScheme-Highlight { color:#3daee9; }
.ColorScheme-ViewText { color:#31363b; }
.ColorScheme-ViewBackground { color:#fcfcfc; }
.ColorScheme-ViewHover { color:#93cee9; }
.ColorScheme-ViewFocus { color:#3daee9; }
.ColorScheme-ButtonText { color:#31363b; }
.ColorScheme-ButtonBackground { color:#eff0f1; }
.ColorScheme-ButtonHover { color:#93cee9; }
.ColorScheme-ButtonFocus { color:#3daee9; }
</style>
    <linearGradient
       inkscape:collect="always"
       id="linearGradient4393">
      <stop
         style="stop-color:#000000;stop-opacity:1;"
         offset="0"
         id="stop4395" />
      <stop
         style="stop-color:#000000;stop-opacity:0;"
         offset="1"
         id="stop4397" />
    </linearGradient>
    <linearGradient
       inkscape:collect="always"
       xlink:href="#linearGradient4393"
       id="linearGradient668"
       gradientUnits="userSpaceOnUse"
       gradientTransform="matrix(3.6204685,0,0,3.4670854,3.00004,-3590.6227)"
       x1="5"
       y1="1037.3622"
       x2="8"
       y2="1051.3622" />
  </defs>
  <path
     inkscape:connector-curvature="0"
     style="fill:currentColor;fill-opacity:1;stroke-width:3.54293"
     id="rect4180-6-7"
     d="m 4,32 h 55.999586 l 4.1e-4,-18.6 c 0,-2 -2.1,-3.9 -4.1,-3.9 L 31.999786,9.46667 28.374806,6 H 7.99997 C 5.999985,6 4,8 4,10 Z"
     sodipodi:nodetypes="ccccccccc"
     class="ColorScheme-Highlight" />
  <path
     inkscape:connector-curvature="0"
     style="fill:#a1b4ba;fill-opacity:1;stroke-width:3.54294"
     d="m 3,23 c 0,-11.262012 0,2.953607 0,3.93041 V 54 c 0,2 2,4 4,4 h 49.999996 c 2,0 4,-2 4,-4 V 20 c 0,-1 -1,-2 -2,-2 h -34 L 20,22 H 4 c -1,0 -1,1 -1,1 z"
     id="rect4113-2-5"
     sodipodi:nodetypes="cccscccccccc" />
  <path
     inkscape:connector-curvature="0"
     style="opacity:0.3;fill:#0f608a;fill-opacity:1;fill-rule:evenodd;stroke-width:1.77147"
     id="path4224-9-3"
     d="m 4,22 v 0 h 2 14 l 4.999996,-4 v 0 L 19.4,21 H 5.018103 C 4,21 4,22 4,22 Z"
     sodipodi:nodetypes="ccccccccc" />
  <path
     inkscape:connector-curvature="0"
     style="color:#31363b;opacity:0.3;fill:#ffffff;fill-opacity:1;fill-rule:evenodd;stroke-width:3.54294"
     id="path4196-3-5"
     d="m 28.374956,6 3.62506,5.5 h 27.34998 c -0.33,-0.5 -1.35,-2 -3.75,-2 L 31.999966,9.46774 Z"
     sodipodi:nodetypes="cccccc"
     class="ColorScheme-Text" />
  <path
     style="color:#000000;clip-rule:nonzero;display:inline;overflow:visible;visibility:visible;opacity:0.2;isolation:auto;mix-blend-mode:normal;color-interpolation:sRGB;color-interpolation-filters:linearRGB;solid-color:#000000;solid-opacity:1;fill:#000000;fill-opacity:1;fill-rule:nonzero;stroke:none;stroke-width:3.54294;stroke-linecap:butt;stroke-linejoin:miter;stroke-miterlimit:4;stroke-dasharray:none;stroke-dashoffset:0;stroke-opacity:1;marker:none;color-rendering:auto;image-rendering:auto;shape-rendering:auto;text-rendering:auto;enable-background:accumulate"
     d="M 3,51.11291 V 54 c 0,2 2,4 4,4 h 49.999996 c 2,0 4,-2 4,-4 l -0.009,-2.82577 c -0.024,1.78743 -1.88271,3.39324 -3.69826,3.35853 H 6.64205 c -1.80475,0 -3.64147,-1.66854 -3.64147,-3.41985 z"
     id="path9304-6"
     inkscape:connector-curvature="0"
     sodipodi:nodetypes="cssccccscc" />
  <path
     style="opacity:0.181;fill:url(#linearGradient668);fill-opacity:1;fill-rule:evenodd;stroke:none;stroke-width:3.54294px;stroke-linecap:butt;stroke-linejoin:miter;stroke-opacity:1"
     d="m 3,27 28.963736,27.53972 h 28.96374 L 60.999976,27 Z"
     id="path4152-2"
     inkscape:connector-curvature="0"
     sodipodi:nodetypes="ccccc" />
  <path
     d="m 43.556615,28.661362 c -0.101561,-0.889519 -0.181897,-1.592069 -0.682839,-1.657352 -0.454561,-0.0573 -0.736428,0.501382 -1.095038,1.556544 -0.770404,2.270202 -2.989643,4.097644 -5.677861,4.697614 -0.472552,-0.306428 -1.020269,-0.48495 -1.605565,-0.48495 -0.68285,0 -1.314921,0.240697 -1.834654,0.647487 -2.433938,-0.236704 -4.213016,-3.087332 -4.231011,-3.117084 l -0.730818,-1.194168 v 5.541833 c -0.176712,0.314861 -0.300648,0.667026 -0.359012,1.044059 -1.023472,-0.764726 -2.217654,-0.936589 -3.068813,-0.320633 -0.486148,0.352166 -0.804785,0.905062 -0.921927,1.599622 -0.170306,1.010311 0.107183,2.169838 0.761604,3.181473 0.775601,1.199504 1.919806,1.899378 2.950078,1.930924 v 0 c 0.689643,0.636838 1.845434,1.542284 2.911284,2.07698 2.000566,1.004505 3.8636,1.50324 5.538734,1.502808 2.43154,0 4.325062,-0.95395 5.807112,-3.033178 2.818782,-3.546045 2.520494,-11.73567 2.238726,-13.972024 z m -6.662542,7.664597 c 0,1.469504 -1.075846,2.664556 -2.398761,2.664556 -1.322916,0 -2.398762,-1.195052 -2.398762,-2.664556 0,-1.469501 1.075846,-2.664557 2.398762,-2.664557 1.322915,0 2.398761,1.195056 2.398761,2.664557 z m -8.405654,0.611071 c -0.116737,-0.180745 -0.243873,-0.347279 -0.375805,-0.505375 -0.0084,-0.08128 -0.01403,-0.162533 -0.01403,-0.244253 0,-1.14798 0.871945,-2.081906 1.943793,-2.081906 0.601287,0 1.159401,0.299318 1.524812,0.795812 -0.172706,0.436545 -0.270258,0.91794 -0.270258,1.424651 0,0.418778 0.06876,0.818908 0.189104,1.192389 -0.389825,0.654149 -0.910357,1.028074 -1.453277,1.028074 -0.337825,0 -0.670851,-0.150549 -0.971097,-0.424998 -0.135548,-0.405455 -0.327841,-0.805137 -0.573315,-1.184394 z m -3.728466,2.700535 c -0.519731,-0.803814 -0.753211,-1.738186 -0.624878,-2.499803 0.05275,-0.313975 0.195098,-0.745631 0.572507,-1.018753 0.220279,-0.159432 0.48175,-0.234478 0.7628,-0.234478 0.788795,0 1.734301,0.590201 2.368772,1.570758 0.519335,0.803362 0.75321,1.737288 0.624878,2.498907 -0.05274,0.314408 -0.195101,0.746076 -0.572504,1.01963 -0.837168,0.606633 -2.271229,-0.0057 -3.131575,-1.336261 z m 15.507649,2.348354 c -2.708692,2.7697 -5.408043,2.9066 -9.966519,0.744335 -0.650566,-0.409591 -1.098226,-0.658252 -1.690542,-1.324143 l 0.141109,-0.156334 c 0.332136,-0.492453 0.31895,-0.524394 0.498368,-1.132164 0.04561,-0.270431 0.05635,-0.551549 0.0392,-0.837546 0.241077,0.09726 0.48935,0.154532 0.743616,0.154532 0.696439,0 1.349701,-0.376585 1.863037,-1.046718 0.5805,0.900622 1.528007,1.490816 2.599457,1.490816 1.763486,0 3.198338,-1.593846 3.198338,-3.552738 0,-0.905952 -0.390757,-1.734417 -0.390757,-1.734417 3.116767,-1.33821 3.812013,-2.258224 5.047489,-3.961422 v 0 0 c 0,0 0.461978,7.069991 -2.057372,11.112574 z"
     id="path2"
     sodipodi:nodetypes="ccccscccccccccccccccsssssccsscscscccsccccccsccccccccccscsscc"
     style="color:#e4e4e4;fill:#002d3c;fill-opacity:1;stroke-width:0.885251"
     class="ColorScheme-Text" />
  <path
     d="m 24.435932,35.116172 a 1.0895576,1.4203284 0 1 0 0,2.840655 1.0895576,1.4203284 0 1 0 0,-2.840655 z"
     id="path4"
     style="color:#e4e4e4;fill:#002d3c;fill-opacity:1;stroke-width:0.22883"
     class="ColorScheme-Text" />
  <path
     d="m 34.060984,34.710366 c -0.0418,0 -0.08023,0.0093 -0.120921,0.01334 0.34321,0.06489 0.605426,0.396069 0.605426,0.798225 0,0.44801 -0.32541,0.811616 -0.72637,0.811616 -0.400959,0 -0.72637,-0.363606 -0.72637,-0.811616 0,-0.219543 0.07877,-0.418387 0.20593,-0.564479 -0.413311,0.286501 -0.690424,0.793352 -0.690424,1.376095 0,0.896429 0.650463,1.62323 1.452747,1.62323 0.802278,0 1.452739,-0.726801 1.452739,-1.62323 0,-0.896428 -0.650461,-1.623231 -1.452739,-1.623231 z"
     id="path6"
     style="color:#e4e4e4;fill:#002d3c;fill-opacity:1;stroke-width:0.22883"
     class="ColorScheme-Text" />
  <path
     d="m 29.884345,34.710366 c -0.03596,0 -0.07007,0.0082 -0.105702,0.0117 0.300355,0.05679 0.529887,0.346557 0.529887,0.698394 0,0.39201 -0.284735,0.710165 -0.635576,0.710165 -0.350838,0 -0.635574,-0.318155 -0.635574,-0.710165 0,-0.191946 0.06902,-0.36604 0.180139,-0.493867 -0.361732,0.250795 -0.60434,0.693939 -0.60434,1.204037 0,0.784426 0.569112,1.420329 1.27115,1.420329 0.702039,0 1.27115,-0.635903 1.27115,-1.420329 0,-0.784427 -0.569111,-1.420328 -1.27115,-1.420328 z"
     id="path8"
     style="color:#e4e4e4;fill:#002d3c;fill-opacity:1;stroke-width:0.22883"
     class="ColorScheme-Text" />
  <path
     d="m 43.830793,42.996971 c -0.543587,-0.619265 -1.305621,-0.751573 -1.896926,-0.329526 -0.0075,0.0054 -0.0102,0.0103 -0.01652,0.01415 -0.652844,-0.55167 -1.654872,-1.188786 -2.83218,-1.76382 -0.83094,-0.405762 -0.0455,-0.258207 -0.730091,-0.467605 l -2.115959,1.216589 c 0,0 0.433486,0.395823 2.0275,1.174571 1.118646,0.546217 2.172625,0.926861 2.976339,1.106234 -0.0329,0.31937 -10e-4,0.665934 0.102042,1.018175 0.354854,1.213371 2.394577,1.839123 2.626074,1.906475 L 44.410421,47 l 7.18e-4,-0.520244 c 0.001,-0.66025 -0.03755,-2.863383 -0.580358,-3.482645 z"
     id="path10"
     style="color:#e4e4e4;fill:#002d3c;fill-opacity:1;stroke-width:0.795693"
     sodipodi:nodetypes="cccccccccccccc"
     class="ColorScheme-Text" />
  <path
     d="m 32.516712,41.059975 c 0,0 5.540401,0.398906 5.540401,-1.010458 0,-0.70043 -0.404229,-1.42561 -0.404229,-1.42561 0,0 1.62198,0.960953 1.376119,2.240468 -0.03784,0.196005 -0.114389,0.400123 -0.240437,0.61074 -1.213049,2.018893 -6.271854,-0.41514 -6.271854,-0.41514 z"
     id="path12"
     style="color:#e4e4e4;fill:#002d3c;fill-opacity:1;stroke-width:0.22883"
     class="ColorScheme-Text" />
</svg>
