<?xml version="1.0" encoding="UTF-8" standalone="no"?>
<svg
   width="22"
   height="22"
   viewBox="0 0 22 22"
   fill="none"
   version="1.1"
   id="svg2"
   sodipodi:docname="elisa-symbolic.svg"
   inkscape:version="1.3.2 (091e20ef0f, 2023-11-25)"
   xmlns:inkscape="http://www.inkscape.org/namespaces/inkscape"
   xmlns:sodipodi="http://sodipodi.sourceforge.net/DTD/sodipodi-0.dtd"
   xmlns="http://www.w3.org/2000/svg"
   xmlns:svg="http://www.w3.org/2000/svg">
  <defs
     id="defs2" />
  <sodipodi:namedview
     id="namedview2"
     pagecolor="#ffffff"
     bordercolor="#999999"
     borderopacity="1"
     inkscape:showpageshadow="2"
     inkscape:pageopacity="0"
     inkscape:pagecheckerboard="0"
     inkscape:deskcolor="#d1d1d1"
     inkscape:zoom="16.83798"
     inkscape:cx="10.868287"
     inkscape:cy="11.462183"
     inkscape:window-width="1920"
     inkscape:window-height="996"
     inkscape:window-x="0"
     inkscape:window-y="0"
     inkscape:window-maximized="1"
     inkscape:current-layer="svg2" />
  <style
     type="text/css"
     id="current-color-scheme">.ColorScheme-Text { color: #fcfcfc; }
</style>
  <g
     id="22-22-elisa-3">
    <path
       style="fill:none"
       d="M 0,0 V 22 H 22 V 0 Z"
       id="path11" />
    <path
       style="stop-color:#31363b;stroke-opacity:1;stroke-dasharray:none;stroke-miterlimit:4;stroke-linecap:round;stroke-width:1.06919;stroke:currentColor;fill-opacity:1;fill:none;"
       sodipodi:type="arc"
       sodipodi:cx="-11.000719"
       sodipodi:cy="-11.000964"
       sodipodi:rx="7.4665084"
       sodipodi:ry="7.466681"
       sodipodi:start="5.0000678"
       sodipodi:end="2.393564"
       sodipodi:arc-type="arc"
       transform="scale(-1)"
       d="m -8.8822676,-18.160802 a 7.4665084,7.466681 0 0 1 5.3356928,6.730315 7.4665084,7.466681 0 0 1 -4.5273537,7.298644 7.4665084,7.466681 0 0 1 -8.3999745,-1.7903219"
       id="path7-7"
       class="ColorScheme-Text "
       sodipodi:open="true" />
    <path
       d="m 15.0002,11.00098 v 1.999788 h -0.999938 c -0.795413,0 -1.558422,0.31595 -2.120925,0.878639 -0.562642,0.562515 -0.878618,1.325323 -0.878618,2.120979 0,0.795656 0.315936,1.558457 0.878618,2.120979 0.562503,0.562649 1.325466,0.878638 2.120925,0.878638 0.795598,0 1.558428,-0.315949 2.12111,-0.878638 0.562503,-0.562522 0.878439,-1.325323 0.878439,-2.120979 v -4.99936 h 1.999742 V 9.0012362 h -1.999742 c -0.530235,0 -1.038813,0.210811 -1.413892,0.585686 -0.375046,0.3750548 -0.585672,0.8836838 -0.585672,1.4141038 z m 0,4.999359 c 0,0.26521 -0.105483,0.519441 -0.292919,0.707055 -0.187436,0.187441 -0.441829,0.292754 -0.707039,0.292754 -0.265197,0 -0.51943,-0.105313 -0.707033,-0.292754 -0.187436,-0.187614 -0.292753,-0.441838 -0.292753,-0.707055 0,-0.265216 0.105317,-0.519442 0.292753,-0.707049 0.18761,-0.187441 0.441823,-0.29276 0.707033,-0.29276 H 15 Z"
       id="path3434-5"
       style="stroke-width:0.0446366;fill-opacity:1;fill:currentColor;"
       class="ColorScheme-Text" />
    <path
       d="m 12.333838,11.001039 c 0,0.736204 -0.596851,1.33307 -1.333038,1.33307 -0.736354,0 -1.333199,-0.596866 -1.333199,-1.33307 0,-0.73637 0.596845,-1.3332278 1.333199,-1.3332278 0.736187,0 1.333038,0.5968578 1.333038,1.3332278"
       id="path3436-6-3"
       style="stroke-width:0.0396766;fill-opacity:1;fill:currentColor;"
       class="ColorScheme-Text" />
  </g>
</svg>
