<?xml version="1.0" encoding="UTF-8"?>
<svg height="16px" viewBox="0 0 16 16" width="16px" xmlns="http://www.w3.org/2000/svg">
    <path d="m 58.847578 73.999912 h -12.179683 v -27.99999 h 11.808589 c 6.734373 0 12.191402 5.460936 12.191402 12.195308 v 3.984374 c 0 6.527341 -5.28906 11.820308 -11.820308 11.820308 z m 0 0" fill="none" stroke="#ffffff" stroke-width="8"/>
    <path d="m 2.5 2 c -1.367188 0 -2.5 1.132812 -2.5 2.5 v 7 c 0 1.367188 1.132812 2.5 2.5 2.5 h 5.5 v -2 h -2.5 c -0.277344 0 -0.5 -0.222656 -0.5 -0.5 v -1 c 0 -0.277344 0.222656 -0.5 0.5 -0.5 h 2.5 v -1.5 c 0 0.277344 -0.222656 0.5 -0.5 0.5 h -1 c -0.277344 0 -0.5 -0.222656 -0.5 -0.5 v -1 c 0 -0.277344 0.222656 -0.5 0.5 -0.5 h 1 c 0.277344 0 0.5 0.222656 0.5 0.5 v 0.5 c 0 -0.941406 0.617188 -1.734375 1.46875 -2 h -0.96875 c -0.277344 0 -0.5 -0.222656 -0.5 -0.5 v -1 c 0 -0.277344 0.222656 -0.5 0.5 -0.5 h 1 c 0.277344 0 0.5 0.222656 0.5 0.5 v 1 c 0 0.191406 -0.109375 0.355469 -0.269531 0.4375 c 0.121093 -0.019531 0.238281 -0.03125 0.363281 -0.03125 h 1.117188 c -0.128907 -0.089844 -0.210938 -0.238281 -0.210938 -0.40625 v -1 c 0 -0.277344 0.222656 -0.5 0.5 -0.5 h 1 c 0.277344 0 0.5 0.222656 0.5 0.5 v 1 c 0 0.167969 -0.082031 0.316406 -0.210938 0.40625 h 3.210938 v -1.40625 c 0 -1.367188 -1.132812 -2.5 -2.5 -2.5 z m 0 2 h 1 c 0.277344 0 0.5 0.222656 0.5 0.5 v 1 c 0 0.277344 -0.222656 0.5 -0.5 0.5 h -1 c -0.277344 0 -0.5 -0.222656 -0.5 -0.5 v -1 c 0 -0.242188 0.171875 -0.445312 0.398438 -0.488281 c 0.03125 -0.007813 0.066406 -0.011719 0.101562 -0.011719 z m 3 0 h 1 c 0.277344 0 0.5 0.222656 0.5 0.5 v 1 c 0 0.277344 -0.222656 0.5 -0.5 0.5 h -1 c -0.277344 0 -0.5 -0.222656 -0.5 -0.5 v -1 c 0 -0.277344 0.222656 -0.5 0.5 -0.5 z m -2 3 h 1 c 0.277344 0 0.5 0.222656 0.5 0.5 v 1 c 0 0.277344 -0.222656 0.5 -0.5 0.5 h -1 c -0.277344 0 -0.5 -0.222656 -0.5 -0.5 v -1 c 0 -0.277344 0.222656 -0.5 0.5 -0.5 z m -1 3 h 1 c 0.277344 0 0.5 0.222656 0.5 0.5 v 1 c 0 0.277344 -0.222656 0.5 -0.5 0.5 h -1 c -0.277344 0 -0.5 -0.222656 -0.5 -0.5 v -1 c 0 -0.277344 0.222656 -0.5 0.5 -0.5 z m 0 0"/>
    <path d="m 13.125 16 c 1.742188 0 2.824219 -1.011719 2.875 -2.546875 h -1.839844 c -0.074218 0.65625 -0.46875 1.015625 -1.007812 1.015625 c -0.695313 0 -1.144532 -0.582031 -1.144532 -1.6875 c 0 -1.09375 0.453126 -1.675781 1.144532 -1.675781 c 0.5625 0 0.929687 0.382812 1.007812 1.015625 h 1.839844 c -0.042969 -1.527344 -1.15625 -2.519532 -2.878906 -2.519532 c -1.945313 0 -3.121094 1.300782 -3.121094 3.203126 c 0 1.890624 1.167969 3.195312 3.125 3.195312 z m -0.792969 -8.921875 h -1.652343 v 0.054687 l 1.746093 1.808594 h 1.414063 l 1.742187 -1.808594 v -0.054687 h -1.648437 l -0.800782 0.9375 z m 0 0"/>
</svg>
