<?xml version="1.0" encoding="UTF-8" standalone="no"?>
<svg
   viewBox="0 0 22 22"
   version="1.1"
   id="svg1"
   sodipodi:docname="compass.svg"
   width="22"
   height="22"
   inkscape:version="1.3.2 (091e20ef0f, 2023-11-25)"
   xmlns:inkscape="http://www.inkscape.org/namespaces/inkscape"
   xmlns:sodipodi="http://sodipodi.sourceforge.net/DTD/sodipodi-0.dtd"
   xmlns="http://www.w3.org/2000/svg"
   xmlns:svg="http://www.w3.org/2000/svg">
  <sodipodi:namedview
     id="namedview1"
     pagecolor="#ffffff"
     bordercolor="#999999"
     borderopacity="1"
     inkscape:showpageshadow="2"
     inkscape:pageopacity="0"
     inkscape:pagecheckerboard="0"
     inkscape:deskcolor="#d1d1d1"
     inkscape:zoom="10.482736"
     inkscape:cx="11.256603"
     inkscape:cy="36.345473"
     inkscape:window-width="1920"
     inkscape:window-height="994"
     inkscape:window-x="0"
     inkscape:window-y="0"
     inkscape:window-maximized="1"
     inkscape:current-layer="svg1" />
  <defs
     id="defs3051">
    <style
       type="text/css"
       id="current-color-scheme">
            .ColorScheme-Text {
                color:#d8d8d8;
            }
        </style>
  </defs>
  <g
     id="22-22-compass"
     transform="translate(-32,-9.9999997)">
    <path
       style="clip-rule:evenodd;fill:#ffffc1;fill-opacity:0;fill-rule:evenodd;stroke-width:0.688964;stroke-linejoin:round;stroke-miterlimit:1.41421"
       d="M 32,9.9999997 V 32 H 54 V 9.9999997 Z"
       id="rect817-5"
       inkscape:connector-curvature="0" />
    <path
       d="M 43.000008,14 C 42.448553,14 42,14.448724 42,15.000165 42,15.551417 42.448556,16 43.000008,16 43.551268,16 44,15.551457 44,15.000165 44,14.448719 43.551259,14 43.000008,14"
       fill-rule="evenodd"
       id="path1168-7-1"
       style="fill:#bac8df;fill-opacity:1;stroke-width:0.0494299" />
    <path
       d="m 43,25.999954 c -0.55127,0 -1.000008,0.448734 -1.000008,1.000188 C 41.999992,27.551406 42.448744,28 43,28 c 0.551464,0 0.999992,-0.448554 0.999992,-0.999858 0,-0.551458 -0.448541,-1.000188 -0.999992,-1.000188"
       fill-rule="evenodd"
       id="path1170-5-2"
       style="fill:#bac8df;fill-opacity:1;stroke-width:0.0494305" />
    <path
       d="m 42.54931,18.368988 -5.000001,-2.871827 2.865682,5 c 0.04588,-1.157522 0.976915,-2.086626 2.134225,-2.128038"
       fill-rule="evenodd"
       id="path1172-3-7"
       style="fill:#bac8df;fill-opacity:1;stroke-width:0.0443095" />
    <path
       d="m 45.000007,21.126702 c 0,-1.104628 -0.895464,-2.000084 -1.99994,-2.000084 -1.104627,0 -2.000061,0.895456 -2.000061,2.000084 0,1.104471 0.895434,1.999916 2.000061,1.999916 1.104476,0 1.99994,-0.895445 1.99994,-1.999916"
       fill-rule="evenodd"
       id="path1174-5-0"
       style="fill:#bac8df;fill-opacity:1;stroke-width:0.0399568" />
    <path
       d="m 43.57211,23.757635 5,2.871828 -2.86567,-5 c -0.0457,1.157522 -0.976759,2.086629 -2.13423,2.128039"
       fill-rule="evenodd"
       id="path1176-6-9"
       style="fill:#bac8df;fill-opacity:1;stroke-width:0.0443095" />
    <path
       style="color:#d6dbf1;fill:none;fill-opacity:1;stroke:#bac8df;stroke-width:1.33671;stroke-linecap:round;stroke-miterlimit:4;stroke-dasharray:none;stroke-opacity:1;stop-color:#31363b"
       sodipodi:type="arc"
       sodipodi:cx="-21.000006"
       sodipodi:cy="43"
       sodipodi:rx="9.3346281"
       sodipodi:ry="9.3346281"
       sodipodi:start="3.7596615"
       sodipodi:end="3.7574109"
       sodipodi:open="true"
       sodipodi:arc-type="arc"
       transform="rotate(-90)"
       d="m -28.607718,37.590934 a 9.3346281,9.3346281 0 0 1 13.012497,-2.201689 9.3346281,9.3346281 0 0 1 2.20901,13.011256 9.3346281,9.3346281 0 0 1 -13.010011,2.216331 9.3346281,9.3346281 0 0 1 -2.223651,-13.008762"
       id="path7-3"
       class="ColorScheme-Text" />
  </g>
</svg>
