<?xml version="1.0" encoding="UTF-8" standalone="no"?>
<svg
   viewBox="0 0 22 22"
   version="1.1"
   id="svg1"
   sodipodi:docname="configure.svg"
   inkscape:version="1.3.2 (091e20ef0f, 2023-11-25)"
   width="22"
   height="22"
   xmlns:inkscape="http://www.inkscape.org/namespaces/inkscape"
   xmlns:sodipodi="http://sodipodi.sourceforge.net/DTD/sodipodi-0.dtd"
   xmlns="http://www.w3.org/2000/svg"
   xmlns:svg="http://www.w3.org/2000/svg">
  <sodipodi:namedview
     id="namedview1"
     pagecolor="#ffffff"
     bordercolor="#999999"
     borderopacity="1"
     inkscape:showpageshadow="2"
     inkscape:pageopacity="0"
     inkscape:pagecheckerboard="0"
     inkscape:deskcolor="#d1d1d1"
     inkscape:zoom="12.245804"
     inkscape:cx="11.024184"
     inkscape:cy="11.024184"
     inkscape:window-width="1920"
     inkscape:window-height="996"
     inkscape:window-x="0"
     inkscape:window-y="0"
     inkscape:window-maximized="1"
     inkscape:current-layer="svg1" />
  <defs
     id="defs3051">
    <style
       type="text/css"
       id="current-color-scheme">
.ColorScheme-Highlight { 
    color:#3daee9;
}
.ColorScheme-Text { color: #fcfcfc; }
</style>
  </defs>
  <g
     id="22-22-configure">
    <path
       id="path9"
       d="M 0,0 V 22 H 22 V 0 Z"
       fill="none" />
    <path
       d="m 13.700203,10.888076 c 0,1.554225 -1.258381,2.812841 -2.812349,2.812841 -1.552653,0 -2.812355,-1.258616 -2.812355,-2.812841 0,-1.552985 1.259702,-2.8127656 2.812355,-2.8127656 1.553968,0 2.812349,1.2597806 2.812349,2.8127656 z"
       id="path72-3-75-6"
       style="stroke-width:0.0334841;fill-opacity:1;fill:currentColor;"
       class="ColorScheme-Highlight" />
    <path
       d="M 10.424486,2.0001009 C 9.728446,2.0000886 9.061591,2.2594744 8.570564,2.7192833 8.079536,3.1790379 7.8040476,3.8030907 7.8073837,4.4517181 V 4.435775 C 7.8009659,4.8867988 7.4247277,5.2313213 6.9413048,5.2332691 6.8035672,5.2306857 6.669136,5.1967289 6.5502842,5.1309861 l -0.00641,-0.00326 -0.00488,-0.00326 C 5.2910424,4.4584769 3.6749737,4.8651527 2.9573364,6.0258384 l -0.6053985,0.926951 -0.00513,0.00796 C 1.6299891,8.1200372 2.0609893,9.625041 3.3020396,10.297778 h 0.00176 v 0.0015 c 0.2702604,0.145387 0.4356127,0.410695 0.4356127,0.70161 0,0.290774 -0.1653562,0.556218 -0.4356127,0.701597 -1.2413797,0.669217 -1.6737082,2.173048 -0.9569722,3.330626 l 0.00176,0.0017 0.5676685,0.91416 c 0.3384909,0.569201 0.9077825,0.988829 1.5795212,1.16668 0.6717359,0.177969 1.392287,0.09926 2.001411,-0.218961 l 0.00641,-0.0033 0.0062,-0.0033 c 0.1967007,-0.10693 0.4297837,-0.136384 0.649987,-0.0815 0.220083,0.05492 0.4065001,0.189629 0.5196467,0.373971 l 0.00288,0.0049 0.00288,0.0065 c 0.071478,0.112151 0.1100204,0.238713 0.1114753,0.369185 v -0.01001 c 7.2e-6,1.341767 1.1858189,2.446863 2.6256789,2.446863 h 1.145711 c 1.435178,2.3e-4 2.620569,-1.098223 2.627391,-2.435533 v -0.0033 -0.0049 c -0.0012,-0.214863 0.08934,-0.418856 0.2521,-0.57056 0.16139,-0.150387 0.37883,-0.23295 0.607117,-0.233326 0.144078,0.0058 0.28454,0.04192 0.40989,0.108679 l -0.002,-0.0017 c 1.243228,0.667482 2.856651,0.266328 3.579221,-0.888594 l 0.600247,-0.931736 0.0034,-0.0049 c 0.350475,-0.560642 0.445333,-1.228386 0.265826,-1.855488 h 0.002 c -0.179645,-0.625171 -0.621253,-1.16087 -1.224707,-1.484423 -0.199003,-0.106653 -0.343801,-0.282114 -0.403026,-0.489042 -0.05916,-0.206666 -0.02814,-0.425721 0.08747,-0.610511 l 0.002,-0.0028 0.002,-0.0028 c 0.0738,-0.120119 0.181084,-0.218534 0.31031,-0.287521 l 0.0034,-0.0015 0.0034,-0.0026 C 19.927093,9.62536 20.357169,8.1303925 19.648653,6.9735945 l 0.115156,0.405858 V 7.1521529 L 19.649275,6.9619637 19.079892,6.0430153 C 18.36333,4.8814367 16.747269,4.4747401 15.500041,5.1407087 l -0.0034,0.00198 -0.0047,0.00326 c -0.197226,0.1083105 -0.431518,0.1383311 -0.653294,0.084677 -0.22178,-0.053637 -0.41058,-0.1865404 -0.526527,-0.3707758 l -0.0019,-0.00198 -0.0019,-0.00198 C 14.236025,4.7437866 14.199155,4.6156743 14.197687,4.4851658 l -0.0019,0.031973 C 14.216323,3.8563381 13.949454,3.215513 13.455024,2.7415565 12.960625,2.2676097 12.279567,1.9997186 11.570252,2.0000002 Z m 0,1.6365392 h 1.147338 c 0.235375,-9.15e-5 0.46014,0.088795 0.624267,0.2461211 0.164104,0.1573143 0.25203,0.3689033 0.245248,0.5881328 v 0.015944 0.015938 c 0.0044,0.4178589 0.128106,0.8262858 0.356721,1.1858485 2.79e-4,4.569e-4 -2.92e-4,0.00124 0,0.00178 0.351694,0.556363 0.925777,0.9611972 1.596673,1.1235213 0.672477,0.1626987 1.389086,0.069744 1.987689,-0.2589042 l -0.01036,0.0047 c 0.425113,-0.2269808 0.942246,-0.096717 1.18683,0.2988502 l 0.451137,0.7271696 v 0.00796 l 0.114906,0.1885838 c 0.241293,0.3939614 0.104586,0.8721379 -0.315558,1.1011499 l 0.0066,-0.00292 C 17.417547,9.0932596 17.08824,9.40266 16.859092,9.773904 16.509969,10.33401 16.412376,11.001841 16.59155,11.6278 c 0.179424,0.626918 0.619089,1.162682 1.222799,1.486307 0.199078,0.106736 0.343844,0.280653 0.403031,0.487446 v 0.0017 c 0.05897,0.206038 0.0274,0.424198 -0.08745,0.608907 -2.99e-4,4.75e-4 3e-4,0.0011 0,0.0017 l -0.60025,0.930146 -0.0033,0.0049 c -0.245983,0.393987 -0.761149,0.52322 -1.185086,0.295614 l -0.002,-0.0017 h -0.002 c -0.380393,-0.203144 -0.80782,-0.315381 -1.246361,-0.326372 h -0.01042 -0.01036 c -0.698098,-0.0032 -1.368681,0.254215 -1.862498,0.714384 -0.493605,0.460115 -0.769776,1.085137 -0.766611,1.735627 v -0.01001 c -0.0023,0.455492 -0.380629,0.807066 -0.869548,0.807014 H 10.42324 c -0.490812,0 -0.869511,-0.353006 -0.869511,-0.81028 v -0.0049 -0.0033 C 9.551129,17.131479 9.426362,16.724328 9.200051,16.366182 8.854287,15.806098 8.285163,15.395209 7.6153179,15.228212 6.9435484,15.060729 6.2267155,15.149192 5.6259106,15.475929 l 0.013722,-0.0065 c -0.202134,0.105597 -0.4408182,0.132565 -0.6636857,0.07351 v -0.0017 C 4.7530505,15.482611 4.565168,15.345325 4.4528419,15.156443 l -0.00344,-0.01 -0.5813996,-0.931576 v -0.0016 C 3.6265131,13.822923 3.7637289,13.34634 4.183581,13.120003 c 0.8106753,-0.436584 1.311981,-1.246683 1.311981,-2.11919 0,-0.871777 -0.5008682,-1.680731 -1.3102661,-2.1175941 -0.4223057,-0.2284321 -0.560223,-0.7091403 -0.317273,-1.103857 3.096e-4,-5.051e-4 -3.125e-4,-0.00114 0,-0.00178 L 4.47342,6.8506346 4.47857,6.8426746 C 4.7232121,6.4472204 5.2404234,6.3169462 5.6654418,6.5438987 l -0.012007,-0.00641 C 6.0395479,6.7510428 6.480037,6.8672661 6.9293995,6.871508 h 0.00288 0.00488 C 8.362825,6.8716688 9.542354,5.7867328 9.562805,4.4582762 v -0.00648 -0.00821 C 9.562012,4.2294604 9.651455,4.0243852 9.813398,3.8727937 9.975247,3.7212297 10.194477,3.6362554 10.423942,3.6362589 Z"
       id="path1715-7"
       style="stroke-width:0.900072;fill-opacity:1;fill:currentColor;"
       class="ColorScheme-Text" />
  </g>
</svg>
