<?xml version="1.0" encoding="UTF-8" standalone="no"?>
<svg
   width="24"
   height="24"
   viewBox="0 0 24 24"
   version="1.1"
   id="svg2"
   sodipodi:docname="notification-disabled.svg"
   inkscape:version="1.3.2 (091e20ef0f, 2023-11-25)"
   xmlns:inkscape="http://www.inkscape.org/namespaces/inkscape"
   xmlns:sodipodi="http://sodipodi.sourceforge.net/DTD/sodipodi-0.dtd"
   xmlns="http://www.w3.org/2000/svg"
   xmlns:svg="http://www.w3.org/2000/svg">
  <defs
     id="defs2" />
  <sodipodi:namedview
     id="namedview2"
     pagecolor="#ffffff"
     bordercolor="#999999"
     borderopacity="1"
     inkscape:showpageshadow="2"
     inkscape:pageopacity="0"
     inkscape:pagecheckerboard="0"
     inkscape:deskcolor="#d1d1d1"
     showgrid="false"
     inkscape:zoom="11.22532"
     inkscape:cx="8.7302634"
     inkscape:cy="13.451732"
     inkscape:window-width="1920"
     inkscape:window-height="996"
     inkscape:window-x="0"
     inkscape:window-y="0"
     inkscape:window-maximized="1"
     inkscape:current-layer="svg2">
    <inkscape:grid
       id="grid2"
       units="px"
       originx="0"
       originy="0"
       spacingx="1"
       spacingy="1"
       empcolor="#0099e5"
       empopacity="0.30196078"
       color="#0099e5"
       opacity="0.14902"
       empspacing="5"
       dotted="false"
       gridanglex="30"
       gridanglez="30"
       visible="false" />
  </sodipodi:namedview>
  <style
     type="text/css"
     id="current-color-scheme">.ColorScheme-Text { color:#bac8df; }
.ColorScheme-ButtonFocus { color:#3daee9; }
.ColorScheme-NegativeText { color: #da4453; }
</style>
  <g
     id="22-22-notifications-disabled"
     transform="matrix(3.7795277,0,0,3.7795277,0.96142018,-1099.5285)">
    <rect
       ry="1.2988282e-06"
       y="291.18149"
       x="0.010207531"
       height="5.8208332"
       width="5.8208332"
       id="rect1383-5"
       style="opacity:0.003;fill:#ff1f1f;fill-opacity:1;stroke:none;stroke-width:0.10795;stroke-miterlimit:4;stroke-dasharray:none;stroke-opacity:1" />
    <path
       d="m 0.98031948,295.41475 c 0.09742,0 0.17638192,-0.0787 0.17638192,-0.17638 0,-0.10821 0.05285,-0.2096 0.141523,-0.27161 l 0.135916,-0.0949 c 0.268289,-0.18754 0.428112,-0.49422 0.428112,-0.8216 v -0.73402 c 0,-0.54576 0.442401,-0.9882 0.988141,-0.9882 h 0.151467 c 0.229922,0 0.447176,0.0793 0.620885,0.2226 0.07517,0.062 0.186339,0.0511 0.248284,-0.0239 0.06196,-0.0753 0.05126,-0.18635 -0.0239,-0.24825 -0.23631,-0.19485 -0.532677,-0.30325 -0.845234,-0.30325 h -0.151468 c -0.740574,0 -1.340921,0.60035 -1.340921,1.34096 v 0.73407 c 0,0.21217 -0.103571,0.41086 -0.27744,0.53239 l -0.135917,0.095 c -0.1831109,0.12798 -0.2921919,0.33733 -0.2921919,0.56076 0,0.0974 0.07898,0.17637 0.17638798,0.17637 z"
       id="path2212-6"
       style="stroke-width:0.176388;fill-opacity:1;fill:currentColor;"
       class="ColorScheme-Text" />
    <path
       fill-rule="evenodd"
       clip-rule="evenodd"
       d="m 3.0087804,296.20852 c 0.311002,0 0.568301,-0.22998 0.611108,-0.52916 h 0.976378 c 0.243539,0 0.44097,-0.19747 0.44097,-0.44099 0,-0.22258 -0.106257,-0.43179 -0.286015,-0.5631 l -0.139115,-0.10155 c -0.176232,-0.12875 -0.280425,-0.33385 -0.280425,-0.55211 v -0.23974 c 0,-0.0974 -0.07897,-0.17641 -0.176385,-0.17641 -0.09743,0 -0.176388,0.0787 -0.176388,0.17641 v 0.23974 c 0,0.33083 0.157956,0.64178 0.425128,0.83695 l 0.13912,0.10162 c 0.08878,0.0653 0.141306,0.16819 0.141306,0.27819 0,0.0491 -0.0395,0.0879 -0.08818,0.0879 h -2.162052 c -0.09742,0 -0.176393,0.0787 -0.176393,0.17635 0,0.0847 0.05969,0.15549 0.139299,0.17247 0.04111,0.30112 0.299288,0.53312 0.611656,0.53312 z m 0,-0.35278 c -0.115201,0 -0.213204,-0.0739 -0.249524,-0.17638 h 0.499039 c -0.03632,0.10274 -0.134318,0.17638 -0.249515,0.17638 z"
       id="path2214-7"
       style="stroke-width:0.176388;fill-opacity:1;fill:currentColor;"
       class="ColorScheme-Text" />
    <path
       d="m 1.0319745,295.73099 c -0.06893,0.0687 -0.06893,0.18057 0,0.24949 0.06892,0.0687 0.1805689,0.0687 0.2494539,0 l 3.527758,-3.52778 c 0.06892,-0.0687 0.06892,-0.18055 0,-0.24947 -0.06892,-0.0686 -0.180569,-0.0686 -0.249449,0 z"
       id="path2216-5"
       style="stroke-width:0.176388;fill-opacity:1;fill:currentColor;"
       class="ColorScheme-Text" />
  </g>
</svg>
