<?xml version="1.0" encoding="UTF-8" standalone="no"?>
<svg
   viewBox="0 0 22 22"
   version="1.1"
   id="svg1"
   sodipodi:docname="system-lock-screen.svg"
   width="22"
   height="22"
   inkscape:version="1.3.2 (091e20ef0f, 2023-11-25)"
   xmlns:inkscape="http://www.inkscape.org/namespaces/inkscape"
   xmlns:sodipodi="http://sodipodi.sourceforge.net/DTD/sodipodi-0.dtd"
   xmlns="http://www.w3.org/2000/svg"
   xmlns:svg="http://www.w3.org/2000/svg">
  <sodipodi:namedview
     id="namedview1"
     pagecolor="#ffffff"
     bordercolor="#999999"
     borderopacity="1"
     inkscape:showpageshadow="2"
     inkscape:pageopacity="0"
     inkscape:pagecheckerboard="0"
     inkscape:deskcolor="#d1d1d1"
     inkscape:zoom="8.6590909"
     inkscape:cx="-18.708661"
     inkscape:cy="20.209974"
     inkscape:window-width="1920"
     inkscape:window-height="996"
     inkscape:window-x="0"
     inkscape:window-y="0"
     inkscape:window-maximized="1"
     inkscape:current-layer="svg1" />
  <defs
     id="defs3051">
    <style
       type="text/css"
       id="current-color-scheme">.ColorScheme-Text { color:#fcfcfc; }
</style>
  </defs>
  <g
     id="22-22-system-lock-screen"
     transform="translate(-100,-44)">
    <path
       style="fill:none"
       d="m 100,44 v 22 h 22 V 44 Z"
       id="path19" />
    <path
       d="m 113.33179,50.12785 c -0.59229,-0.592301 -1.41046,-0.961182 -2.30971,-0.961182 -0.87672,0 -1.68818,0.358103 -2.27299,0.935251 l -0.0369,0.02589 c -0.59231,0.592283 -0.96119,1.413823 -0.96119,2.309705 v 1.345196 l -0.0913,1.51e-4 c -0.34382,0 -0.64998,0.138928 -0.87757,0.369708 v 0.0039 c -0.22674,0.226853 -0.36551,0.533854 -0.36551,0.873454 v 4.557657 c 0,0.34381 0.13892,0.65756 0.3655,0.88092 0.22675,0.23012 0.53375,0.36546 0.87758,0.36546 h 6.72527 c 0.32128,0 0.62155,-0.12039 0.84746,-0.33284 l 0.0369,-0.0323 c 0.21919,-0.22337 0.36553,-0.53711 0.36553,-0.88096 v -4.557623 c 0,-0.339625 -0.14636,-0.646604 -0.36553,-0.876709 -0.2301,-0.230986 -0.54044,-0.369761 -0.88427,-0.369761 h -0.0878 v -1.346083 c 0,-0.895213 -0.36566,-1.717565 -0.96536,-2.308995 z m -4.55009,2.308996 c 0,-0.613987 0.25938,-1.176307 0.66175,-1.578646 l 0.0216,-0.02591 c 0.40152,-0.391586 0.9578,-0.635816 1.5568,-0.635816 0.62155,0 1.17698,0.25181 1.58692,0.661732 0.40151,0.401511 0.65416,0.964512 0.65416,1.578645 v 1.345199 h -4.48123 z m 5.60344,2.375816 c 0.0586,0 0.11289,0.02925 0.15308,0.06613 0.0369,0.04349 0.0619,0.09538 0.0619,0.149718 v 4.5576 c 0,0.0583 -0.025,0.11367 -0.0619,0.153 l -0.0143,0.0142 c -0.0403,0.0298 -0.0878,0.0443 -0.13893,0.0443 l -6.72491,-1.5e-4 c -0.051,0 -0.10966,-0.017 -0.14636,-0.0583 -0.0435,-0.0402 -0.0652,-0.0952 -0.0652,-0.15315 v -4.55754 c 0,-0.06276 0.0216,-0.112876 0.0652,-0.14971 0.0369,-0.03685 0.0954,-0.06613 0.14636,-0.06613 h 6.72528 z"
       id="path7208-6-6"
       style="fill-opacity:1;fill:currentColor;"
       class="ColorScheme-Text " />
    <path
       style="stop-color:#31363b;stroke-opacity:1;stroke-dasharray:none;stroke-miterlimit:4;stroke-linecap:round;stroke-width:1.33674;stroke:currentColor;fill-opacity:1;fill:none;"
       sodipodi:type="arc"
       sodipodi:cx="-111"
       sodipodi:cy="-55.000008"
       sodipodi:rx="9.3346167"
       sodipodi:ry="9.3346167"
       sodipodi:start="3.7596615"
       sodipodi:end="3.7574109"
       sodipodi:open="true"
       sodipodi:arc-type="arc"
       transform="scale(-1)"
       d="m -118.6077,-60.409067 a 9.3346167,9.3346167 0 0 1 13.01248,-2.201686 9.3346167,9.3346167 0 0 1 2.20901,13.01124 9.3346167,9.3346167 0 0 1 -13.01,2.216328 9.3346167,9.3346167 0 0 1 -2.22365,-13.008746"
       id="path7-3-0-2"
       class="ColorScheme-Text " />
    <path
       d="m 111.82686,56.434268 c 0.15009,0.218685 0.20724,0.488062 0.15864,0.748747 -0.0488,0.260748 -0.19899,0.491533 -0.41782,0.6416 -0.21898,0.149976 -0.48868,0.207039 -0.74978,0.158489 -0.261,-0.04851 -0.492,-0.198714 -0.64226,-0.417356 -0.15014,-0.218696 -0.20734,-0.488057 -0.15874,-0.748821 0.049,-0.260675 0.199,-0.491476 0.4179,-0.641537 0.21892,-0.149973 0.48869,-0.207039 0.7497,-0.1585 0.261,0.0485 0.49205,0.19872 0.64236,0.417378 z"
       id="path1348-7-6-3-6"
       style="stroke-width:0.0176105;fill-opacity:1;fill:currentColor;"
       class="ColorScheme-Text" />
  </g>
</svg>
