<?xml version="1.0" encoding="UTF-8" standalone="no"?>
<svg
   width="22"
   height="22"
   version="1.1"
   id="svg6"
   sodipodi:docname="system-user-list.svg"
   inkscape:version="1.3.2 (091e20ef0f, 2023-11-25)"
   xmlns:inkscape="http://www.inkscape.org/namespaces/inkscape"
   xmlns:sodipodi="http://sodipodi.sourceforge.net/DTD/sodipodi-0.dtd"
   xmlns="http://www.w3.org/2000/svg"
   xmlns:svg="http://www.w3.org/2000/svg">
  <defs
     id="defs10">
    <linearGradient
       id="a-5"
       x1="16"
       x2="16"
       y1="1"
       y2="31"
       gradientUnits="userSpaceOnUse">
      <stop
         stop-color="#f4282c"
         offset="0"
         id="stop1009" />
      <stop
         stop-color="#fac136"
         offset="1"
         id="stop1011" />
    </linearGradient>
  </defs>
  <sodipodi:namedview
     id="namedview8"
     pagecolor="#ffffff"
     bordercolor="#000000"
     borderopacity="0.25"
     inkscape:showpageshadow="2"
     inkscape:pageopacity="0.0"
     inkscape:pagecheckerboard="0"
     inkscape:deskcolor="#d1d1d1"
     showgrid="false"
     inkscape:zoom="12.422581"
     inkscape:cx="-11.430797"
     inkscape:cy="10.70631"
     inkscape:window-width="1920"
     inkscape:window-height="996"
     inkscape:window-x="0"
     inkscape:window-y="0"
     inkscape:window-maximized="1"
     inkscape:current-layer="svg6" />
  <style
     type="text/css"
     id="current-color-scheme">.ColorScheme-Text { color:#d8d8d8; }
</style>
  <g
     style="stroke-width:1.45455"
     id="22-22-system-user-list-1"
     transform="matrix(0.6875,0,0,0.6875,-15.125,0)">
    <path
       style="stroke-width:1.66235;stroke:none;fill-opacity:1;fill:currentColor;"
       d="m 45.488129,9.3506524 c -0.428032,0 -0.823357,0.118435 -1.175324,0.308443 2.2e-4,0.0019 -0.108874,0.06682 -0.108558,0.06907 0.13116,1.6601856 -0.285093,2.7164236 -0.76011,3.5412586 0.452639,0.644006 1.198201,1.068213 2.043981,1.068213 1.172343,0 2.155534,-0.809132 2.422075,-1.89935 0.04653,-0.190448 0.07151,-0.389374 0.07151,-0.594164 -1.4e-5,-1.377127 -1.116398,-2.4934976 -2.493504,-2.4934976 z m -14.968602,0 c 0.428043,0 0.823356,0.118435 1.175322,0.308443 -2.08e-4,0.0019 0.108881,0.06682 0.108564,0.06907 -0.13116,1.6601856 0.285084,2.7164236 0.760094,3.5412586 -0.452637,0.644006 -1.198196,1.068213 -2.043975,1.068213 -1.172347,0 -2.155534,-0.809132 -2.422077,-1.89935 -0.04653,-0.190448 -0.0715,-0.389374 -0.0715,-0.594164 1.4e-5,-1.377127 1.116389,-2.4934976 2.493503,-2.4934976 z m -4.7e-5,6.6493266 c 1.401688,0 2.631095,0.646313 3.383128,1.688313 -0.422022,0.223699 -0.851441,0.498543 -1.223982,0.720761 -0.409553,-0.483039 -1.17144,-0.74673 -2.159146,-0.74673 -1.496514,0 -2.493505,1.098055 -2.493505,3.324684 h 2.077922 l -0.831169,1.662341 h -2.909093 l 1e-6,-2.525991 c 1e-6,-2.392053 1.853728,-4.123378 4.155844,-4.123378 z m 14.961041,1.9e-5 c -1.401688,0 -2.631105,0.646309 -3.383128,1.688308 0.422022,0.223704 0.85143,0.498542 1.223982,0.720761 0.409553,-0.483039 1.171428,-0.746729 2.159146,-0.746729 1.496518,0 2.4935,1.135866 2.4935,3.324669 H 45.8961 l 0.831168,1.662341 h 2.909094 l 2e-6,-2.525975 c 2e-6,-2.392054 -1.853723,-4.123375 -4.155843,-4.123375 z m -7.480525,3.324669 c 3.32467,0 6.649351,1.66234 6.649351,6.649355 H 31.35065 c 0,-4.987015 3.32467,-6.649355 6.649346,-6.649355 z m 0,-1.662331 c -4.834545,0 -8.298541,3.399228 -8.308361,8.311686 l -0.0029,1.662341 h 16.623351 l -0.0029,-1.662341 c -0.01016,-4.938646 -3.473896,-8.311686 -8.308418,-8.311686 z m 8.9e-5,-13.2986994 c -3.213354,0 -5.818231,2.6048781 -5.818231,5.8181794 0,3.213306 2.604877,5.818182 5.818231,5.818182 2.735492,0 5.03005,-1.887765 5.651997,-4.431611 0.108558,-0.444365 0.166249,-0.90874 0.166249,-1.386571 0,-3.2133013 -2.604936,-5.8181794 -5.818246,-5.8181794 z"
       id="path340-1-2-8"
       class="ColorScheme-Text " />
    <path
       style="opacity:1;fill:none"
       d="M 22,0 V 32 H 54 V 0 Z"
       id="path84-3-7-7" />
  </g>
</svg>
