<?xml version="1.0" encoding="UTF-8" standalone="no"?>
<svg
   width="22"
   height="22"
   version="1.1"
   id="svg1"
   sodipodi:docname="akonadi-symbolic.svg"
   inkscape:version="1.3.2 (091e20ef0f, 2023-11-25)"
   xmlns:inkscape="http://www.inkscape.org/namespaces/inkscape"
   xmlns:sodipodi="http://sodipodi.sourceforge.net/DTD/sodipodi-0.dtd"
   xmlns="http://www.w3.org/2000/svg"
   xmlns:svg="http://www.w3.org/2000/svg">
  <defs
     id="defs1" />
  <sodipodi:namedview
     id="namedview1"
     pagecolor="#ffffff"
     bordercolor="#999999"
     borderopacity="1"
     inkscape:showpageshadow="2"
     inkscape:pageopacity="0"
     inkscape:pagecheckerboard="0"
     inkscape:deskcolor="#d1d1d1"
     inkscape:zoom="12.245804"
     inkscape:cx="10.942524"
     inkscape:cy="11.432487"
     inkscape:window-width="1920"
     inkscape:window-height="996"
     inkscape:window-x="0"
     inkscape:window-y="0"
     inkscape:window-maximized="1"
     inkscape:current-layer="svg1" />
  <style
     type="text/css"
     id="current-color-scheme">.ColorScheme-Text { color: #fcfcfc; }
</style>
  <g
     id="22-22-akonadi">
    <path
       style="opacity:0.00100002;fill:#e5e9ef;fill-opacity:1"
       d="M 0,0 H 22 V 22 H 0 Z"
       id="path2" />
    <path
       id="rect4192-3"
       inkscape:connector-curvature="0"
       d="M 11.000025,3 C 6.567959,3 3,6.56802 3,11.000026 c 0,0.04947 0.0064,0.09693 0.0074,0.145907 C 3.0054,11.200733 3,11.253954 3,11.309193 3,12.029646 3.128349,12.71888 3.352505,13.361246 4.35553,16.633234 7.39089,19 11.000025,19 15.432291,19 19.000049,15.43214 19.000049,11.00008 19.000049,6.56802 15.432291,3 11.000025,3 Z m 0,1.777799 c 3.44715,0 6.222134,2.775171 6.222134,6.222227 0,3.420361 -2.732729,6.176028 -6.142299,6.218841 2.105231,-0.664901 3.719724,-2.414513 4.185781,-4.602407 -1.13528,1.30896 -2.808755,2.13866 -4.685932,2.13866 -2.654429,0 -4.901476,-1.654013 -5.78971,-3.98946 0.123579,-3.336421 2.842186,-5.987861 6.210026,-5.987861 z"
       style="stroke-width:0.0513398;fill-opacity:1;fill:currentColor;"
       sodipodi:nodetypes="sscscsssssccscs"
       class="ColorScheme-Text" />
  </g>
</svg>
