<?xml version="1.0" encoding="UTF-8" standalone="no"?>
<svg
   width="22"
   height="22"
   version="1.1"
   id="svg12"
   sodipodi:docname="amarok-symbolic.svg"
   inkscape:version="1.3.2 (091e20ef0f, 2023-11-25)"
   xmlns:inkscape="http://www.inkscape.org/namespaces/inkscape"
   xmlns:sodipodi="http://sodipodi.sourceforge.net/DTD/sodipodi-0.dtd"
   xmlns="http://www.w3.org/2000/svg"
   xmlns:svg="http://www.w3.org/2000/svg"
   xmlns:rdf="http://www.w3.org/1999/02/22-rdf-syntax-ns#"
   xmlns:cc="http://creativecommons.org/ns#"
   xmlns:dc="http://purl.org/dc/elements/1.1/">
  <style
     id="current-color-scheme"
     type="text/css">.ColorScheme-Text { color:#d6dbf1; }
</style>
  <metadata
     id="metadata18">
    <rdf:RDF>
      <cc:Work
         rdf:about="">
        <dc:format>image/svg+xml</dc:format>
        <dc:type
           rdf:resource="http://purl.org/dc/dcmitype/StillImage" />
      </cc:Work>
    </rdf:RDF>
  </metadata>
  <defs
     id="defs16">
    <linearGradient
       id="oomox"
       x1="0"
       x2="0"
       y1="0"
       y2="16"
       gradientUnits="userSpaceOnUse"
       gradientTransform="matrix(1.5000001,0,0,1.5000001,3.999995,3.9999999)">
      <stop
         offset="0%"
         style="stop-color:#303b3d; stop-opacity:1"
         id="stop18" />
      <stop
         offset="100%"
         style="stop-color:#bc985d; stop-opacity:1"
         id="stop20" />
    </linearGradient>
    <linearGradient
       id="oomox-3"
       x1="0.81322718"
       x2="0.81322718"
       y1="0.49186769"
       y2="15.247891"
       gradientTransform="matrix(0.98373494,0,0,1.016534,5.9966823,11.726037)"
       gradientUnits="userSpaceOnUse">
      <stop
         offset="0%"
         style="stop-color:#303b3d; stop-opacity:1"
         id="stop18-6" />
      <stop
         offset="100%"
         style="stop-color:#bc985d; stop-opacity:1"
         id="stop20-7" />
    </linearGradient>
  </defs>
  <sodipodi:namedview
     pagecolor="#201933"
     bordercolor="#000000"
     borderopacity="1"
     objecttolerance="10"
     gridtolerance="10"
     guidetolerance="10"
     inkscape:pageopacity="0"
     inkscape:pageshadow="2"
     inkscape:window-width="1920"
     inkscape:window-height="996"
     id="namedview14"
     showgrid="true"
     inkscape:zoom="9.8125"
     inkscape:cx="0.81528662"
     inkscape:cy="12.535032"
     inkscape:window-x="0"
     inkscape:window-y="0"
     inkscape:window-maximized="1"
     inkscape:current-layer="svg12"
     inkscape:document-rotation="0"
     inkscape:lockguides="true"
     inkscape:showpageshadow="true"
     inkscape:pagecheckerboard="true"
     inkscape:deskcolor="#201933">
    <inkscape:grid
       type="xygrid"
       id="grid889"
       originx="6.0319996"
       originy="0.36100101"
       spacingy="1"
       spacingx="1"
       units="px"
       visible="true" />
  </sodipodi:namedview>
  <g
     id="22-22-amarok"
     transform="translate(-32,-10.000001)">
    <path
       style="opacity:0.00100002;fill:#a8aeca;fill-opacity:1"
       d="m 32,10.000001 v 22 h 22 v -22 z"
       id="path4" />
    <path
       style="stroke-width:1;fill-opacity:1;fill:currentColor;"
       class="ColorScheme-Text "
       d="m 43,13.000001 c -4.424,0 -8,3.576 -8,7.999999 0,4.424 3.576,8.000001 8,8.000001 4.423997,0 7.999997,-3.576001 7.999997,-8.000002 0,-4.423998 -3.576,-7.999998 -7.999997,-7.999998 z m 0,1 c 3.870004,0 6.999997,3.129999 6.999997,6.999999 0,3.869998 -3.129993,7.000001 -6.999997,7.000001 -3.869999,0 -7,-3.130004 -7,-7.000002 0,-3.869999 3.130001,-6.999998 7,-6.999998 z M 43.750001,19.719 v 0 0 0 0 0 c 0,0 -0.03396,0.008 0,0 z m -0.781009,4.5 z"
       id="path58-9-36"
       sodipodi:nodetypes="ssssssssssccccccccccccccccc" />
    <path
       d="m 48.875339,19.958599 c -0.01007,-0.09032 -0.0954,-0.150542 -0.185726,-0.135488 -0.07274,0.0125 -0.145555,0.02512 -0.218288,0.03765 l -0.168134,-0.421598 c -0.02003,-0.04768 -0.09032,-0.04518 -0.10293,0.0053 l -0.133036,0.48682 c -0.958651,0.173123 -1.734042,0.301161 -1.929829,0.08533 -0.173124,-0.190715 0.702638,-1.264806 1.066583,-2.434206 l 0.421595,0.195704 c 0.05015,0.02259 0.102931,-0.02756 0.08035,-0.07781 l -0.313687,-0.69789 c 0.06022,-0.368918 -0.06022,-0.559639 -0.160608,-0.941059 -0.281041,-0.96862 -1.284864,0.150542 -1.284864,0.150542 0,0 -2.002558,1.375179 -2.145668,1.463056 -1.0565,-0.06025 -1.15437,-0.07527 -3.272434,2.123074 -1.22719,0.381421 -1.603524,0.08788 -1.952411,0.233339 -0.09785,0.04015 0.431678,1.249748 1.555911,1.28486 0,0 -0.750341,1.038908 -2.803245,1.41282 0.406561,0.53468 1.026408,0.579852 1.026408,0.579852 0,0 -0.943595,0.316219 -1.962474,0.318682 -0.06521,0 -0.0828,0.09032 -0.02258,0.115444 0.198244,0.07781 0.399032,0.135486 0.584758,0.18065 0.341248,0.08534 0.697664,0.08534 1.04644,0.0828 0.3438,-0.0027 0.685048,-0.05015 1.016325,-0.145553 0.660018,-0.188176 1.209576,-0.549555 1.666281,-1.056494 0.203233,-0.225809 0.406563,-0.464235 0.584759,-0.712719 0.188178,-0.258456 0.333742,-0.602257 0.1305,-0.893357 -0.0027,-0.0027 -0.0027,-0.0027 -0.0027,-0.0053 -0.336274,-0.494324 -1.716522,-0.612226 -1.701487,-0.62484 0.233339,-0.208308 1.053969,-0.336271 1.279868,-0.3438 0.245953,-0.0075 0.644964,-0.0053 0.89336,-0.153078 0.06521,-0.112908 0.456707,-0.594728 0.557086,-0.685048 0.248486,-0.230896 0.537058,-0.436652 0.868332,-0.521996 0.208309,-0.05521 0.429124,-0.07527 0.624843,-0.17566 0.140563,-0.07274 0.265985,-0.173125 0.383976,-0.281042 -0.604789,0.203232 -0.976151,-0.0027 -0.933533,-0.01506 0.05521,-0.01758 0.42415,-0.283572 0.767928,-0.245952 0.18319,0.02003 0.371362,-0.02003 0.526995,-0.117981 0.06023,-0.03765 0.112907,-0.07781 0.150543,-0.10538 0.203232,-0.208308 0.396479,-0.421593 0.592286,-0.637433 0.311158,-0.346331 0.68505,-0.622376 1.006266,-0.956116 0.0125,-0.01505 0.03013,-0.01252 0.04262,-0.005 0.01007,-0.0075 0.0251,-0.01252 0.03765,0 0.140565,0.107917 0.331278,0.07028 0.496881,0.06774 0.02756,0 0.03765,0.02258 0.03509,0.04516 0,0.0025 0.0027,0.0075 0.0027,0.01007 0.02259,0.682605 -0.311154,1.289837 -0.705191,1.824448 -0.190714,0.260988 -0.712721,1.061492 -1.043997,1.967466 0.203233,0.40909 1.350158,0.521994 0.908417,1.084076 -0.107917,0.138028 -0.248487,0.245954 -0.391504,0.3438 -0.682606,0.469298 -2.411585,2.486861 0.429123,4.642561 0.0828,0.06275 0.198246,-0.01008 0.178201,-0.110456 -0.446735,-2.298649 0.396477,-4.055295 0.396477,-4.055295 0,0 0.233339,-0.800506 0.943594,-1.096669 0.642613,-0.270982 1.19217,-0.574607 1.131964,-1.089053 z"
       id="path67-3-5"
       style="stroke-width:0.0224059;fill-opacity:1;fill:currentColor;"
       class="ColorScheme-Text " />
  </g>
</svg>
