<?xml version="1.0" encoding="UTF-8" standalone="no"?>
<svg
   width="22"
   height="22"
   version="1"
   id="svg14"
   sodipodi:docname="antimicro-symbolic.svg"
   inkscape:version="1.3.2 (091e20ef0f, 2023-11-25)"
   xmlns:inkscape="http://www.inkscape.org/namespaces/inkscape"
   xmlns:sodipodi="http://sodipodi.sourceforge.net/DTD/sodipodi-0.dtd"
   xmlns="http://www.w3.org/2000/svg"
   xmlns:svg="http://www.w3.org/2000/svg">
  <style
     id="current-color-scheme"
     type="text/css">.ColorScheme-Text { color:#eceff4; }
</style>
  <g
     id="22-22-antimicro"
     style="fill:#bac8df;fill-opacity:1">
    <rect
       style="opacity:0.00100002;fill:#bac8df;fill-opacity:1"
       width="22"
       height="22"
       x="0"
       y="0"
       id="rect9" />
    <path
       d="m 21.831457,15.213374 c -0.130587,0.468443 -0.473623,0.739726 -0.929823,0.60564 -0.456376,-0.133926 -0.454451,-0.622351 -0.324038,-1.090971 0.146704,-0.526356 0.134654,-1.080809 -0.03387,-1.603199 L 18.608864,7.1317539 C 18.248511,6.0150999 16.971069,4.855464 15.825358,4.855464 H 5.9103268 c -1.1458894,0 -2.1573837,1.1596359 -2.5179176,2.2762899 L 1.3910888,13.124845 c -0.2235775,0.692842 -0.038048,1.573825 0.2815405,2.232714 0.319065,0.658372 1.196044,1.419279 1.8665923,1.647639 0.6685374,0.227497 1.6513262,0.03285 2.2854473,-0.29968 0.6352962,-0.333149 1.1089161,-1.17139 1.3333302,-1.866305 l 0.126824,-0.394177 c 0.358525,-1.110443 1.0996189,-1.584312 2.2389655,-1.584312 h 2.9534094 c 1.13952,0 1.880025,0.473869 2.238535,1.584312 l 0.127488,0.394177 c 0.361036,1.116256 1.661297,2.305575 2.783181,2.30541 0.215349,0 0.431191,-0.02773 0.641344,-0.08192 0.46041,-0.118254 0.927017,-0.103656 1.042307,0.368866 0.115306,0.472771 -0.164477,0.815746 -0.624871,0.934158 C 18.338574,18.454777 17.982404,18.5 17.626569,18.5 c -0.911077,0 -1.788913,-0.293688 -2.538677,-0.849518 -0.758499,-0.562371 -1.315404,-1.342432 -1.610328,-2.256048 l -0.127217,-0.394153 c -0.12505,-0.387252 -0.475836,-0.64733 -0.87297,-0.64733 H 9.5239609 c -0.3972896,0 -0.7480894,0.260078 -0.8731374,0.647185 L 8.5235966,15.394461 C 8.1561797,16.532478 7.3810673,17.459544 6.3407489,18.005034 5.2939005,18.55397 4.1070525,18.648415 2.9984275,18.270961 1.8901404,17.893692 0.99065404,17.08985 0.46596293,16.007503 -0.05720662,14.92843 -0.14297823,13.707502 0.22460015,12.569482 L 2.1593655,6.57637 C 2.7533773,4.7362566 4.420934,3.5 6.3088671,3.5 h 9.3834419 c 1.887943,0 3.555655,1.2362566 4.149661,3.076436 l 1.934786,5.993103 c 0.277767,0.860709 0.296743,1.774846 0.05461,2.643835 z M 15.082186,6.676573 c -0.474501,0 -0.859203,0.3950309 -0.859203,0.8824278 0,0.4872232 0.384702,0.8822517 0.859203,0.8822517 0.474679,0 0.859372,-0.3950285 0.859372,-0.8822517 0,-0.4873969 -0.384693,-0.8824278 -0.859372,-0.8824278 z m 0,5.294222 c 0.474679,0 0.859372,-0.395013 0.859372,-0.882428 0,-0.48723 -0.384693,-0.882256 -0.859371,-0.882256 -0.474501,0 -0.859202,0.395026 -0.859202,0.882256 0,0.487229 0.384701,0.882428 0.859201,0.882428 z M 13.363621,8.4412525 c -0.47451,0 -0.859215,0.3950354 -0.859215,0.8824308 0,0.4874116 0.384705,0.8824277 0.859215,0.8824277 0.474663,0 0.859362,-0.3950161 0.859362,-0.8824277 0,-0.4873954 -0.384699,-0.8824308 -0.859362,-0.8824308 z m 3.437311,1.7648585 c 0.474508,0 0.859208,-0.3950161 0.859208,-0.8824277 0,-0.4873954 -0.3847,-0.8824308 -0.859208,-0.8824308 -0.474661,0 -0.859375,0.3950354 -0.859375,0.8824308 0,0.4872175 0.384714,0.8824277 0.859375,0.8824277 z m -9.8821185,1.764684 c 0.4746715,0 0.8593817,-0.395013 0.8593817,-0.882428 v -0.882256 h 0.8592022 c 0.47467,0 0.8593695,-0.3950161 0.8593695,-0.8824277 0,-0.4873954 -0.3846995,-0.8824308 -0.8593695,-0.8824308 H 7.7781952 V 7.5590008 c 0,-0.4873969 -0.3847093,-0.8824278 -0.8593817,-0.8824278 -0.4744924,0 -0.8592009,0.3950309 -0.8592009,0.8824278 V 8.4412525 H 5.2002404 c -0.4745036,0 -0.8593706,0.3950354 -0.8593706,0.8824308 0,0.4874116 0.384867,0.8824277 0.8593706,0.8824277 h 0.8593722 v 0.882256 c 0,0.487229 0.3847085,0.882428 0.8592009,0.882428 z"
       id="path2-36-7"
       style="stroke-width:0.0435423;fill-opacity:1;fill:currentColor;"
       sodipodi:nodetypes="cccccsscccccccsscsccccscccssccsccccssccccsssssssssssssssssssssscssscssscssscss"
       class="ColorScheme-Text " />
    <ellipse
       cx="20.852835"
       cy="17.189526"
       id="circle4-5-5"
       style="fill:#bac8df;fill-opacity:1;stroke-width:0.0453126"
       rx="0.67075753"
       ry="0.68875307"
       class="ColorScheme-Text" />
  </g>
  <sodipodi:namedview
     id="namedview16"
     pagecolor="#201933"
     bordercolor="#000000"
     borderopacity="1"
     inkscape:showpageshadow="true"
     inkscape:pageopacity="0"
     inkscape:pagecheckerboard="true"
     inkscape:deskcolor="#201933"
     showgrid="true"
     inkscape:zoom="10.429825"
     inkscape:cx="9.7796464"
     inkscape:cy="8.5332208"
     inkscape:window-width="1920"
     inkscape:window-height="996"
     inkscape:window-x="0"
     inkscape:window-y="0"
     inkscape:window-maximized="1"
     inkscape:current-layer="svg14">
    <inkscape:grid
       type="xygrid"
       id="grid1266"
       originx="-37.999997"
       originy="-10"
       spacingy="1"
       spacingx="1"
       units="px"
       visible="true" />
  </sodipodi:namedview>
  <defs
     id="defs5">
    <style
       type="text/css"
       id="style646" />
  </defs>
</svg>
