<?xml version="1.0" encoding="UTF-8" standalone="no"?>
<svg
   width="22"
   height="22"
   version="1"
   id="svg1154"
   sodipodi:docname="cadence-symbolic.svg"
   inkscape:version="1.3.2 (091e20ef0f, 2023-11-25)"
   xmlns:inkscape="http://www.inkscape.org/namespaces/inkscape"
   xmlns:sodipodi="http://sodipodi.sourceforge.net/DTD/sodipodi-0.dtd"
   xmlns="http://www.w3.org/2000/svg"
   xmlns:svg="http://www.w3.org/2000/svg">
  <style
     id="current-color-scheme"
     type="text/css">.ColorScheme-Text { color:#d1d5e9; }
</style>
  <g
     id="22-22-cadence"
     style="fill:#d3dae3;fill-opacity:1">
    <rect
       style="opacity:0.00100002;fill:#d3dae3;fill-opacity:1"
       width="22"
       height="22"
       x="0"
       y="0"
       id="rect1144" />
    <path
       style="stroke-width:0.995603;fill-opacity:1;fill:currentColor;"
       class="ColorScheme-Text "
       d="M 10.964822,3 C 6.560275,3 3,6.560275 3,10.964821 c 0,4.404548 3.560275,7.964823 7.964822,7.964823 4.404547,0 7.964822,-3.560275 7.964822,-7.964823 C 18.929644,6.560275 15.369369,3 10.964822,3 Z m 0,0.995603 c 3.85297,0 6.969219,3.116236 6.969219,6.969218 0,3.852971 -3.116249,6.96922 -6.969219,6.96922 -3.852996,0 -6.969219,-3.116249 -6.969219,-6.96922 0,-3.852982 3.116223,-6.969218 6.969219,-6.969218 z m 0.746689,5.693851 v 0 0 0 0 0 c 0,0 -0.03379,0.008 0,0 z m -0.77756,4.480215 z"
       id="path58-3"
       sodipodi:nodetypes="ssssssssssccccccccccccccccc" />
    <path
       style="stroke-width:0.625012;fill-opacity:1;fill:currentColor;"
       d="m 10.825175,6.000007 c -0.56561,0.0094 -1.4281336,0.140955 -1.6516396,0.384529 -0.23836,0.259762 -0.289991,0.624959 -0.223396,1.029072 0.126964,0.770431 1.1908776,1.714991 1.8213196,2.564748 -0.0045,0.0045 -0.0093,0.01129 -0.01337,0.01707 -0.317556,0.395177 -0.9798506,0.757687 -1.2890926,1.064474 0.04989,-0.224523 0.08575,-0.718411 0.094,-0.874037 0.0069,-0.133307 0.0036,-0.236757 -0.03789,-0.321055 -0.02067,-0.04209 -0.05782,-0.0826 -0.108672,-0.09892 -0.05091,-0.01632 -0.103355,-0.0055 -0.148923,0.01592 -0.123,0.315591 -0.32642,0.740124 -0.491953,1.136498 -0.15222,0.252802 -0.259831,0.705473 -0.329596,0.866716 -0.03593,0.08304 -0.06268,0.155445 -0.07935,0.218513 -0.01568,0.05941 -0.02338,0.11163 -0.02077,0.159916 0.08695,0.117247 0.227547,0.100071 0.341803,0.107398 0.04961,-5.23e-4 0.101418,-0.0093 0.158693,-0.04392 0.134407,-0.08132 0.299009,-0.209801 0.474862,-0.360124 -0.125393,0.415142 -0.14663,0.547502 -0.346687,1.011991 -0.003,0.0065 -0.0069,0.01302 -0.0098,0.01951 -1.055585,-0.143694 -2.156394,-0.05265 -2.9016701,0.203864 -0.390922,0.13453 -0.691955,0.434342 -0.809337,0.765393 -0.117342,0.331042 -0.04592,0.751643 0.24903,1.273215 0.29491,0.521572 0.620234,0.760653 0.9668081,0.834976 0.346581,0.07431 0.692724,-0.02293 1.013203,-0.281982 0.610999,-0.493977 1.161911,-1.640035 1.590608,-2.605031 0.0069,9.81e-4 0.01493,9.81e-4 0.02196,0.0022 0.504843,0.07447 0.9891176,0.753927 1.4123776,0.865487 -0.221632,0.06963 -0.480917,0.141639 -0.6213526,0.212407 -0.120217,0.06063 -0.209325,0.115286 -0.262457,0.192879 -0.0265,0.03884 -0.04408,0.09107 -0.03293,0.14282 0.01076,0.05173 0.04766,0.0913 0.08908,0.119653 0.08292,0.05673 0.200572,0.08794 0.3759876,0.113484 0.175412,0.02562 0.469187,0.0411 0.766614,0.0451 9.81e-4,1.2e-5 9.81e-4,-1.3e-5 0.0021,0 9.8e-4,-1.3e-5 9.8e-4,1.2e-5 0.0021,0 0.297421,-0.0036 0.591201,-0.01962 0.766612,-0.0451 0.175412,-0.02562 0.293076,-0.05688 0.375983,-0.113484 0.04147,-0.02835 0.07794,-0.06792 0.08908,-0.119653 0.01075,-0.05175 -0.0064,-0.104032 -0.03293,-0.14282 -0.05308,-0.07761 -0.142212,-0.132285 -0.262458,-0.192879 -0.140442,-0.07081 -0.399725,-0.142813 -0.621349,-0.212407 0.423255,-0.111562 0.907529,-0.791011 1.412382,-0.865487 0.0069,-9.82e-4 0.01492,-9.82e-4 0.02196,-0.0022 0.428694,0.964996 0.979609,2.111054 1.59061,2.605031 0.320482,0.259106 0.666612,0.356306 1.0132,0.281982 0.346574,-0.07431 0.671901,-0.313404 0.966811,-0.834976 0.294915,-0.521572 0.366401,-0.942173 0.24903,-1.273215 -0.117338,-0.331051 -0.418422,-0.63086 -0.809338,-0.765393 -0.745278,-0.256487 -1.846089,-0.347558 -2.90167,-0.203864 -0.0031,-0.0065 -0.0069,-0.01302 -0.0098,-0.01951 -0.20005,-0.464489 -0.221263,-0.596849 -0.346687,-1.011991 0.175855,0.150323 0.340455,0.278804 0.474864,0.360124 0.0573,0.03464 0.109078,0.04346 0.158695,0.04392 0.114232,-0.007 0.254848,0.0098 0.341801,-0.107398 0.0022,-0.04831 -0.0055,-0.100517 -0.02075,-0.159916 -0.01665,-0.06307 -0.04341,-0.135478 -0.07934,-0.218513 -0.06984,-0.161243 -0.177381,-0.613914 -0.3296,-0.866716 -0.165527,-0.396374 -0.368956,-0.820907 -0.49195,-1.136498 -0.04557,-0.02129 -0.09805,-0.03213 -0.148928,-0.01592 -0.05092,0.01632 -0.08797,0.05673 -0.108673,0.09892 -0.04135,0.0843 -0.04492,0.187737 -0.0379,0.321055 0.009,0.155626 0.04409,0.649514 0.094,0.874037 -0.309236,-0.306776 -0.971533,-0.669295 -1.289082,-1.064473 -0.0055,-0.0055 -0.0093,-0.01129 -0.01337,-0.01708 0.630445,-0.849756 1.694358,-1.794323 1.821316,-2.564745 0.06664,-0.404115 0.01494,-0.769314 -0.22339,-1.029072 C 12.25245,6.140943 11.389932,6.009369 10.824322,6 Z"
       id="path1146-6"
       class="ColorScheme-Text " />
  </g>
  <sodipodi:namedview
     id="namedview1156"
     pagecolor="#201933"
     bordercolor="#000000"
     borderopacity="1"
     inkscape:showpageshadow="true"
     inkscape:pageopacity="0"
     inkscape:pagecheckerboard="true"
     inkscape:deskcolor="#201933"
     showgrid="true"
     inkscape:zoom="7.375"
     inkscape:cx="20.881356"
     inkscape:cy="6.2372881"
     inkscape:window-width="1920"
     inkscape:window-height="996"
     inkscape:window-x="0"
     inkscape:window-y="0"
     inkscape:window-maximized="1"
     inkscape:current-layer="svg1154">
    <inkscape:grid
       type="xygrid"
       id="grid1340"
       originx="22"
       originy="-10"
       spacingy="1"
       spacingx="1"
       units="px"
       visible="true" />
  </sodipodi:namedview>
  <defs
     id="l4k1">
    <style
       type="text/css"
       id="style201" />
  </defs>
</svg>
