<?xml version="1.0" encoding="UTF-8" standalone="no"?>
<svg
   inkscape:version="1.3.2 (091e20ef0f, 2023-11-25)"
   sodipodi:docname="kaffeine-symbolic.svg"
   id="svg44"
   version="1.1"
   height="22"
   width="22"
   style="enable-background:new"
   xmlns:inkscape="http://www.inkscape.org/namespaces/inkscape"
   xmlns:sodipodi="http://sodipodi.sourceforge.net/DTD/sodipodi-0.dtd"
   xmlns="http://www.w3.org/2000/svg"
   xmlns:svg="http://www.w3.org/2000/svg"
   xmlns:rdf="http://www.w3.org/1999/02/22-rdf-syntax-ns#"
   xmlns:cc="http://creativecommons.org/ns#"
   xmlns:dc="http://purl.org/dc/elements/1.1/">
  <style
     id="style1">.ColorScheme-Text { color:#bac8df; }
</style>
  <metadata
     id="metadata48">
    <rdf:RDF>
      <cc:Work
         rdf:about="">
        <dc:format>image/svg+xml</dc:format>
        <dc:type
           rdf:resource="http://purl.org/dc/dcmitype/StillImage" />
      </cc:Work>
    </rdf:RDF>
  </metadata>
  <sodipodi:namedview
     showguides="false"
     inkscape:current-layer="svg44"
     inkscape:window-maximized="1"
     inkscape:window-y="0"
     inkscape:window-x="0"
     inkscape:cy="11.459751"
     inkscape:cx="11.459751"
     inkscape:zoom="10.035122"
     showgrid="true"
     id="namedview46"
     inkscape:window-height="996"
     inkscape:window-width="1920"
     inkscape:pageshadow="2"
     inkscape:pageopacity="0"
     guidetolerance="10"
     gridtolerance="10"
     objecttolerance="10"
     borderopacity="1"
     bordercolor="#000000"
     pagecolor="#02334b"
     inkscape:document-rotation="0"
     inkscape:pagecheckerboard="true"
     inkscape:showpageshadow="true"
     inkscape:deskcolor="#02334b">
    <inkscape:grid
       id="grid1"
       units="px"
       originx="-11"
       originy="-5"
       spacingx="1"
       spacingy="1"
       empcolor="#0099e5"
       empopacity="0.30196078"
       color="#0099e5"
       opacity="0.14901961"
       empspacing="5"
       dotted="false"
       gridanglex="30"
       gridanglez="30"
       visible="true" />
  </sodipodi:namedview>
  <defs
     id="defs4">
    <linearGradient
       id="linearGradient5606"
       inkscape:swatch="solid">
      <stop
         style="stop-color:#000000"
         offset="0"
         id="stop5608" />
    </linearGradient>
  </defs>
  <g
     id="g128"
     transform="matrix(0,0.23269337,-0.3257329,0,21.286645,-0.3315877)">
    <g
       id="g126">
      <g
         id="g124">
        <g
           id="g122">
          <g
             id="g120">
            <g
               id="g118">
              <g
                 id="g116">
                <g
                   id="g114" />
              </g>
            </g>
          </g>
        </g>
      </g>
    </g>
  </g>
  <g
     id="g146"
     transform="matrix(0,0.23269337,-0.3257329,0,21.286645,-0.3315877)">
    <g
       id="g144">
      <g
         id="g142">
        <g
           id="g140">
          <g
             id="g138">
            <g
               id="g136">
              <g
                 id="g134">
                <g
                   id="g132" />
              </g>
            </g>
          </g>
        </g>
      </g>
    </g>
  </g>
  <g
     id="22-22-kaffeine-3"
     style="enable-background:new"
     transform="translate(-32,-10)">
    <path
       id="path6-6"
       d="m 32,10 h 22 c 0,0 0,0 0,0 v 22 c 0,0 0,0 0,0 H 32 c 0,0 0,0 0,0 z"
       style="opacity:0;fill:#e5e9ef;fill-opacity:1" />
    <path
       style="enable-background:new;stroke-width:0.0468753;fill-opacity:1;fill:currentColor;"
       id="path5-3-9-7"
       d="m 47.500008,20.999998 c 0,-2.485286 -2.014721,-4.499998 -4.500004,-4.499998 -2.485285,0 -4.499998,2.014712 -4.499998,4.499998 0,2.485282 2.014713,4.500002 4.499998,4.500002 h 4.500004 v -0.750002 h -2.01563 c 1.258123,-0.832955 2.015079,-2.241033 2.01563,-3.75 z m -2.29579,3.033874 c -0.502618,0.365109 -1.206288,0.253787 -1.571404,-0.24902 -0.365103,-0.502637 -0.253782,-1.206121 0.248847,-1.571419 0.502803,-0.365107 1.206292,-0.253778 1.571408,0.249032 0.365304,0.502613 0.25379,1.206111 -0.248851,1.571407 z m -0.05527,-4.914915 c 0.590884,-0.192071 1.225535,0.131282 1.417606,0.722172 0.191895,0.591055 -0.131467,1.225697 -0.722351,1.417594 -0.590855,0.19208 -1.225507,-0.131287 -1.417582,-0.722162 -0.19189,-0.590878 0.131467,-1.22571 0.72235,-1.417604 z M 42.99999,17.25 c 0.621284,0 1.125,0.503729 1.125,1.125 0,0.621273 -0.503716,1.125 -1.125,1.125 -0.621265,0 -1.124997,-0.503727 -1.124997,-1.125 0,-0.621271 0.503732,-1.125 1.124997,-1.125 z m -3.566509,2.591129 c 0.192071,-0.59089 0.826713,-0.914243 1.417595,-0.722353 0.590885,0.192075 0.914242,0.826714 0.722351,1.417603 -0.19208,0.590878 -0.826718,0.914245 -1.417602,0.722344 -0.590878,-0.191897 -0.914248,-0.826539 -0.722342,-1.417594 z m 2.93371,3.943723 c -0.365113,0.502807 -1.068785,0.614129 -1.571408,0.24902 -0.50263,-0.365296 -0.614144,-1.068794 -0.248842,-1.571407 0.365109,-0.502634 1.068786,-0.614139 1.571407,-0.248848 0.502628,0.365114 0.613952,1.068598 0.248843,1.571235 z m 0.257811,-2.784854 C 42.625002,20.792907 42.792908,20.625 43,20.625 c 0.207092,0 0.374999,0.167907 0.374999,0.374998 0,0.207088 -0.167907,0.375 -0.374999,0.375 -0.207092,0 -0.374998,-0.167912 -0.374998,-0.375 z m 0,0"
       class="ColorScheme-Text " />
    <path
       style="stop-color:#31363b;stroke-opacity:1;stroke-dasharray:none;stroke-miterlimit:4;stroke-linecap:round;stroke-width:1.06939;stroke:currentColor;fill-opacity:1;fill:none;"
       sodipodi:type="arc"
       sodipodi:cx="-43"
       sodipodi:cy="-21.000008"
       sodipodi:rx="7.4676948"
       sodipodi:ry="7.4676948"
       sodipodi:start="3.7596615"
       sodipodi:end="3.7574109"
       sodipodi:open="true"
       sodipodi:arc-type="arc"
       transform="scale(-1)"
       d="m -49.086164,-25.327256 a 7.4676948,7.4676948 0 0 1 10.409987,-1.761349 7.4676948,7.4676948 0 0 1 1.767206,10.408994 7.4676948,7.4676948 0 0 1 -10.407998,1.773063 7.4676948,7.4676948 0 0 1 -1.778918,-10.406999"
       id="path7-3"
       class="ColorScheme-Text " />
  </g>
</svg>
