<?xml version="1.0" encoding="UTF-8" standalone="no"?>
<svg
   width="22"
   height="22"
   version="1.1"
   id="svg32"
   sodipodi:docname="kalarm-symbolic.svg"
   inkscape:version="1.3.2 (091e20ef0f, 2023-11-25)"
   xmlns:inkscape="http://www.inkscape.org/namespaces/inkscape"
   xmlns:sodipodi="http://sodipodi.sourceforge.net/DTD/sodipodi-0.dtd"
   xmlns="http://www.w3.org/2000/svg"
   xmlns:svg="http://www.w3.org/2000/svg"
   xmlns:rdf="http://www.w3.org/1999/02/22-rdf-syntax-ns#"
   xmlns:cc="http://creativecommons.org/ns#"
   xmlns:dc="http://purl.org/dc/elements/1.1/">
  <style
     id="current-color-scheme"
     type="text/css">.ColorScheme-NegativeText { color:#bf616a; }
.ColorScheme-Text { color:#d6dbf1; }
</style>
  <metadata
     id="metadata38">
    <rdf:RDF>
      <cc:Work
         rdf:about="">
        <dc:format>image/svg+xml</dc:format>
        <dc:type
           rdf:resource="http://purl.org/dc/dcmitype/StillImage" />
      </cc:Work>
    </rdf:RDF>
  </metadata>
  <defs
     id="defs36" />
  <sodipodi:namedview
     pagecolor="#201933"
     bordercolor="#000000"
     borderopacity="1"
     objecttolerance="10"
     gridtolerance="10"
     guidetolerance="10"
     inkscape:pageopacity="0"
     inkscape:pageshadow="2"
     inkscape:window-width="1920"
     inkscape:window-height="994"
     id="namedview34"
     showgrid="true"
     inkscape:zoom="11.313709"
     inkscape:cx="11.048543"
     inkscape:cy="10.871766"
     inkscape:window-x="0"
     inkscape:window-y="0"
     inkscape:window-maximized="1"
     inkscape:current-layer="svg32"
     inkscape:document-rotation="0"
     inkscape:lockguides="true"
     showguides="true"
     inkscape:pagecheckerboard="true"
     inkscape:showpageshadow="true"
     inkscape:deskcolor="#201933">
    <inkscape:grid
       id="grid1"
       units="px"
       originx="32"
       originy="13"
       spacingx="1"
       spacingy="1"
       empcolor="#0099e5"
       empopacity="0.30196078"
       color="#0099e5"
       opacity="0.14902"
       empspacing="5"
       dotted="false"
       gridanglex="30"
       gridanglez="30"
       visible="true" />
  </sodipodi:namedview>
  <g
     id="22-22-kalarm-3"
     style="fill:#bac8df;fill-opacity:1">
    <rect
       style="opacity:0.00100002;fill:#bac8df;fill-opacity:1"
       width="22"
       height="22"
       x="0"
       y="0"
       id="rect2-6" />
    <path
       d="M 18.854271,7.3558521 C 18.615943,6.1812211 18.054159,5.1087281 17.22,4.2405241 c -0.272374,-0.289401 -0.732015,-0.289401 -1.021419,-0.01705 -0.289398,0.27238 -0.289398,0.732022 -0.01703,1.021422 0.646895,0.646895 1.072487,1.481053 1.242723,2.383308 0.18726,0.953325 0.0851,1.923671 -0.306425,2.8089039 -0.153216,0.357493 0,0.783079 0.374516,0.953319 0.102147,0.03405 0.187266,0.0681 0.289407,0.0681 0.272377,0 0.544755,-0.153217 0.663921,-0.425591 0.510712,-1.1576079 0.646901,-2.4343779 0.408566,-3.6771049 z"
       id="path2-3"
       style="fill:#bac8df;fill-opacity:1;stroke-width:0.170234" />
    <path
       d="m 15.841036,6.5387111 c -0.221307,-0.323446 -0.663924,-0.425586 -0.987369,-0.20428 -0.323448,0.221307 -0.425594,0.663925 -0.204284,0.987374 0.153212,0.23833 0.272376,0.510708 0.323447,0.800105 0.06811,0.32346 0.05106,0.663926 -0.03404,0.987373 -0.102153,0.391546 0.136187,0.78309 0.510708,0.8682079 0.06811,0.01704 0.119163,0.01704 0.187262,0.01704 0.323447,0 0.61285,-0.2213039 0.697968,-0.5447569 0.136186,-0.527735 0.15321,-1.089508 0.05104,-1.617245 -0.102143,-0.459636 -0.272377,-0.902252 -0.544751,-1.293799 z"
       id="path4-6"
       style="fill:#bac8df;fill-opacity:1;stroke-width:0.170234" />
    <path
       d="m 16.262228,13.194958 c -0.204287,-0.238329 -0.425595,-0.47666 -0.612849,-0.73202 L 14.355581,10.726532 C 14.134273,10.437127 13.981062,10.096658 13.912966,9.7391621 L 13.60654,8.1900121 C 13.334159,6.8621701 12.5681,5.7045651 11.444539,4.9384941 10.661448,4.4107591 9.77622,4.1213641 8.8739701,4.0873131 l -0.0681,-0.408569 c -0.0851,-0.459638 -0.544759,-0.749038 -0.987372,-0.663921 l -0.783093,0.153214 c -0.459633,0.0851 -0.749035,0.544751 -0.663918,0.987368 l 0.0851,0.425593 c -2.059855,0.970347 -3.285559,3.251515 -2.842944,5.5837549 l 0.306421,1.549151 c 0.06809,0.357497 0.06809,0.732013 -0.03404,1.072491 L 3.3582881,14.8803 c -0.0851,0.306422 -0.187256,0.612852 -0.2894,0.919278 -0.0851,0.23833 -0.0851,0.459634 -0.03405,0.646892 0.102142,0.56179 0.629871,1.259753 2.502471,1.481056 -0.05103,-0.221303 -0.0851,-0.44261 -0.0851,-0.680943 0,-0.204279 0.01705,-0.408559 0.06811,-0.61285 -0.749042,-0.102146 -1.174628,-0.289404 -1.225702,-0.425589 0.01704,-0.289405 1.038441,-1.157609 3.285563,-1.838552 0.01703,0 0.03405,-0.01706 0.05105,-0.01706 0.0851,-0.01703 0.15321,-0.05104 0.238329,-0.06807 v 1.310816 c -0.663922,0.255359 -1.123564,0.885228 -1.123564,1.634273 -0.01703,0.98737 0.766064,1.770457 1.736411,1.770457 0.9703489,0 1.7534379,-0.783087 1.7534379,-1.753431 0,-0.749045 -0.45964,-1.378919 -1.123562,-1.634274 v -1.668319 c 0.136189,-0.03403 0.272378,-0.06811 0.425592,-0.0851 1.276769,-0.255352 2.349256,-0.340469 3.217467,-0.340469 1.566176,0 2.434381,0.306423 2.53652,0.510704 -0.03404,0.323458 -1.293793,1.327844 -4.017576,2.059867 0.153211,0.357492 0.221306,0.749036 0.221306,1.157608 0,0.03404 0,0.06811 0,0.102157 1.225699,-0.32346 2.315216,-0.732026 3.183422,-1.19166 1.73641,-0.936303 1.974743,-1.804505 1.855574,-2.366292 -0.01702,-0.187259 -0.102142,-0.391541 -0.272376,-0.595817 z m -3.489845,-0.953322 c -1.055466,0 -2.247125,0.119161 -3.472824,0.374521 -1.7023649,0.323451 -3.2685409,0.851181 -4.4091199,1.464034 l 0.238328,-0.953325 c 0.136189,-0.52773 0.153209,-1.089517 0.05104,-1.634269 L 4.8733791,9.943451 c -0.204286,-1.0044029 0.01705,-2.0258199 0.578803,-2.8770049 0.578802,-0.851181 1.429989,-1.429982 2.434383,-1.61724 0.23833,-0.05105 0.493682,-0.06811 0.749037,-0.06811 0.7490439,0 1.4810589,0.221309 2.1279549,0.646902 0.851184,0.561779 1.42999,1.429985 1.617248,2.434372 l 0.306426,1.5491559 c 0.102146,0.544763 0.340472,1.055471 0.663922,1.498082 l 0.595826,0.800116 c -0.37452,-0.05105 -0.766064,-0.06811 -1.17463,-0.06811 z"
       id="path6-75"
       style="fill:#bac8df;fill-opacity:1;stroke-width:0.170234" />
  </g>
</svg>
