<?xml version="1.0" encoding="UTF-8" standalone="no"?>
<!-- Created with Inkscape (http://www.inkscape.org/) -->

<svg
   id="svg4153"
   version="1.1"
   inkscape:version="1.3.2 (091e20ef0f, 2023-11-25)"
   width="22"
   height="22"
   sodipodi:docname="kmail-symbolic.svg"
   viewBox="0 0 22 22"
   xmlns:inkscape="http://www.inkscape.org/namespaces/inkscape"
   xmlns:sodipodi="http://sodipodi.sourceforge.net/DTD/sodipodi-0.dtd"
   xmlns="http://www.w3.org/2000/svg"
   xmlns:svg="http://www.w3.org/2000/svg"
   xmlns:rdf="http://www.w3.org/1999/02/22-rdf-syntax-ns#"
   xmlns:cc="http://creativecommons.org/ns#"
   xmlns:dc="http://purl.org/dc/elements/1.1/">
  <metadata
     id="metadata4159">
    <rdf:RDF>
      <cc:Work
         rdf:about="">
        <dc:format>image/svg+xml</dc:format>
        <dc:type
           rdf:resource="http://purl.org/dc/dcmitype/StillImage" />
      </cc:Work>
    </rdf:RDF>
  </metadata>
  <defs
     id="defs4157">
    <style
       type="text/css"
       id="current-color-scheme">
      .ColorScheme-Text {
        color:#31363b;
      }
      .ColorScheme-Background {
        color:#eff0f1;
      }
      .ColorScheme-Highlight {
        color:#3daee9;
      }
      .ColorScheme-ViewText {
        color:#31363b;
      }
      .ColorScheme-ViewBackground {
        color:#fcfcfc;
      }
      .ColorScheme-ViewHover {
        color:#93cee9;
      }
      .ColorScheme-ViewFocus{
        color:#3daee9;
      }
      .ColorScheme-ButtonText {
        color:#31363b;
      }
      .ColorScheme-ButtonBackground {
        color:#eff0f1;
      }
      .ColorScheme-ButtonHover {
        color:#93cee9;
      }
      .ColorScheme-ButtonFocus{
        color:#3daee9;
      }
      </style>
  </defs>
  <sodipodi:namedview
     pagecolor="#201933"
     bordercolor="#000000"
     borderopacity="1"
     objecttolerance="10"
     gridtolerance="10000"
     guidetolerance="10"
     inkscape:pageopacity="0"
     inkscape:pageshadow="2"
     inkscape:window-width="1920"
     inkscape:window-height="994"
     id="namedview4155"
     inkscape:document-units="px"
     showgrid="true"
     inkscape:showpageshadow="true"
     borderlayer="true"
     inkscape:zoom="15.170654"
     inkscape:cx="10.942178"
     inkscape:cy="10.876261"
     inkscape:window-x="0"
     inkscape:window-y="0"
     inkscape:window-maximized="1"
     inkscape:current-layer="svg4153"
     inkscape:pagecheckerboard="true"
     inkscape:deskcolor="#201933">
    <inkscape:grid
       type="xygrid"
       id="grid4140"
       originx="0"
       originy="-16"
       spacingy="1"
       spacingx="1"
       units="px"
       visible="true" />
  </sodipodi:namedview>
  <inkscape:clipboard
     style="opacity:0.01000001;fill:#00000f;fill-opacity:0;stroke-width:1;stroke-linecap:butt;stroke-linejoin:miter;stroke-miterlimit:4;stroke-dasharray:none;stroke-dashoffset:0;stroke-opacity:1;stroke:none"
     min="0,0"
     max="22,22" />
  <g
     id="22-22-kmail"
     transform="translate(-32,-10)">
    <rect
       style="opacity:0.00100002;fill:#d1d5e9;fill-opacity:1"
       width="22"
       height="22"
       x="32"
       y="10"
       id="rect2" />
    <path
       d="M 50.483644,13 H 35.516357 C 34.126611,13 33,14.128457 33,15.520479 V 26.479521 C 33,27.871543 34.126611,29 35.516357,29 h 14.967287 c 1.389746,0 2.516357,-1.128457 2.516357,-2.520479 V 15.520479 C 53.000001,14.128457 51.87339,13 50.483644,13 Z m -14.967287,1 h 14.967287 c 0.790717,-0.0023 1.463787,0.619314 1.516356,1.409578 -2.48616,1.330813 -4.998993,2.651544 -7.495219,3.982356 -0.33771,0.211981 -0.695002,0.39092 -1.066935,0.534342 -0.590682,0.11676 -1.20297,-0.02646 -1.680926,-0.393194 -1.42929,-0.756144 -2.85858,-1.52237 -4.277805,-2.278514 C 36.331656,16.649653 35.147459,16.034657 34,15.419659 34.048458,14.625875 34.722392,13.999051 35.516357,14 Z M 52,26.479521 C 52,27.314735 51.317492,28 50.483644,28 H 35.516357 C 34.68251,28 34,27.314735 34,26.479521 v -9.915564 c 2.37544,1.250158 4.747358,2.520479 7.122798,3.780719 0.424408,0.260629 0.881296,0.464022 1.358833,0.604914 0.698924,0.113822 1.415248,-0.03327 2.013085,-0.413358 1.459487,-0.766226 2.908908,-1.542533 4.368395,-2.308758 C 49.909915,17.662886 50.953195,17.118462 52,16.563957 Z"
       id="path624-3"
       style="fill:#bac8df;fill-opacity:1;stroke-width:1.00737"
       sodipodi:nodetypes="ssssssssscccccccccssssccccccs" />
    <path
       d="M 44.999997,19.999994 C 44.999997,21.105106 44.1051,22 43,22 c -1.104169,1e-6 -1.999996,-0.894894 -1.999996,-2.000006 C 41.000004,18.895826 41.895831,18 43,18 c 1.1051,0 1.999997,0.895826 1.999997,1.999994 z"
       id="path72-3-3"
       style="fill:#bac8df;fill-opacity:1;stroke-width:0.0238099" />
  </g>
</svg>
