<?xml version="1.0" encoding="UTF-8" standalone="no"?>
<svg
   width="22"
   height="22"
   version="1.1"
   id="svg12"
   sodipodi:docname="nulloy-symbolic.svg"
   inkscape:version="1.3.2 (091e20ef0f, 2023-11-25)"
   xmlns:inkscape="http://www.inkscape.org/namespaces/inkscape"
   xmlns:sodipodi="http://sodipodi.sourceforge.net/DTD/sodipodi-0.dtd"
   xmlns="http://www.w3.org/2000/svg"
   xmlns:svg="http://www.w3.org/2000/svg">
  <style
     id="current-color-scheme"
     type="text/css">.ColorScheme-Text { color:#eff0f1; }
</style>
  <defs
     id="defs16" />
  <sodipodi:namedview
     id="namedview14"
     pagecolor="#02334b"
     bordercolor="#000000"
     borderopacity="1"
     inkscape:showpageshadow="2"
     inkscape:pageopacity="0"
     inkscape:pagecheckerboard="true"
     inkscape:deskcolor="#02334b"
     showgrid="true"
     inkscape:zoom="10.429825"
     inkscape:cx="11.21783"
     inkscape:cy="10.738435"
     inkscape:window-width="1920"
     inkscape:window-height="994"
     inkscape:window-x="0"
     inkscape:window-y="0"
     inkscape:window-maximized="1"
     inkscape:current-layer="svg12"
     showguides="false">
    <inkscape:grid
       type="xygrid"
       id="grid559"
       originx="-8"
       originy="-7"
       spacingy="1"
       spacingx="1"
       units="px"
       visible="true" />
  </sodipodi:namedview>
  <g
     id="22-22-mellowplayer"
     style="fill:#d1d5e9;fill-opacity:1">
    <rect
       style="opacity:0.00100002;fill:#d1d5e9;fill-opacity:1"
       width="22"
       height="22"
       x="0"
       y="0"
       id="rect4" />
    <path
       style="color:#d6dbf1;opacity:1;fill:#bac8df;fill-opacity:1"
       d="M 9,3 A 5,5 0 0 0 4,8 5,5 0 0 0 4.3046875,9.6875 3,3 0 0 1 7,8 3,3 0 0 1 7.0058594,8 V 5.4042969 c 0,0 -0.022453,-0.2660938 0.1855468,-0.3710938 0.2030001,-0.101 0.3964844,0.060547 0.3964844,0.060547 l 1.96875,1.1699219 A 3,3 0 0 1 12,5 3,3 0 0 1 13.152344,5.2324219 5,5 0 0 0 9,3 Z m 5.240234,3.0078125 A 3,3 0 0 1 15,8 3,3 0 0 1 14.691406,9.3183594 l 2.025391,1.2050786 c 0,0 0.283203,0.139656 0.283203,0.472656 0,0.334 -0.287109,0.443359 -0.287109,0.443359 l -2.035157,1.208985 A 3,3 0 0 1 15,14 3,3 0 0 1 14.242188,15.988281 5,5 0 0 0 19,11 5,5 0 0 0 14.240234,6.0078125 Z M 8,6.5 V 11 15.5 L 11.75,13.25 15.5,11 11.75,8.75 Z M 8.9804688,8.265625 11.259766,9.6328125 13.539062,11 11.259766,12.367188 8.9804688,13.734375 V 11 Z M 4.3027344,12.302734 A 5,5 0 0 0 4,14 5,5 0 0 0 9,19 5,5 0 0 0 13.158203,16.767578 3,3 0 0 1 12,17 3,3 0 0 1 9.5351562,15.705078 l -2.0605468,1.22461 c 0,0 -0.1393594,0.121968 -0.3183594,0.04297 -0.203,-0.091 -0.1503906,-0.322265 -0.1503906,-0.322265 V 14 A 3,3 0 0 1 7,14 3,3 0 0 1 4.3027344,12.302734 Z"
       id="path6"
       class="ColorScheme-Text" />
    <path
       style="color:#d6dbf1;opacity:0.5;fill:#bac8df;fill-opacity:1"
       d="M 12,5 A 3,3 0 0 0 9.557,6.266 l 2.672,1.587 2.464,1.467 A 3,3 0 0 0 15,8 3,3 0 0 0 12,5 Z M 7,8 a 3,3 0 0 0 -3,3 3,3 0 0 0 3,3 3,3 0 0 0 0.006,0 V 10.982 8 A 3,3 0 0 0 7,8 Z m 7.676,4.65 -2.457,1.459 -2.686,1.596 A 3,3 0 0 0 12,17 3,3 0 0 0 15,14 3,3 0 0 0 14.676,12.65 Z"
       id="path8"
       class="ColorScheme-Text" />
  </g>
</svg>
