<?xml version="1.0" encoding="UTF-8" standalone="no"?>
<svg
   width="32"
   height="32"
   version="1.1"
   id="svg12"
   sodipodi:docname="akonadi-symbolic.svg"
   inkscape:version="1.3.2 (091e20ef0f, 2023-11-25)"
   xmlns:inkscape="http://www.inkscape.org/namespaces/inkscape"
   xmlns:sodipodi="http://sodipodi.sourceforge.net/DTD/sodipodi-0.dtd"
   xmlns="http://www.w3.org/2000/svg"
   xmlns:svg="http://www.w3.org/2000/svg"
   xmlns:rdf="http://www.w3.org/1999/02/22-rdf-syntax-ns#"
   xmlns:cc="http://creativecommons.org/ns#"
   xmlns:dc="http://purl.org/dc/elements/1.1/">
  <metadata
     id="metadata18">
    <rdf:RDF>
      <cc:Work
         rdf:about="">
        <dc:format>image/svg+xml</dc:format>
        <dc:type
           rdf:resource="http://purl.org/dc/dcmitype/StillImage" />
      </cc:Work>
    </rdf:RDF>
  </metadata>
  <defs
     id="defs16" />
  <sodipodi:namedview
     pagecolor="#201933"
     bordercolor="#000000"
     borderopacity="1"
     objecttolerance="10"
     gridtolerance="10"
     guidetolerance="10"
     inkscape:pageopacity="0"
     inkscape:pageshadow="2"
     inkscape:window-width="1920"
     inkscape:window-height="994"
     id="namedview14"
     showgrid="true"
     inkscape:zoom="11.313708"
     inkscape:cx="16.175068"
     inkscape:cy="30.317205"
     inkscape:window-x="0"
     inkscape:window-y="0"
     inkscape:window-maximized="1"
     inkscape:current-layer="svg12"
     inkscape:document-rotation="0"
     showguides="false"
     inkscape:pagecheckerboard="true"
     inkscape:showpageshadow="true"
     inkscape:deskcolor="#201933">
    <inkscape:grid
       type="xygrid"
       id="grid862"
       originx="-11"
       originy="-30"
       spacingy="1"
       spacingx="1"
       units="px"
       visible="true" />
  </sodipodi:namedview>
  <g
     id="akonadi-3"
     transform="translate(32.000001,10.000001)">
    <path
       style="opacity:0.00100002;fill:#e5e9ef;fill-opacity:1"
       d="M -32.000001,-10.000001 H 0 V 22 h -32.000001 z"
       id="path7-6" />
    <path
       id="rect4192-7"
       inkscape:connector-curvature="0"
       d="m -16.000001,-6.000001 c -6.64809,0 -12.00003,5.35202 -12.00003,12.00004 0,0.0742 0.009,0.14539 0.0103,0.21886 -0.002,0.0822 -0.0103,0.16203 -0.0103,0.24489 0,1.08068 0.19252,2.11453 0.52875,3.07808 1.50454,4.90798 6.05758,8.45813 11.47128,8.45813 6.64841,0 12.00004,-5.35179 12.00004,-11.99988 0,-6.6481 -5.35163,-12.00012 -12.00004,-12.00012 z m 0,2 c 5.17074,0 10,4.000001 10,10.00004 0,5.99996 -4.76588,9.93574 -9.88025,9.99996 3.15786,-0.99735 5.57959,-4.29347 6.27868,-7.57531 -1.70291,1.96344 -4.21312,4.57531 -7.0289,4.57531 -3.98164,0 -8.36953,-3 -9.36953,-7.35151 0.273748,-5.648489 4.94824,-9.64849 10,-9.64849 z"
       style="fill:#bac8df;fill-opacity:1;stroke-width:0.0770097"
       sodipodi:nodetypes="sscscsssssccscs" />
  </g>
</svg>
