<?xml version="1.0" encoding="UTF-8" standalone="no"?>
<svg
   width="32"
   height="32"
   version="1.1"
   id="svg12"
   sodipodi:docname="amarok-symbolic.svg"
   inkscape:version="1.3.2 (091e20ef0f, 2023-11-25)"
   xmlns:inkscape="http://www.inkscape.org/namespaces/inkscape"
   xmlns:sodipodi="http://sodipodi.sourceforge.net/DTD/sodipodi-0.dtd"
   xmlns="http://www.w3.org/2000/svg"
   xmlns:svg="http://www.w3.org/2000/svg"
   xmlns:rdf="http://www.w3.org/1999/02/22-rdf-syntax-ns#"
   xmlns:cc="http://creativecommons.org/ns#"
   xmlns:dc="http://purl.org/dc/elements/1.1/">
  <style
     id="current-color-scheme"
     type="text/css">.ColorScheme-Text { color:#d6dbf1; }
</style>
  <metadata
     id="metadata18">
    <rdf:RDF>
      <cc:Work
         rdf:about="">
        <dc:format>image/svg+xml</dc:format>
        <dc:type
           rdf:resource="http://purl.org/dc/dcmitype/StillImage" />
      </cc:Work>
    </rdf:RDF>
  </metadata>
  <defs
     id="defs16">
    <linearGradient
       id="oomox"
       x1="0"
       x2="0"
       y1="0"
       y2="16"
       gradientUnits="userSpaceOnUse"
       gradientTransform="matrix(1.5000001,0,0,1.5000001,3.999995,3.9999999)">
      <stop
         offset="0%"
         style="stop-color:#303b3d; stop-opacity:1"
         id="stop18" />
      <stop
         offset="100%"
         style="stop-color:#bc985d; stop-opacity:1"
         id="stop20" />
    </linearGradient>
    <linearGradient
       id="oomox-3"
       x1="0.81322718"
       x2="0.81322718"
       y1="0.49186769"
       y2="15.247891"
       gradientTransform="matrix(0.98373494,0,0,1.016534,5.9966823,11.726037)"
       gradientUnits="userSpaceOnUse">
      <stop
         offset="0%"
         style="stop-color:#303b3d; stop-opacity:1"
         id="stop18-6" />
      <stop
         offset="100%"
         style="stop-color:#bc985d; stop-opacity:1"
         id="stop20-7" />
    </linearGradient>
  </defs>
  <sodipodi:namedview
     pagecolor="#201933"
     bordercolor="#000000"
     borderopacity="1"
     objecttolerance="10"
     gridtolerance="10"
     guidetolerance="10"
     inkscape:pageopacity="0"
     inkscape:pageshadow="2"
     inkscape:window-width="1920"
     inkscape:window-height="994"
     id="namedview14"
     showgrid="true"
     inkscape:zoom="9.8125"
     inkscape:cx="15.796178"
     inkscape:cy="23.847134"
     inkscape:window-x="0"
     inkscape:window-y="0"
     inkscape:window-maximized="1"
     inkscape:current-layer="svg12"
     inkscape:document-rotation="0"
     inkscape:lockguides="true"
     inkscape:showpageshadow="true"
     inkscape:pagecheckerboard="true"
     inkscape:deskcolor="#201933">
    <inkscape:grid
       type="xygrid"
       id="grid889"
       originx="21"
       originy="-29"
       spacingy="1"
       spacingx="1"
       units="px"
       visible="true" />
  </sodipodi:namedview>
  <g
     id="amarok"
     transform="translate(32,10.000001)">
    <g
       id="g1155">
      <g
         id="g1148">
        <path
           style="opacity:0.00100002;fill:#a8aeca;fill-opacity:1"
           d="M -32,-10.000001 V 22 H 0 v -32.000001 z"
           id="path7" />
        <path
           style="color:#d6dbf1;fill:#bac8df;fill-opacity:1;stroke-width:1.5"
           class="ColorScheme-Text "
           d="m -16,-6.000001 c -6.636,0 -12,5.364 -12,11.999999 C -28,12.635999 -22.636,18 -16,18 c 6.635997,0 11.999997,-5.364001 11.999997,-12.000003 0,-6.635998 -5.364,-11.999998 -11.999997,-11.999998 z m 0,1.5 c 5.805006,0 10.499997,4.694999 10.499997,10.499999 C -5.500003,11.804995 -10.194994,16.5 -16,16.5 c -5.804998,0 -10.5,-4.695006 -10.5,-10.500003 0,-5.804999 4.695002,-10.499998 10.5,-10.499998 z m 1.125002,8.578499 v 0 0 0 0 0 c 0,0 -0.05094,0.012 0,0 z m -1.171513,6.75 z"
           id="path58-9"
           sodipodi:nodetypes="ssssssssssccccccccccccccccc" />
        <path
           d="M -7.186991,4.437896 C -7.202101,4.302409 -7.330092,4.212083 -7.46558,4.234665 c -0.109102,0.01875 -0.218332,0.03768 -0.327431,0.05648 L -8.045212,3.658748 c -0.03004,-0.07152 -0.135486,-0.06777 -0.154395,0.0079 l -0.199555,0.730229 c -1.437976,0.259685 -2.601063,0.451742 -2.894744,0.128002 -0.259685,-0.286073 1.053958,-1.897209 1.599876,-3.651309 l 0.632392,0.293555 c 0.07523,0.03389 0.154397,-0.04134 0.120521,-0.116715 L -9.411648,0.003575 c 0.09033,-0.5533766 -0.09033,-0.8394589 -0.240912,-1.4115893 -0.421562,-1.4529287 -1.927297,0.2258138 -1.927297,0.2258138 0,0 -3.003837,2.0627695 -3.218501,2.1945845 -1.58475,-0.09037 -1.731555,-0.112907 -4.908651,3.184611 -1.840785,0.572132 -2.405287,0.131813 -2.928618,0.350008 -0.14678,0.06023 0.647518,1.874623 2.333868,1.92729 0,0 -1.125512,1.558362 -4.204869,2.119231 0.609842,0.802019 1.539612,0.869777 1.539612,0.869777 0,0 -1.415392,0.474329 -2.943711,0.478024 -0.09781,0 -0.124196,0.135485 -0.03387,0.173166 0.297367,0.116716 0.598549,0.203229 0.877138,0.270974 0.511871,0.128004 1.046495,0.128004 1.56966,0.124195 0.5157,-0.004 1.027572,-0.07523 1.524487,-0.21833 0.990027,-0.282264 1.814365,-0.824332 2.499422,-1.584741 0.30485,-0.338714 0.609844,-0.696353 0.877139,-1.069079 0.282266,-0.387683 0.500613,-0.903385 0.195749,-1.340035 -0.004,-0.004 -0.004,-0.004 -0.004,-0.0079 -0.504411,-0.741486 -2.574783,-0.918339 -2.55223,-0.937261 0.350008,-0.312461 1.580953,-0.504406 1.919801,-0.5157 0.36893,-0.0113 0.967447,-0.008 1.34004,-0.229617 0.09781,-0.169362 0.685061,-0.892092 0.835629,-1.027572 0.37273,-0.346343 0.805587,-0.654978 1.302499,-0.782993 0.312463,-0.08281 0.643686,-0.112909 0.937264,-0.263491 0.210845,-0.109102 0.398977,-0.259687 0.575964,-0.421563 -0.907184,0.304848 -1.464226,-0.004 -1.4003,-0.02259 0.08281,-0.02637 0.636226,-0.425357 1.151893,-0.368928 0.274784,0.03004 0.557042,-0.03004 0.790492,-0.176971 0.09035,-0.05648 0.169361,-0.116715 0.225814,-0.15807 0.304849,-0.312462 0.594719,-0.632389 0.88843,-0.956149 0.466736,-0.5194983 1.027575,-0.9335649 1.509399,-1.4341752 0.01875,-0.02258 0.04519,-0.01878 0.06393,-0.0075 0.0151,-0.011292 0.03765,-0.01878 0.05648,0 0.210848,0.1618764 0.496917,0.1054216 0.745322,0.1016155 0.04134,0 0.05648,0.03387 0.05263,0.06774 0,0.0038 0.004,0.011292 0.004,0.0151 0.03389,1.0239077 -0.466731,1.9347557 -1.057787,2.7366717 -0.286071,0.391482 -1.069081,1.592239 -1.565995,2.9512 0.304849,0.613634 2.025236,0.782991 1.362625,1.626114 -0.161875,0.207041 -0.37273,0.36893 -0.587256,0.5157 -1.023909,0.703946 -3.617378,3.730291 0.643685,6.963841 0.1242,0.09412 0.297369,-0.01512 0.267301,-0.165684 -0.670103,-3.447974 0.594715,-6.082942 0.594715,-6.082942 0,0 0.35001,-1.200759 1.415392,-1.645004 0.96392,-0.406473 1.788255,-0.861911 1.697946,-1.63358 z"
           id="path67-3"
           style="color:#d6dbf1;fill:#bac8df;fill-opacity:1;stroke-width:0.0336089"
           class="ColorScheme-Text" />
      </g>
    </g>
  </g>
</svg>
