<?xml version="1.0" encoding="UTF-8" standalone="no"?>
<svg
   width="32"
   height="32"
   version="1"
   id="svg14"
   sodipodi:docname="antimicro-symbolic.svg"
   inkscape:version="1.3.2 (091e20ef0f, 2023-11-25)"
   xmlns:inkscape="http://www.inkscape.org/namespaces/inkscape"
   xmlns:sodipodi="http://sodipodi.sourceforge.net/DTD/sodipodi-0.dtd"
   xmlns="http://www.w3.org/2000/svg"
   xmlns:svg="http://www.w3.org/2000/svg">
  <style
     id="current-color-scheme"
     type="text/css">.ColorScheme-Text { color:#eceff4; }
</style>
  <sodipodi:namedview
     id="namedview16"
     pagecolor="#201933"
     bordercolor="#000000"
     borderopacity="1"
     inkscape:showpageshadow="true"
     inkscape:pageopacity="0"
     inkscape:pagecheckerboard="true"
     inkscape:deskcolor="#201933"
     showgrid="true"
     inkscape:zoom="10.429825"
     inkscape:cx="15.820016"
     inkscape:cy="38.543312"
     inkscape:window-width="1920"
     inkscape:window-height="994"
     inkscape:window-x="0"
     inkscape:window-y="0"
     inkscape:window-maximized="1"
     inkscape:current-layer="svg14">
    <inkscape:grid
       type="xygrid"
       id="grid1266"
       originx="-31.999996"
       originy="20"
       spacingy="1"
       spacingx="1"
       units="px"
       visible="true" />
  </sodipodi:namedview>
  <defs
     id="defs5">
    <style
       type="text/css"
       id="style646" />
  </defs>
  <g
     id="antimicro"
     style="fill:#bac8df;fill-opacity:1">
    <rect
       style="opacity:0.00100002;fill:#bac8df;fill-opacity:1"
       width="32"
       height="32"
       x="0"
       y="0"
       id="rect4" />
    <path
       d="m 31.754841,22.179525 c -0.189935,0.687049 -0.688899,1.084931 -1.352467,0.888272 -0.663822,-0.196424 -0.661023,-0.91278 -0.471329,-1.600085 0.213387,-0.771983 0.195851,-1.585175 -0.0493,-2.351336 L 27.067363,10.32653 C 26.543201,8.688789 24.685106,6.988 23.018608,6.988 H 8.5968462 c -1.6667473,0 -3.1380114,1.700789 -3.6624246,3.33853 l -2.9110102,8.789846 c -0.3252033,1.016165 -0.055342,2.308247 0.4095113,3.274624 0.4640955,0.965598 1.7397014,2.081587 2.7150438,2.416525 0.9724182,0.33366 2.4019285,0.04807 3.3242866,-0.439525 0.9240677,-0.48862 1.6129689,-1.71805 1.9393889,-2.737244 l 0.184469,-0.578118 C 11.117603,19.423993 12.195556,18.729 13.852785,18.729 h 4.29588 c 1.65748,0 2.734574,0.694993 3.256041,2.323638 l 0.185441,0.578118 c 0.525144,1.637164 2.416432,3.381489 4.048262,3.381244 0.313233,0 0.627191,-0.04068 0.932846,-0.12 0.669687,-0.17341 1.348401,-0.15211 1.516113,0.541 0.167733,0.693383 -0.239254,1.19642 -0.908927,1.370085 C 26.6743,26.933772 26.156232,27 25.638654,27 24.313449,27 23.036604,26.569269 21.946031,25.754051 20.842754,24.92925 20.032713,23.785177 19.60374,22.445206 L 19.418688,21.867089 C 19.236799,21.299102 18.726562,20.917664 18.148916,20.917664 H 13.85303 c -0.577873,0 -1.088128,0.381438 -1.270016,0.949186 l -0.185058,0.578356 c -0.534424,1.669087 -1.66186,3.028766 -3.1750501,3.828819 C 7.7002185,27.079112 5.9738945,27.217647 4.3613478,26.664058 2.7492953,26.110725 1.4409496,24.931772 0.6777632,23.344335 -0.08321075,21.76169 -0.20796784,19.971012 0.32669203,18.301925 L 3.140895,9.51209 C 4.0049118,6.813168 6.4304478,5 9.1765316,5 H 22.825179 c 2.746093,0 5.171855,1.813168 6.035872,4.51209 l 2.814211,8.789835 c 0.404043,1.262373 0.431627,2.603091 0.07952,3.8776 z M 21.93773,9.658946 c -0.690192,0 -1.249752,0.579364 -1.249752,1.294218 0,0.714606 0.55956,1.293966 1.249752,1.293966 0.690431,0 1.24999,-0.57936 1.24999,-1.293966 0,-0.714854 -0.559559,-1.294218 -1.24999,-1.294218 z m 0,7.764818 c 0.690431,0 1.24999,-0.579356 1.24999,-1.294218 0,-0.714607 -0.559559,-1.293963 -1.249989,-1.293963 -0.690192,0 -1.249751,0.579356 -1.249751,1.293963 0,0.714606 0.559559,1.294218 1.24975,1.294218 z M 19.437983,12.24713 c -0.690188,0 -1.249761,0.579373 -1.249761,1.294235 0,0.714842 0.559573,1.294218 1.249761,1.294218 0.690421,0 1.249995,-0.579376 1.249995,-1.294218 0,-0.714862 -0.559573,-1.294235 -1.249995,-1.294235 z m 4.999728,2.588453 c 0.69019,0 1.249771,-0.579376 1.249771,-1.294218 0,-0.714862 -0.559581,-1.294235 -1.249771,-1.294235 -0.690409,0 -1.249992,0.579373 -1.249992,1.294235 0,0.714586 0.559583,1.294218 1.249992,1.294218 z m -14.373984,2.588181 c 0.690431,0 1.25001,-0.579356 1.25001,-1.294218 v -1.293963 h 1.249749 c 0.690428,0 1.249995,-0.579376 1.249995,-1.294218 0,-0.714862 -0.559567,-1.294235 -1.249995,-1.294235 h -1.249749 v -1.293966 c 0,-0.714854 -0.559578,-1.294218 -1.25001,-1.294218 -0.690171,0 -1.2497472,0.579364 -1.2497472,1.294218 V 12.24713 H 7.563985 c -0.6901868,0 -1.2499931,0.579373 -1.2499931,1.294235 0,0.714842 0.5598063,1.294218 1.2499931,1.294218 h 1.2499948 v 1.293963 c 0,0.714606 0.5595762,1.294218 1.2497472,1.294218 z"
       id="path2-36"
       style="color:#eceff4;fill:#bac8df;fill-opacity:1;stroke-width:0.0635967"
       sodipodi:nodetypes="cccccsscccccccsscsccccscccssccsccccssccccsssssssssssssssssssssscssscssscssscss"
       class="ColorScheme-Text" />
    <ellipse
       cx="30.331392"
       cy="25.077869"
       id="circle4-5"
       style="color:#eceff4;fill:#bac8df;fill-opacity:1;stroke-width:0.066184"
       rx="0.97564775"
       ry="1.0101659"
       class="ColorScheme-Text" />
  </g>
</svg>
