<?xml version="1.0" encoding="UTF-8" standalone="no"?>
<svg
   width="32"
   height="32"
   version="1"
   id="svg1154"
   sodipodi:docname="cadence-symbolic.svg"
   inkscape:version="1.3.2 (091e20ef0f, 2023-11-25)"
   xmlns:inkscape="http://www.inkscape.org/namespaces/inkscape"
   xmlns:sodipodi="http://sodipodi.sourceforge.net/DTD/sodipodi-0.dtd"
   xmlns="http://www.w3.org/2000/svg"
   xmlns:svg="http://www.w3.org/2000/svg">
  <style
     id="current-color-scheme"
     type="text/css">.ColorScheme-Text { color:#d1d5e9; }
</style>
  <sodipodi:namedview
     id="namedview1156"
     pagecolor="#201933"
     bordercolor="#000000"
     borderopacity="1"
     inkscape:showpageshadow="true"
     inkscape:pageopacity="0"
     inkscape:pagecheckerboard="true"
     inkscape:deskcolor="#201933"
     showgrid="true"
     inkscape:zoom="7.375"
     inkscape:cx="15.864407"
     inkscape:cy="26.305085"
     inkscape:window-width="1920"
     inkscape:window-height="994"
     inkscape:window-x="0"
     inkscape:window-y="0"
     inkscape:window-maximized="1"
     inkscape:current-layer="svg1154">
    <inkscape:grid
       type="xygrid"
       id="grid1340"
       originx="17"
       originy="-55"
       spacingy="1"
       spacingx="1"
       units="px"
       visible="true" />
  </sodipodi:namedview>
  <defs
     id="l4k1">
    <style
       type="text/css"
       id="style201" />
  </defs>
  <g
     id="cadence"
     style="fill:#bac8df;fill-opacity:1">
    <rect
       style="opacity:0.00100002;fill:#bac8df;fill-opacity:1"
       width="32"
       height="32"
       x="0"
       y="0"
       id="rect1149" />
    <path
       style="color:#d1d5e9;fill:#bac8df;fill-opacity:1;stroke-width:1.5"
       class="ColorScheme-Text "
       d="M 16,4 C 9.364,4 4,9.364 4,15.999999 4,22.636 9.364,28 16,28 22.636,28 28,22.636 28,15.999999 28,9.364 22.636,4 16,4 Z m 0,1.4999999 c 5.80498,0 10.5,4.6950001 10.5,10.4999991 C 26.5,21.80498 21.80498,26.5 16,26.5 10.19498,26.5 5.5,21.80498 5.5,15.999999 5.5,10.195 10.19498,5.4999999 16,5.4999999 Z m 1.12498,8.5784981 v 0 0 0 0 0 c 0,0 -0.05091,0.012 0,0 z m -1.171491,6.750005 z"
       id="path58"
       sodipodi:nodetypes="ssssssssssccccccccccccccccc" />
    <path
       style="color:#d1d5e9;fill:#bac8df;fill-opacity:1;stroke-width:0.66666"
       d="m 15.999817,7 c -0.904949,0.01503 -2.284954,0.22552 -2.64256,0.615245 -0.381355,0.415605 -0.46396,0.999918 -0.357415,1.6465 0.203133,1.232684 1.90535,2.743963 2.914046,4.103576 -0.0074,0.0084 -0.01443,0.01853 -0.0215,0.02738 -0.508079,0.632282 -1.567723,1.212296 -2.062492,1.70315 0.07976,-0.359243 0.137175,-1.149465 0.150388,-1.398463 0.01137,-0.213293 0.0062,-0.378793 -0.06054,-0.513672 -0.03305,-0.06744 -0.09242,-0.132103 -0.173836,-0.158206 -0.0814,-0.02615 -0.165394,-0.0083 -0.238278,0.02537 -0.196784,0.504935 -0.522259,1.184187 -0.787101,1.818382 -0.243543,0.404483 -0.415717,1.128735 -0.527338,1.38674 -0.05743,0.132857 -0.100288,0.248711 -0.126959,0.349616 -0.02509,0.09509 -0.03748,0.178585 -0.03316,0.255861 0.13911,0.187596 0.364057,0.160155 0.546868,0.171877 0.07934,-0.0012 0.162266,-0.01491 0.253909,-0.07027 0.215043,-0.130095 0.478398,-0.335679 0.759754,-0.576182 -0.200674,0.664211 -0.234605,0.875997 -0.554683,1.619165 -0.0046,0.01037 -0.01111,0.02095 -0.01562,0.03122 -1.68889,-0.229902 -3.4501407,-0.08417 -4.6425487,0.326169 -0.62546,0.215262 -1.107119,0.694966 -1.294913,1.224628 -0.187792,0.529675 -0.07342,1.202628 0.398435,2.037138 0.471852,0.834516 0.992348,1.21704 1.546864,1.33596 0.554517,0.118906 1.1083137,-0.03657 1.6210867,-0.451182 0.977555,-0.790369 1.859005,-2.624035 2.544894,-4.168019 0.01129,0.0021 0.02387,0.0026 0.03514,0.0041 0.807729,0.11916 1.582558,1.206283 2.259747,1.384782 -0.354594,0.111338 -0.769438,0.226616 -0.99413,0.339848 -0.192385,0.09693 -0.33492,0.184478 -0.419917,0.308599 -0.04248,0.06204 -0.07061,0.145726 -0.0527,0.228517 0.01787,0.08276 0.07622,0.146033 0.14258,0.191408 0.132645,0.09072 0.320909,0.140707 0.601564,0.181644 0.280651,0.0409 0.750681,0.06589 1.226554,0.07227 0.0019,1.8e-5 0.0025,-2e-5 0.0041,0 0.0019,-2e-5 0.0026,1.8e-5 0.004,0 0.475872,-0.0068 0.945898,-0.03131 1.226553,-0.07227 0.280657,-0.04091 0.468916,-0.09088 0.60156,-0.181644 0.06635,-0.04543 0.124727,-0.108617 0.142575,-0.191408 0.01787,-0.08277 -0.01027,-0.166459 -0.0527,-0.228517 -0.08501,-0.124121 -0.227536,-0.211648 -0.419923,-0.308599 -0.224697,-0.113232 -0.639536,-0.22851 -0.994133,-0.339848 0.677194,-0.178499 1.452014,-1.265622 2.25975,-1.384782 0.01127,-0.0021 0.02385,-0.0025 0.03514,-0.0041 0.685887,1.543984 1.567338,3.377649 2.544902,4.168019 0.512766,0.414575 1.066566,0.570088 1.621083,0.451182 0.554515,-0.11892 1.075009,-0.501444 1.546865,-1.33596 0.471855,-0.834511 0.586224,-1.507464 0.398434,-2.037138 -0.187796,-0.529662 -0.669453,-1.009366 -1.294912,-1.224628 -1.192409,-0.410373 -2.953664,-0.556071 -4.642547,-0.326169 -0.0047,-0.01034 -0.01123,-0.02094 -0.01558,-0.03122 -0.320076,-0.743168 -0.354014,-0.954954 -0.554685,-1.619165 0.281361,0.240503 0.544714,0.446087 0.75976,0.576182 0.09167,0.0554 0.174556,0.06947 0.253906,0.07027 0.182802,-0.01176 0.407753,0.01568 0.546871,-0.171877 0.0043,-0.07731 -0.0081,-0.1608 -0.03318,-0.255861 -0.02661,-0.100905 -0.06947,-0.216759 -0.12695,-0.349616 -0.111627,-0.258005 -0.283799,-0.982257 -0.52734,-1.38674 -0.26484,-0.634195 -0.590321,-1.313447 -0.787105,-1.818382 -0.07288,-0.03412 -0.156881,-0.05151 -0.238282,-0.02537 -0.0814,0.02613 -0.140744,0.09073 -0.173824,0.158206 -0.06619,0.134879 -0.07183,0.300379 -0.06053,0.513672 0.01324,0.248998 0.07063,1.03922 0.150388,1.398463 -0.494764,-0.490848 -1.554416,-1.070863 -2.062484,-1.703145 -0.0075,-0.0084 -0.01454,-0.01853 -0.0215,-0.02738 C 17.094854,12.005713 18.797075,10.494431 19.0002,9.261752 19.106755,8.615169 19.02412,8.030855 18.642789,7.61525 18.285183,7.22552 16.90518,7.015001 16.000229,7.000007 Z"
       id="path1151-3"
       class="ColorScheme-Text" />
  </g>
</svg>
