<?xml version="1.0" encoding="UTF-8" standalone="no"?>
<svg
   id="svg"
   version="1.1"
   viewBox="0 0 32 32"
   sodipodi:docname="device-notifier-symbolic.svg"
   inkscape:version="1.3.2 (091e20ef0f, 2023-11-25)"
   width="32"
   height="32"
   xmlns:inkscape="http://www.inkscape.org/namespaces/inkscape"
   xmlns:sodipodi="http://sodipodi.sourceforge.net/DTD/sodipodi-0.dtd"
   xmlns="http://www.w3.org/2000/svg"
   xmlns:svg="http://www.w3.org/2000/svg"
   xmlns:rdf="http://www.w3.org/1999/02/22-rdf-syntax-ns#"
   xmlns:cc="http://creativecommons.org/ns#"
   xmlns:dc="http://purl.org/dc/elements/1.1/">
  <sodipodi:namedview
     id="namedview27"
     pagecolor="#201933"
     bordercolor="#000000"
     borderopacity="1"
     inkscape:pageshadow="2"
     inkscape:pageopacity="0.0"
     inkscape:pagecheckerboard="true"
     showgrid="true"
     inkscape:zoom="9.208459"
     inkscape:cx="16.397966"
     inkscape:cy="15.5292"
     inkscape:window-width="1920"
     inkscape:window-height="994"
     inkscape:window-x="0"
     inkscape:window-y="0"
     inkscape:window-maximized="1"
     inkscape:current-layer="svg"
     inkscape:showpageshadow="2"
     inkscape:deskcolor="#201933">
    <inkscape:grid
       type="xygrid"
       id="grid951"
       originx="-6.0000114"
       originy="-17.000011"
       spacingy="1"
       spacingx="1"
       units="px"
       visible="true" />
  </sodipodi:namedview>
  <metadata
     id="metadata47">
    <rdf:RDF>
      <cc:Work
         rdf:about="">
        <dc:format>image/svg+xml</dc:format>
        <dc:type
           rdf:resource="http://purl.org/dc/dcmitype/StillImage" />
      </cc:Work>
    </rdf:RDF>
  </metadata>
  <defs
     id="defs3">
    <style
       id="current-color-scheme"
       type="text/css">.ColorScheme-Text { color:#333333; } .ColorScheme-Highlight { color:#5294e2; } .ColorScheme-ButtonBackground { color:#dedede; }</style>
  </defs>
  <g
     id="g1">
    <g
       id="device-notifier">
      <rect
         style="opacity:0.00100002;fill:#bac8df;fill-opacity:1"
         width="32"
         height="32"
         x="0"
         y="-4.6325681e-08"
         id="rect7" />
      <path
         d="m 19,4 h -6 c 0,0 -1,0 -1,1 l -2e-6,4.9999993 -1.566909,-0.010842 c -0.232129,-0.00257 -0.425184,0.1530467 -0.425262,0.3427867 l -0.0078,16.220339 c -3.863e-4,0.797702 0.801072,1.444732 1.789972,1.445072 l 8.416753,0.0026 c 0.982683,3.08e-4 1.784913,-0.646336 1.78544,-1.443927 L 22,10.335739 c 9.7e-5,-0.189752 -0.189715,-0.3429903 -0.424929,-0.3430519 L 20,10 V 5 C 20,4 19,4 19,4 Z m -6,18 v 0 0 0 0 0 c 0,1 0,0 0,0 z m 0,3 h -1 v -3 h 2 v 0 3 0 z m 4,0 v 0 h -2 v -7 h 1 0.971926 z m 3,-10 v 10 0 H 18 V 15 Z M 19,9.9999998 13.000001,10 13,4.9999997 18.999999,5 Z"
         id="path3559"
         style="fill:#bac8df;fill-opacity:1;stroke-width:0.0478637"
         sodipodi:nodetypes="ccccccccsccccccccccccccsccccccsscccccsccccccccccc" />
      <path
         d="m 18,6.5 0.03633,2 v 0 H 14 v -2 z"
         id="path3565"
         style="fill:#bac8df;fill-opacity:1;stroke-width:0.0478637"
         sodipodi:nodetypes="cccccc" />
      <path
         d="m 13.997643,20.000398 c -0.0016,0.890099 -1.077928,1.3342 -1.706378,0.70402 C 11.662825,20.074236 12.109903,18.998765 13,19 c 0.551579,9.75e-4 0.998019,0.448815 0.997643,1.000398 z"
         id="path1086-6-3"
         style="color:#e5e9ef;fill:#000000;fill-opacity:1;stroke-width:0.690903"
         sodipodi:nodetypes="csccccc"
         class="ColorScheme-Text " />
    </g>
  </g>
</svg>
