<?xml version="1.0" encoding="UTF-8" standalone="no"?>
<svg
   width="32"
   height="32"
   version="1"
   id="svg12"
   sodipodi:docname="juk-symbolic.svg"
   inkscape:version="1.3.2 (091e20ef0f, 2023-11-25)"
   xmlns:inkscape="http://www.inkscape.org/namespaces/inkscape"
   xmlns:sodipodi="http://sodipodi.sourceforge.net/DTD/sodipodi-0.dtd"
   xmlns="http://www.w3.org/2000/svg"
   xmlns:svg="http://www.w3.org/2000/svg"
   xmlns:rdf="http://www.w3.org/1999/02/22-rdf-syntax-ns#"
   xmlns:cc="http://creativecommons.org/ns#"
   xmlns:dc="http://purl.org/dc/elements/1.1/">
  <style
     id="current-color-scheme"
     type="text/css">.ColorScheme-Text { color:#d6dbf1; }
</style>
  <metadata
     id="metadata18">
    <rdf:RDF>
      <cc:Work
         rdf:about="">
        <dc:format>image/svg+xml</dc:format>
        <dc:type
           rdf:resource="http://purl.org/dc/dcmitype/StillImage" />
      </cc:Work>
    </rdf:RDF>
  </metadata>
  <defs
     id="defs16" />
  <sodipodi:namedview
     pagecolor="#02334b"
     bordercolor="#000000"
     borderopacity="1"
     objecttolerance="10"
     gridtolerance="10"
     guidetolerance="10"
     inkscape:pageopacity="0"
     inkscape:pageshadow="2"
     inkscape:window-width="1920"
     inkscape:window-height="994"
     id="namedview14"
     showgrid="true"
     inkscape:zoom="9.8125"
     inkscape:cx="16.611465"
     inkscape:cy="8.0509554"
     inkscape:window-x="0"
     inkscape:window-y="0"
     inkscape:window-maximized="1"
     inkscape:current-layer="svg12"
     inkscape:document-rotation="0"
     inkscape:showpageshadow="true"
     inkscape:lockguides="false"
     inkscape:pagecheckerboard="true"
     inkscape:deskcolor="#02334b">
    <inkscape:grid
       type="xygrid"
       id="grid865"
       originx="-12"
       originy="-42"
       spacingy="1"
       spacingx="1"
       units="px"
       visible="true" />
  </sodipodi:namedview>
  <g
     id="juk"
     style="fill:#bac8df;fill-opacity:1">
    <rect
       style="opacity:0.00100002;fill:#bac8df;fill-opacity:1"
       width="32"
       height="32"
       x="0"
       y="0"
       id="rect7" />
    <path
       d="M 24.485266,7.5147344 C 22.218812,5.2482344 19.205359,4 16,4 12.794641,4 9.7811875,5.2482344 7.5147344,7.5147344 5.2482344,9.7811875 4,12.794641 4,16 4,19.205359 5.2482344,22.218812 7.5147344,24.485266 9.7811875,26.751766 12.794641,28 16,28 19.205359,28 22.218812,26.751766 24.485266,24.485266 26.751766,22.218812 28,19.205359 28,16 28,12.794641 26.751766,9.7811875 24.485266,7.5147344 Z M 7.2473125,21.471578 9.8943438,18.824547 8.710375,17.640578 6.443125,19.907781 C 5.948125,18.701734 5.574,17.382344 5.574,16 5.574,10.306422 10.306422,5.574 16,5.574 c 2.546063,0 4.979797,1.0272344 6.782,2.5604688 L 18.306812,12.509219 C 17.644937,12.070422 16.852,11.813922 16,11.813922 c -2.308172,0 -4.186031,1.877859 -4.186031,4.186031 0,0.851953 0.256453,1.644891 0.695297,2.306813 L 8.1344219,22.681563 C 7.8105625,22.300937 7.5139375,21.896641 7.2473125,21.471578 Z M 18.511609,16 c 0,1.384922 -1.126734,2.511609 -2.511609,2.511609 -1.384875,0 -2.511609,-1.126687 -2.511609,-2.511609 0,-1.384922 1.126734,-2.511609 2.511609,-2.511609 1.384875,0 2.511609,1.126687 2.511609,2.511609 z M 16,26.426 c -2.546062,0 -4.879359,-0.926672 -6.6815625,-2.46 l 4.3747505,-4.475219 c 0.661875,0.438797 1.454812,0.69525 2.306812,0.69525 2.308172,0 4.186031,-1.877859 4.186031,-4.186031 0,-0.851953 -0.256453,-1.644891 -0.695344,-2.306812 l 4.374797,-4.3747505 c 0.323907,0.3805781 0.620485,0.7849215 0.887203,1.2099845 l -2.647031,2.647031 1.183969,1.183969 2.267203,-2.267203 C 26.051781,13.298266 26.425,14.617656 26.425,16 26.425094,21.693578 21.693578,26.426 16,26.426 Z"
       id="path1790"
       style="fill:#bac8df;fill-opacity:1;stroke-width:0.046875"
       sodipodi:nodetypes="cscscscscccccssccsscccssssssccsscccccccs" />
    <circle
       cx="16"
       cy="16"
       r="0.83718753"
       id="circle1796"
       style="fill:#bac8df;fill-opacity:1;stroke-width:0.046875" />
  </g>
</svg>
