<?xml version="1.0" encoding="UTF-8" standalone="no"?>
<svg
   width="32"
   height="32"
   viewBox="0 0 32 32"
   fill="none"
   version="1.1"
   id="svg1"
   sodipodi:docname="kate-symbolic.svg"
   inkscape:version="1.3.2 (091e20ef0f, 2023-11-25)"
   xmlns:inkscape="http://www.inkscape.org/namespaces/inkscape"
   xmlns:sodipodi="http://sodipodi.sourceforge.net/DTD/sodipodi-0.dtd"
   xmlns="http://www.w3.org/2000/svg"
   xmlns:svg="http://www.w3.org/2000/svg">
  <defs
     id="defs1" />
  <sodipodi:namedview
     id="namedview1"
     pagecolor="#ffffff"
     bordercolor="#999999"
     borderopacity="1"
     inkscape:showpageshadow="2"
     inkscape:pageopacity="0"
     inkscape:pagecheckerboard="0"
     inkscape:deskcolor="#d1d1d1"
     inkscape:zoom="16.83798"
     inkscape:cx="15.797619"
     inkscape:cy="16.094567"
     inkscape:window-width="1920"
     inkscape:window-height="994"
     inkscape:window-x="0"
     inkscape:window-y="0"
     inkscape:window-maximized="1"
     inkscape:current-layer="svg1" />
  <style
     type="text/css"
     id="current-color-scheme">.ColorScheme-Text { color: #fcfcfc; } </style>
  <g
     id="kate"
     style="fill:#bac8df;fill-opacity:1">
    <rect
       style="opacity:0.00100002;fill:#bac8df;fill-opacity:1"
       width="32"
       height="32"
       x="0"
       y="0"
       id="rect7" />
    <path
       d="m 22.026864,7.0002964 c -0.08481,-0.00155 -0.171915,0.021231 -0.253935,0.068884 -0.04412,0.027619 -0.234289,0.2397805 -0.421357,0.4709737 l -0.340702,0.424758 -0.123359,-0.078223 c -0.172762,-0.1056465 -0.339426,-0.1289867 -0.494917,-0.06362 -0.107453,0.044938 -0.359354,0.346338 -2.01175,2.3835059 -1.042884,1.28425 -1.890831,2.345087 -1.888281,2.361451 0.003,0.01354 0.42543,0.320253 0.937589,0.676783 l 0.936389,0.652528 1.23204,-1.521893 c 0.678036,-0.837188 1.242138,-1.514765 1.255671,-1.505387 0.04401,0.02994 0.123688,0.687715 0.107994,0.899107 -0.0094,0.115273 -0.05234,0.322428 -0.100887,0.459932 -0.08579,0.245766 -0.09509,0.260166 -1.622405,2.152419 -0.844765,1.046029 -1.548134,1.934597 -1.560738,1.969696 -0.03568,0.09681 0.0063,0.277966 0.08329,0.381849 0.132155,0.175123 0.458988,0.230448 0.644446,0.105602 0.128153,-0.08674 3.153486,-3.862442 3.249659,-4.059356 0.281018,-0.561633 0.339226,-1.28082 0.161396,-1.988474 C 21.747347,10.51 21.654975,10.239996 21.565412,10.048101 21.538692,9.996371 21.582062,9.928606 21.865719,9.576073 22.133051,9.239489 22.194395,9.144883 22.19917,9.057811 22.20986,8.8722932 22.1493,8.7689616 21.952317,8.627562 L 21.769549,8.495414 22.132726,8.043142 C 22.430375,7.6691284 22.494808,7.5713523 22.499469,7.4841537 22.51256,7.2062879 22.281641,7.0025857 22.027045,7 Z m -6.118281,6.2722956 c -0.0094,0.002 -1.120094,1.370069 -2.471036,3.038182 -2.17293,2.686196 -2.48195,3.083866 -2.682372,3.425552 -0.398051,0.680329 -0.831357,1.717596 -1.119131,2.665154 -0.1866111,0.607818 -0.195935,0.55282 0.064398,0.423642 0.801986,-0.401586 1.84954,-1.053488 2.459072,-1.532858 0.596061,-0.469187 0.697526,-0.588532 3.222396,-3.706159 l 2.428336,-3.001834 -0.943567,-0.656948 c -0.518956,-0.36128 -0.948865,-0.65595 -0.957807,-0.654731 z m 0.273014,6.952318 c -0.119339,-0.0091 -0.242112,-0.0046 -0.321728,0.0116 v 0.002 c -0.377291,0.07395 -0.797539,0.377 -1.00044,0.726267 -0.05423,0.09078 -0.141766,0.296266 -0.19586,0.451179 -0.05002,0.157731 -0.09847,0.289369 -0.102151,0.292681 -0.02899,0.03322 -0.750796,0.194314 -1.174964,0.261926 -0.997117,0.161699 -1.269455,0.221948 -1.367288,0.305907 -0.192038,0.164514 -0.04355,0.330212 0.229077,0.2564 0.0719,-0.02083 0.38056,-0.07713 0.677696,-0.124348 0.297752,-0.04677 0.750637,-0.134662 1.007694,-0.188153 0.25766,-0.05724 0.475697,-0.0949 0.486579,-0.08469 0.01052,0.0098 -0.03154,0.201569 -0.100857,0.426887 l -0.123457,0.403853 -0.272944,0.11113 c -0.148842,0.06083 -0.362294,0.164491 -0.474744,0.235471 -0.34093,0.208469 -0.406752,0.470375 -0.167342,0.638251 0.130641,0.09077 0.493244,0.08737 0.718025,-0.0052 0.199311,-0.08391 0.311466,-0.201338 0.467652,-0.507261 0.08336,-0.158307 0.148945,-0.241836 0.199361,-0.251985 0.04064,-0.01025 0.400164,-0.07763 0.798802,-0.155188 0.399219,-0.07394 0.761474,-0.145053 0.808259,-0.155119 0.07578,-0.0165 0.08379,-0.0098 0.06207,0.05385 -0.0142,0.04063 -0.08046,0.158761 -0.149565,0.262996 -0.06882,0.104243 -0.123438,0.228214 -0.123438,0.278381 0,0.104235 0.09495,0.20862 0.170919,0.18157 0.02921,-0.0097 0.06823,-0.02041 0.08666,-0.02041 0.01783,0 0.0984,-0.05395 0.177975,-0.121021 0.148877,-0.124499 0.508029,-0.733744 0.508029,-0.861638 0,-0.06337 0.05402,-0.07995 0.08656,-0.02921 0.01057,0.0165 0.09347,0.04687 0.183952,0.06657 0.127073,0.02995 0.163809,0.05298 0.163809,0.106763 0,0.104217 0.185453,0.256255 0.348956,0.286103 0.126999,0.02084 0.290232,-0.0052 0.464061,-0.07025 0.06201,-0.02414 0.06569,-0.0165 0.04433,0.07025 -0.0142,0.05415 -0.12019,0.225773 -0.232601,0.38407 -0.239399,0.329565 -0.529321,0.853961 -0.605303,1.086081 -0.06178,0.198302 -0.03588,0.346584 0.07578,0.417086 0.101472,0.06083 0.267992,0.03201 0.354875,-0.0554 0.07567,-0.07734 0.490134,-0.887096 0.642071,-1.256639 0.108774,-0.25916 0.159182,-0.329971 0.405895,-0.572284 0.203031,-0.198248 0.269253,-0.245504 0.225534,-0.168331 -0.07211,0.144866 -0.06892,0.255361 0.01047,0.32244 0.170163,0.144727 0.416873,0.0052 0.631404,-0.359855 0.12702,-0.215188 0.221548,-0.2785 0.693118,-0.484203 l 0.245686,-0.104487 -0.0253,0.124301 c -0.01403,0.06686 -0.09834,0.259165 -0.185173,0.423667 -0.170727,0.332955 -0.202399,0.54485 -0.100847,0.726265 0.06846,0.124555 0.141083,0.128579 0.474731,0.02134 0.46428,-0.144776 1.069828,-0.478579 1.227244,-0.6701 0.213851,-0.269359 0.279565,-0.527833 0.149534,-0.61517 -0.134266,-0.09066 -0.210197,-0.05375 -0.380951,0.178268 -0.22857,0.316136 -0.511093,0.562159 -0.783404,0.686685 -0.126981,0.06077 -0.23943,0.100348 -0.250431,0.09028 -0.01404,-0.01323 0.27527,-0.736512 0.430829,-1.076237 0.03233,-0.07015 0.05978,-0.15813 0.05978,-0.194752 0,-0.0941 -0.127422,-0.201349 -0.23618,-0.201349 -0.05052,0 -0.291106,0.09031 -0.530538,0.204642 -0.497066,0.228756 -0.464068,0.248927 -0.337059,-0.181579 0.07578,-0.265372 0.05042,-0.336276 -0.123428,-0.353225 -0.167076,-0.01651 -0.23205,0.03354 -0.384492,0.286101 -0.09788,0.171292 -0.228028,0.31296 -0.47837,0.528245 -0.329939,0.282229 -0.344757,0.292156 -0.421329,0.242017 -0.116059,-0.07733 -0.181508,-0.06656 -0.464076,0.06397 -0.275891,0.127885 -0.366883,0.144827 -0.43557,0.06687 -0.05841,-0.06377 0.03287,-0.09745 0.537642,-0.188159 0.489761,-0.08732 0.550711,-0.111703 0.550711,-0.205801 0,-0.151551 -0.134476,-0.295353 -0.373893,-0.392852 -0.413814,-0.17122 -0.459794,-0.181998 -0.640882,-0.138643 -0.195688,0.04667 -0.486245,0.305971 -0.525787,0.467708 -0.04063,0.168422 -0.16374,0.117663 -0.16374,-0.06697 0,-0.07733 -0.101987,-0.272123 -0.160299,-0.3059 -0.123296,-0.07734 -0.322231,0.0912 -0.474651,0.400542 l -0.119916,0.238767 -0.268203,0.05385 c -0.348226,0.07025 -1.360018,0.258578 -1.494349,0.282828 -0.08674,0.01323 -0.101259,0.009 -0.08327,-0.04104 0.01411,-0.03312 0.05741,-0.180729 0.100817,-0.332295 0.112378,-0.416923 0.145774,-0.471366 0.308574,-0.524894 0.195659,-0.06369 0.85653,-0.326575 1.026634,-0.407137 0.07979,-0.03764 0.242318,-0.15113 0.362017,-0.251986 0.366364,-0.316108 0.423895,-0.609008 0.16255,-0.82418 -0.07211,-0.05724 -0.166932,-0.117357 -0.210066,-0.134342 -0.06702,-0.02418 -0.182208,-0.04043 -0.301404,-0.04564 z m -0.365561,0.392842 c 0.05001,-0.0045 0.109878,-0.002 0.185146,0.0052 0.192026,0.0098 0.268716,0.02717 0.322754,0.08024 0.07205,0.06666 0.07189,0.06986 0.0094,0.19808 -0.04414,0.08049 -0.144745,0.175247 -0.27177,0.256377 -0.221162,0.141423 -0.914577,0.399949 -0.936368,0.35317 -0.02889,-0.07733 0.193053,-0.538424 0.334653,-0.68664 0.141292,-0.148709 0.207329,-0.196788 0.358485,-0.204628 z m -1.862272,2.815934 c 0.02837,0.003 0.02861,0.02461 0.0077,0.06564 -0.04819,0.08395 -0.171105,0.144705 -0.239825,0.120994 -0.07976,-0.02995 -0.05812,-0.06977 0.06895,-0.13087 0.08372,-0.03913 0.138483,-0.05835 0.166093,-0.05673 z"
       class="ColorScheme-Text "
       id="path14466-5"
       style="color:#e5e9ef;fill:#bac8df;fill-opacity:1;stroke-width:0.933514" />
    <path
       d="M 9.1486185,27.999999 H 22.851386 C 24.588307,27.995354 25.995156,26.646138 26,24.980373 V 7.0196255 C 25.9952,5.3538595 24.588307,4.0046445 22.851386,3.9999995 H 9.1486185 c -1.738938,-3e-6 -3.148621,1.351935 -3.148618,3.019633 V 24.980373 c 1e-6,1.667695 1.409683,3.019629 3.148618,3.019626 z M 7.0000005,6.9999985 c 6e-6,-1.000609 0.956647,-1.999995 2,-2 H 23 c 1.043355,0 1.999993,0.999387 2,2 V 24.999999 H 7.0000005 Z"
       id="path3728"
       style="fill:#bac8df;fill-opacity:1;stroke-width:1.23337"
       sodipodi:nodetypes="cccccccccccscccc" />
  </g>
</svg>
