<?xml version="1.0" encoding="UTF-8" standalone="no"?>
<svg
   width="32"
   height="32"
   version="1.1"
   id="svg12"
   sodipodi:docname="nulloy-symbolic.svg"
   inkscape:version="1.3.2 (091e20ef0f, 2023-11-25)"
   xmlns:inkscape="http://www.inkscape.org/namespaces/inkscape"
   xmlns:sodipodi="http://sodipodi.sourceforge.net/DTD/sodipodi-0.dtd"
   xmlns="http://www.w3.org/2000/svg"
   xmlns:svg="http://www.w3.org/2000/svg">
  <style
     id="current-color-scheme"
     type="text/css">.ColorScheme-Text { color:#eff0f1; }
</style>
  <defs
     id="defs16" />
  <sodipodi:namedview
     id="namedview14"
     pagecolor="#02334b"
     bordercolor="#000000"
     borderopacity="1"
     inkscape:showpageshadow="2"
     inkscape:pageopacity="0"
     inkscape:pagecheckerboard="true"
     inkscape:deskcolor="#02334b"
     showgrid="true"
     inkscape:zoom="10.429825"
     inkscape:cx="16.203532"
     inkscape:cy="24.0656"
     inkscape:window-width="1920"
     inkscape:window-height="994"
     inkscape:window-x="0"
     inkscape:window-y="0"
     inkscape:window-maximized="1"
     inkscape:current-layer="svg12"
     showguides="false">
    <inkscape:grid
       type="xygrid"
       id="grid559"
       originx="-3"
       originy="-32"
       spacingy="1"
       spacingx="1"
       units="px"
       visible="true" />
  </sodipodi:namedview>
  <g
     id="mellowplayer"
     style="fill:#d1d5e9;fill-opacity:1">
    <rect
       style="opacity:0.00100002;fill:#d1d5e9;fill-opacity:1"
       width="32"
       height="32"
       x="0"
       y="0"
       id="rect11" />
    <path
       style="color:#d6dbf1;opacity:1;fill:#bac8df;fill-opacity:1"
       d="M 12.285156,4 A 7.2857141,7.2857141 0 0 0 5,11.285156 7.2857141,7.2857141 0 0 0 5.5371094,14.007812 4,4 0 0 1 9,12 4,4 0 0 1 9.00977,12 V 7.6054688 c 4.413e-4,0 -0.034895,-0.3975301 0.2773438,-0.5546876 C 9.3629573,7.0126311 9.439772,6.9986121 9.5097656,7 9.7197464,7.0041638 9.8828125,7.140625 9.8828125,7.140625 L 13.869141,9.5117188 A 4,4 0 0 1 17,8 4,4 0 0 1 19.025391,8.5566406 7.2857141,7.2857141 0 0 0 12.285156,4 Z m -2.27539,4.3789062 v 7.5937498 7.580078 l 6.30664,-3.748046 6.455078,-3.832032 -6.439453,-3.832031 z M 20,9 A 7,7 0 0 0 19.662109,9.0214844 4,4 0 0 1 21,12 4,4 0 0 1 20.677734,13.5625 l 2.896485,1.724609 c 0,0 0.425781,0.207318 0.425781,0.707032 0,0.50108 -0.429688,0.664062 -0.429688,0.664062 l -2.912109,1.730469 A 4,4 0 0 1 21,20 4,4 0 0 1 19.660156,22.980469 7,7 0 0 0 20,23 7,7 0 0 0 27,16 7,7 0 0 0 20,9 Z M 11.009766,10.138672 15.820312,13 l 4.994141,2.972656 -5.007812,2.972656 -4.796875,2.84961 V 15.972656 Z M 5.5351562,17.992188 A 7.2857141,7.2857141 0 0 0 5,20.714844 7.2857141,7.2857141 0 0 0 12.285156,28 7.2857141,7.2857141 0 0 0 19.03125,23.439453 4,4 0 0 1 17,24 4,4 0 0 1 13.837891,22.441406 l -4.1269535,2.453125 c 0,0 -0.2069737,0.185292 -0.4746094,0.06641 C 8.9307105,24.824274 9.0097656,24.476562 9.0097656,24.476562 V 20 A 4,4 0 0 1 9,20 4,4 0 0 1 5.5351562,17.992188 Z"
       id="path13"
       class="ColorScheme-Text" />
    <path
       style="color:#d6dbf1;opacity:0.5;fill:#bac8df;fill-opacity:1"
       d="M 17,8 A 4,4 0 0 0 13.869141,9.5117188 L 16.84375,11.279297 20.677734,13.5625 A 4,4 0 0 0 21,12 4,4 0 0 0 17,8 Z m -8,4 a 4,4 0 0 0 -4,4 4,4 0 0 0 4,4 4,4 0 0 0 0.00977,0 V 15.972656 12 A 4,4 0 0 0 9,12 Z m 11.658203,6.388672 -3.830078,2.27539 -2.990234,1.777344 A 4,4 0 0 0 17,24 4,4 0 0 0 21,20 4,4 0 0 0 20.658203,18.388672 Z"
       id="path15"
       class="ColorScheme-Text" />
  </g>
</svg>
