<?xml version="1.0" encoding="UTF-8" standalone="no"?>
<svg
   viewBox="0 0 32 32"
   version="1.1"
   id="svg1"
   sodipodi:docname="plasmavault-symbolic.svg"
   width="32"
   height="32"
   inkscape:version="1.3.2 (091e20ef0f, 2023-11-25)"
   xmlns:inkscape="http://www.inkscape.org/namespaces/inkscape"
   xmlns:sodipodi="http://sodipodi.sourceforge.net/DTD/sodipodi-0.dtd"
   xmlns="http://www.w3.org/2000/svg"
   xmlns:svg="http://www.w3.org/2000/svg">
  <sodipodi:namedview
     id="namedview1"
     pagecolor="#ffffff"
     bordercolor="#999999"
     borderopacity="1"
     inkscape:showpageshadow="2"
     inkscape:pageopacity="0"
     inkscape:pagecheckerboard="0"
     inkscape:deskcolor="#d1d1d1"
     showgrid="true"
     inkscape:zoom="11.90625"
     inkscape:cx="15.706037"
     inkscape:cy="16.461942"
     inkscape:window-width="1920"
     inkscape:window-height="994"
     inkscape:window-x="0"
     inkscape:window-y="0"
     inkscape:window-maximized="1"
     inkscape:current-layer="svg1">
    <inkscape:grid
       id="grid2"
       units="px"
       originx="3"
       originy="-28"
       spacingx="1"
       spacingy="1"
       empcolor="#0099e5"
       empopacity="0.30196078"
       color="#0099e5"
       opacity="0.14902"
       empspacing="5"
       dotted="false"
       gridanglex="30"
       gridanglez="30"
       visible="true" />
  </sodipodi:namedview>
  <defs
     id="defs1">
    <style
       type="text/css"
       id="current-color-scheme">.ColorScheme-Text { color: #fcfcfc; } </style>
  </defs>
  <g
     id="plasmavault">
    <rect
       style="opacity:0.00100002"
       width="32"
       height="32"
       x="0"
       y="0"
       id="rect7" />
    <path
       d="M 25.812595,8 H 14.815075 C 14.572011,8 14.359931,7.98283 14.208,7.758 L 13.387221,6.674275 C 13.11385,6.224845 12.658049,6 12.172135,6 H 6.551856 C 5.154272,6 4,7.21997 4,8.69658 V 23.989 C 4,25.241015 4.972266,26 6.187352,26 h 9.448144 v 0 0 0 0 0 0 0 h 0.729008 v 0 0 0 0 0 0 0 0 0 H 21 v -1 l 7,-7 v 0 0 -7.677 C 28,8.7002501 27,8 25.812647,8 Z m -9.448091,18 v 0 h -0.729008 v 0 0 z M 27,18 h 1 l -7,7 v 0 H 6.18724 C 5.397419,25 5,24.523277 5,23.688666 V 18.520115 15.598697 C 5,14.764078 5.397205,14 6.187026,14 H 17.585 c 0.486128,0 0.815329,-0.217495 1.115,-0.616454 L 19.589,12.2 C 19.740942,12.007415 19.9,12 19.9,12 H 25.447656 27 v 5.878103 z m -1.552074,-6.991948 -5.650657,-0.0081 c -0.486128,0 -0.915236,0.183178 -1.215087,0.582 l -0.890182,1.184 c -0.121425,0.224826 -0.264135,0.234 -0.507184,0.234 H 6.487 c -0.546728,0 -1.091116,-0.01549 -1.487,0.574 V 10.615336 C 5,9.846106 5.500004,8.999952 6.250004,8.999952 h 6.000004 0.01609 1.108913 H 15 l 10.842932,0.08162 C 26.632731,9.087472 27,9.787835 27,10.622453 v 0.377495 l -1.952,0.0079 z"
       id="path64-7"
       sodipodi:nodetypes="csccssssscccccccccccccccccccccccsccccccccccccssccsssccscscccsccscccccccssccc"
       style="fill:#bac8df;fill-opacity:1;stroke-width:0.0557669" />
    <path
       d="m 29.148256,23.255109 h -0.251738 l -0.0011,-1.094217 c -0.0019,-1.192 -1.113236,-2.161781 -2.479944,-2.160891 -1.366705,10e-4 -2.478618,0.970669 -2.477592,2.162665 l 0.0017,1.094225 h -0.08964 c -0.469789,0.001 -0.850975,0.333333 -0.849948,0.74311 V 27.25778 C 23.000337,27.667559 23.382513,28 23.852357,28 l 5.297642,-0.003 c 0.469832,0 0.851008,-0.332443 0.849999,-0.742225 v -3.258564 c 0,-0.409773 -0.382203,-0.741329 -0.852034,-0.741329 z m -4.294778,0.0019 -0.0017,-1.094221 c 0,-0.752888 0.701184,-1.365334 1.564419,-1.366221 0.863234,0 1.565447,0.612442 1.565447,1.364442 l 0.002,1.094226 z"
       id="path2-3-3-5"
       style="fill:#bac8df;fill-opacity:1;stroke-width:0.0951819" />
  </g>
</svg>
