<?xml version="1.0" encoding="UTF-8" standalone="no"?>
<svg
   viewBox="0 0 22 22"
   version="1.1"
   id="svg1"
   sodipodi:docname="dialog-cancel.svg"
   inkscape:version="1.3.2 (091e20ef0f, 2023-11-25)"
   width="22"
   height="22"
   xmlns:inkscape="http://www.inkscape.org/namespaces/inkscape"
   xmlns:sodipodi="http://sodipodi.sourceforge.net/DTD/sodipodi-0.dtd"
   xmlns:xlink="http://www.w3.org/1999/xlink"
   xmlns="http://www.w3.org/2000/svg"
   xmlns:svg="http://www.w3.org/2000/svg">
  <sodipodi:namedview
     id="namedview1"
     pagecolor="#ffffff"
     bordercolor="#999999"
     borderopacity="1"
     inkscape:showpageshadow="2"
     inkscape:pageopacity="0"
     inkscape:pagecheckerboard="0"
     inkscape:deskcolor="#d1d1d1"
     showgrid="false"
     inkscape:zoom="16.83798"
     inkscape:cx="17.995033"
     inkscape:cy="14.966166"
     inkscape:window-width="1920"
     inkscape:window-height="994"
     inkscape:window-x="0"
     inkscape:window-y="0"
     inkscape:window-maximized="1"
     inkscape:current-layer="svg1">
    <inkscape:grid
       id="grid1"
       units="px"
       originx="0"
       originy="0"
       spacingx="1"
       spacingy="1"
       empcolor="#0099e5"
       empopacity="0.30196078"
       color="#0099e5"
       opacity="0.14902"
       empspacing="5"
       dotted="false"
       gridanglex="30"
       gridanglez="30"
       visible="false" />
  </sodipodi:namedview>
  <defs
     id="defs3051">
    <linearGradient
       id="linearGradient1"
       inkscape:collect="always">
      <stop
         style="stop-color:#c83771;stop-opacity:1;"
         offset="0"
         id="stop1" />
      <stop
         style="stop-color:#d40000;stop-opacity:1"
         offset="1"
         id="stop2" />
    </linearGradient>
    <style
       type="text/css"
       id="current-color-scheme">.ColorScheme-Text { color: #fcfcfc; } </style>
    <linearGradient
       inkscape:collect="always"
       xlink:href="#linearGradient1"
       id="linearGradient2"
       x1="7.0000067"
       y1="7.000001"
       x2="13.000007"
       y2="13.000001"
       gradientUnits="userSpaceOnUse"
       gradientTransform="matrix(-1.5000001,0,0,-1.5000001,22.99988,23.000002)" />
    <linearGradient
       inkscape:collect="always"
       xlink:href="#linearGradient1"
       id="linearGradient4"
       x1="9.0000067"
       y1="9.000001"
       x2="13.000007"
       y2="13.000001"
       gradientUnits="userSpaceOnUse"
       gradientTransform="matrix(-1.5000001,0,0,-1.5000001,22.99988,23.000002)" />
  </defs>
  <path
     style="fill:#c87137;fill-opacity:1;stroke:none;stroke-width:1.1666"
     d="m 32.440945,-22.60105 c -3.865991,0 -7,3.134016 -7,7 0,3.86598 3.134009,7.0000002 7,7.0000002 3.865987,0 7,-3.1340202 7,-7.0000002 0,-3.865984 -3.134013,-7 -7,-7 z m 0,1.166666 c 3.221664,0 5.83334,2.611672 5.83334,5.833334 0,1.399575 -0.527303,2.640624 -1.34897,3.64584 l -8.130204,-8.130216 c 1.00522,-0.821667 2.246259,-1.348958 3.645834,-1.348958 z m -4.484376,2.1875 8.130216,8.130204 c -1.005216,0.821667 -2.246265,1.3489702 -3.64584,1.3489702 -3.221662,0 -5.833334,-2.6116762 -5.833334,-5.8333402 0,-1.399575 0.527291,-2.640613 1.348958,-3.645834 z"
     class="ColorScheme-Text"
     id="path1" />
  <path
     d="M 17.355792,4.6314384 C 13.816254,1.0941472 8.0388758,1.1230898 4.5359787,4.7182586 1.2731667,8.0669859 1.1398032,13.463355 4.2452547,16.958302 c 2.7210187,3.062309 7.0561923,3.875017 10.6359313,2.152192 0.429637,-0.206777 0.577148,-0.748083 0.329694,-1.155431 -0.221894,-0.36523 -0.683003,-0.488688 -1.069069,-0.305077 -2.984712,1.41951 -6.6027104,0.691158 -8.8104045,-1.938024 C 3.0921086,13.045183 3.0544362,9.0884857 5.2452464,6.3817663 8.0393704,2.9296807 13.139725,2.731877 16.198147,5.7883749 c 2.228931,2.2275068 2.778997,5.5724371 1.447804,8.3623901 -0.18298,0.383521 -0.05711,0.841856 0.306345,1.06236 l 0.0027,0.002 c 0.406343,0.246251 0.946892,0.101152 1.153356,-0.32679 1.648602,-3.417486 0.981326,-7.524738 -1.752363,-10.256703 z"
     id="path1-0-9"
     style="fill:url(#linearGradient2);fill-opacity:1;stroke-width:0.32733" />
  <path
     d="m 10.10006,11.256639 4.174942,4.174943 c 0.743432,0.71804 1.833355,-0.371883 1.115315,-1.115313 l -4.174942,-4.174942 v 0 L 10.10006,9.0260119 v 0 L 5.9251142,4.8510778 C 5.1816798,4.1330922 4.0918321,5.2229606 4.8097964,5.9663889 l 4.1749477,4.1749381 v 0 l 1.1153159,1.115312"
     id="path1-3"
     sodipodi:nodetypes="cccccccccccc"
     style="fill:url(#linearGradient4);stroke-width:1.28571" />
</svg>
