<?xml version="1.0" encoding="UTF-8" standalone="no"?>
<svg
   viewBox="0 0 22 22"
   version="1.1"
   id="svg1"
   sodipodi:docname="system-hibernate-symbolic.svg"
   width="22"
   height="22"
   inkscape:version="1.3.2 (091e20ef0f, 2023-11-25)"
   xmlns:inkscape="http://www.inkscape.org/namespaces/inkscape"
   xmlns:sodipodi="http://sodipodi.sourceforge.net/DTD/sodipodi-0.dtd"
   xmlns="http://www.w3.org/2000/svg"
   xmlns:svg="http://www.w3.org/2000/svg">
  <defs
     id="defs1" />
  <sodipodi:namedview
     id="namedview1"
     pagecolor="#ffffff"
     bordercolor="#999999"
     borderopacity="1"
     inkscape:showpageshadow="2"
     inkscape:pageopacity="0"
     inkscape:pagecheckerboard="0"
     inkscape:deskcolor="#d1d1d1"
     inkscape:zoom="8.6590909"
     inkscape:cx="-11.086614"
     inkscape:cy="10.740157"
     inkscape:window-width="1920"
     inkscape:window-height="996"
     inkscape:window-x="0"
     inkscape:window-y="0"
     inkscape:window-maximized="1"
     inkscape:current-layer="svg1" />
  <style
     type="text/css"
     id="current-color-scheme">.ColorScheme-Text { color:#fcfcfc; }
</style>
  <g
     id="22-22-system-suspend-hibernate">
    <path
       style="fill:none"
       d="M 0,0 V 22 H 22 V 0 Z"
       id="path49-1" />
    <path
       d="m 12.171169,13.682469 c -0.06288,-0.05562 -0.0981,-0.13464 -0.0981,-0.21804 l 1.04e-4,-7.2936919 C 12.073175,5.525409 11.547797,5 10.902436,5 10.257086,5 9.731695,5.525383 9.731695,6.1707371 v 7.2936919 c 0,0.0834 -0.0351,0.162405 -0.09654,0.21804 C 9.231214,14.043929 9,14.560554 9,15.097569 9,16.146817 9.853158,17 10.902431,17 c 1.04928,0 1.902435,-0.853156 1.902435,-1.902431 0,-0.537143 -0.231204,-1.05364 -0.633697,-1.4151 z M 11,15 Z m 0,0 v 0 0 -9e-6 z"
       id="path2153-3"
       style="stroke-width:0.0261322;fill-opacity:1;fill:currentColor;"
       sodipodi:nodetypes="cccssscsssccccccccccc"
       class="ColorScheme-Text" />
    <path
       d="m 13.550586,10 h 2.877985 c 0.734116,0.003 0.734116,0.854194 0,0.857142 h -2.877985 c -0.734115,-0.003 -0.734115,-0.854198 0,-0.857142 z m 2.877985,0.685714 z"
       id="path8-6-7-6-6"
       style="stroke-width:0.0974052;fill-opacity:1;fill:currentColor;"
       sodipodi:nodetypes="cccccccccc"
       class="ColorScheme-Text " />
    <path
       style="stop-color:#31363b;stroke-opacity:1;stroke-dasharray:none;stroke-miterlimit:4;stroke-linecap:round;stroke-width:1.33677;stroke:currentColor;fill-opacity:1;fill:none;"
       sodipodi:type="arc"
       sodipodi:cx="-11.000002"
       sodipodi:cy="-11.00001"
       sodipodi:rx="9.3346014"
       sodipodi:ry="9.3346014"
       sodipodi:start="3.7596615"
       sodipodi:end="3.7595406"
       sodipodi:open="true"
       sodipodi:arc-type="arc"
       transform="scale(-1)"
       d="m -18.607693,-16.40906 a 9.3346014,9.3346014 0 0 1 13.0165112,-2.198804 9.3346014,9.3346014 0 0 1 2.1991977,13.0164447 9.3346014,9.3346014 0 0 1 -13.0163779,2.1995911 9.3346014,9.3346014 0 0 1 -2.199985,-13.0163118"
       id="path7-67"
       class="ColorScheme-Text " />
  </g>
</svg>
