<?xml version="1.0" encoding="UTF-8" standalone="no"?>
<svg
   viewBox="0 0 22 22"
   version="1.1"
   id="svg1"
   sodipodi:docname="wallet-open.svg"
   width="22"
   height="22"
   inkscape:version="1.3.2 (091e20ef0f, 2023-11-25)"
   xmlns:inkscape="http://www.inkscape.org/namespaces/inkscape"
   xmlns:sodipodi="http://sodipodi.sourceforge.net/DTD/sodipodi-0.dtd"
   xmlns="http://www.w3.org/2000/svg"
   xmlns:svg="http://www.w3.org/2000/svg">
  <sodipodi:namedview
     id="namedview1"
     pagecolor="#ffffff"
     bordercolor="#999999"
     borderopacity="1"
     inkscape:showpageshadow="2"
     inkscape:pageopacity="0"
     inkscape:pagecheckerboard="0"
     inkscape:deskcolor="#d1d1d1"
     inkscape:zoom="12.245804"
     inkscape:cx="10.860863"
     inkscape:cy="-2.0415156"
     inkscape:window-width="1920"
     inkscape:window-height="994"
     inkscape:window-x="0"
     inkscape:window-y="0"
     inkscape:window-maximized="1"
     inkscape:current-layer="svg1" />
  <defs
     id="defs3051">
    <style
       type="text/css"
       id="current-color-scheme">.ColorScheme-Text {color:#fcfcfc;}</style>
  </defs>
  <g
     id="22-22-wallet-open"
     transform="translate(-4.038086e-7,22)">
    <rect
       style="opacity:0.00100002;fill:#d3dae3;fill-opacity:1;stroke-width:0.6875"
       width="22"
       height="22"
       x="4.038086e-07"
       y="-22"
       id="rect12-7" />
    <path
       d="m 17,-10 v 3 c 0,0.666444 0,1 -1,1 v 0 h -2 -7.0000004 -2 c -1,0 -1,-0.333556 -1,-1 v 0 0 -3 -4 -1 c 0,-0.666444 0,-1 1,-1 h 1 H 12 16 c 1,0 1,0.333556 1,1 v 0 1 2 l 0.99971,-0.330882 -0.0064,-2.643916 0.0064,-0.688302 c 0,-0.666444 -0.624997,-1.332887 -1.249997,-1.332887 -1.246853,-0.01136 -2.603024,0.005 -3.849865,0.005 H 6.9114315 4.8666094 l 0.00841,-0.005 H 4.2499936 C 3.6249941,-16.995987 3,-16.329544 3,-15.6631 L 3.010848,-11.801169 3,-6.332888 v 0 C 3,-5.666445 3.6249941,-5 4.2499936,-5 h 1.5039294 5.667789 4.819933 0.508362 C 17.375006,-5 18,-5.666445 18,-6.332888 L 17.9911,-7.046404 V -8.631326 L 18,-9.665106 C 17.94136,-9.76658 17,-10 17,-10 Z"
       id="path2-3-5"
       style="color:#d6dbf1;fill:#d3dae3;fill-opacity:1;stroke-width:0.0367089"
       class="ColorScheme-Text"
       sodipodi:nodetypes="cccccccccccccccccccccccccsccccccccsccccccccc" />
    <path
       d="m 19.511835,-10.988154 c 0,1.105104 -0.894899,1.999989 -1.999999,1.999989 -1.104167,0 -2.000001,-0.894885 -2.000001,-1.999989 0,-1.104178 0.895834,-2.000011 2.000001,-2.000011 1.1051,0 1.999999,0.895833 1.999999,2.000011 z"
       id="path72-3-7-36-3"
       style="color:#e5e9ef;fill:#d3dae3;fill-opacity:1;stroke:none;stroke-width:0.0238105;stroke-opacity:1"
       class="ColorScheme-Text" />
    <path
       d="M 7.999999,-13.9 C 6.34259,-13.9 5,-12.556534 5,-10.902126 5,-9.243543 6.342613,-7.9 7.999999,-7.9 9.657391,-7.9 11,-9.243565 11,-10.902126 10.9959,-12.556408 9.653016,-13.9 7.999999,-13.9 Z m -0.14866,2.424432 0.677831,0.350102 c 0.402388,0.210021 0.621047,0.63456 0.546654,1.089668 -0.05675,0.350103 -0.279855,0.63016 -0.585981,0.765847 v 0.09192 c 0,0.231903 -0.188013,0.415748 -0.415454,0.415748 -0.231739,0 -0.415455,-0.18814 -0.415455,-0.415748 v -0.06564 C 7.335349,-9.353079 7.059769,-9.593773 6.915497,-9.921994 c -0.09187,-0.210023 0.0041,-0.455109 0.214271,-0.547035 0.214262,-0.09192 0.454779,0.0043 0.546639,0.214417 0.06994,0.157566 0.231744,0.258176 0.40239,0.240696 0.131188,-0.02188 0.161838,-0.09192 0.170533,-0.153171 0.0041,-0.03496 0.01304,-0.153169 -0.10494,-0.214417 l -0.677847,-0.350101 c -0.406652,-0.210021 -0.625297,-0.656442 -0.542249,-1.11155 0.07861,-0.398266 0.358556,-0.700203 0.734576,-0.800908 v -0.166258 c 0,-0.231903 0.187997,-0.415747 0.415448,-0.415747 0.231739,0 0.415456,0.18814 0.415456,0.415747 v 0.258176 c 0.262387,0.126892 0.472242,0.337022 0.59477,0.612678 0.09187,0.210022 -0.0041,0.455107 -0.21427,0.547034 -0.214264,0.09192 -0.459184,-0.0044 -0.551044,-0.214418 -0.06565,-0.157565 -0.231728,-0.253773 -0.402273,-0.240695 -0.122514,0.01308 -0.157457,0.105011 -0.166241,0.157566 -0.009,0.04377 -0.01751,0.153171 0.10064,0.214419 z m 2.387831,0.823102 z m 0,0 z"
       id="path1454-5"
       sodipodi:nodetypes="ssscsccccsssccccccccccsssccccccccccccccccccccc"
       style="fill:#d3dae3;fill-opacity:1;stroke-width:0.0249989" />
    <path
       d="M 18.5,-10.999991 C 18.5,-10.447445 18.05255,-10 17.500001,-10 16.947914,-10 16.5,-10.447445 16.5,-10.999991 16.5,-11.552086 16.947914,-12 17.500001,-12 18.05255,-12 18.5,-11.552086 18.5,-10.999991 Z"
       id="path72-3-7-36-3-7-9-1"
       style="color:#e5e9ef;fill:#000000;fill-opacity:1;stroke:none;stroke-width:0.011905;stroke-opacity:1"
       class="ColorScheme-Text" />
  </g>
</svg>
