<?xml version="1.0" encoding="UTF-8" standalone="no"?>
<svg
   viewBox="0 0 24 24"
   version="1.1"
   id="svg1"
   sodipodi:docname="window-pin.svg"
   width="24"
   height="24"
   inkscape:version="1.3.2 (091e20ef0f, 2023-11-25)"
   xmlns:inkscape="http://www.inkscape.org/namespaces/inkscape"
   xmlns:sodipodi="http://sodipodi.sourceforge.net/DTD/sodipodi-0.dtd"
   xmlns="http://www.w3.org/2000/svg"
   xmlns:svg="http://www.w3.org/2000/svg">
  <defs
     id="defs1" />
  <sodipodi:namedview
     id="namedview1"
     pagecolor="#ffffff"
     bordercolor="#999999"
     borderopacity="1"
     inkscape:showpageshadow="2"
     inkscape:pageopacity="0"
     inkscape:pagecheckerboard="0"
     inkscape:deskcolor="#d1d1d1"
     inkscape:zoom="8.6590909"
     inkscape:cx="11.779528"
     inkscape:cy="27.60105"
     inkscape:window-width="1920"
     inkscape:window-height="996"
     inkscape:window-x="0"
     inkscape:window-y="0"
     inkscape:window-maximized="1"
     inkscape:current-layer="svg1" />
  <style
     type="text/css"
     id="current-color-scheme">.ColorScheme-Text { color:#d8d8d8; }
</style>
  <g
     id="22-22-window-pin">
    <path
       id="rect838-6-3"
       d="M 0,0 H 24 V 24 H 0 Z"
       fill="none"
       style="stroke-width:1.09091" />
    <path
       d="m 19.447632,8.8397214 -4.293533,-4.291903 c -0.460869,-0.452826 -1.119472,-0.642099 -1.750415,-0.50298 -0.631116,0.1391 -1.148965,0.58766 -1.376467,1.192173 -0.227554,0.604674 -0.133847,1.283182 0.248961,1.803477 0.311915,0.814659 0.02754,1.947473 -0.672829,2.64761 C 10.902987,10.38824 9.7484395,10.678846 8.9292665,10.35005 l -0.04887,-0.01484 c -0.4416,-0.249658 -0.97726,-0.268895 -1.435865,-0.05168 -0.458521,0.217388 -0.782669,0.644033 -0.868998,1.143765 -0.0863,0.499879 0.07608,1.010447 0.435057,1.368865 l 1.804042,1.79063 -4.690278,4.688546 v -1.52e-4 c -0.165806,0.165747 -0.165806,0.43465 0,0.60039 0.16593,0.165894 0.434781,0.165894 0.600756,0 L 9.4047965,15.176425 11.19815,16.9691 c 0.289715,0.290797 0.68257,0.455485 1.093138,0.458167 0.410456,0.0029 0.805631,-0.156564 1.099159,-0.443358 l 0.01466,-0.01481 h 1.8e-4 c 0.241581,-0.242999 0.396555,-0.558489 0.440969,-0.89828 0.04454,-0.339615 -0.02407,-0.684406 -0.194801,-0.981425 -0.0034,-0.01358 -0.0069,-0.02702 -0.01074,-0.04029 -0.322622,-0.812579 -0.03414,-1.95816 0.670603,-2.662543 0.70465,-0.704411 1.823088,-0.986463 2.633752,-0.683082 0.329682,0.252016 0.73325,0.388463 1.148245,0.388161 h 0.0276 c 0.501816,-0.008 0.980285,-0.213399 1.331913,-0.571369 0.351648,-0.357969 0.548029,-0.839809 0.547215,-1.341471 C 19.999397,9.6771424 19.800456,9.1960474 19.447408,8.8394054 Z M 9.3333555,14.666713 v 0 0 0 0 h 0.6666705 v 0 0 z M 14.000044,8.0000194 Z"
       id="path64-36"
       style="stroke-width:0.0378912;fill-opacity:1;fill:currentColor;"
       sodipodi:nodetypes="cccccccccccccccccccccccccccccccccccccccccccccccccc"
       class="ColorScheme-Text" />
  </g>
</svg>
