<?xml version="1.0" encoding="UTF-8" standalone="no"?>
<svg
   viewBox="0 0 32 32"
   version="1.1"
   id="svg12"
   sodipodi:docname="folder-projects.svg"
   inkscape:version="1.3.2 (091e20ef0f, 2023-11-25)"
   xmlns:inkscape="http://www.inkscape.org/namespaces/inkscape"
   xmlns:sodipodi="http://sodipodi.sourceforge.net/DTD/sodipodi-0.dtd"
   xmlns:xlink="http://www.w3.org/1999/xlink"
   xmlns="http://www.w3.org/2000/svg"
   xmlns:svg="http://www.w3.org/2000/svg"
   xmlns:rdf="http://www.w3.org/1999/02/22-rdf-syntax-ns#"
   xmlns:cc="http://creativecommons.org/ns#"
   xmlns:dc="http://purl.org/dc/elements/1.1/">
  <metadata
     id="metadata16">
    <rdf:RDF>
      <cc:Work
         rdf:about="">
        <dc:format>image/svg+xml</dc:format>
        <dc:type
           rdf:resource="http://purl.org/dc/dcmitype/StillImage" />
      </cc:Work>
    </rdf:RDF>
  </metadata>
  <sodipodi:namedview
     pagecolor="#ffffff"
     bordercolor="#666666"
     borderopacity="1"
     objecttolerance="10"
     gridtolerance="10"
     guidetolerance="10"
     inkscape:pageopacity="0"
     inkscape:pageshadow="2"
     inkscape:window-width="1920"
     inkscape:window-height="996"
     id="namedview14"
     showgrid="true"
     inkscape:zoom="20.85965"
     inkscape:cx="16.778805"
     inkscape:cy="25.743481"
     inkscape:window-x="0"
     inkscape:window-y="0"
     inkscape:window-maximized="1"
     inkscape:current-layer="svg12"
     inkscape:showpageshadow="2"
     inkscape:pagecheckerboard="0"
     inkscape:deskcolor="#d1d1d1">
    <inkscape:grid
       type="xygrid"
       id="grid18219"
       originx="0"
       originy="0"
       spacingy="1"
       spacingx="1"
       units="px"
       visible="true" />
  </sodipodi:namedview>
  <defs
     id="defs3051">
    <style
       type="text/css"
       id="current-color-scheme">.ColorScheme-Text { color:#31363b; }
.ColorScheme-Background { color:#eff0f1; }
.ColorScheme-Highlight { color:#3daee9; }
.ColorScheme-ViewText { color:#31363b; }
.ColorScheme-ViewBackground { color:#fcfcfc; }
.ColorScheme-ViewHover { color:#93cee9; }
.ColorScheme-ViewFocus { color:#3daee9; }
.ColorScheme-ButtonText { color:#31363b; }
.ColorScheme-ButtonBackground { color:#eff0f1; }
.ColorScheme-ButtonHover { color:#93cee9; }
.ColorScheme-ButtonFocus { color:#3daee9; }
</style>
    <linearGradient
       inkscape:collect="always"
       xlink:href="#linearGradient4393"
       id="linearGradient668"
       gradientUnits="userSpaceOnUse"
       gradientTransform="matrix(1.8102342,0,0,1.7335427,1.50002,-1795.3113)"
       x1="5"
       y1="1037.3622"
       x2="8"
       y2="1051.3622" />
    <linearGradient
       inkscape:collect="always"
       id="linearGradient4393">
      <stop
         style="stop-color:#000000;stop-opacity:1;"
         offset="0"
         id="stop4395" />
      <stop
         style="stop-color:#000000;stop-opacity:0;"
         offset="1"
         id="stop4397" />
    </linearGradient>
  </defs>
  <path
     inkscape:connector-curvature="0"
     style="fill:currentColor;fill-opacity:1;stroke-width:1.77147"
     id="rect4180-6-7"
     d="m 2,16.000004 h 27.999791 l 2.05e-4,-9.299999 c 0,-1 -1.05,-1.95 -2.05,-1.95 L 15.999893,4.733335 14.187402,3 H 3.999985 C 2.999993,3 2,4 2,5 Z"
     sodipodi:nodetypes="ccccccccc"
     class="ColorScheme-Highlight" />
  <path
     inkscape:connector-curvature="0"
     style="fill:#a1b4ba;fill-opacity:1;stroke-width:1.77147"
     d="m 1.5,11.500004 c 0,-5.631005 0,1.476804 0,1.965206 v 13.534794 c 0,1 1,2 2,2 h 24.999997 c 1,0 2,-1 2,-2 V 10.000005 c 0,-0.5 -0.5,-1 -1,-1 H 12.499998 L 9.9999995,11.000004 H 2 c -0.5,0 -0.5,0.5 -0.5,0.5 z"
     id="rect4113-2-5"
     sodipodi:nodetypes="cccscccccccc" />
  <path
     inkscape:connector-curvature="0"
     style="opacity:0.3;fill:#0f608a;fill-opacity:1;fill-rule:evenodd;stroke-width:0.885733"
     id="path4224-9-3"
     d="m 2,11.000004 v 0 H 3 9.9999995 L 12.499998,9.000005 v 0 L 9.699999,10.500004 H 2.509051 C 2,10.500004 2,11.000004 2,11.000004 Z"
     sodipodi:nodetypes="ccccccccc" />
  <path
     inkscape:connector-curvature="0"
     style="color:#31363b;opacity:0.3;fill:#ffffff;fill-opacity:1;fill-rule:evenodd;stroke-width:1.77147"
     id="path4196-3-5"
     d="m 14.187479,3.000005 1.812528,2.75 h 13.674989 c -0.164999,-0.250001 -0.674998,-1 -1.874998,-1 L 15.999983,4.733875 Z"
     sodipodi:nodetypes="cccccc"
     class="ColorScheme-Text" />
  <path
     style="color:#000000;clip-rule:nonzero;display:inline;overflow:visible;visibility:visible;opacity:0.2;isolation:auto;mix-blend-mode:normal;color-interpolation:sRGB;color-interpolation-filters:linearRGB;solid-color:#000000;solid-opacity:1;fill:#000000;fill-opacity:1;fill-rule:nonzero;stroke:none;stroke-width:1.77147;stroke-linecap:butt;stroke-linejoin:miter;stroke-miterlimit:4;stroke-dasharray:none;stroke-dashoffset:0;stroke-opacity:1;marker:none;color-rendering:auto;image-rendering:auto;shape-rendering:auto;text-rendering:auto;enable-background:accumulate"
     d="m 1.5,25.556459 v 1.443545 c 0,1 1,2 2,2 h 24.999997 c 1,0 2,-1 2,-2 l -0.0045,-1.412885 c -0.012,0.893715 -0.941355,1.69662 -1.84913,1.679265 H 3.321025 c -0.902375,0 -1.820735,-0.83427 -1.820735,-1.709925 z"
     id="path9304-6"
     inkscape:connector-curvature="0"
     sodipodi:nodetypes="cssccccscc" />
  <path
     style="opacity:0.181;fill:url(#linearGradient668);fill-opacity:1;fill-rule:evenodd;stroke:none;stroke-width:1.77147px;stroke-linecap:butt;stroke-linejoin:miter;stroke-opacity:1"
     d="m 1.5,13.500005 14.481869,13.769859 h 14.481868 l 0.03625,-13.769859 z"
     id="path4152-2"
     inkscape:connector-curvature="0"
     sodipodi:nodetypes="ccccc" />
  <path
     d="m 19.884628,20.160299 c -0.07812,-0.235151 -0.197005,-0.455739 -0.357544,-0.661761 -0.160445,-0.205799 -0.359892,-0.388596 -0.598231,-0.548315 -0.238616,-0.159536 -0.518056,-0.285556 -0.838843,-0.378118 -0.128815,-0.0335 -0.354728,-0.08608 -0.652587,-0.15758 -0.213031,-0.05092 -0.412519,-0.103139 -0.637494,-0.156315 v -2.595885 c 0.225128,0.05889 0.381263,0.15227 0.548123,0.25609 0.357005,0.221959 0.580823,0.601687 0.646374,1.117308 h 1.729379 c -0.01888,-0.441955 -0.116309,-0.804372 -0.29987,-1.129954 -0.201566,-0.357077 -0.474416,-0.663533 -0.818263,-0.907404 -0.343737,-0.243613 -0.755635,-0.429439 -1.209431,-0.551337 -0.196866,-0.05291 -0.371252,-0.09735 -0.596242,-0.127282 V 13.5 h -1.600012 v 0.814364 c -0.175218,0.02573 -0.378709,0.05997 -0.560646,0.104354 -0.431078,0.105155 -0.809693,0.266837 -1.148768,0.485268 -0.339305,0.218636 -0.608815,0.493827 -0.815132,0.825665 -0.206247,0.332051 -0.307726,0.72482 -0.307726,1.178564 0,0.235367 0.03522,0.466359 0.103793,0.693278 0.06885,0.226893 0.185931,0.441148 0.351079,0.642842 0.165063,0.201704 0.387371,0.384461 0.667161,0.548339 0.279594,0.163822 0.617627,0.296199 1.039384,0.39704 0.232044,0.05758 0.470749,0.111322 0.670769,0.161464 v 2.936256 c -0.274927,-0.07171 -0.547193,-0.181657 -0.766917,-0.330953 -0.22933,-0.155357 -0.401653,-0.342603 -0.529961,-0.586442 -0.119509,-0.22661 -0.176848,-0.503976 -0.185054,-0.798629 H 12 c 0.02024,0.515632 0.131262,0.969725 0.341835,1.359562 0.219888,0.407685 0.513307,0.735614 0.88007,0.995939 0.366573,0.260585 0.784831,0.450696 1.279964,0.57678 0.222048,0.05662 0.473126,0.0972 0.698159,0.12844 V 24.5 h 1.599994 v -0.848063 c 0.250042,-0.02619 0.473883,-0.06609 0.713156,-0.1198 0.467539,-0.104913 0.89111,-0.270978 1.257933,-0.49785 0.366535,-0.22689 0.665498,-0.518766 0.890268,-0.876098 C 19.885942,21.801161 20,21.370395 20,20.866207 c 3.6e-5,-0.235177 -0.03736,-0.470542 -0.115476,-0.705878 z m -4.684676,-2.297168 c -0.299969,-0.09191 -0.597807,-0.223123 -0.801281,-0.394031 -0.215368,-0.180587 -0.316803,-0.430526 -0.316803,-0.749989 0,-0.22689 0.06052,-0.41593 0.175344,-0.56723 0.114623,-0.151258 0.247739,-0.271012 0.421981,-0.359236 0.154477,-0.07835 0.346031,-0.136626 0.520997,-0.175252 z m 2.97252,3.677437 c -0.07375,0.16385 -0.19264,0.308786 -0.357566,0.43487 -0.165029,0.126039 -0.393582,0.229028 -0.65941,0.308798 -0.112336,0.03384 -0.205426,0.06003 -0.355567,0.07945 v -2.629917 c 0.250041,0.06447 0.454482,0.130907 0.658113,0.199641 0.201335,0.06738 0.393713,0.182733 0.563447,0.346599 0.169745,0.1639 0.257594,0.418144 0.257594,0.76263 1.9e-5,0.168178 -0.03327,0.334052 -0.106904,0.497926 z"
     id="path25907-1-5-7"
     style="fill:#002d3c;fill-opacity:1;stroke-width:0.0358245" />
</svg>
