<?xml version="1.0" encoding="UTF-8" standalone="no"?>
<svg
   version="1.1"
   viewBox="0 0 22 22"
   id="svg1"
   sodipodi:docname="activities.svg"
   width="22"
   height="22"
   inkscape:version="1.3.2 (091e20ef0f, 2023-11-25)"
   xmlns:inkscape="http://www.inkscape.org/namespaces/inkscape"
   xmlns:sodipodi="http://sodipodi.sourceforge.net/DTD/sodipodi-0.dtd"
   xmlns="http://www.w3.org/2000/svg"
   xmlns:svg="http://www.w3.org/2000/svg">
  <defs
     id="defs1" />
  <sodipodi:namedview
     id="namedview1"
     pagecolor="#ffffff"
     bordercolor="#999999"
     borderopacity="1"
     inkscape:showpageshadow="2"
     inkscape:pageopacity="0"
     inkscape:pagecheckerboard="0"
     inkscape:deskcolor="#d1d1d1"
     inkscape:zoom="16.83798"
     inkscape:cx="10.927677"
     inkscape:cy="10.987066"
     inkscape:window-width="1920"
     inkscape:window-height="994"
     inkscape:window-x="0"
     inkscape:window-y="0"
     inkscape:window-maximized="1"
     inkscape:current-layer="svg1" />
  <style
     type="text/css"
     id="current-color-scheme">.ColorScheme-Text { color:#fcfcfc; }
</style>
  <g
     id="22-22-activities"
     transform="matrix(3.7795283,0,0,3.7795283,-32.000012,-10.000002)">
    <rect
       style="opacity:0.00100002;fill:#d3dae3;fill-opacity:1;stroke-width:0.363802"
       id="rect1430-3-7-5"
       width="5.8208323"
       height="5.8208323"
       x="8.4666681"
       y="2.6458333" />
    <path
       style="fill:currentColor;fill-opacity:1;stroke-width:1;stroke-dasharray:none"
       class="ColorScheme-Text "
       d="M 11.390317,4.2333333 A 1.3229171,1.3229172 0 0 0 10.067394,5.556251 1.3229171,1.3229172 0 0 0 11.390317,6.8791666 1.3229171,1.3229172 0 0 0 12.713241,5.556251 1.3229171,1.3229172 0 0 0 11.390317,4.2333333 Z m -1.322923,0.3307296 c -0.5479813,0 -0.9921842,0.4442014 -0.9921842,0.9921881 0,0.5479841 0.4442029,0.9921862 0.9921842,0.9921862 l 0.0089,-6.607e-4 C 9.8661027,6.2703108 9.7366027,5.9290816 9.7366027,5.556251 c 0,-0.3731638 0.12978,-0.7140277 0.3404193,-0.9915411 z m 2.645847,0 c -0.0042,1.978e-4 -0.0064,4.122e-4 -0.0104,6.437e-4 0.210678,0.2775494 0.34107,0.618348 0.34107,0.9915444 0,0.3728633 -0.130081,0.7141255 -0.340417,0.9915416 l 0.0096,6.446e-4 c 0.547983,0 0.992186,-0.4442021 0.992186,-0.9921862 0,-0.5479867 -0.444203,-0.9921881 -0.992185,-0.9921881 z"
       id="path5-3" />
  </g>
</svg>
