<?xml version="1.0" encoding="UTF-8" standalone="no"?>
<svg
   viewBox="0 0 22 22"
   version="1.1"
   id="svg1"
   sodipodi:docname="compass.svg"
   inkscape:version="1.3.2 (091e20ef0f, 2023-11-25)"
   width="22"
   height="22"
   xmlns:inkscape="http://www.inkscape.org/namespaces/inkscape"
   xmlns:sodipodi="http://sodipodi.sourceforge.net/DTD/sodipodi-0.dtd"
   xmlns="http://www.w3.org/2000/svg"
   xmlns:svg="http://www.w3.org/2000/svg">
  <sodipodi:namedview
     id="namedview1"
     pagecolor="#ffffff"
     bordercolor="#999999"
     borderopacity="1"
     inkscape:showpageshadow="2"
     inkscape:pageopacity="0"
     inkscape:pagecheckerboard="0"
     inkscape:deskcolor="#d1d1d1"
     inkscape:zoom="11.90625"
     inkscape:cx="10.666667"
     inkscape:cy="10.666667"
     inkscape:window-width="1920"
     inkscape:window-height="994"
     inkscape:window-x="0"
     inkscape:window-y="0"
     inkscape:window-maximized="1"
     inkscape:current-layer="svg1" />
  <defs
     id="defs3051">
    <style
       type="text/css"
       id="current-color-scheme">.ColorScheme-Text { color:#fcfcfc; }
</style>
  </defs>
  <g
     id="22-22-compass">
    <path
       style="clip-rule:evenodd;fill:#ffffc1;fill-opacity:0;fill-rule:evenodd;stroke-width:0.688964;stroke-linejoin:round;stroke-miterlimit:1.41421"
       d="M 0,0 V 22 H 22 V 0 Z"
       id="rect817-5"
       inkscape:connector-curvature="0" />
    <path
       d="m 11.147271,16.623442 a 0.4953934,0.49539339 0 0 0 0.393076,-0.283432 l 2.800314,-5.600612 A 3.7326535,3.7326534 0 0 0 14.051116,6.8609714 3.653697,3.6536968 0 0 0 7.8424274,10.663574 l 2.8521656,5.704049 a 0.46285417,0.46285415 0 0 0 0.452678,0.255819 z M 9.122152,8.9445233 A 1.9883616,1.9883616 0 1 1 11.110515,10.932884 1.9905936,1.9905936 0 0 1 9.122152,8.9445233 Z"
       id="path6-6"
       style="fill:currentColor;fill-opacity:1;stroke-width:1"
       class="ColorScheme-Text " />
    <path
       d="M 11.008899,20 C 2.9980978,20 -1.0122643,10.315346 4.6515288,4.6515311 10.315339,-1.0122677 20.000022,2.9981005 20.000022,11.008906 19.993672,15.972201 15.972237,19.99441 11.008899,20 Z m 0,-16.9062039 c -2.0010472,0 -3.3189676,0.4898388 -4.6288976,1.504008 -1.8925666,1.4652493 -3.0969396,3.6135303 -3.222,6.0334709 -0.0623,1.20539 0.211265,2.6764 0.7209947,3.752757 0.4051193,0.85543 0.93283,1.610807 1.7419993,2.420068 0.6524867,0.652401 1.150919,0.968151 1.839005,1.318699 C 8.5935181,18.70022 9.6839,18.94989 10.961135,18.9398 13.215039,18.92223 15.10433,18.086089 16.658,16.488599 c 0.645932,-0.664088 1.181749,-1.41789 1.534,-2.277872 0.390208,-0.952612 0.663,-2.035485 0.663,-3.270986 C 18.85246,8.9035023 18.166158,7.2152273 17.004,5.8071804 15.522234,4.0119515 13.605102,3.0967555 11.008899,3.0937961 Z"
       id="path2-7-5-53-5-0-7-2-2"
       style="fill:currentColor;fill-opacity:1;stroke-width:1"
       sodipodi:nodetypes="cscccsssssssscsc"
       class="ColorScheme-Text " />
  </g>
</svg>
