<?xml version="1.0" encoding="UTF-8" standalone="no"?>
<svg
   viewBox="0 0 16 16"
   version="1.1"
   id="svg1"
   sodipodi:docname="edit-find.svg"
   width="16"
   height="16"
   inkscape:version="1.3.2 (091e20ef0f, 2023-11-25)"
   xmlns:inkscape="http://www.inkscape.org/namespaces/inkscape"
   xmlns:sodipodi="http://sodipodi.sourceforge.net/DTD/sodipodi-0.dtd"
   xmlns="http://www.w3.org/2000/svg"
   xmlns:svg="http://www.w3.org/2000/svg">
  <sodipodi:namedview
     id="namedview1"
     pagecolor="#ffffff"
     bordercolor="#999999"
     borderopacity="1"
     inkscape:showpageshadow="2"
     inkscape:pageopacity="0"
     inkscape:pagecheckerboard="0"
     inkscape:deskcolor="#d1d1d1"
     inkscape:zoom="16.83798"
     inkscape:cx="16.213346"
     inkscape:cy="11.521572"
     inkscape:window-width="1920"
     inkscape:window-height="996"
     inkscape:window-x="0"
     inkscape:window-y="0"
     inkscape:window-maximized="1"
     inkscape:current-layer="svg1" />
  <defs
     id="defs3051">
    <style
       type="text/css"
       id="current-color-scheme">.ColorScheme-Text { color:#fcfcfc; }
</style>
  </defs>
  <g
     id="search"
     style="fill:#bac8df;fill-opacity:1"
     transform="scale(0.49999998)">
    <path
       style="opacity:0.00100002;fill:#bac8df;fill-opacity:1"
       d="M 0,0 V 32.000001 H 32.000001 V 0 Z"
       id="path7" />
    <path
       d="m 19.387465,4 c -4.7569,4.688e-4 -8.612111,3.8554704 -8.612579,8.612066 1.87e-4,2.096345 0.750556,4.016252 1.995437,5.509549 l -1.766816,1.76672 c -0.007,0.007 -0.0082,0.01509 -0.01481,0.02217 -0.871969,-0.412266 -1.9396996,-0.280266 -2.6590357,0.438937 L 4.6869936,23.99046 c -0.9159875,0.915984 -0.9159875,2.405344 0,3.321282 0.917722,0.917673 2.4037406,0.917673 3.3214626,0 l 3.6427148,-3.64097 c 0.721211,-0.721172 0.852843,-1.78861 0.438211,-2.66086 0.0069,-0.0065 0.01463,-0.0075 0.02142,-0.01434 l 1.766816,-1.76672 c 1.493378,1.244766 3.413389,1.995048 5.509847,1.995235 4.756901,-4.68e-4 8.612064,-3.85547 8.612533,-8.611972 C 27.999529,7.8554704 24.144366,4.0004688 19.387465,4 Z M 19.387,19.224 c -3.387464,1e-6 -6.618999,-2.224112 -6.612,-6.612 C 12.768,8.999888 16.000001,6.000001 19.387465,6 c 3.612536,1e-6 6.612536,3.000001 6.612535,6.612113 1e-6,4.387888 -3.000464,6.611888 -6.613,6.611887 z"
       id="path2-3"
       style="stroke-width:0.0468763;fill-opacity:1;fill:currentColor;"
       sodipodi:nodetypes="cccccccsccccccccccccc"
       class="ColorScheme-Text" />
  </g>
</svg>
