<svg xmlns="http://www.w3.org/2000/svg" viewBox="0 0 16 16">
  <defs id="defs3051">
    <style type="text/css" id="current-color-scheme">.ColorScheme-Text {color:#bebebe;}</style>
  </defs>
 <path style="fill:currentColor;fill-opacity:1;stroke:none" 
       d="m 7.3730469,2 0,4.3730469 C 7.3730469,6.3730469 7.3730469,7 8,7 8.6269531,7 8.6269531,6.3730469 8.6269531,6.3730469 L 8.6269531,2 Z M 9,2.0859375 v 1.015625 C 11.327756,3.5767137 12.999742,5.6242439 13,8 13,10.761424 10.761424,13 8,13 5.2385763,13 3,10.761424 3,8 3.0021125,5.6257116 4.6736808,3.5803257 7,3.1054688 V 2.0898438 C 4.1153378,2.5774392 2.0028886,5.0744202 2,8 c 0,3.313708 2.6862915,6 6,6 3.313708,0 6,-2.686292 6,-6 C 13.999016,5.0729435 11.886117,2.5737801 9,2.0859375 Z"
     class="ColorScheme-Text"
     />
</svg>
