<?xml version="1.0" encoding="UTF-8" standalone="no"?>
<svg
   id="svg"
   version="1.1"
   viewBox="0 0 22 22"
   sodipodi:docname="device-notifier-symbolic.svg"
   inkscape:version="1.3.2 (091e20ef0f, 2023-11-25)"
   width="22"
   height="22"
   xmlns:inkscape="http://www.inkscape.org/namespaces/inkscape"
   xmlns:sodipodi="http://sodipodi.sourceforge.net/DTD/sodipodi-0.dtd"
   xmlns="http://www.w3.org/2000/svg"
   xmlns:svg="http://www.w3.org/2000/svg"
   xmlns:rdf="http://www.w3.org/1999/02/22-rdf-syntax-ns#"
   xmlns:cc="http://creativecommons.org/ns#"
   xmlns:dc="http://purl.org/dc/elements/1.1/">
  <sodipodi:namedview
     id="namedview27"
     pagecolor="#201933"
     bordercolor="#000000"
     borderopacity="1"
     inkscape:pageshadow="2"
     inkscape:pageopacity="0.0"
     inkscape:pagecheckerboard="true"
     showgrid="true"
     inkscape:zoom="9.208459"
     inkscape:cx="-11.619751"
     inkscape:cy="10.09941"
     inkscape:window-width="1920"
     inkscape:window-height="994"
     inkscape:window-x="0"
     inkscape:window-y="0"
     inkscape:window-maximized="1"
     inkscape:current-layer="svg"
     inkscape:showpageshadow="2"
     inkscape:deskcolor="#201933">
    <inkscape:grid
       type="xygrid"
       id="grid951"
       originx="-34.000011"
       originy="20.997502"
       spacingy="1"
       spacingx="1"
       units="px"
       visible="true" />
  </sodipodi:namedview>
  <metadata
     id="metadata47">
    <rdf:RDF>
      <cc:Work
         rdf:about="">
        <dc:format>image/svg+xml</dc:format>
        <dc:type
           rdf:resource="http://purl.org/dc/dcmitype/StillImage" />
      </cc:Work>
    </rdf:RDF>
  </metadata>
  <defs
     id="defs3">
    <style
       id="current-color-scheme"
       type="text/css">.ColorScheme-Text { color:#333333; } .ColorScheme-Highlight { color:#5294e2; } .ColorScheme-ButtonBackground { color:#dedede; }</style>
  </defs>
  <g
     id="22-22-device-notifier">
    <rect
       style="opacity:0.00100002;fill:#bac8df;fill-opacity:1"
       width="22"
       height="22"
       x="0"
       y="4.6325681e-08"
       id="rect2-3" />
    <path
       d="M 13,3.000001 H 9 c -1,0 -1,1 -1,1 v 3 L 7.2890111,6.992587 C 7.1342571,6.990187 7.000051,7.09462 7,7.221118 l 1e-7,10.81366 c -2.52e-4,0.531809 0.534051,0.963165 1.193327,0.963391 l 5.6112259,0.0018 C 14.459677,19.000174 14.999645,18.569073 15,18.03734 L 15.000356,7.223709 C 15.00042,7.097207 14.873879,6.995044 14.717065,6.995004 L 14,7.000001 v -3 c 1.57e-4,-0.126419 0,-1 -1,-1 z M 9.0003031,15.000668 v 0 0 0 0 0 c 0,0.666669 0,0 0,0 z M 8.666674,17.000001 H 8 v -2 h 1 v 0 2 0 z m 2.333326,0 v 0 h -1 v -5 h 1 v 0 z m 3,-7 v 7 0 h -2 v -7 z M 13.000342,7.000587 H 9.0003031 L 9,4.000001 h 4 z"
       id="path3559-6"
       style="fill:#bac8df;fill-opacity:1;stroke-width:0.0319095"
       sodipodi:nodetypes="ccccccccsccccccccccccccscccccccscccccccccccccccc" />
    <path
       d="m 12,5.000001 v 1 0 h -2 v -1 z"
       id="path3565-5"
       style="fill:#bac8df;fill-opacity:1;stroke-width:0.0319095"
       sodipodi:nodetypes="cccccc" />
    <path
       d="m 9.0330163,13.500846 c -0.00124,0.445051 -0.55675,0.667102 -0.8813466,0.352008 -0.3245896,-0.315086 -0.093672,-0.852827 0.3660639,-0.852205 0.2848902,4.88e-4 0.5154763,0.224408 0.5152827,0.500197 z"
       id="path1086-6-3-3"
       style="color:#e5e9ef;fill:#000000;fill-opacity:1;stroke-width:0.351102"
       sodipodi:nodetypes="csccccc"
       class="ColorScheme-Text " />
  </g>
</svg>
