<?xml version="1.0" encoding="UTF-8" standalone="no"?>
<svg
   width="32"
   height="32"
   version="1"
   id="svg419"
   sodipodi:docname="strawberry-symbolic.svg"
   inkscape:version="1.3.2 (091e20ef0f, 2023-11-25)"
   xmlns:inkscape="http://www.inkscape.org/namespaces/inkscape"
   xmlns:sodipodi="http://sodipodi.sourceforge.net/DTD/sodipodi-0.dtd"
   xmlns="http://www.w3.org/2000/svg"
   xmlns:svg="http://www.w3.org/2000/svg">
  <defs
     id="defs423" />
  <sodipodi:namedview
     id="namedview421"
     pagecolor="#02334b"
     bordercolor="#000000"
     borderopacity="1"
     inkscape:showpageshadow="true"
     inkscape:pageopacity="0.0"
     inkscape:pagecheckerboard="true"
     inkscape:deskcolor="#02334b"
     showgrid="true"
     inkscape:zoom="7.375"
     inkscape:cx="16"
     inkscape:cy="16.40678"
     inkscape:window-width="1920"
     inkscape:window-height="994"
     inkscape:window-x="0"
     inkscape:window-y="0"
     inkscape:window-maximized="1"
     inkscape:current-layer="svg419">
    <inkscape:grid
       id="grid1"
       units="px"
       originx="0"
       originy="-52"
       spacingx="1"
       spacingy="1"
       empcolor="#0099e5"
       empopacity="0.30196078"
       color="#0099e5"
       opacity="0.14901961"
       empspacing="5"
       dotted="false"
       gridanglex="30"
       gridanglez="30"
       visible="true" />
  </sodipodi:namedview>
  <g
     id="g1">
    <g
       id="strawberry"
       transform="rotate(-90,16,16)"
       style="fill:#bac8df;fill-opacity:1">
      <rect
         style="opacity:0.00100002;fill:#bac8df;fill-opacity:1"
         width="32"
         height="32"
         x="0"
         y="0"
         id="rect414" />
      <path
         style="opacity:1;fill:#bac8df;fill-opacity:1;stroke-width:0.98759"
         d="m 17.786173,6 c -0.114612,0 -0.146841,0.2208877 -0.07619,0.5136577 0,0 0.203278,0.9348498 1.565914,1.6190957 0.947742,0.4447802 0.944659,0.702013 -0.0078,0.9687233 -0.41499,0.1162297 -0.91888,0.3371485 -1.120144,0.4902208 -0.331939,0.2524607 -0.211169,0.356996 1.303025,1.1230155 0.918096,0.464461 1.840186,0.978741 2.04788,1.1445 0.360597,0.287785 0.343479,0.328557 -0.360045,0.886694 -0.785393,0.623088 -1.714505,2.079348 -1.714505,2.687426 0,0.328741 0.154271,0.35563 1.447805,0.251946 0.795761,-0.06379 1.670609,-0.143413 1.94501,-0.17773 l 0.499112,-0.0625 -0.0724,1.652299 c -0.03919,0.909449 -0.152269,1.88157 -0.253366,2.158143 -0.101096,0.276571 -0.143023,0.544014 -0.09334,0.595686 0.20915,0.217544 1.060676,-0.263128 1.645925,-0.927708 0.598312,-0.679418 0.636692,-0.692288 0.763907,-0.275382 0.428418,0.747378 0.619206,1.401627 1.283969,2.056583 0.148451,0.01385 0.260996,-0.165548 0.356239,-0.537094 0.293219,-1.143857 0.135558,-2.250969 -0.481966,-3.394437 -0.332762,-0.616166 -0.658012,-1.58732 -0.723903,-2.158145 -0.06588,-0.570823 -0.175468,-1.23565 -0.241935,-1.476521 -0.101006,-0.366016 0.09506,-0.579825 1.192534,-1.300745 1.249605,-0.820864 1.573678,-1.287958 1.10109,-1.591753 -0.117417,-0.07548 -0.736583,0.153644 -1.375412,0.507798 -0.638828,0.354155 -1.286709,0.642561 -1.440185,0.642561 -0.153471,0 -0.635767,-0.442556 -1.070612,-0.984348 -0.755702,-0.9416011 -0.790548,-1.0496567 -0.790548,-2.4393854 0,-1.3205013 -0.039,-1.458857 -0.421005,-1.5155831 -0.308768,-0.04585 -0.487329,0.1053986 -0.672466,0.5702968 -0.138709,0.3483038 -0.322157,0.6327949 -0.407673,0.6327949 -0.0855,0 -0.936852,-0.3733962 -1.891671,-0.8300551 C 18.768766,6.3734003 17.896906,6 17.786173,6 Z m -0.931548,1.0136438 c -0.186516,0.010526 -0.344621,0.013545 -0.6096,0.042968 -2.978096,0.330688 -5.463883,2.2462171 -8.3058252,6.4041192 -0.8581091,1.255452 -1.9600387,2.868397 -2.4498368,3.583885 -2.0633542,3.014108 -1.9740067,6.107289 0.2133607,7.407998 1.4137125,0.840657 2.7791023,1.174306 4.9415853,1.206997 1.086936,0.01642 2.677579,0.09755 3.535688,0.179683 2.394159,0.229201 2.694428,0.223039 4.379607,-0.08203 1.886101,-0.341447 3.34068,-1.052454 4.509147,-2.203063 0.66396,-0.653814 1.524457,-2.137858 2.032641,-3.32608 -0.05593,-0.117268 -0.117209,-0.236245 -0.175259,-0.353506 -0.284973,0.269366 -0.570704,0.547628 -0.878208,0.720683 -0.213572,0.12019 -0.423173,0.218835 -0.693422,0.275383 -0.270249,0.05655 -0.741591,0.111027 -1.152528,-0.316397 -0.357278,-0.371625 -0.295432,-0.597039 -0.300991,-0.738262 -0.0057,-0.141222 0.0077,-0.239893 0.02284,-0.33788 0.03071,-0.195974 0.08106,-0.379078 0.1524,-0.574203 -0.03848,0.105266 0.05251,-0.249705 0.09524,-0.611312 0.04272,-0.361607 0.08063,-0.810817 0.09906,-1.238246 l 0.02093,-0.49608 c -0.41207,0.04015 -0.801408,0.07948 -1.344935,0.123043 -0.65624,0.0526 -0.996129,0.103657 -1.445899,0.02539 -0.224885,-0.03914 -0.576555,-0.158399 -0.811533,-0.478501 -0.234958,-0.320103 -0.240031,-0.633033 -0.240031,-0.7949 0,-0.826254 0.343679,-1.29164 0.721998,-1.884714 0.302706,-0.474541 0.693586,-0.89139 1.097284,-1.275355 -0.355944,-0.199082 -0.803198,-0.43718 -1.247779,-0.662091 -0.763566,-0.386282 -1.147956,-0.546156 -1.54115,-0.884742 -0.0983,-0.08465 -0.209202,-0.189346 -0.314326,-0.380848 C 17.06002,10.154083 16.987531,9.8337802 17.043224,9.5604507 17.15461,9.0137892 17.435549,8.8890366 17.567097,8.7889853 17.774873,8.6309604 17.999492,8.5942732 18.209083,8.4999308 17.834555,8.2098543 17.377455,7.9225901 17.186097,7.6464388 17.023326,7.4115417 16.920868,7.186157 16.854625,7.0136438 Z m -0.548641,1.0487991 c 0.03682,0.060215 0.0428,0.102122 0.08571,0.164058 0.05884,0.08493 0.107441,0.07595 0.16764,0.1464804 -0.20421,0.2396475 -0.387939,0.5770393 -0.470537,0.9823947 -0.121522,0.5964085 -0.01244,1.044825 0.226696,1.480428 0.174406,0.31771 0.41227,0.548641 0.537211,0.656232 0.517134,0.445308 0.992613,0.639796 1.73546,1.015596 0.04614,0.02334 0.08339,0.04476 0.129541,0.06836 -0.118685,0.15153 -0.256135,0.256899 -0.363856,0.425769 -0.358148,0.561452 -0.880113,1.321032 -0.880113,2.431574 0,0.183283 0.0217,0.83168 0.436248,1.396445 0.44614,0.607767 1.045038,0.796812 1.426848,0.863257 0.598693,0.104183 1.052498,0.03515 1.685929,-0.01563 0.08983,-0.0072 0.138613,-0.01253 0.220982,-0.01953 -0.01485,0.174158 -0.0226,0.366234 -0.03999,0.513658 -0.016,0.135472 -0.04453,0.293262 -0.06666,0.408192 -0.01106,0.05747 -0.0185,0.08977 -0.03046,0.166011 -0.0012,0.0078 -0.0024,0.02875 -0.0039,0.03906 -0.05378,0.174591 -0.113501,0.347814 -0.142874,0.535141 -0.01788,0.113985 -0.04313,0.313843 -0.03431,0.537095 -0.004,-0.100105 -0.02754,0.177666 0.04951,0.488268 0.07709,0.310601 0.263897,0.631784 0.531497,0.91013 0.480045,0.499307 1.023139,0.589807 1.47638,0.597641 -0.211402,0.314265 -0.448575,0.840633 -0.590554,0.980441 -1.021583,1.005972 -2.26008,1.62398 -4.002416,1.9394 -1.667855,0.301931 -1.733592,0.298639 -4.118621,0.07031 -0.909993,-0.0871 -2.491642,-0.166658 -3.611886,-0.183581 C 8.588842,24.628344 7.4671371,24.345473 6.1923099,23.587404 5.3839063,23.106689 5.0066979,22.394044 4.9769165,21.360902 4.9471351,20.327761 5.3498143,18.98866 6.2875602,17.618819 6.7781596,16.90216 7.8793954,15.29023 8.737397,14.034933 c 2.75342,-4.028391 4.953599,-5.666151 7.568587,-5.9724901 z m -1.089663,3.9491091 c -0.376278,-0.06417 -0.878768,0.135337 -1.160148,0.423817 -0.375178,0.384639 -0.406237,0.978007 -0.06855,1.324182 0.337656,0.346172 0.91642,0.314328 1.291595,-0.07031 0.375173,-0.38464 0.596736,-1.173313 0.259079,-1.519489 -0.08443,-0.08655 -0.196523,-0.136812 -0.321948,-0.158202 z M 9.3641439,15.011469 C 8.9878666,14.947299 8.4853762,15.146806 8.2039956,15.435286 7.8288225,15.819925 7.797759,16.413292 8.1354176,16.759468 8.4730731,17.10564 9.051838,17.073796 9.427011,16.689158 9.802184,16.304519 10.023748,15.515845 9.68609,15.169669 9.60167,15.083119 9.489571,15.032857 9.3641439,15.011467 Z m 3.9014521,0.999973 c -0.37628,-0.06417 -0.878769,0.135336 -1.160149,0.423816 -0.375179,0.384639 -0.406238,0.978007 -0.06857,1.324182 0.337654,0.346173 0.916421,0.314329 1.291594,-0.07031 0.375172,-0.38464 0.596738,-1.173313 0.259082,-1.519489 -0.08443,-0.08655 -0.196525,-0.136812 -0.32195,-0.158201 z m 5.852175,1.999944 c -0.376277,-0.06417 -0.878768,0.135338 -1.160148,0.423817 -0.375176,0.384639 -0.406236,0.978006 -0.06856,1.324182 0.337657,0.346173 0.916421,0.314329 1.291593,-0.07031 0.375176,-0.38464 0.596737,-1.173314 0.259081,-1.519489 -0.08443,-0.08655 -0.196522,-0.136812 -0.321948,-0.158202 z m 2.16218,0.32421 a 0.97546027,1.0000723 0 0 0 -0.01905,0.02539 c 0.0016,-0.0026 0.0098,-0.01571 0.0098,-0.01563 -1.2e-5,1.8e-5 0.0089,-0.0088 0.0098,-0.0098 z m -0.08002,0.134762 a 0.97546027,1.0000723 0 0 0 -0.02285,0.05078 c 0.0036,-0.0091 0.0017,-0.008 0.01332,-0.0332 0.0014,-0.003 0.0068,-0.01216 0.0098,-0.01758 z M 7.4134183,19.011359 c -0.3762767,-0.06417 -0.8787678,0.135336 -1.1601481,0.423816 -0.3751737,0.384639 -0.4062363,0.978006 -0.068578,1.324182 0.3376555,0.346173 0.9164207,0.314329 1.2915936,-0.07031 0.3751724,-0.384638 0.5967353,-1.173313 0.2590794,-1.519489 -0.084415,-0.08655 -0.1965208,-0.136812 -0.3219469,-0.158201 z m 4.8768137,1.999944 c -0.376277,-0.06417 -0.878769,0.135337 -1.160148,0.423816 -0.375178,0.38464 -0.406236,0.978006 -0.06855,1.324183 0.337655,0.346172 0.91642,0.314329 1.291595,-0.07031 0.375173,-0.38464 0.596735,-1.173313 0.25908,-1.519489 -0.08443,-0.08655 -0.196524,-0.136812 -0.321949,-0.158202 z m 4.876813,0.999972 c -0.376276,-0.06417 -0.878767,0.135337 -1.160147,0.423817 -0.375178,0.384638 -0.406236,0.978007 -0.06856,1.324182 0.337657,0.346172 0.916421,0.314328 1.291594,-0.07031 0.375173,-0.38464 0.596737,-1.173313 0.25908,-1.519489 -0.08443,-0.08655 -0.196522,-0.136812 -0.321948,-0.158202 z"
         id="path416" />
    </g>
  </g>
</svg>
