<?xml version="1.0" encoding="UTF-8" standalone="no"?>
<svg
   width="32"
   height="32"
   x="0"
   y="0"
   version="1.1"
   xml:space="preserve"
   id="svg1459"
   sodipodi:docname="thunderbird-symbolic.svg"
   inkscape:version="1.3.2 (091e20ef0f, 2023-11-25)"
   xmlns:inkscape="http://www.inkscape.org/namespaces/inkscape"
   xmlns:sodipodi="http://sodipodi.sourceforge.net/DTD/sodipodi-0.dtd"
   xmlns="http://www.w3.org/2000/svg"
   xmlns:svg="http://www.w3.org/2000/svg"><defs
   id="defs1463">
  
  
  
 
  
  
  
 </defs><sodipodi:namedview
   id="namedview1461"
   pagecolor="#02334b"
   bordercolor="#000000"
   borderopacity="1"
   inkscape:showpageshadow="2"
   inkscape:pageopacity="0"
   inkscape:pagecheckerboard="true"
   inkscape:deskcolor="#02334b"
   showgrid="true"
   inkscape:zoom="10.429825"
   inkscape:cx="16.299411"
   inkscape:cy="23.586206"
   inkscape:window-width="1920"
   inkscape:window-height="994"
   inkscape:window-x="0"
   inkscape:window-y="0"
   inkscape:window-maximized="1"
   inkscape:current-layer="svg1459"><inkscape:grid
     type="xygrid"
     id="grid1674"
     originx="-13"
     originy="-36"
     spacingy="1"
     spacingx="1"
     units="px"
     visible="true" /></sodipodi:namedview>
 
 
<g
   id="thunderbird"
   style="fill:#bac8df;fill-opacity:1"><rect
     style="opacity:0.00100002;fill:#bac8df;fill-opacity:1"
     width="32"
     height="32"
     x="0"
     y="0"
     id="rect9" /><path
     d="M 13.029387,4.5240372 C 12.309646,4.8982325 11.695455,5.3779759 11.091059,6.0497163 10.659312,6.519914 10.294667,6.7981148 9.48848,7.2396516 6.868616,8.6982341 5.49648,10.262365 4.728741,12.670888 c -0.297545,0.921288 -0.383748,3.694454 -0.153548,4.989938 0.594845,3.43536 2.638967,6.342979 5.364135,7.638462 0.489296,0.230441 0.60464,0.24954 0.623742,0.134446 0.03845,-0.182451 0.191996,-0.182451 0.652394,0.0095 0.412645,0.163099 0.383747,0.134446 -0.239995,-0.345297 -0.527744,-0.403048 -0.911736,-0.930788 -1.141935,-1.573639 -0.403095,-1.074588 -0.374196,-1.122585 0.287993,-0.575737 0.652396,0.556638 1.89988,1.093932 1.89988,0.825285 0,-0.03844 -0.105548,-0.22065 -0.239995,-0.403093 -0.287994,-0.383749 -0.297545,-0.479743 -0.0671,-0.479743 0.201546,0 7.321809,2.389416 7.44646,2.504518 0.220893,0.191997 -0.796393,1.122831 -2.341421,2.139876 -0.623743,0.412647 -0.76774,0.546848 -0.642844,0.594845 0.355093,0.134446 2.466072,-0.249547 3.291361,-0.594845 0.767739,-0.326443 0.614191,-0.048 -0.249547,0.441292 l -0.527255,0.2973 0.431747,-0.0671 c 1.237689,-0.182444 2.44697,-0.729292 3.33936,-1.50658 0.345544,-0.297545 0.671741,-0.508641 0.748393,-0.479744 0.297545,0.115094 2.178323,-2.14943 2.773169,-3.329811 0.518193,-1.045936 0.949939,-2.475873 1.266586,-4.174205 0.1822,-1.026836 0.211098,-4.155099 0.03845,-5.133937 -0.373953,-2.082322 -1.650335,-4.2990849 -3.214466,-5.5945689 -1.045939,-0.8541916 -3.32981,-1.9096808 -4.836392,-2.2167716 -1.324381,-0.2782008 -4.16465,-0.2782008 -5.345034,0 l -0.287993,0.067097 0.326197,-0.355096 C 14.401277,4.9939825 14.228628,4.9459852 13.604886,5.3872855 12.808494,5.9439241 12.501398,6.1261225 12.434052,6.0590259 12.357402,5.9821309 12.817799,5.3872855 13.431991,4.773096 13.854187,4.3508952 13.892634,4.274 13.71974,4.274 13.605131,4.2747902 13.298034,4.3895917 13.029387,4.5240372 Z M 8.749393,11.039661 c 0.153549,0.07665 0.326198,0.268647 0.383746,0.441292 0.211098,0.594845 0.08645,1.813678 -0.182199,1.813678 -0.05755,0 -0.383747,-0.431746 -0.729291,-0.969285 -0.566193,-0.863737 -0.623742,-0.988385 -0.527744,-1.199489 0.0769,-0.182198 0.172894,-0.230196 0.441542,-0.230196 0.191751,0 0.46995,0.06734 0.613946,0.144 z m 2.965164,0.345542 c 0.03845,0.451091 -0.182446,0.681294 -0.594846,0.642843 -0.239995,-0.0191 -0.307095,-0.07665 -0.326197,-0.278201 -0.03845,-0.355096 0.316646,-0.777289 0.642844,-0.738837 0.211098,0.02865 0.249546,0.07665 0.278199,0.374195 z M 8.28875,13.035538 c 0.316647,0.47019 0.614192,1.045935 0.671741,1.276376 0.08645,0.316652 0.172649,0.460644 0.335748,0.518195 0.239995,0.096 0.518194,0.460644 1.938327,2.54297 0.71019,1.03639 0.89239,1.247486 1.074835,1.218588 0.115101,-0.0096 1.516133,-0.537539 3.109161,-1.161282 3.579356,-1.410585 4.491093,-1.746329 4.826841,-1.765681 l 0.268648,-0.0191 -0.0096,1.103486 c 0,0.901944 -0.0382,1.209035 -0.220649,1.679232 -0.374196,1.017038 -0.374196,0.949942 0.048,0.767743 0.489541,-0.20155 1.103488,-0.681294 1.42993,-1.122838 0.153548,-0.191997 0.316647,-0.335744 0.364646,-0.297546 0.249546,0.153546 -0.326197,2.638965 -1.055489,4.49085 -0.182445,0.470189 -0.556641,1.266585 -0.825289,1.746574 -0.575743,1.074833 -0.489541,1.055489 -2.235873,0.499095 C 15.6877,23.78291 7.175956,20.942395 6.926409,20.817748 6.724863,20.721748 6.619314,20.529748 6.427563,19.89646 6.139569,18.994516 5.928472,17.891029 5.822923,16.844849 l -0.0671,-0.719746 0.537295,0.499096 c 0.297545,0.278193 0.614191,0.508641 0.71974,0.508641 0.172649,0 0.163099,-0.03845 -0.05755,-0.700393 -0.412646,-1.189937 -0.297545,-3.281815 0.239995,-4.318197 0.134201,-0.268648 0.143996,-0.268648 0.335748,-0.096 0.105304,0.09625 0.450603,0.556891 0.757699,1.01729 z m 6.784513,-0.89239 c 1.525683,0.172644 4.452645,0.786842 4.634845,0.969285 0.191996,0.191997 0.690843,1.698576 0.604396,1.832777 -0.02865,0.03845 -0.191996,0.153546 -0.355095,0.239994 -0.594845,0.3071 -7.600008,3.070712 -7.705557,3.032268 -0.105549,-0.03845 -2.130325,-3.051612 -2.38942,-3.560008 -0.201547,-0.412647 -0.153548,-0.518195 0.316645,-0.767743 0.211098,-0.105548 0.585294,-0.355095 0.844392,-0.547092 0.53754,-0.412639 0.911736,-0.604636 1.813677,-0.940388 1.055733,-0.383749 1.103732,-0.393295 2.236117,-0.259093 z"
     id="path4-3"
     style="fill:#bac8df;fill-opacity:1;stroke-width:0.00244893"
     inkscape:connector-curvature="0" /></g></svg>
