<?xml version="1.0" encoding="UTF-8" standalone="no"?>
<svg
   width="32"
   height="32"
   version="1.1"
   id="svg1"
   sodipodi:docname="yakuake-symbolic.svg"
   inkscape:version="1.3.2 (091e20ef0f, 2023-11-25)"
   xmlns:inkscape="http://www.inkscape.org/namespaces/inkscape"
   xmlns:sodipodi="http://sodipodi.sourceforge.net/DTD/sodipodi-0.dtd"
   xmlns="http://www.w3.org/2000/svg"
   xmlns:svg="http://www.w3.org/2000/svg">
  <defs
     id="defs1" />
  <sodipodi:namedview
     id="namedview1"
     pagecolor="#ffffff"
     bordercolor="#999999"
     borderopacity="1"
     inkscape:showpageshadow="2"
     inkscape:pageopacity="0"
     inkscape:pagecheckerboard="0"
     inkscape:deskcolor="#d1d1d1"
     inkscape:zoom="17.318182"
     inkscape:cx="15.937008"
     inkscape:cy="20.96063"
     inkscape:window-width="1920"
     inkscape:window-height="994"
     inkscape:window-x="0"
     inkscape:window-y="0"
     inkscape:window-maximized="1"
     inkscape:current-layer="svg1" />
  <style
     type="text/css"
     id="current-color-scheme">.ColorScheme-Background{color:#181818;}.ColorScheme-ButtonBackground{color:#343434;}.ColorScheme-Highlight{color:#1a73e8;}.ColorScheme-Text{color:#232629;}.ColorScheme-ViewBackground{color:#242424;}.ColorScheme-NegativeText { color: #ff4747; } </style>
  <g
     id="g1">
    <g
       id="yakuake">
      <rect
         id="rect11"
         width="32"
         height="32"
         opacity="0.00100002"
         x="0"
         y="0" />
      <path
         d="M 9.725949,10 8.6,11.125949 13.103732,15.62968 8.6,20.133413 9.725949,21.259362 15.355744,15.629566 9.725949,9.999771 Z m 5.629795,10.407266 v 1.592505 h 7.962481 v -1.592505 z"
         id="path7"
         style="color:#eceff4;fill:#bac8df;fill-opacity:1;stroke-width:1.59247"
         class="ColorScheme-Text" />
      <path
         fill-rule="evenodd"
         clip-rule="evenodd"
         d="m 24.572286,28 h -12.858 C 11.241571,28 10.858,27.4725 10.858,27 c 0,-0.473786 0.383571,-1 0.856286,-1 h 12.858 C 25.519,26 26,25.517714 26,24.571 V 7.428143 C 26,6.481429 25.519,6 24.572286,6 H 7.429 C 6.4825,6 6,6.481429 6,7.428143 V 23.713857 C 6,24.187643 5.473786,24.571 5,24.571 4.527072,24.571 4,24.187643 4,23.713857 V 7.428143 C 4,5.534714 5.535786,4 7.429,4 H 24.572286 C 26.465286,4 28,5.534714 28,7.428143 V 24.571 C 28,26.464429 26.465286,28 24.572286,28 Z M 8.286357,26.1 C 8.759071,26.1 9.2,26.526214 9.2,27 9.2,27.4725 8.7588925,27.9 8.2861785,27.9 7.8123925,27.9 7.4,27.4725 7.4,27 c 0,-0.473786 0.412571,-0.9 0.886357,-0.9 z"
         id="path2"
         style="color:#eceff4;fill:#bac8df;fill-opacity:1;stroke-width:0.0535714"
         class="ColorScheme-Text"
         sodipodi:nodetypes="ssssssssssssssssssssssss" />
      <path
         d="m 18.458602,10.870899 0.586864,0.600995 c 0.0817,0.08367 0.121421,0.182852 0.120053,0.298439 -0.0014,0.115601 -0.04389,0.214232 -0.127125,0.295492 l -3.807514,3.717981 c -0.08367,0.0817 -0.182853,0.121421 -0.298437,0.120052 -0.115601,-0.0014 -0.213791,-0.04345 -0.295494,-0.12712 l -0.586862,-0.600999 c -0.0817,-0.08367 -0.121421,-0.182851 -0.120053,-0.298436 0.0014,-0.115602 0.04389,-0.214229 0.12712,-0.295494 l 3.807066,-3.71754 c 0.08367,-0.0817 0.182853,-0.121421 0.298435,-0.120051 0.116055,0.0011 0.214242,0.04303 0.295947,0.126681 z"
         id="path6"
         style="color:#eceff4;fill:#d6dbf1;fill-opacity:0.4;stroke-width:0.00628747"
         class="ColorScheme-Text" />
    </g>
  </g>
</svg>
