<?xml version="1.0" encoding="UTF-8" standalone="no"?>
<svg
   height="22"
   width="22"
   version="1.1"
   id="svg2"
   sodipodi:docname="battery-000-charging.svg"
   inkscape:version="1.3.2 (091e20ef0f, 2023-11-25)"
   xmlns:inkscape="http://www.inkscape.org/namespaces/inkscape"
   xmlns:sodipodi="http://sodipodi.sourceforge.net/DTD/sodipodi-0.dtd"
   xmlns="http://www.w3.org/2000/svg"
   xmlns:svg="http://www.w3.org/2000/svg">
  <sodipodi:namedview
     id="namedview2"
     pagecolor="#ffffff"
     bordercolor="#999999"
     borderopacity="1"
     inkscape:showpageshadow="2"
     inkscape:pageopacity="0"
     inkscape:pagecheckerboard="0"
     inkscape:deskcolor="#d1d1d1"
     inkscape:zoom="12.245804"
     inkscape:cx="13.310682"
     inkscape:cy="27.029667"
     inkscape:window-width="1920"
     inkscape:window-height="994"
     inkscape:window-x="0"
     inkscape:window-y="0"
     inkscape:window-maximized="1"
     inkscape:current-layer="svg2" />
  <defs
     id="defs1">
    <style
       type="text/css"
       id="current-color-scheme">.ColorScheme-NegativeText {color:#da4453;}.ColorScheme-PositiveText {color:#27ae60;}</style>
  </defs>
  <path
     d="M12 8a3 3 0 0 0-2.826 2H8v2h1.176A3 3 0 0 0 12 14v-1h2v-1h-2v-2h2V9h-2z"
     class="ColorScheme-PositiveText"
     fill="currentColor"
     id="path2" />
  <path
     style="color:#da4453;fill:currentColor;fill-opacity:1;stroke:none"
     class="ColorScheme-NegativeText"
     d="m 1,8 v 6 c 0,0 0,3 3,3 3,0 10,0 13,0 3,0 3,-3 3,-3 v -1 h 0.5 c 0.277,0 0.5,-0.223 0.5,-0.5 v -3 C 21,9.223 20.777,9 20.5,9 H 20 V 8 C 20,8 20,5 17,5 14,5 7,5 4,5 1,5 1,8 1,8 Z m 1,0 c 0,0 0,-2 2,-2 2,0 11,0 13,0 2,0 2,2 2,2 v 6 c 0,0 0,2 -2,2 C 15,16 6,16 4,16 2,16 2,14 2,14 Z"
     id="path1-6" />
</svg>
