<?xml version="1.0" encoding="UTF-8" standalone="no"?>
<svg
   width="22"
   height="22"
   version="1.1"
   id="svg1"
   sodipodi:docname="wallet-closed.svg"
   inkscape:version="1.3.2 (091e20ef0f, 2023-11-25)"
   xmlns:inkscape="http://www.inkscape.org/namespaces/inkscape"
   xmlns:sodipodi="http://sodipodi.sourceforge.net/DTD/sodipodi-0.dtd"
   xmlns="http://www.w3.org/2000/svg"
   xmlns:svg="http://www.w3.org/2000/svg">
  <defs
     id="defs1" />
  <sodipodi:namedview
     id="namedview1"
     pagecolor="#ffffff"
     bordercolor="#999999"
     borderopacity="1"
     inkscape:showpageshadow="2"
     inkscape:pageopacity="0"
     inkscape:pagecheckerboard="0"
     inkscape:deskcolor="#d1d1d1"
     inkscape:zoom="12.245804"
     inkscape:cx="11.269166"
     inkscape:cy="11.024184"
     inkscape:window-width="1920"
     inkscape:window-height="994"
     inkscape:window-x="0"
     inkscape:window-y="0"
     inkscape:window-maximized="1"
     inkscape:current-layer="svg1" />
  <style
     type="text/css"
     id="current-color-scheme">
      .ColorScheme-Text {
        color:#fcfcfc;
      }
      .ColorScheme-Background {
        color:#eff0f1;
      }
      .ColorScheme-Highlight {
        color:#3daee9;
      }
      .ColorScheme-ViewText {
        color:#31363b;
      }
      .ColorScheme-ViewBackground {
        color:#fcfcfc;
      }
      .ColorScheme-ViewHover {
        color:#93cee9;
      }
      .ColorScheme-ViewFocus{
        color:#3daee9;
      }
      .ColorScheme-ButtonText {
        color:#31363b;
      }
      .ColorScheme-ButtonBackground {
        color:#eff0f1;
      }
      .ColorScheme-ButtonHover {
        color:#93cee9;
      }
      .ColorScheme-ButtonFocus{
        color:#3daee9;
      }
      </style>
  <g
     id="22-22-wallet-closed"
     transform="translate(-32,22)">
    <rect
       style="opacity:0.00100002;fill:#d3dae3;fill-opacity:1;stroke-width:0.6875"
       width="22"
       height="22"
       x="32"
       y="-22"
       id="rect12-7-6" />
    <path
       d="m 49,-10 v 3 c 0,0.666444 0,1 -1,1 v 0 h -2 -7 -2 c -1,0 -1,-0.333556 -1,-1 v 0 0 -3 -4 -1 c 0,-0.666444 0,-1 1,-1 h 1 6 4 c 1,0 1,0.333556 1,1 v 0 1 2 l 0.99971,-0.330882 -0.0064,-2.643916 0.0064,-0.688302 c 0,-0.666444 -0.624997,-1.332887 -1.249997,-1.332887 -1.246853,-0.01136 -2.603024,0.005 -3.849865,0.005 h -5.988416 -2.044823 l 0.0084,-0.005 h -0.625015 c -0.625,0 -1.249994,0.666443 -1.249994,1.332887 l 0.01085,3.861931 L 35,-6.332888 v 0 C 35,-5.666445 35.624994,-5 36.249994,-5 h 1.503929 5.667789 4.819933 0.508362 C 49.375006,-5 50,-5.666445 50,-6.332888 L 49.9911,-7.046404 V -8.631326 L 50,-9.665106 C 49.94136,-9.76658 49,-10 49,-10 Z"
       id="path2-3-5-2"
       style="color:#d6dbf1;fill:#d3dae3;fill-opacity:1;stroke-width:0.0367089"
       class="ColorScheme-Text"
       sodipodi:nodetypes="cccccccccccccccccccccccccsccccccccsccccccccc" />
    <path
       d="m 51.511835,-10.988154 c 0,1.105104 -0.894899,1.999989 -1.999999,1.999989 -1.104167,0 -2.000001,-0.894885 -2.000001,-1.999989 0,-1.104178 0.895834,-2.000011 2.000001,-2.000011 1.1051,0 1.999999,0.895833 1.999999,2.000011 z"
       id="path72-3-7-36-3-7"
       style="color:#e5e9ef;fill:#d3dae3;fill-opacity:1;stroke:none;stroke-width:0.0238105;stroke-opacity:1"
       class="ColorScheme-Text" />
    <path
       d="M 50.5,-10.999991 C 50.5,-10.447445 50.05255,-10 49.500001,-10 48.947914,-10 48.5,-10.447445 48.5,-10.999991 48.5,-11.552086 48.947914,-12 49.500001,-12 50.05255,-12 50.5,-11.552086 50.5,-10.999991 Z"
       id="path72-3-7-36-3-7-9"
       style="color:#e5e9ef;fill:#000000;fill-opacity:1;stroke:none;stroke-width:0.011905;stroke-opacity:1"
       class="ColorScheme-Text" />
    <text
       xml:space="preserve"
       style="font-weight:bold;font-size:3.51497px;font-family:'Open Sans';-inkscape-font-specification:'Open Sans, Bold';fill:#d3dae3;fill-opacity:1;fill-rule:evenodd;stroke-width:2.28357"
       x="35.172771"
       y="14.407352"
       id="text18313-1"
       transform="matrix(0.84665878,-0.5357863,0.53370637,0.84337097,0,0)"><tspan
         sodipodi:role="line"
         id="tspan18311-9"
         x="35.172771"
         y="14.407352"
         style="fill:#d3dae3;fill-opacity:1;stroke-width:2.28357">closed</tspan></text>
  </g>
</svg>
