<?xml version="1.0" encoding="UTF-8" standalone="no"?>
<svg
   height="16"
   viewBox="0 0 16 16.000002"
   width="16"
   version="1.1"
   id="svg5"
   sodipodi:docname="start-here-kde-neon.svg"
   inkscape:version="1.3.2 (091e20ef0f, 2023-11-25)"
   xmlns:inkscape="http://www.inkscape.org/namespaces/inkscape"
   xmlns:sodipodi="http://sodipodi.sourceforge.net/DTD/sodipodi-0.dtd"
   xmlns:xlink="http://www.w3.org/1999/xlink"
   xmlns="http://www.w3.org/2000/svg"
   xmlns:svg="http://www.w3.org/2000/svg">
  <defs
     id="defs5" />
  <sodipodi:namedview
     id="namedview5"
     pagecolor="#ffffff"
     bordercolor="#999999"
     borderopacity="1"
     inkscape:showpageshadow="2"
     inkscape:pageopacity="0"
     inkscape:pagecheckerboard="0"
     inkscape:deskcolor="#d1d1d1"
     inkscape:zoom="16.933333"
     inkscape:cx="0.59055119"
     inkscape:cy="11.279528"
     inkscape:window-width="1920"
     inkscape:window-height="994"
     inkscape:window-x="0"
     inkscape:window-y="0"
     inkscape:window-maximized="1"
     inkscape:current-layer="svg5" />
  <linearGradient
     id="a">
    <stop
       offset="0"
       stop-color="#3fc6a8"
       id="stop1" />
    <stop
       offset="1"
       stop-color="#0f4c8f"
       id="stop2" />
  </linearGradient>
  <linearGradient
     id="b"
     gradientTransform="matrix(0.225,0,0,0.22499998,-130,1045.8622)"
     gradientUnits="userSpaceOnUse"
     x1="0"
     x2="400"
     xlink:href="#a"
     y1="200"
     y2="200" />
  <linearGradient
     id="c"
     gradientTransform="matrix(0.225,0,0,0.22499998,1.8e-5,962.36243)"
     gradientUnits="userSpaceOnUse"
     x1="0"
     x2="400"
     xlink:href="#a"
     y1="200"
     y2="200" />
  <linearGradient
     id="d"
     gradientTransform="matrix(0.225,0,0,0.22499998,5.39e-4,962.36354)"
     gradientUnits="userSpaceOnUse"
     x1="0"
     x2="400"
     xlink:href="#a"
     y1="200"
     y2="200" />
  <linearGradient
     id="e"
     gradientTransform="matrix(0.1916662,0,0,0.19166618,6.667233,969.0294)"
     gradientUnits="userSpaceOnUse"
     x1="0"
     x2="400"
     xlink:href="#a"
     y1="200"
     y2="200" />
  <g
     transform="matrix(0.15555645,0,0,0.15555645,0.99995975,-148.70168)"
     id="g5">
    <path
       d="m 45.000018,962.36243 c -2.485282,0 -4.5,2.01472 -4.5,4.5 0.0019,0.09 0.0064,0.17984 0.01367,0.26953 -7.874784,0.87655 -15.319485,4.04376 -21.41211,9.10938 -0.85239,-0.95524 -2.071307,-1.50219 -3.351562,-1.50391 -2.485282,0 -4.5,2.01472 -4.5,4.5 0.0014,1.34718 0.606265,2.62288 1.648438,3.47656 -4.4852936,5.85638 -7.2859274,12.82657 -8.09961,20.15821 -0.099471,-0.01 -0.1991354,-0.01 -0.298828,-0.01 -2.4852815,0 -4.50000022,2.0147 -4.5,4.5 -2.2e-7,2.4853 2.0147185,4.5 4.5,4.5 0.089963,0 0.1798475,-0.01 0.269531,-0.014 0.829466,7.3322 3.6463725,14.2985 8.146485,20.1465 -1.052988,0.8537 -1.665021,2.1366 -1.666016,3.4922 0,2.4853 2.014718,4.5 4.5,4.5 1.288458,0 2.514372,-0.5557 3.367188,-1.5215 6.08862,5.0579 13.525907,8.2207 21.392578,9.0976 -0.0066,0.099 -0.0098,0.1992 -0.0098,0.2989 0,2.4853 2.014718,4.5 4.5,4.5 2.485282,0 4.5,-2.0147 4.5,-4.5 -0.0019,-0.09 -0.0064,-0.1799 -0.01367,-0.2696 7.874776,-0.8765 15.319475,-4.0437 21.41211,-9.1093 0.852392,0.9552 2.071309,1.5022 3.351562,1.5039 2.485282,0 4.5,-2.0147 4.5,-4.5 -0.0014,-1.3472 -0.606254,-2.6229 -1.648438,-3.4766 4.485292,-5.8564 7.285926,-12.8266 8.09961,-20.1582 0.09947,0.01 0.199135,0.01 0.298828,0.01 2.485282,0 4.5,-2.0147 4.5,-4.5 0,-2.4853 -2.014718,-4.5 -4.5,-4.5 -0.08996,0 -0.179848,0.01 -0.269531,0.014 -0.829458,-7.33223 -3.646352,-14.29852 -8.146451,-20.14649 1.052986,-0.85371 1.665018,-2.13661 1.666016,-3.49219 0,-2.48528 -2.014718,-4.5 -4.5,-4.5 -1.288457,0.002 -2.51437,0.55566 -3.367188,1.52149 -6.088612,-5.0579 -13.525901,-8.22077 -21.392578,-9.09766 0.0066,-0.0995 0.0098,-0.19914 0.0098,-0.29883 0,-2.48528 -2.014718,-4.5 -4.5,-4.5 z m 0,11.99973 C 65,974.36216 78.00004,987.47984 78,1007.3622 c 2e-6,19.8823 -13.11773,33 -32.999982,33 -19.882252,0 -33.00002,-13.1174 -33.000018,-32.9997 -4e-5,-19.88228 13.117739,-33.00034 33.000018,-33.00034 z"
       fill="url(#c)"
       id="path3"
       style="fill:url(#c)" />
    <path
       d="m 45,975.86204 c -2.485282,0 -4.5,2.01472 -4.5,4.5 0.0017,0.13505 0.0096,0.26995 0.02344,0.4043 -12.990339,2.184 -22.508564,13.42323 -22.52344,26.59596 0.0022,13.181 9.521328,24.4338 22.519531,26.6211 -0.01183,0.126 -0.01835,0.2524 -0.01953,0.3789 0,2.4853 2.014718,4.5 4.5,4.5 2.485282,0 4.5,-2.0147 4.5,-4.5 -0.0011,-0.135 -0.0083,-0.2699 -0.02148,-0.4043 12.989515,-2.1848 22.506706,-13.4237 22.521479,-26.5957 -0.0029,-13.17972 -9.520815,-24.43142 -22.517578,-26.61945 0.01124,-0.12663 0.0171,-0.25368 0.01758,-0.3808 0,-2.48528 -2.014718,-4.5 -4.5,-4.5 z m 0,12.00023 c 12.426455,0 19.500067,7.0735 19.5,19.50003 10e-7,12.4264 -7.073592,19.5 -19.5,19.5 -12.426408,0 -19.500001,-7.0736 -19.5,-19.5 -6.7e-5,-12.42653 7.073545,-19.50003 19.5,-19.50003 z"
       fill="url(#d)"
       id="path4"
       style="fill:url(#d)" />
    <path
       d="m 45,995.86216 c -6.351304,0 -11.500044,5.14844 -11.499967,11.50004 0,6.3517 5.148708,11.5 11.499967,11.5 6.351259,0 11.499967,-5.1483 11.499967,-11.5 C 56.500044,1001.0106 51.35131,995.86216 45,995.86216 Z"
       fill="url(#e)"
       id="path5"
       style="fill:url(#e)" />
  </g>
</svg>
