<?xml version="1.0" encoding="UTF-8" standalone="no"?>
<svg
   viewBox="0 0 22 22"
   version="1.1"
   id="svg1"
   sodipodi:docname="start-here-kde.svg"
   inkscape:version="1.3.2 (091e20ef0f, 2023-11-25)"
   width="22"
   height="22"
   xmlns:inkscape="http://www.inkscape.org/namespaces/inkscape"
   xmlns:sodipodi="http://sodipodi.sourceforge.net/DTD/sodipodi-0.dtd"
   xmlns="http://www.w3.org/2000/svg"
   xmlns:svg="http://www.w3.org/2000/svg">
  <sodipodi:namedview
     id="namedview1"
     pagecolor="#ffffff"
     bordercolor="#000000"
     borderopacity="0.25"
     inkscape:showpageshadow="2"
     inkscape:pageopacity="0.0"
     inkscape:pagecheckerboard="0"
     inkscape:deskcolor="#d1d1d1"
     inkscape:zoom="12.326157"
     inkscape:cx="10.87119"
     inkscape:cy="17.52371"
     inkscape:window-width="1920"
     inkscape:window-height="996"
     inkscape:window-x="0"
     inkscape:window-y="0"
     inkscape:window-maximized="1"
     inkscape:current-layer="svg1"
     showgrid="true">
    <inkscape:grid
       id="grid1"
       units="px"
       originx="6"
       originy="-13"
       spacingx="1"
       spacingy="1"
       empcolor="#0099e5"
       empopacity="0.30196078"
       color="#0099e5"
       opacity="0.14902"
       empspacing="5"
       dotted="false"
       gridanglex="30"
       gridanglez="30"
       visible="true" />
  </sodipodi:namedview>
  <defs
     id="defs3051">
    <style
       type="text/css"
       id="current-color-scheme">.ColorScheme-Highlight { color:#3daee9; }
.ColorScheme-Text { color:#eff0f1; }
</style>
  </defs>
  <path
     style="fill:none"
     d="M 6,-13 V 3 h 16 v -16 z"
     id="path17" />
  <g
     id="22-22-start-here-kde">
    <rect
       id="rect7-6"
       style="opacity:0.00100002;stroke-width:0.6875"
       width="22"
       height="22"
       x="0"
       y="0" />
    <path
       d="m 19.983109,6.064791 c -0.04941,0.99231 -0.16665,1.972371 -0.460848,2.915687 -0.18104,0.588027 -0.32917,1.190755 -0.586336,1.742045 -0.475245,1.01191 -1.084208,1.891514 -1.876278,2.57265 -0.752987,0.646846 -1.582082,1.100117 -2.487314,1.347588 0.03907,-0.404276 0.04939,-0.815905 0.02467,-1.227522 0.709775,-0.213167 1.333147,-0.637041 1.905087,-1.163822 0.613081,-0.56843 1.09655,-1.283879 1.489505,-2.085071 0.395007,-0.801204 0.656284,-1.666111 0.839392,-2.570208 0.133723,-0.666444 0.154299,-1.342682 0.146064,-2.018927 l 0.0065,-0.590479 c -0.03499,0.09801 -0.238645,0.338121 -0.267448,0.369966 -0.493753,0.541485 -1.073917,0.913908 -1.695232,1.200566 -0.571944,0.264621 -1.166509,0.443482 -1.756959,0.644396 -0.750931,0.252371 -1.52654,0.44838 -2.226032,0.857557 -0.08641,0.05144 -0.166645,0.0882 -0.238654,0.112705 -0.24482,-0.330775 -0.516387,-0.627237 -0.806471,-0.899208 l -0.01026,-0.0097 c 0.683038,-0.392027 1.405162,-0.656645 2.119051,-0.938405 0.98752,-0.389578 1.983266,-0.744845 2.929635,-1.281429 0.851732,-0.485128 1.629402,-1.075616 2.304213,-1.862111 0.106978,-0.124963 0.238647,-0.276861 0.349743,-0.472877 0.121381,0.404273 0.176929,0.828147 0.224246,1.193219 0.09053,0.717893 0.10904,1.440688 0.07406,2.163481 z m -6.404466,6.98047 C 13.518973,12.467029 13.422285,11.898593 13.241245,11.347312 13.0458,10.751926 12.776288,10.222696 12.48415,9.691011 12.46974,9.664071 12.45328,9.637141 12.43886,9.612601 12.115859,9.05397 11.722903,8.590884 11.282636,8.179265 10.700416,7.632882 10.050298,7.243307 9.3713765,6.92234 9.1121545,6.799835 8.8488165,6.689572 8.5854785,6.58177 L 6.5878205,5.80752 C 6.0405645,5.584561 5.4994855,5.341996 4.9728125,5.043077 4.1210765,4.557949 3.3434065,3.967457 2.6686025,3.180965 2.5616275,3.056003 2.4299585,2.894298 2.3188625,2.698285 c -0.12138,0.404271 -0.176933,0.83795 -0.224252,1.205473 -0.09463,0.717893 -0.113154,1.443139 -0.07818,2.165928 0.04937,0.992305 0.166649,1.97237 0.460839,2.915681 0.181048,0.588029 0.329175,1.190761 0.586342,1.742057 0.475245,1.011906 1.084209,1.891504 1.876282,2.572646 0.748867,0.644387 1.571803,1.095213 2.470853,1.34513 -0.04733,-0.416522 -0.06175,-0.828143 -0.04321,-1.234872 -0.695382,-0.215616 -1.308465,-0.634588 -1.86806,-1.154021 -0.613081,-0.568436 -1.096553,-1.28388 -1.489503,-2.08508 C 3.6149675,9.370033 3.3536815,8.50513 3.1705845,7.60103 3.0327405,6.914985 3.0162855,6.221594 3.0245095,5.525751 V 5.045523 l 0.238655,0.294024 c 0.168702,0.188661 0.349745,0.357718 0.539022,0.507173 0.0288,0.02207 0.927854,0.688499 1.93389,1.024164 0.240698,0.07841 0.567816,0.188667 1.001915,0.335671 0.109034,0.03679 0.220133,0.0735 0.331227,0.107805 0.37855,0.124956 0.759157,0.254819 1.13565,0.404275 0.135779,0.05386 0.269504,0.11026 0.403237,0.16661 l 0.0065,0.0026 c 0.05968,0.02693 0.117267,0.05143 0.174869,0.07841 l 0.113152,0.06127 0.318884,0.156813 0.0083,0.0027 0.02467,0.01225 h 0.0022 c 0.7509255,0.406717 1.4318985,0.935952 1.9565165,1.717559 0.141958,0.210706 0.271571,0.428769 0.390896,0.651741 0.444379,0.842846 0.713892,1.77635 0.785899,2.788258 0.07201,1.011908 -0.02881,2.011567 -0.362094,2.962238 -0.209841,0.597809 -0.497873,1.136859 -0.8435,1.631793 -0.137842,0.198477 -0.211908,0.191111 -0.366204,0.0098 -0.03293,-0.0392 -0.06173,-0.0784 -0.08845,-0.120065 C 10.340905,17.284424 10.059051,16.610648 10.059051,16.610648 9.7545625,15.927057 9.5611765,15.192016 9.4932835,14.410411 9.3698425,12.984428 9.6496405,11.666247 10.408798,10.524476 10.149571,10.166751 9.8553765,9.862934 9.5364895,9.600774 c -0.399126,0.629683 -0.68509,1.332879 -0.882596,2.077723 -0.037,0.139661 -0.06995,0.279324 -0.09875,0.418978 -0.18516,0.884498 -0.226308,1.786159 -0.109038,2.704961 0.02467,0.198466 0.05555,0.394476 0.09258,0.588034 0.31066,1.705315 1.006031,3.163146 2.1128775,4.363709 0.259229,0.281767 0.380608,0.316049 0.56577,0.129842 0.308597,-0.308715 0.590449,-0.651729 0.851733,-1.016778 0.425867,-0.597875 0.748866,-1.276524 0.997803,-1.994438 0.03087,-0.08577 0.05968,-0.173961 0.0864,-0.259708 0.355915,-1.107467 0.54108,-2.249236 0.442329,-3.440007 -0.0083,-0.0392 -0.01235,-0.08332 -0.01646,-0.12741 z M 9,7 Z m 0,0 z"
       id="path8-3"
       style="stroke-width:0.0224515;fill-opacity:1;fill:currentColor"
       inkscape:connector-curvature="0"
       sodipodi:nodetypes="ccccccccccccccccccccccccccccccccccccccccccccccccccccccccccccccccscccccccccccccccccccccccccccccc"
       class="ColorScheme-Text" />
    <path
       id="path4149-8-3"
       d="M 11,1 C 9.89543,1 9,1.89543 9,3 9,4.10457 9.89543,5 11,5 12.104574,5 13,4.10457 13,3 13,1.89543 12.104574,1 11,1 Z m 0,3.333334 z"
       opacity="1"
       fill-opacity="1"
       stroke="none"
       style="stroke-width:0.5;fill-opacity:1;fill:currentColor"
       sodipodi:nodetypes="sssssccccc"
       class="ColorScheme-Text" />
  </g>
</svg>
