<?xml version="1.0" encoding="UTF-8" standalone="no"?>
<svg
   width="22"
   height="22"
   version="1.1"
   id="svg6"
   sodipodi:docname="konv_message.svg"
   inkscape:version="1.3.2 (091e20ef0f, 2023-11-25)"
   xmlns:inkscape="http://www.inkscape.org/namespaces/inkscape"
   xmlns:sodipodi="http://sodipodi.sourceforge.net/DTD/sodipodi-0.dtd"
   xmlns="http://www.w3.org/2000/svg"
   xmlns:svg="http://www.w3.org/2000/svg">
  <sodipodi:namedview
     id="namedview1"
     pagecolor="#ffffff"
     bordercolor="#999999"
     borderopacity="1"
     inkscape:showpageshadow="2"
     inkscape:pageopacity="0"
     inkscape:pagecheckerboard="0"
     inkscape:deskcolor="#d1d1d1"
     inkscape:zoom="17.318182"
     inkscape:cx="11.144357"
     inkscape:cy="17.091863"
     inkscape:window-width="1920"
     inkscape:window-height="994"
     inkscape:window-x="0"
     inkscape:window-y="0"
     inkscape:window-maximized="1"
     inkscape:current-layer="svg6" />
  <defs
     id="defs10" />
  <namedview
     id="namedview8"
     pagecolor="#ffffff"
     bordercolor="#000000"
     borderopacity="0.25"
     inkscape:showpageshadow="2"
     inkscape:pageopacity="0.0"
     inkscape:pagecheckerboard="0"
     inkscape:deskcolor="#d1d1d1"
     showgrid="false"
     inkscape:zoom="35.136364"
     inkscape:cx="9.4773609"
     inkscape:cy="10.98577"
     inkscape:window-width="1920"
     inkscape:window-height="1011"
     inkscape:window-x="0"
     inkscape:window-y="0"
     inkscape:window-maximized="1"
     inkscape:current-layer="svg6" />
  <style
     type="text/css"
     id="current-color-scheme">.ColorScheme-Text{color:#31363b;}.ColorScheme-Background{color:#eff0f1;}.ColorScheme-Highlight{color:#3daee9;}.ColorScheme-ViewText{color:#31363b;}.ColorScheme-ViewBackground{color:#fcfcfc;}.ColorScheme-ViewHover{color:#93cee9;}.ColorScheme-ViewFocus{color:#3daee9;}.ColorScheme-ButtonText{color:#31363b;}.ColorScheme-ButtonBackground{color:#eff0f1;}.ColorScheme-ButtonHover{color:#93cee9;}.ColorScheme-ButtonFocus { color: #3daee9; } </style>
  <g
     id="22-22-konv_message-2">
    <rect
       style="opacity:0.00100002;fill:#556fa6;fill-opacity:1"
       width="22"
       height="22"
       x="0"
       y="0"
       id="rect2-7" />
    <path
       d="m 7.373648,7.999962 h 7.252706 c 0.180241,0 0.373647,-0.224002 0.373647,-0.500001 0,-0.276001 -0.193406,-0.499999 -0.373647,-0.499999 H 7.373648 c -0.180241,0 -0.373647,0.223998 -0.373647,0.499999 0,0.275999 0.193406,0.500001 0.373647,0.500001 z"
       id="path2653-0-9"
       style="fill:#4e70ac;fill-opacity:1;stroke-width:0.202035"
       sodipodi:nodetypes="sssssss" />
    <path
       d="m 7.516128,11 h 6.967744 c 0.284905,0 0.516129,-0.224007 0.516129,-0.500018 0,-0.276008 -0.231226,-0.500021 -0.516129,-0.500021 H 7.516128 c -0.284905,0 -0.516127,0.224013 -0.516127,0.500021 C 7.000001,10.775993 7.231223,11 7.516128,11 Z"
       id="path2655-9-4"
       style="fill:#4e70ac;fill-opacity:1;stroke-width:0.254" />
    <path
       style="color:#d6dbf1;fill:none;fill-opacity:1;stroke:#4e70ac;stroke-width:1.06935;stroke-linecap:round;stroke-miterlimit:4;stroke-dasharray:none;stroke-opacity:1;stop-color:#31363b"
       sodipodi:type="arc"
       sodipodi:cx="-11.000001"
       sodipodi:cy="-10.999952"
       sodipodi:rx="7.4677143"
       sodipodi:ry="7.4677143"
       sodipodi:start="3.7596615"
       sodipodi:end="3.7594297"
       sodipodi:open="true"
       sodipodi:arc-type="arc"
       transform="scale(-1)"
       d="m -17.086181,-15.327212 a 7.4677143,7.4677143 0 0 1 10.4130867,-1.759171 7.4677143,7.4677143 0 0 1 1.7597746,10.4129846 7.4677143,7.4677143 0 0 1 -10.4128823,1.760378 7.4677143,7.4677143 0 0 1 -1.760982,-10.4127806"
       id="path7-3-6"
       class="ColorScheme-Text" />
    <path
       d="m 7.516129,13.999962 h 6.967744 c 0.284905,0 0.516129,-0.224007 0.516129,-0.500018 0,-0.276008 -0.231226,-0.500021 -0.516129,-0.500021 H 7.516129 c -0.284905,0 -0.516127,0.224013 -0.516127,0.500021 0,0.276011 0.231222,0.500018 0.516127,0.500018 z"
       id="path2655-9-4-7"
       style="fill:#4e70ac;fill-opacity:1;stroke-width:0.254" />
    <path
       d="m 19.399994,17.499953 c 0,0.828837 -0.671165,1.500009 -1.499997,1.500009 -0.828128,1e-6 -1.499996,-0.671172 -1.499996,-1.500009 0,-0.828123 0.671868,-1.499991 1.499996,-1.499991 0.828832,0 1.499997,0.671868 1.499997,1.499991 z"
       id="path72-3-5"
       style="color:#e5e9ef;fill:#4e70ac;fill-opacity:1;stroke-width:0.0178572"
       class="ColorScheme-Text" />
  </g>
</svg>
