<?xml version="1.0" encoding="UTF-8" standalone="no"?>
<svg
   inkscape:version="1.3.2 (091e20ef0f, 2023-11-25)"
   sodipodi:docname="uninstall.svg"
   id="svg8"
   version="1.1"
   viewBox="0 0 24 24"
   xmlns:inkscape="http://www.inkscape.org/namespaces/inkscape"
   xmlns:sodipodi="http://sodipodi.sourceforge.net/DTD/sodipodi-0.dtd"
   xmlns="http://www.w3.org/2000/svg"
   xmlns:svg="http://www.w3.org/2000/svg"
   xmlns:rdf="http://www.w3.org/1999/02/22-rdf-syntax-ns#"
   xmlns:cc="http://creativecommons.org/ns#"
   xmlns:dc="http://purl.org/dc/elements/1.1/">
  <metadata
     id="metadata12">
    <rdf:RDF>
      <cc:Work
         rdf:about="">
        <dc:format>image/svg+xml</dc:format>
        <dc:type
           rdf:resource="http://purl.org/dc/dcmitype/StillImage" />
      </cc:Work>
    </rdf:RDF>
  </metadata>
  <sodipodi:namedview
     inkscape:current-layer="svg8"
     inkscape:window-maximized="1"
     inkscape:window-y="0"
     inkscape:window-x="0"
     inkscape:cy="11.998222"
     inkscape:cx="11.998222"
     inkscape:zoom="31.25463"
     showgrid="false"
     id="namedview10"
     inkscape:window-height="996"
     inkscape:window-width="1920"
     inkscape:pageshadow="2"
     inkscape:pageopacity="0"
     guidetolerance="10"
     gridtolerance="10"
     objecttolerance="10"
     borderopacity="1"
     bordercolor="#666666"
     pagecolor="#ffffff"
     inkscape:showpageshadow="2"
     inkscape:pagecheckerboard="0"
     inkscape:deskcolor="#d1d1d1" />
  <defs
     id="defs3051">
    <style
       id="current-color-scheme"
       type="text/css">
      .ColorScheme-Text {
        color:#eff0f1;
      }
      </style>
  </defs>
  <g
     id="g6"
     transform="matrix(1.1249509,0,0,1.1250626,-0.3740664,-0.37618941)"
     style="stroke-width:0.888884">
    <path
       id="path4"
       class="ColorScheme-Text"
       d="M 11.126953,3.0019531 C 9.2851777,2.9719906 7.4335432,3.5755063 5.921875,4.8164062 2.8985906,7.2983061 2.1145626,11.6125 4.0703125,15 L 3.2050781,15.5 5.5039062,16.482422 5.8027344,14 4.9375,14.5 C 3.2230001,11.5304 3.9082004,7.7655434 6.5585938,5.5898438 9.2089874,3.4141439 13.034664,3.4761283 15.613281,5.7363281 L 16.271484,4.984375 C 14.800746,3.6952251 12.968729,3.0319156 11.126953,3.0019531 Z M 16.494141,5.5195312 16.195312,8 17.0625,7.5 c 0.896607,1.5529689 1.131185,3.323632 0.777344,4.970703 0.320602,0.168764 0.618291,0.373397 0.880859,0.619141 C 19.259064,11.093388 19.024658,8.89995 17.927734,7 L 18.792969,6.5 Z M 11,6 7,10 h 2 v 5 h 3.144531 C 12.303295,14.394491 12.599063,13.848255 13,13.388672 V 10 h 2 z M 13.847656,13 13,13.847656 15.152344,16 13,18.152344 13.847656,19 16,16.847656 18.152344,19 19,18.152344 16.847656,16 19,13.847656 18.152344,13 16,15.152344 Z m -7.4628904,3.265625 -0.6582031,0.751953 c 2.0663121,1.81119 4.8448035,2.380136 7.3632815,1.701172 -0.245353,-0.262183 -0.448572,-0.558857 -0.617188,-0.878906 -2.106154,0.453549 -4.372671,-0.0708 -6.0878904,-1.574219 z"
       style="opacity:1;fill:#d3dae3;fill-opacity:1;stroke:none;stroke-width:0.888884" />
  </g>
</svg>
