<?xml version="1.0" encoding="UTF-8" standalone="no"?>
<svg
   inkscape:version="1.3.2 (091e20ef0f, 2023-11-25)"
   sodipodi:docname="update-none.svg"
   id="svg9"
   viewBox="0 0 24 24"
   version="1.1"
   xmlns:inkscape="http://www.inkscape.org/namespaces/inkscape"
   xmlns:sodipodi="http://sodipodi.sourceforge.net/DTD/sodipodi-0.dtd"
   xmlns="http://www.w3.org/2000/svg"
   xmlns:svg="http://www.w3.org/2000/svg"
   xmlns:rdf="http://www.w3.org/1999/02/22-rdf-syntax-ns#"
   xmlns:cc="http://creativecommons.org/ns#"
   xmlns:dc="http://purl.org/dc/elements/1.1/">
  <metadata
     id="metadata13">
    <rdf:RDF>
      <cc:Work
         rdf:about="">
        <dc:format>image/svg+xml</dc:format>
        <dc:type
           rdf:resource="http://purl.org/dc/dcmitype/StillImage" />
      </cc:Work>
    </rdf:RDF>
  </metadata>
  <sodipodi:namedview
     inkscape:current-layer="svg9"
     inkscape:window-maximized="1"
     inkscape:window-y="0"
     inkscape:window-x="0"
     inkscape:cy="17.117464"
     inkscape:cx="11.998222"
     inkscape:zoom="31.25463"
     showgrid="false"
     id="namedview11"
     inkscape:window-height="996"
     inkscape:window-width="1920"
     inkscape:pageshadow="2"
     inkscape:pageopacity="0"
     guidetolerance="10"
     gridtolerance="10"
     objecttolerance="10"
     borderopacity="1"
     bordercolor="#666666"
     pagecolor="#ffffff"
     inkscape:showpageshadow="2"
     inkscape:pagecheckerboard="0"
     inkscape:deskcolor="#d1d1d1" />
  <defs
     id="defs3">
    <style
       id="current-color-scheme"
       type="text/css">.ColorScheme-Text {
        color:#eff0f1;
      }</style>
  </defs>
  <g
     id="g7"
     transform="translate(6.1246076e-4,-8.0431e-4)">
    <path
       style="fill:#d3dae3;fill-opacity:1;stroke-width:1"
       id="path5"
       d="m 11.998193,6.3750168 4.500158,4.5001572 H 14.24827 v 5.625195 H 9.7481136 V 10.875174 H 7.4980356 Z M 18.165624,5.8185822 15.374999,6.1547764 15.937517,5.1791563 C 12.5966,3.2502769 8.3587945,4.0233505 5.9110484,7.0051472 3.4633007,9.9869438 3.5330352,14.290981 6.0758487,17.192025 L 5.2298722,17.932528 C 2.3291839,14.623257 2.2487785,9.6901857 5.0409002,6.2888141 7.8330225,2.8875003 12.688967,2.0054393 16.500038,4.2057344 l 0.562519,-0.9734231 z m 2.832374,6.0382958 c 0.03375,2.072067 -0.645271,4.15523 -2.041331,5.855918 -2.792233,3.40131 -7.645872,4.283374 -11.4569414,2.083078 L 6.9372059,20.769297 5.8319428,18.183025 8.6247644,17.846831 8.0622449,18.820256 c 3.3409161,1.928879 7.5765271,1.158001 10.0242741,-1.823796 2.447746,-2.981793 2.378012,-7.2858309 -0.1648,-10.1868757 l 0.845975,-0.7405042 c 1.450344,1.6546376 2.196595,3.7157283 2.230304,5.7877979 z"
       fill="currentColor"
       class="ColorScheme-Text" />
  </g>
</svg>
