<?xml version="1.0" encoding="UTF-8" standalone="no"?>
<svg
   inkscape:version="1.3.2 (091e20ef0f, 2023-11-25)"
   sodipodi:docname="update-low.svg"
   id="svg11"
   viewBox="0 0 24 24"
   version="1.1"
   xmlns:inkscape="http://www.inkscape.org/namespaces/inkscape"
   xmlns:sodipodi="http://sodipodi.sourceforge.net/DTD/sodipodi-0.dtd"
   xmlns="http://www.w3.org/2000/svg"
   xmlns:svg="http://www.w3.org/2000/svg"
   xmlns:rdf="http://www.w3.org/1999/02/22-rdf-syntax-ns#"
   xmlns:cc="http://creativecommons.org/ns#"
   xmlns:dc="http://purl.org/dc/elements/1.1/">
  <metadata
     id="metadata15">
    <rdf:RDF>
      <cc:Work
         rdf:about="">
        <dc:format>image/svg+xml</dc:format>
        <dc:type
           rdf:resource="http://purl.org/dc/dcmitype/StillImage" />
      </cc:Work>
    </rdf:RDF>
  </metadata>
  <sodipodi:namedview
     inkscape:current-layer="svg11"
     inkscape:window-maximized="1"
     inkscape:window-y="0"
     inkscape:window-x="0"
     inkscape:cy="11.998222"
     inkscape:cx="11.998222"
     inkscape:zoom="31.25463"
     showgrid="false"
     id="namedview13"
     inkscape:window-height="996"
     inkscape:window-width="1920"
     inkscape:pageshadow="2"
     inkscape:pageopacity="0"
     guidetolerance="10"
     gridtolerance="10"
     objecttolerance="10"
     borderopacity="1"
     bordercolor="#666666"
     pagecolor="#ffffff"
     inkscape:showpageshadow="2"
     inkscape:pagecheckerboard="0"
     inkscape:deskcolor="#d1d1d1" />
  <defs
     id="defs3">
    <style
       id="current-color-scheme"
       type="text/css">.ColorScheme-Text {
        color:#eff0f1;
      }
      .ColorScheme-Highlight {
        color:#3daee9;
      }</style>
  </defs>
  <g
     id="g9"
     transform="matrix(1.1249886,0,0,1.1250789,-0.37478344,-0.37716157)"
     style="stroke-width:0.888862">
    <path
       style="fill:#d3dae3;fill-opacity:1;stroke-width:0.888862"
       id="path5"
       d="M 10.943359,3.0019531 C 8.6336807,3.0198889 6.3655781,4.034275 4.8144531,5.9238281 2.3326531,8.9471651 2.4041219,13.331962 4.9824219,16.273438 L 5.734375,15.615234 C 3.474175,13.036617 3.4121906,9.210941 5.5878906,6.560547 7.7635896,3.910153 11.5304,3.2230001 14.5,4.9375001 L 14,5.8046876 16.480469,5.5058595 15.5,3.2070313 15,4.0722657 C 13.729688,3.3388595 12.329167,2.9911918 10.943359,3.0019531 Z m 6.072266,2.7265625 -0.751953,0.6582032 c 1.498615,1.7097401 2.023814,3.9662772 1.578125,6.0664062 a 3.9904534,4.0021063 0 0 1 0.878906,0.625 c 0.193608,-0.721967 0.289408,-1.46347 0.277344,-2.205078 C 18.968085,9.0312706 18.304775,7.1992536 17.015625,5.7285156 Z M 10.998047,6 6.9980469,10 h 2 v 5 h 3.1406251 a 3.9904534,4.0021063 0 0 1 0.859375,-1.626953 V 10 h 2 z M 8,16.197266 5.5175781,16.496094 6.5,18.794922 7,17.929688 c 1.8980665,1.095835 4.087429,1.331359 6.082031,0.794921 A 3.9904534,4.0021063 0 0 1 12.458984,17.841797 C 10.81481,18.192571 9.0499149,17.957344 7.5,17.0625 Z"
       fill="currentColor"
       class="ColorScheme-Text" />
    <path
       id="path7"
       d="m 16,13 a 2.9999907,2.9999907 0 0 0 -3,3 2.9999907,2.9999907 0 0 0 3,3 2.9999907,2.9999907 0 0 0 3,-3 2.9999907,2.9999907 0 0 0 -3,-3 z"
       fill="currentColor"
       class="ColorScheme-Highlight"
       style="stroke-width:0.888862" />
  </g>
</svg>
