<?xml version="1.0" encoding="UTF-8" standalone="no"?>
<svg
   viewBox="0 0 32 32"
   version="1.1"
   id="svg1"
   sodipodi:docname="system-switch-user.svg"
   width="32"
   height="32"
   inkscape:version="1.3.2 (091e20ef0f, 2023-11-25)"
   xmlns:inkscape="http://www.inkscape.org/namespaces/inkscape"
   xmlns:sodipodi="http://sodipodi.sourceforge.net/DTD/sodipodi-0.dtd"
   xmlns="http://www.w3.org/2000/svg"
   xmlns:svg="http://www.w3.org/2000/svg">
  <sodipodi:namedview
     id="namedview1"
     pagecolor="#ffffff"
     bordercolor="#999999"
     borderopacity="1"
     inkscape:showpageshadow="2"
     inkscape:pageopacity="0"
     inkscape:pagecheckerboard="0"
     inkscape:deskcolor="#d1d1d1"
     inkscape:zoom="8.4189901"
     inkscape:cx="16.153957"
     inkscape:cy="31.35768"
     inkscape:window-width="1920"
     inkscape:window-height="996"
     inkscape:window-x="0"
     inkscape:window-y="0"
     inkscape:window-maximized="1"
     inkscape:current-layer="svg1" />
  <defs
     id="defs3051">
    <style
       type="text/css"
       id="current-color-scheme">.ColorScheme-Text { color:#fcfcfc; }
</style>
  </defs>
  <g
     id="system-switch-user-0">
    <circle
       style="opacity:0;fill:#d1d5e9;fill-opacity:1;stroke-width:1.06667"
       id="circle955"
       r="16"
       cy="-16"
       cx="16"
       transform="scale(1,-1)" />
    <path
       d="m 11.515851,10 c 1.444631,0 2.615718,1.175213 2.615718,2.625053 0,1.44971 -1.171087,2.624918 -2.615718,2.624918 C 10.071122,15.249971 8.9,14.074763 8.9,12.625053 8.9,11.175247 10.071095,10 11.515851,10 m 9.715755,1.500053 h -5.764494 c 0.101604,0.358454 0.159154,0.73427 0.159154,1.125 0,0.390729 -0.0576,0.76642 -0.159154,1.125009 h 5.764494 c 0.616585,0 1.121056,-0.506255 1.121056,-1.125009 0,-0.618753 -0.504471,-1.125 -1.121056,-1.125 M 23.1,19.375077 C 23.1,20.824787 21.928908,22 20.484273,22 c -1.444719,0 -2.615847,-1.175213 -2.615847,-2.624923 0,-1.449807 1.171092,-2.625048 2.615847,-2.625048 1.444635,0 2.615727,1.175208 2.615727,2.625048 m -6.567178,1.125 h -5.764496 c -0.616581,0 -1.1210566,-0.506247 -1.1210566,-1.125 0,-0.618754 0.5044756,-1.12501 1.1210566,-1.12501 h 5.764496 c -0.101725,0.35846 -0.159279,0.73428 -0.159279,1.12501 0,0.39073 0.05761,0.766416 0.159279,1.125"
       fill-rule="evenodd"
       id="path1768"
       style="stroke-width:0.0320865;fill-opacity:1;fill:currentColor;"
       class="ColorScheme-Text" />
    <path
       style="stop-color:#31363b;stroke-opacity:1;stroke-dasharray:none;stroke-miterlimit:4;stroke-linecap:round;stroke-width:1.60402;stroke:currentColor;fill-opacity:1;fill:none;"
       sodipodi:type="arc"
       sodipodi:cx="-16"
       sodipodi:cy="-16.00001"
       sodipodi:rx="11.201572"
       sodipodi:ry="11.201572"
       sodipodi:start="3.7596615"
       sodipodi:end="3.7574109"
       sodipodi:open="true"
       sodipodi:arc-type="arc"
       transform="scale(-1)"
       d="m -25.12927,-22.490899 a 11.201572,11.201572 0 0 1 15.6150219,-2.642032 11.201572,11.201572 0 0 1 2.6508169,15.6135337 11.201572,11.201572 0 0 1 -15.6120398,2.6596014 11.201572,11.201572 0 0 1 -2.668385,-15.6105401"
       id="path7-3"
       class="ColorScheme-Text " />
  </g>
</svg>
