<?xml version="1.0" encoding="UTF-8" standalone="no"?>
<svg
   viewBox="0 0 32 32"
   version="1.1"
   id="svg1"
   sodipodi:docname="system-hibernate-symbolic.svg"
   width="32"
   height="32"
   inkscape:version="1.3.2 (091e20ef0f, 2023-11-25)"
   xmlns:inkscape="http://www.inkscape.org/namespaces/inkscape"
   xmlns:sodipodi="http://sodipodi.sourceforge.net/DTD/sodipodi-0.dtd"
   xmlns="http://www.w3.org/2000/svg"
   xmlns:svg="http://www.w3.org/2000/svg">
  <defs
     id="defs1" />
  <sodipodi:namedview
     id="namedview1"
     pagecolor="#ffffff"
     bordercolor="#999999"
     borderopacity="1"
     inkscape:showpageshadow="2"
     inkscape:pageopacity="0"
     inkscape:pagecheckerboard="0"
     inkscape:deskcolor="#d1d1d1"
     inkscape:zoom="11.90625"
     inkscape:cx="15.874016"
     inkscape:cy="30.656168"
     inkscape:window-width="1920"
     inkscape:window-height="996"
     inkscape:window-x="0"
     inkscape:window-y="0"
     inkscape:window-maximized="1"
     inkscape:current-layer="svg1"
     showguides="true" />
  <style
     type="text/css"
     id="current-color-scheme">.ColorScheme-Text { color:#fcfcfc; }
</style>
  <g
     id="system-suspend-hibernate-1">
    <path
       id="path938"
       overflow="visible"
       d="M 16,0 C 7.17237,0 0,7.17237 0,16 0,24.82763 7.17237,32 16,32 24.82763,32 32,24.82763 32,16 32,7.17237 24.82763,0 16,0 Z"
       inkscape:connector-curvature="0"
       style="color:#000000;overflow:visible;opacity:0;fill:#d1d5e9;fill-opacity:1;stroke-width:1.06667" />
    <path
       d="m 17.699698,19.129548 c -0.07336,-0.06489 -0.114449,-0.15708 -0.114449,-0.25438 l 1.22e-4,-8.509308 C 17.585371,9.612977 16.97243,9 16.219509,9 15.4666,9 14.853652,9.612947 14.853652,10.36586 v 8.509308 c 0,0.0973 -0.04095,0.189472 -0.11266,0.25438 C 14.269751,19.551251 14,20.15398 14,20.780497 14,22.00462 14.995349,23 16.219503,23 c 1.22416,0 2.219507,-0.995348 2.219507,-2.219503 0,-0.626666 -0.269738,-1.229246 -0.739312,-1.650949 z M 16.219509,21.9756 c -0.65904,0 -1.195063,-0.536152 -1.195063,-1.195075 0,-0.539471 0.360228,-0.997024 0.85364,-1.145531 v -1.92762 c 0,-0.187803 0.153629,-0.341428 0.341423,-0.341428 0.187803,0 0.341429,0.15363 0.341429,0.341428 v 1.9275 c 0.493408,0.148506 0.853642,0.606059 0.853642,1.145531 0,0.659043 -0.536027,1.195195 -1.195071,1.195195 z m 0.512223,-1.195075 c 0,0.281652 -0.230441,0.512215 -0.512223,0.512215 -0.281649,0 -0.51222,-0.23044 -0.51222,-0.512215 0,-0.281649 0.23044,-0.512217 0.51222,-0.512217 0.281657,0 0.512223,0.23044 0.512223,0.512217 z M 19,17 Z"
       id="path2153"
       style="stroke-width:0.0304873;fill-opacity:1;fill:currentColor;"
       sodipodi:nodetypes="cccssscssscsscssscsssssssccccccc"
       class="ColorScheme-Text" />
    <path
       d="M 19.64235,16 H 23 c 0.856468,0.0035 0.856468,0.99656 0,1 h -3.35765 c -0.856466,-0.0035 -0.856466,-0.996565 0,-1 z M 23,16.8 Z"
       id="path8-6-7-6"
       style="stroke-width:0.11364;fill-opacity:1;fill:currentColor;"
       sodipodi:nodetypes="cccccccccc"
       class="ColorScheme-Text " />
    <path
       style="stop-color:#31363b;stroke-opacity:1;stroke-dasharray:none;stroke-miterlimit:4;stroke-linecap:round;stroke-width:1.60402;stroke:currentColor;fill-opacity:1;fill:none;"
       sodipodi:type="arc"
       sodipodi:cx="-16.000002"
       sodipodi:cy="-16.00001"
       sodipodi:rx="11.201572"
       sodipodi:ry="11.201572"
       sodipodi:start="3.7596615"
       sodipodi:end="3.7583"
       sodipodi:open="true"
       sodipodi:arc-type="arc"
       transform="scale(-1)"
       d="m -25.129272,-22.490899 a 11.201572,11.201572 0 0 1 15.6170519,-2.64059 11.201572,11.201572 0 0 1 2.6459051,15.6161527 11.201572,11.201572 0 0 1 -15.615251,2.6512204 11.201572,11.201572 0 0 1 -2.656535,-15.6143481"
       id="path7"
       class="ColorScheme-Text " />
  </g>
</svg>
