<?xml version="1.0" encoding="UTF-8" standalone="no"?>
<svg
   viewBox="0 0 32 32"
   version="1.1"
   id="svg1"
   sodipodi:docname="system-save-session.svg"
   inkscape:version="1.3.2 (091e20ef0f, 2023-11-25)"
   width="32"
   height="32"
   xmlns:inkscape="http://www.inkscape.org/namespaces/inkscape"
   xmlns:sodipodi="http://sodipodi.sourceforge.net/DTD/sodipodi-0.dtd"
   xmlns="http://www.w3.org/2000/svg"
   xmlns:svg="http://www.w3.org/2000/svg">
  <sodipodi:namedview
     id="namedview1"
     pagecolor="#ffffff"
     bordercolor="#999999"
     borderopacity="1"
     inkscape:showpageshadow="2"
     inkscape:pageopacity="0"
     inkscape:pagecheckerboard="0"
     inkscape:deskcolor="#d1d1d1"
     inkscape:zoom="4.2094951"
     inkscape:cx="58.79565"
     inkscape:cy="63.428035"
     inkscape:window-width="1920"
     inkscape:window-height="994"
     inkscape:window-x="0"
     inkscape:window-y="0"
     inkscape:window-maximized="1"
     inkscape:current-layer="svg1" />
  <defs
     id="defs3051">
    <style
       type="text/css"
       id="current-color-scheme">.ColorScheme-Text {color:#fcfcfc;}</style>
  </defs>
  <g
     id="system-save-session">
    <path
       style="fill:none"
       d="M 0,0 V 32 H 32 V 0 Z"
       id="path44" />
    <path
       d="m 6.9999974,4.0023083 c -1.9999984,0 -2.9999976,0.9999038 -2.9999976,2.9997116 v 8.9991351 8.999133 0.999905 C 3.9999998,28 5.6999984,28 5.6999984,28 h 0.9999992 0.7999993 c 0.4999997,0 0.4999997,-0.999903 0,-0.999903 v 0 H 5.9999982 c 0,0 -0.9999992,0 -0.9999992,-0.999904 v -9.999038 -8.9991351 0 c 0,-0.9999038 0.9999992,-0.9999038 0.9999992,-0.9999038 v 0 h 2.9999975 0.9999992 v 2.9997113 2.9997116 c 0,0.999904 0.9999991,0.999904 0.9999991,0.999904 v 0 h 4.999996 4.999996 l 0.999999,-0.999904 v 0 -2.9997116 -2.9997113 h 0.999999 0.999999 l 1.349999,1.1578885 1.649999,1.4418613 v 8.3991921 8.999135 c 0,0.999904 -0.999999,0.999904 -0.999999,0.999904 h -1.499999 c -0.5,0 -0.5,0.999903 0,0.999903 h 0.799999 1 c 0,0 1.699998,0 1.699998,-1.999807 V 17.001058 8.0019236 c 0,0 -4.306859,-3.8676097 -4.512082,-3.9432529 C 23.263083,3.9825457 6.9999974,4.0023083 6.9999974,4.0023083 Z M 19.999987,9.0018274 V 11.001635 H 17.999988 16.999989 V 9.0018274 6.0021161 h 1.999999 0.999999 z"
       id="path1808"
       style="fill:#bac8df;fill-opacity:1;stroke-width:0.0024289"
       sodipodi:nodetypes="cccccccccccccccccccccccccccccccccccccccccscccccccccccc" />
    <path
       d="m 8.9999957,16.999999 v 9.999992 c 0,0.999999 0.9999992,0.999999 0.9999992,0.999999 h 5.9999951 5.999995 c 0,0 0.999999,0 0.999999,-0.999999 V 16 v 0 0.999999 c 0,0 0.05158,-0.999999 -0.999999,-0.999999 H 9.9999949 c 0,0 -0.9999992,0 -0.9999992,0.999999 z m 11.9999903,2.999998 v 0.999999 h -9.999992 v -0.999999 h 4.999996 z m 0,1.999998 v 0.999999 0 h -9.999992 v -0.999999 h 4.999996 z m 0,1.999998 v 0.999999 0 H 15.99999 10.999994 v -0.999999 l 5.068045,0.0091 z"
       id="path1810"
       style="fill:#bac8df;fill-opacity:1;stroke-width:0.00242902"
       sodipodi:nodetypes="ccccccccccccccccccscccccsccccccccc" />
  </g>
</svg>
