<?xml version="1.0" encoding="UTF-8" standalone="no"?>
<svg
   version="1.1"
   viewBox="0 0 32 32"
   id="svg1"
   sodipodi:docname="system-lock-screen.svg"
   width="32"
   height="32"
   inkscape:version="1.3.2 (091e20ef0f, 2023-11-25)"
   xmlns:inkscape="http://www.inkscape.org/namespaces/inkscape"
   xmlns:sodipodi="http://sodipodi.sourceforge.net/DTD/sodipodi-0.dtd"
   xmlns="http://www.w3.org/2000/svg"
   xmlns:svg="http://www.w3.org/2000/svg">
  <sodipodi:namedview
     id="namedview1"
     pagecolor="#ffffff"
     bordercolor="#999999"
     borderopacity="1"
     inkscape:showpageshadow="2"
     inkscape:pageopacity="0"
     inkscape:pagecheckerboard="0"
     inkscape:deskcolor="#d1d1d1"
     inkscape:zoom="8.4189901"
     inkscape:cx="16.391515"
     inkscape:cy="16.035177"
     inkscape:window-width="1920"
     inkscape:window-height="996"
     inkscape:window-x="0"
     inkscape:window-y="0"
     inkscape:window-maximized="1"
     inkscape:current-layer="svg1" />
  <defs
     id="defs1">
    <style
       type="text/css"
       id="current-color-scheme">.ColorScheme-Text { color:#fcfcfc; }
</style>
  </defs>
  <g
     id="system-lock-screen-0"
     transform="translate(-95)">
    <path
       style="color:#000000;overflow:visible;opacity:0;fill:#d1d5e9;fill-opacity:1;stroke-width:1.06667"
       id="path953"
       overflow="visible"
       d="m 111,0 c -8.82763,0 -16,7.17237 -16,16 0,8.82763 7.17237,16 16,16 8.82763,0 16,-7.17237 16,-16 0,-8.82763 -7.17237,-16 -16,-16 z"
       inkscape:connector-curvature="0" />
    <path
       d="M 113.79815,10.15341 C 113.0874,9.44267 112.1056,9 111.02649,9 c -1.05205,0 -2.0258,0.42973 -2.72759,1.12231 l -0.0442,0.0311 c -0.71076,0.71075 -1.15343,1.69658 -1.15343,2.77165 v 1.61424 l -0.10957,1.7e-4 c -0.41258,0 -0.77997,0.16672 -1.05308,0.44366 v 0.004 c -0.2721,0.27222 -0.43863,0.64062 -0.43863,1.04814 v 5.46913 c 0,0.41259 0.16672,0.78905 0.43862,1.05709 0.27209,0.27612 0.64049,0.43862 1.05309,0.43862 h 8.07032 c 0.38553,0 0.74586,-0.14453 1.01695,-0.39948 l 0.0442,-0.0391 c 0.26302,-0.26805 0.43863,-0.64449 0.43863,-1.05709 v -5.46913 c 0,-0.40755 -0.17563,-0.77592 -0.43863,-1.05205 -0.27612,-0.27713 -0.64853,-0.44366 -1.06113,-0.44366 h -0.10538 v -1.61523 c 0,-1.07425 -0.43879,-2.06108 -1.15844,-2.77079 z m -5.4601,2.7708 c 0,-0.73678 0.31124,-1.41156 0.79408,-1.89437 l 0.026,-0.0311 c 0.48182,-0.4699 1.14936,-0.76297 1.86816,-0.76297 0.74585,0 1.41237,0.30217 1.9043,0.79408 0.48182,0.48182 0.785,1.15742 0.785,1.89436 v 1.61424 h -5.37749 z m 6.72412,2.85098 c 0.0703,0 0.13546,0.0351 0.18369,0.0793 0.0442,0.0523 0.0743,0.11446 0.0743,0.17966 v 5.46913 c 0,0.0703 -0.0301,0.13647 -0.0743,0.18369 l -0.0171,0.0171 c -0.0483,0.0351 -0.10537,0.0523 -0.16672,0.0523 l -8.0699,-1.7e-4 c -0.0612,0 -0.13159,-0.021 -0.17562,-0.0703 -0.0523,-0.0482 -0.0783,-0.11445 -0.0783,-0.18369 v -5.46914 c 0,-0.0753 0.026,-0.13545 0.0783,-0.17965 0.0442,-0.0442 0.11445,-0.0793 0.17562,-0.0793 h 8.07034 z"
       id="path7208"
       style="stroke-width:0.0430236;fill-opacity:1;fill:currentColor;"
       class="ColorScheme-Text " />
    <path
       style="stop-color:#31363b;stroke-opacity:1;stroke-dasharray:none;stroke-miterlimit:4;stroke-linecap:round;stroke-width:1.60402;stroke:currentColor;fill-opacity:1;fill:none;"
       sodipodi:type="arc"
       sodipodi:cx="-111"
       sodipodi:cy="-16.00001"
       sodipodi:rx="11.201572"
       sodipodi:ry="11.201572"
       sodipodi:start="3.7596615"
       sodipodi:end="3.7574109"
       sodipodi:open="true"
       sodipodi:arc-type="arc"
       transform="scale(-1)"
       d="m -120.12927,-22.490899 a 11.201572,11.201572 0 0 1 15.61502,-2.642032 11.201572,11.201572 0 0 1 2.65082,15.6135337 11.201572,11.201572 0 0 1 -15.61204,2.6596014 11.201572,11.201572 0 0 1 -2.66839,-15.6105401"
       id="path7-6-6"
       class="ColorScheme-Text " />
    <path
       d="m 111.82686,17.434268 c 0.15009,0.218685 0.20724,0.488062 0.15864,0.748747 -0.0488,0.260748 -0.19899,0.491533 -0.41782,0.6416 -0.21898,0.149976 -0.48868,0.207039 -0.74978,0.158489 -0.261,-0.04851 -0.492,-0.198714 -0.64226,-0.417356 -0.15014,-0.218696 -0.20734,-0.488057 -0.15874,-0.748821 0.049,-0.260675 0.199,-0.491476 0.4179,-0.641537 0.21892,-0.149973 0.48869,-0.207039 0.7497,-0.1585 0.261,0.0485 0.49205,0.19872 0.64236,0.417378 z"
       id="path1348-7-6-3"
       style="stroke-width:0.0176105;fill-opacity:1;fill:currentColor;"
       class="ColorScheme-Text" />
  </g>
</svg>
