<?xml version="1.0" encoding="UTF-8" standalone="no"?>
<svg
   viewBox="0 0 16 16"
   version="1.1"
   id="svg1"
   sodipodi:docname="audio-ready.svg"
   width="16"
   height="16"
   inkscape:version="1.3.2 (091e20ef0f, 2023-11-25)"
   xmlns:inkscape="http://www.inkscape.org/namespaces/inkscape"
   xmlns:sodipodi="http://sodipodi.sourceforge.net/DTD/sodipodi-0.dtd"
   xmlns="http://www.w3.org/2000/svg"
   xmlns:svg="http://www.w3.org/2000/svg">
  <sodipodi:namedview
     id="namedview1"
     pagecolor="#ffffff"
     bordercolor="#999999"
     borderopacity="1"
     inkscape:showpageshadow="2"
     inkscape:pageopacity="0"
     inkscape:pagecheckerboard="0"
     inkscape:deskcolor="#d1d1d1"
     inkscape:zoom="11.90625"
     inkscape:cx="7.8110236"
     inkscape:cy="7.9790026"
     inkscape:window-width="1920"
     inkscape:window-height="996"
     inkscape:window-x="0"
     inkscape:window-y="0"
     inkscape:window-maximized="1"
     inkscape:current-layer="svg1" />
  <defs
     id="defs3051">
    <style
       type="text/css"
       id="current-color-scheme">.ColorScheme-Text { color:#bac8df; }
.ColorScheme-NeutralText { color: #f67400; }
</style>
  </defs>
  <path
     style="opacity:1;fill:#ff9955;fill-opacity:1;stroke:none"
     d="m 15.50001,7.9773158 a 2.0000048,2.0000048 0 0 1 -2.000005,2 2.0000048,2.0000048 0 0 1 -2.000005,-2 2.0000048,2.0000048 0 0 1 2.000005,-2 2.0000048,2.0000048 0 0 1 2.000005,2 z"
     class="ColorScheme-NeutralText"
     id="path1" />
  <path
     id="rect858"
     d="M 0,0 H 16 V 16 H 0 Z"
     fill="none" />
  <path
     d="m 10.142854,2.7748198 c 0,-0.716335 -0.840324,-1.021474 -1.371748,-0.545503 l -2.96148,2.652037 c -0.09052,0.08105 -0.207427,0.125224 -0.328563,0.125224 H 3.054944 c -0.819326,0 -1.483519,0.669649 -1.483519,1.494923 v 2.987182 c 0,0.8252462 0.664193,1.4951672 1.483519,1.4951672 h 2.426083 c 0.121145,0 0.238075,0.04381 0.328596,0.124948 l 2.961405,2.65233 c 0.531501,0.476074 1.371829,0.211445 1.371829,-0.535718 z M 9.42857,7.2301448 V 2.7651088 13.22541 7.2301448 v 0 l -4.285711,0.747168 v 0 z"
     id="path2057-3-3"
     style="stroke-width:0.661766;fill-opacity:1;fill:currentColor;"
     sodipodi:nodetypes="sccssssssccsscccccccccccc"
     class="ColorScheme-Text" />
  <path
     d="m 2.642855,7.9773048 c 0,0.619275 -0.47941,1.120754 -1.071428,1.120754 C 0.979909,9.0980588 0.5,8.5965798 0.5,7.9773048 c 0,-0.618743 0.479909,-1.120732 1.071427,-1.120732 0.592018,0 1.071428,0.501989 1.071428,1.120732 z"
     id="path72-3-7-3-5"
     style="stroke-width:0.0130452;fill-opacity:1;fill:currentColor;"
     class="ColorScheme-Text" />
  <path
     d="m 10.85714,7.9773048 c 0,0.619275 -0.479407,1.120754 -1.07143,1.120754 -0.35714,0 -0.35714,-1.120754 -0.35714,-1.120754 0,0 0,-1.120732 0.35714,-1.120732 0.592023,0 1.07143,0.501989 1.07143,1.120732 z"
     id="path72-3-7-3-6-35"
     style="stroke-width:0.0130452;fill-opacity:1;fill:currentColor;"
     sodipodi:nodetypes="sscss"
     class="ColorScheme-Text" />
</svg>
