<?xml version="1.0" encoding="UTF-8" standalone="no"?>
<svg
   viewBox="0 0 16 16"
   version="1.1"
   id="svg4"
   sodipodi:docname="audio-volume-low.svg"
   width="16"
   height="16"
   inkscape:version="1.3.2 (091e20ef0f, 2023-11-25)"
   xmlns:inkscape="http://www.inkscape.org/namespaces/inkscape"
   xmlns:sodipodi="http://sodipodi.sourceforge.net/DTD/sodipodi-0.dtd"
   xmlns="http://www.w3.org/2000/svg"
   xmlns:svg="http://www.w3.org/2000/svg">
  <defs
     id="defs4" />
  <sodipodi:namedview
     id="namedview4"
     pagecolor="#ffffff"
     bordercolor="#999999"
     borderopacity="1"
     inkscape:showpageshadow="2"
     inkscape:pageopacity="0"
     inkscape:pagecheckerboard="0"
     inkscape:deskcolor="#d1d1d1"
     inkscape:zoom="16.83798"
     inkscape:cx="8.3739261"
     inkscape:cy="8.1957574"
     inkscape:window-width="1920"
     inkscape:window-height="996"
     inkscape:window-x="0"
     inkscape:window-y="0"
     inkscape:window-maximized="1"
     inkscape:current-layer="svg4" />
  <style
     id="current-color-scheme"
     type="text/css">.ColorScheme-Text { color: #fcfcfc; }
</style>
  <path
     id="rect858-6"
     d="M 0,0 H 16 V 16 H 0 Z"
     fill="none" />
  <path
     d="m 10.142854,2.7748198 c 0,-0.716335 -0.840324,-1.021474 -1.371748,-0.545503 l -2.96148,2.652037 c -0.09052,0.08105 -0.207427,0.125224 -0.328563,0.125224 H 3.054944 c -0.819326,0 -1.483519,0.669649 -1.483519,1.494923 v 2.987182 c 0,0.8252462 0.664193,1.4951672 1.483519,1.4951672 h 2.426083 c 0.121145,0 0.238075,0.04381 0.328596,0.124948 l 2.961405,2.65233 c 0.531501,0.476074 1.371829,0.211445 1.371829,-0.535718 z M 9.42857,7.2301448 V 2.7651088 13.22541 7.2301448 v 0 l -4.285711,0.747168 v 0 z"
     id="path2057-3-3-4"
     style="stroke-width:0.661766;fill-opacity:1;fill:currentColor;"
     sodipodi:nodetypes="sccssssssccsscccccccccccc"
     class="ColorScheme-Text" />
  <path
     d="m 13.259646,2.7296698 c 0.299089,-0.216942 0.72122,-0.155367 0.942838,0.137545 1.106325,1.462616 1.760854,3.273816 1.760854,5.232779 0,1.9589512 -0.654529,3.7701592 -1.760854,5.2327982 -0.221618,0.292949 -0.643749,0.354452 -0.942838,0.137534 -0.299194,-0.216921 -0.362015,-0.63024 -0.140473,-0.923199 0.940227,-1.242985 1.496097,-2.780518 1.496097,-4.4471302 0,-1.666544 -0.555866,-3.204101 -1.496097,-4.447133 -0.221542,-0.292911 -0.158721,-0.70624 0.140473,-0.923191 z"
     id="path2059-6-6-5"
     style="stroke-width:0.88934;fill-opacity:0.49657536;fill:currentColor;"
     class="ColorScheme-Text" />
  <path
     d="m 11.646741,4.9068608 c 0.321173,-0.173533 0.72262,-0.0543 0.896516,0.266206 0.472873,0.871722 0.741138,1.869953 0.741138,2.928753 0,1.058821 -0.268265,2.0570822 -0.741138,2.9288102 -0.173896,0.320489 -0.575343,0.439731 -0.896516,0.2662 -0.321277,-0.173551 -0.440764,-0.574107 -0.266852,-0.894621 0.370826,-0.683566 0.581691,-1.4664132 0.581691,-2.3003892 0,-0.833962 -0.210864,-1.616804 -0.581691,-2.300366 -0.173913,-0.320546 -0.05446,-0.721072 0.266852,-0.894593 z"
     id="path2061-7-7-0"
     style="stroke-width:0.880977;fill-opacity:0.5;fill:currentColor;"
     class="ColorScheme-Text" />
  <path
     d="m 2.642855,7.9773048 c 0,0.619275 -0.47941,1.120754 -1.071428,1.120754 C 0.979909,9.0980588 0.5,8.5965798 0.5,7.9773048 c 0,-0.618743 0.479909,-1.120732 1.071427,-1.120732 0.592018,0 1.071428,0.501989 1.071428,1.120732 z"
     id="path72-3-7-3-5-3"
     style="stroke-width:0.0130452;fill-opacity:1;fill:currentColor;"
     class="ColorScheme-Text" />
  <path
     d="m 10.857141,7.9773048 c 0,0.619275 -0.479408,1.120754 -1.071431,1.120754 -0.35714,0 -0.35714,-1.120754 -0.35714,-1.120754 0,0 0,-1.120732 0.35714,-1.120732 0.592023,0 1.071431,0.501989 1.071431,1.120732 z"
     id="path72-3-7-3-6-35-6"
     style="stroke-width:0.0130452;fill-opacity:1;fill:currentColor;"
     sodipodi:nodetypes="sscss"
     class="ColorScheme-Text" />
</svg>
