<?xml version="1.0" encoding="UTF-8" standalone="no"?>
<svg
   viewBox="0 0 16 16"
   version="1.1"
   id="svg4"
   sodipodi:docname="audio-volume-high-danger.svg"
   width="16"
   height="16"
   inkscape:version="1.3.2 (091e20ef0f, 2023-11-25)"
   xmlns:inkscape="http://www.inkscape.org/namespaces/inkscape"
   xmlns:sodipodi="http://sodipodi.sourceforge.net/DTD/sodipodi-0.dtd"
   xmlns="http://www.w3.org/2000/svg"
   xmlns:svg="http://www.w3.org/2000/svg">
  <defs
     id="defs4" />
  <sodipodi:namedview
     id="namedview4"
     pagecolor="#ffffff"
     bordercolor="#999999"
     borderopacity="1"
     inkscape:showpageshadow="2"
     inkscape:pageopacity="0"
     inkscape:pagecheckerboard="0"
     inkscape:deskcolor="#d1d1d1"
     inkscape:zoom="16.83798"
     inkscape:cx="7.0079665"
     inkscape:cy="13.897154"
     inkscape:window-width="1920"
     inkscape:window-height="996"
     inkscape:window-x="0"
     inkscape:window-y="0"
     inkscape:window-maximized="1"
     inkscape:current-layer="svg4" />
  <style
     id="current-color-scheme"
     type="text/css">.ColorScheme-Text { color: #fcfcfc; }
</style>
  <g
     id="16-16-audio-volume-high">
    <path
       id="rect858"
       d="M 0,0 H 16 V 16 H 0 Z"
       fill="none" />
    <path
       d="m 10.142854,2.7748198 c 0,-0.716335 -0.840324,-1.021474 -1.371748,-0.545503 l -2.96148,2.652037 c -0.09052,0.08105 -0.207427,0.125224 -0.328563,0.125224 H 3.054944 c -0.819326,0 -1.483519,0.669649 -1.483519,1.494923 v 2.987182 c 0,0.8252462 0.664193,1.4951672 1.483519,1.4951672 h 2.426083 c 0.121145,0 0.238075,0.04381 0.328596,0.124948 l 2.961405,2.65233 c 0.531501,0.476074 1.371829,0.211445 1.371829,-0.535718 z M 9.42857,7.2301448 V 2.7651088 13.22541 7.2301448 v 0 l -4.285711,0.747168 v 0 z"
       id="path2057-3-3"
       style="stroke-width:0.661766;fill-opacity:1;fill:currentColor;"
       sodipodi:nodetypes="sccssssssccsscccccccccccc"
       class="ColorScheme-Text" />
    <path
       d="m 13.259646,2.7296699 c 0.29909,-0.2169424 0.721221,-0.1553666 0.942838,0.1375455 1.106325,1.4626155 1.760855,3.2738157 1.760855,5.2327783 0,1.9589513 -0.65453,3.7701593 -1.760855,5.2327983 -0.221618,0.292949 -0.643748,0.354452 -0.942838,0.137534 -0.299194,-0.216921 -0.362014,-0.63024 -0.140473,-0.923199 0.940228,-1.242985 1.496098,-2.780518 1.496098,-4.44713 0,-1.6665437 -0.555866,-3.2041006 -1.496098,-4.4471328 -0.221541,-0.2929115 -0.158721,-0.7062401 0.140473,-0.9231914 z"
       id="path2059-6-6"
       style="fill:#c83771;fill-opacity:1;stroke-width:0.88934" />
    <path
       d="m 11.646741,4.906861 c 0.321173,-0.1735327 0.72262,-0.054299 0.896516,0.2662063 0.472873,0.8717221 0.741138,1.8699523 0.741138,2.9287527 0,1.058821 -0.268264,2.057082 -0.741138,2.92881 -0.173896,0.320489 -0.575343,0.439731 -0.896516,0.2662 -0.321277,-0.173551 -0.440764,-0.574107 -0.266851,-0.894621 0.370826,-0.683566 0.581691,-1.466413 0.581691,-2.300389 0,-0.8339622 -0.210864,-1.6168045 -0.581691,-2.3003663 C 11.205977,5.4809083 11.32543,5.0803815 11.646741,4.906861 Z"
       id="path2061-7-7"
       style="fill:#c83771;fill-opacity:1;stroke-width:0.880977" />
    <path
       d="m 2.642855,7.9773048 c 0,0.619275 -0.47941,1.120754 -1.071428,1.120754 C 0.979909,9.0980588 0.5,8.5965798 0.5,7.9773048 c 0,-0.618743 0.479909,-1.120732 1.071427,-1.120732 0.592018,0 1.071428,0.501989 1.071428,1.120732 z"
       id="path72-3-7-3-5"
       style="stroke-width:0.0130452;fill-opacity:1;fill:currentColor;"
       class="ColorScheme-Text" />
    <path
       d="m 10.85714,7.9773048 c 0,0.619275 -0.479407,1.120754 -1.07143,1.120754 -0.35714,0 -0.35714,-1.120754 -0.35714,-1.120754 0,0 0,-1.120732 0.35714,-1.120732 0.592023,0 1.07143,0.501989 1.07143,1.120732 z"
       id="path72-3-7-3-6-35"
       style="stroke-width:0.0130452;fill-opacity:1;fill:currentColor;"
       sodipodi:nodetypes="sscss"
       class="ColorScheme-Text" />
  </g>
</svg>
