<?xml version="1.0" encoding="UTF-8" standalone="no"?>
<svg
   width="22"
   height="22"
   version="1.1"
   id="svg3"
   sodipodi:docname="disk-quota-critical.svg"
   inkscape:version="1.3.2 (091e20ef0f, 2023-11-25)"
   xmlns:inkscape="http://www.inkscape.org/namespaces/inkscape"
   xmlns:sodipodi="http://sodipodi.sourceforge.net/DTD/sodipodi-0.dtd"
   xmlns="http://www.w3.org/2000/svg"
   xmlns:svg="http://www.w3.org/2000/svg">
  <defs
     id="defs3" />
  <sodipodi:namedview
     id="namedview3"
     pagecolor="#ffffff"
     bordercolor="#999999"
     borderopacity="1"
     inkscape:showpageshadow="2"
     inkscape:pageopacity="0"
     inkscape:pagecheckerboard="0"
     inkscape:deskcolor="#d1d1d1"
     inkscape:zoom="11.90625"
     inkscape:cx="10.666667"
     inkscape:cy="10.582677"
     inkscape:window-width="1920"
     inkscape:window-height="994"
     inkscape:window-x="0"
     inkscape:window-y="0"
     inkscape:window-maximized="1"
     inkscape:current-layer="svg3" />
  <style
     type="text/css"
     id="current-color-scheme">.ColorScheme-Text{color:#232629;}.ColorScheme-NeutralText{color:#f67400;}.ColorScheme-NegativeText { color: #da4453; } </style>
  <g
     id="22-22-disk-quota-critical">
    <rect
       style="opacity:0.00100002"
       width="22"
       height="22"
       x="0"
       y="0"
       id="rect27" />
    <path
       d="M 4.23077,3 V 3 C 3.61539,3 3,3.615384 3,4.230769 v 13.538458 0 C 3,18.384613 3.61539,19 4.23077,19 H 17.76923 C 18.38461,19 19,18.384613 19,17.769227 v 0 V 4.230769 C 19,3.615384 18.38461,3 17.76923,3 V 3 Z M 4,12 h 14 v 6 H 4 Z m 5,2 c -1,0 -1,2 0,2 h 7 c 1,0 1,-2 0,-2 z M 4,4 h 14 v 6 H 4 Z M 9,6 C 8,6 8,8 9,8 h 7 c 1,0 1,-2 0,-2 z"
       id="path322-9-27"
       style="fill:#d3dae3;fill-opacity:1;stroke-width:0.0487712"
       sodipodi:nodetypes="ccsccccccsccccccccccccccccccccccc" />
    <path
       d="M 7,7.000533 C 6.999,8.187317 5.56278,8.779466 4.72487,7.939224 3.88695,7.098981 4.48305,5.665029 5.66983,5.666668 6.40527,5.668168 7.00051,6.265085 7,7.000533 Z"
       id="path1086-62-7-36-0"
       style="color:#e5e9ef;fill:#da4453;fill-opacity:1;stroke-width:0.92116"
       sodipodi:nodetypes="csccccc"
       class="ColorScheme-Text" />
    <path
       d="M 7,15.000534 C 6.998,16.187317 5.56278,16.779466 4.72487,15.939225 3.88695,15.098981 4.48305,13.665033 5.66983,13.666668 6.40527,13.668468 7.00051,14.265088 7,15.000534 Z"
       id="path1086-62-7-0-06-93"
       style="color:#e5e9ef;fill:#da4453;fill-opacity:1;stroke-width:0.92116"
       sodipodi:nodetypes="csccccc"
       class="ColorScheme-Text" />
  </g>
</svg>
