<?xml version="1.0" encoding="UTF-8" standalone="no"?>
<svg
   width="22"
   height="22"
   version="1.1"
   id="svg2"
   sodipodi:docname="disk-quota.svg"
   inkscape:version="1.3.2 (091e20ef0f, 2023-11-25)"
   xmlns:inkscape="http://www.inkscape.org/namespaces/inkscape"
   xmlns:sodipodi="http://sodipodi.sourceforge.net/DTD/sodipodi-0.dtd"
   xmlns="http://www.w3.org/2000/svg"
   xmlns:svg="http://www.w3.org/2000/svg">
  <defs
     id="defs2" />
  <sodipodi:namedview
     id="namedview2"
     pagecolor="#ffffff"
     bordercolor="#999999"
     borderopacity="1"
     inkscape:showpageshadow="2"
     inkscape:pageopacity="0"
     inkscape:pagecheckerboard="0"
     inkscape:deskcolor="#d1d1d1"
     inkscape:zoom="11.90625"
     inkscape:cx="10.582677"
     inkscape:cy="-2.0997375"
     inkscape:window-width="1920"
     inkscape:window-height="994"
     inkscape:window-x="0"
     inkscape:window-y="0"
     inkscape:window-maximized="1"
     inkscape:current-layer="svg2" />
  <style
     type="text/css"
     id="current-color-scheme">.ColorScheme-Text{color:#232629;}.ColorScheme-NeutralText{color:#f67400;}.ColorScheme-NegativeText { color: #da4453; } </style>
  <g
     id="22-22-disk-quota">
    <rect
       style="opacity:0.00100002;fill:#bac8df;fill-opacity:1"
       width="22"
       height="22"
       x="0"
       y="0"
       id="rect4" />
    <path
       d="m 4.2307685,3 v 0 c -0.61538,0 -1.23077,0.615384 -1.23077,1.230769 v 13.538458 0 c 0,0.615386 0.61539,1.230773 1.23077,1.230773 H 17.769225 c 0.615387,0 1.230773,-0.615387 1.230773,-1.230773 v 0 V 4.230769 C 18.999998,3.615384 18.384612,3 17.769225,3 V 3 Z M 4,12 h 14 v 6 H 4 Z m 5,2 c -1,0 -1,2 0,2 h 7 c 1,0 1,-2 0,-2 z M 4,4 h 14 v 6 H 4 Z M 9,6 C 8,6 8,8 9,8 h 7 c 1,0 1,-2 0,-2 z"
       id="path322-9"
       style="fill:#d3dae3;fill-opacity:1;stroke-width:0.0487712"
       sodipodi:nodetypes="ccsccccccsccccccccccccccccccccccc" />
    <path
       d="m 6.9999985,7.000533 c -0.001,1.186784 -1.43722,1.778933 -2.27513,0.938691 -0.83792,-0.840243 -0.24182,-2.274195 0.94496,-2.272556 0.73544,0.0015 1.33068,0.598417 1.33017,1.333865 z"
       id="path1086-62-7-36"
       style="color:#e5e9ef;fill:#d3dae3;fill-opacity:1;stroke-width:0.92116"
       sodipodi:nodetypes="csccccc"
       class="ColorScheme-Text" />
    <path
       d="m 6.9999985,15.000534 c -0.002,1.186783 -1.43722,1.778932 -2.27513,0.938691 -0.83792,-0.840244 -0.24182,-2.274192 0.94496,-2.272557 0.73544,0.0018 1.33068,0.59842 1.33017,1.333866 z"
       id="path1086-62-7-0-06"
       style="color:#e5e9ef;fill:#d3dae3;fill-opacity:1;stroke-width:0.92116"
       sodipodi:nodetypes="csccccc"
       class="ColorScheme-Text" />
  </g>
</svg>
