<?xml version="1.0" encoding="UTF-8"?>
<svg height="128px" viewBox="0 0 128 128" width="128px" xmlns="http://www.w3.org/2000/svg" xmlns:xlink="http://www.w3.org/1999/xlink">
    <linearGradient id="a" gradientUnits="userSpaceOnUse" x1="9.197266" x2="119.482384" y1="112.655273" y2="112.655273">
        <stop offset="0" stop-color="#5e5c64"/>
        <stop offset="0.0378502" stop-color="#77767b"/>
        <stop offset="0.0732786" stop-color="#3d3846"/>
        <stop offset="0.92921" stop-color="#241f31"/>
        <stop offset="0.97104" stop-color="#5e5c64"/>
        <stop offset="1" stop-color="#5e5c64"/>
    </linearGradient>
    <linearGradient id="b" gradientUnits="userSpaceOnUse" x1="70.51045090805" x2="120.43254953971" y1="113.86664367826" y2="113.86664367826">
        <stop offset="0" stop-color="#5e5c64"/>
        <stop offset="0.0378502" stop-color="#77767b"/>
        <stop offset="0.0732786" stop-color="#3d3846"/>
        <stop offset="0.791488" stop-color="#241f31"/>
        <stop offset="0.916595" stop-color="#5e5c64"/>
        <stop offset="1" stop-color="#5e5c64"/>
    </linearGradient>
    <path d="m 16.9375 34 h 94.125 c 4.9375 0 8.9375 4 8.9375 8.9375 v 64.125 c 0 4.9375 -4 8.9375 -8.9375 8.9375 h -94.125 c -4.9375 0 -8.9375 -4 -8.9375 -8.9375 v -64.125 c 0 -4.9375 4 -8.9375 8.9375 -8.9375 z m 0 0" fill="url(#a)"/>
    <path d="m 16.34375 28 h 95.3125 c 4.609375 0 8.34375 3.734375 8.34375 8.34375 v 67.3125 c 0 4.609375 -3.734375 8.34375 -8.34375 8.34375 h -95.3125 c -4.609375 0 -8.34375 -3.734375 -8.34375 -8.34375 v -67.3125 c 0 -4.609375 3.734375 -8.34375 8.34375 -8.34375 z m 0 0" fill="#5e5c64"/>
    <path d="m 107 96 h 6 c 1.660156 0 3 1.339844 3 3 v 6 c 0 1.660156 -1.339844 3 -3 3 h -6 c -1.660156 0 -3 -1.339844 -3 -3 v -6 c 0 -1.660156 1.339844 -3 3 -3 z m -42 0 h 34 c 1.660156 0 3 1.339844 3 3 v 6 c 0 1.660156 -1.339844 3 -3 3 h -34 c -1.664062 0 -3 -1.339844 -3 -3 v -6 c 0 -1.660156 1.335938 -3 3 -3 z m -14 0 h 6 c 1.660156 0 3 1.339844 3 3 v 6 c 0 1.660156 -1.339844 3 -3 3 h -6 c -1.660156 0 -3 -1.339844 -3 -3 v -6 c 0 -1.660156 1.339844 -3 3 -3 z m -14 0 h 6 c 1.660156 0 3 1.339844 3 3 v 6 c 0 1.660156 -1.339844 3 -3 3 h -6 c -1.660156 0 -3 -1.339844 -3 -3 v -6 c 0 -1.660156 1.339844 -3 3 -3 z m -22 0 h 14 c 1.664062 0 3 1.339844 3 3 v 6 c 0 1.660156 -1.335938 3 -3 3 h -14 c -1.664062 0 -3 -1.339844 -3 -3 v -6 c 0 -1.660156 1.335938 -3 3 -3 z m 97.960938 -22.921875 h 0.039062 c 1.660156 0 3 1.339844 3 3 v 15.84375 c 0 1.660156 -1.339844 3 -3 3 h -0.039062 c -1.664063 0 -3 -1.339844 -3 -3 v -15.84375 c 0 -1.660156 1.335937 -3 3 -3 z m -5.960938 -5.078125 h 6 c 1.660156 0 3 1.339844 3 3 v 6 c 0 1.660156 -1.339844 3 -3 3 h -6 c -1.660156 0 -3 -1.339844 -3 -3 v -6 c 0 -1.660156 1.339844 -3 3 -3 z m -8 14 h 6 c 1.660156 0 3 1.339844 3 3 v 6 c 0 1.660156 -1.339844 3 -3 3 h -6 c -1.660156 0 -3 -1.339844 -3 -3 v -6 c 0 -1.660156 1.339844 -3 3 -3 z m -14 0 h 6 c 1.660156 0 3 1.339844 3 3 v 6 c 0 1.660156 -1.339844 3 -3 3 h -6 c -1.660156 0 -3 -1.339844 -3 -3 v -6 c 0 -1.660156 1.339844 -3 3 -3 z m -70 0 h 6 c 1.660156 0 3 1.339844 3 3 v 6 c 0 1.660156 -1.339844 3 -3 3 h -6 c -1.660156 0 -3 -1.339844 -3 -3 v -6 c 0 -1.660156 1.339844 -3 3 -3 z m 56 0 h 6 c 1.660156 0 3 1.339844 3 3 v 6 c 0 1.660156 -1.339844 3 -3 3 h -6 c -1.660156 0 -3 -1.339844 -3 -3 v -6 c 0 -1.660156 1.339844 -3 3 -3 z m -14 0 h 6 c 1.660156 0 3 1.339844 3 3 v 6 c 0 1.660156 -1.339844 3 -3 3 h -6 c -1.660156 0 -3 -1.339844 -3 -3 v -6 c 0 -1.660156 1.339844 -3 3 -3 z m -14 0 h 6 c 1.660156 0 3 1.339844 3 3 v 6 c 0 1.660156 -1.339844 3 -3 3 h -6 c -1.660156 0 -3 -1.339844 -3 -3 v -6 c 0 -1.660156 1.339844 -3 3 -3 z m -14 0 h 6 c 1.660156 0 3 1.339844 3 3 v 6 c 0 1.660156 -1.339844 3 -3 3 h -6 c -1.660156 0 -3 -1.339844 -3 -3 v -6 c 0 -1.660156 1.339844 -3 3 -3 z m 64 -14 h 6 c 1.660156 0 3 1.339844 3 3 v 6 c 0 1.660156 -1.339844 3 -3 3 h -6 c -1.660156 0 -3 -1.339844 -3 -3 v -6 c 0 -1.660156 1.339844 -3 3 -3 z m -14 0 h 6 c 1.660156 0 3 1.339844 3 3 v 6 c 0 1.660156 -1.339844 3 -3 3 h -6 c -1.660156 0 -3 -1.339844 -3 -3 v -6 c 0 -1.660156 1.339844 -3 3 -3 z m -14 0 h 6 c 1.660156 0 3 1.339844 3 3 v 6 c 0 1.660156 -1.339844 3 -3 3 h -6 c -1.660156 0 -3 -1.339844 -3 -3 v -6 c 0 -1.660156 1.339844 -3 3 -3 z m -14 0 h 6 c 1.660156 0 3 1.339844 3 3 v 6 c 0 1.660156 -1.339844 3 -3 3 h -6 c -1.660156 0 -3 -1.339844 -3 -3 v -6 c 0 -1.660156 1.339844 -3 3 -3 z m -14 0 h 6 c 1.660156 0 3 1.339844 3 3 v 6 c 0 1.660156 -1.339844 3 -3 3 h -6 c -1.660156 0 -3 -1.339844 -3 -3 v -6 c 0 -1.660156 1.339844 -3 3 -3 z m -22 0 h 14 c 1.664062 0 3 1.339844 3 3 v 6 c 0 1.660156 -1.335938 3 -3 3 h -14 c -1.664062 0 -3 -1.339844 -3 -3 v -6 c 0 -1.660156 1.335938 -3 3 -3 z m 84 -14.058594 h 14 c 1.664062 0 3 1.339844 3 3 v 6 c 0 1.660156 -1.335938 3 -3 3 h -14 c -1.660156 0 -3 -1.339844 -3 -3 v -6 c 0 -1.660156 1.339844 -3 3 -3 z m -14 0 h 6 c 1.660156 0 3 1.339844 3 3 v 6 c 0 1.660156 -1.339844 3 -3 3 h -6 c -1.660156 0 -3 -1.339844 -3 -3 v -6 c 0 -1.660156 1.339844 -3 3 -3 z m -70 0 h 6 c 1.660156 0 3 1.339844 3 3 v 6 c 0 1.660156 -1.339844 3 -3 3 h -6 c -1.660156 0 -3 -1.339844 -3 -3 v -6 c 0 -1.660156 1.339844 -3 3 -3 z m 56 0 h 6 c 1.660156 0 3 1.339844 3 3 v 6 c 0 1.660156 -1.339844 3 -3 3 h -6 c -1.660156 0 -3 -1.339844 -3 -3 v -6 c 0 -1.660156 1.339844 -3 3 -3 z m -14 0 h 6 c 1.660156 0 3 1.339844 3 3 v 6 c 0 1.660156 -1.339844 3 -3 3 h -6 c -1.660156 0 -3 -1.339844 -3 -3 v -6 c 0 -1.660156 1.339844 -3 3 -3 z m -14 0 h 6 c 1.660156 0 3 1.339844 3 3 v 6 c 0 1.660156 -1.339844 3 -3 3 h -6 c -1.660156 0 -3 -1.339844 -3 -3 v -6 c 0 -1.660156 1.339844 -3 3 -3 z m -14 0 h 6 c 1.660156 0 3 1.339844 3 3 v 6 c 0 1.660156 -1.339844 3 -3 3 h -6 c -1.660156 0 -3 -1.339844 -3 -3 v -6 c 0 -1.660156 1.339844 -3 3 -3 z m 78 -9.941406 h 6 c 1.660156 0 3 1.339844 3 3 s -1.339844 3 -3 3 h -6 c -1.660156 0 -3 -1.339844 -3 -3 s 1.339844 -3 3 -3 z m -14 0 h 6 c 1.660156 0 3 1.339844 3 3 s -1.339844 3 -3 3 h -6 c -1.660156 0 -3 -1.339844 -3 -3 s 1.339844 -3 3 -3 z m -22 0 h 6 c 1.660156 0 3 1.339844 3 3 s -1.339844 3 -3 3 h -6 c -1.660156 0 -3 -1.339844 -3 -3 s 1.339844 -3 3 -3 z m -14 0 h 6 c 1.660156 0 3 1.339844 3 3 s -1.339844 3 -3 3 h -6 c -1.660156 0 -3 -1.339844 -3 -3 s 1.339844 -3 3 -3 z m -14 0 h 6 c 1.660156 0 3 1.339844 3 3 s -1.339844 3 -3 3 h -6 c -1.660156 0 -3 -1.339844 -3 -3 s 1.339844 -3 3 -3 z m -14 0 h 6 c 1.660156 0 3 1.339844 3 3 s -1.339844 3 -3 3 h -6 c -1.660156 0 -3 -1.339844 -3 -3 s 1.339844 -3 3 -3 z m -13.878906 0 h 5.757812 c 1.730469 0 3.121094 1.339844 3.121094 3 s -1.390625 3 -3.121094 3 h -5.757812 c -1.730469 0 -3.121094 -1.339844 -3.121094 -3 s 1.390625 -3 3.121094 -3 z m 0 0" fill="#241f31"/>
    <path d="m 107 96 h 6 c 1.660156 0 3 1.339844 3 3 v 5 c 0 1.660156 -1.339844 3 -3 3 h -6 c -1.660156 0 -3 -1.339844 -3 -3 v -5 c 0 -1.660156 1.339844 -3 3 -3 z m -42 0 h 34 c 1.660156 0 3 1.339844 3 3 v 5 c 0 1.660156 -1.339844 3 -3 3 h -34 c -1.664062 0 -3 -1.339844 -3 -3 v -5 c 0 -1.660156 1.335938 -3 3 -3 z m -14 0 h 6 c 1.660156 0 3 1.339844 3 3 v 5 c 0 1.660156 -1.339844 3 -3 3 h -6 c -1.660156 0 -3 -1.339844 -3 -3 v -5 c 0 -1.660156 1.339844 -3 3 -3 z m -14 0 h 6 c 1.660156 0 3 1.339844 3 3 v 5 c 0 1.660156 -1.339844 3 -3 3 h -6 c -1.660156 0 -3 -1.339844 -3 -3 v -5 c 0 -1.660156 1.339844 -3 3 -3 z m -22 0 h 14 c 1.660156 0 3 1.339844 3 3 v 5 c 0 1.660156 -1.339844 3 -3 3 h -14 c -1.664062 0 -3 -1.339844 -3 -3 v -5 c 0 -1.660156 1.335938 -3 3 -3 z m 97.960938 -23.84375 h 0.039062 c 1.660156 0 3 1.339844 3 3 v 15.84375 c 0 1.660156 -1.339844 3 -3 3 h -0.039062 c -1.664063 0 -3 -1.339844 -3 -3 v -15.84375 c 0 -1.660156 1.335937 -3 3 -3 z m -5.960938 -4.15625 h 6 c 1.660156 0 3 1.339844 3 3 v 5 c 0 1.660156 -1.339844 3 -3 3 h -6 c -1.660156 0 -3 -1.339844 -3 -3 v -5 c 0 -1.660156 1.339844 -3 3 -3 z m -8 14 h 6 c 1.660156 0 3 1.339844 3 3 v 5 c 0 1.660156 -1.339844 3 -3 3 h -6 c -1.660156 0 -3 -1.339844 -3 -3 v -5 c 0 -1.660156 1.339844 -3 3 -3 z m -14 0 h 6 c 1.660156 0 3 1.339844 3 3 v 5 c 0 1.660156 -1.339844 3 -3 3 h -6 c -1.660156 0 -3 -1.339844 -3 -3 v -5 c 0 -1.660156 1.339844 -3 3 -3 z m -70 0 h 6 c 1.660156 0 3 1.339844 3 3 v 5 c 0 1.660156 -1.339844 3 -3 3 h -6 c -1.660156 0 -3 -1.339844 -3 -3 v -5 c 0 -1.660156 1.339844 -3 3 -3 z m 56 0 h 6 c 1.660156 0 3 1.339844 3 3 v 5 c 0 1.660156 -1.339844 3 -3 3 h -6 c -1.660156 0 -3 -1.339844 -3 -3 v -5 c 0 -1.660156 1.339844 -3 3 -3 z m -14 0 h 6 c 1.660156 0 3 1.339844 3 3 v 5 c 0 1.660156 -1.339844 3 -3 3 h -6 c -1.660156 0 -3 -1.339844 -3 -3 v -5 c 0 -1.660156 1.339844 -3 3 -3 z m -14 0 h 6 c 1.660156 0 3 1.339844 3 3 v 5 c 0 1.660156 -1.339844 3 -3 3 h -6 c -1.660156 0 -3 -1.339844 -3 -3 v -5 c 0 -1.660156 1.339844 -3 3 -3 z m -14 0 h 6 c 1.660156 0 3 1.339844 3 3 v 5 c 0 1.660156 -1.339844 3 -3 3 h -6 c -1.660156 0 -3 -1.339844 -3 -3 v -5 c 0 -1.660156 1.339844 -3 3 -3 z m 64 -14 h 6 c 1.660156 0 3 1.339844 3 3 v 5 c 0 1.660156 -1.339844 3 -3 3 h -6 c -1.660156 0 -3 -1.339844 -3 -3 v -5 c 0 -1.660156 1.339844 -3 3 -3 z m -14 0 h 6 c 1.660156 0 3 1.339844 3 3 v 5 c 0 1.660156 -1.339844 3 -3 3 h -6 c -1.660156 0 -3 -1.339844 -3 -3 v -5 c 0 -1.660156 1.339844 -3 3 -3 z m -14 0 h 6 c 1.660156 0 3 1.339844 3 3 v 5 c 0 1.660156 -1.339844 3 -3 3 h -6 c -1.660156 0 -3 -1.339844 -3 -3 v -5 c 0 -1.660156 1.339844 -3 3 -3 z m -14 0 h 6 c 1.660156 0 3 1.339844 3 3 v 5 c 0 1.660156 -1.339844 3 -3 3 h -6 c -1.660156 0 -3 -1.339844 -3 -3 v -5 c 0 -1.660156 1.339844 -3 3 -3 z m -14 0 h 6 c 1.660156 0 3 1.339844 3 3 v 5 c 0 1.660156 -1.339844 3 -3 3 h -6 c -1.660156 0 -3 -1.339844 -3 -3 v -5 c 0 -1.660156 1.339844 -3 3 -3 z m -22 0 h 14 c 1.660156 0 3 1.339844 3 3 v 5 c 0 1.660156 -1.339844 3 -3 3 h -14 c -1.664062 0 -3 -1.339844 -3 -3 v -5 c 0 -1.660156 1.335938 -3 3 -3 z m 84 -14.058594 h 14 c 1.660156 0 3 1.339844 3 3 v 5 c 0 1.660156 -1.339844 3 -3 3 h -14 c -1.660156 0 -3 -1.339844 -3 -3 v -5 c 0 -1.660156 1.339844 -3 3 -3 z m -14 0 h 6 c 1.660156 0 3 1.339844 3 3 v 5 c 0 1.660156 -1.339844 3 -3 3 h -6 c -1.660156 0 -3 -1.339844 -3 -3 v -5 c 0 -1.660156 1.339844 -3 3 -3 z m -70 0 h 6 c 1.660156 0 3 1.339844 3 3 v 5 c 0 1.660156 -1.339844 3 -3 3 h -6 c -1.660156 0 -3 -1.339844 -3 -3 v -5 c 0 -1.660156 1.339844 -3 3 -3 z m 56 0 h 6 c 1.660156 0 3 1.339844 3 3 v 5 c 0 1.660156 -1.339844 3 -3 3 h -6 c -1.660156 0 -3 -1.339844 -3 -3 v -5 c 0 -1.660156 1.339844 -3 3 -3 z m -14 0 h 6 c 1.660156 0 3 1.339844 3 3 v 5 c 0 1.660156 -1.339844 3 -3 3 h -6 c -1.660156 0 -3 -1.339844 -3 -3 v -5 c 0 -1.660156 1.339844 -3 3 -3 z m -14 0 h 6 c 1.660156 0 3 1.339844 3 3 v 5 c 0 1.660156 -1.339844 3 -3 3 h -6 c -1.660156 0 -3 -1.339844 -3 -3 v -5 c 0 -1.660156 1.339844 -3 3 -3 z m -14 0 h 6 c 1.660156 0 3 1.339844 3 3 v 5 c 0 1.660156 -1.339844 3 -3 3 h -6 c -1.660156 0 -3 -1.339844 -3 -3 v -5 c 0 -1.660156 1.339844 -3 3 -3 z m 78 -9.941406 h 6 c 1.660156 0 3 1.113281 3 2.5 s -1.339844 2.5 -3 2.5 h -6 c -1.660156 0 -3 -1.113281 -3 -2.5 s 1.339844 -2.5 3 -2.5 z m -14 0 h 6 c 1.660156 0 3 1.113281 3 2.5 s -1.339844 2.5 -3 2.5 h -6 c -1.660156 0 -3 -1.113281 -3 -2.5 s 1.339844 -2.5 3 -2.5 z m -22 0 h 6 c 1.660156 0 3 1.113281 3 2.5 s -1.339844 2.5 -3 2.5 h -6 c -1.660156 0 -3 -1.113281 -3 -2.5 s 1.339844 -2.5 3 -2.5 z m -14 0 h 6 c 1.660156 0 3 1.113281 3 2.5 s -1.339844 2.5 -3 2.5 h -6 c -1.660156 0 -3 -1.113281 -3 -2.5 s 1.339844 -2.5 3 -2.5 z m -14 0 h 6 c 1.660156 0 3 1.113281 3 2.5 s -1.339844 2.5 -3 2.5 h -6 c -1.660156 0 -3 -1.113281 -3 -2.5 s 1.339844 -2.5 3 -2.5 z m -14 0 h 6 c 1.660156 0 3 1.113281 3 2.5 s -1.339844 2.5 -3 2.5 h -6 c -1.660156 0 -3 -1.113281 -3 -2.5 s 1.339844 -2.5 3 -2.5 z m -14 0 h 6 c 1.660156 0 3 1.113281 3 2.5 s -1.339844 2.5 -3 2.5 h -6 c -1.660156 0 -3 -1.113281 -3 -2.5 s 1.339844 -2.5 3 -2.5 z m 0 0" fill="#3d3846"/>
    <path d="m 101.960938 31.917969 c 1.125 0 2.039062 0.914062 2.039062 2.042969 c 0 1.125 -0.914062 2.039062 -2.039062 2.039062 c -1.128907 0 -2.042969 -0.914062 -2.042969 -2.039062 c 0 -1.128907 0.914062 -2.042969 2.042969 -2.042969 z m 0 0" fill="#f9f06b"/>
    <path d="m 110 32 c 1.105469 0 2 0.894531 2 2 s -0.894531 2 -2 2 s -2 -0.894531 -2 -2 s 0.894531 -2 2 -2 z m 0 0" fill="#f9f06b"/>
    <path d="m 77.550781 68.582031 h 35.097657 c 4.058593 0 7.351562 2.898438 7.351562 6.472657 v 30.472656 c 0 3.574218 -3.292969 6.472656 -7.351562 6.472656 h -35.097657 c -4.0625 0 -7.351562 -2.898438 -7.351562 -6.472656 v -30.472656 c 0 -3.574219 3.289062 -6.472657 7.351562 -6.472657 z m 0 0" fill="url(#b)" fill-rule="evenodd"/>
    <g stroke="#deddda">
        <path d="m 96.964844 77.023438 v -30.003907 c 0 -4.417969 -3.578125 -8.003906 -8 -8.007812 l -19.976563 -0.011719 c -2.121093 0 -4.152343 0.839844 -5.652343 2.339844 s -2.339844 3.535156 -2.335938 5.652344 l 0.011719 12" fill="none" stroke-dasharray="2 2" stroke-width="2"/>
        <path d="m 78.191406 65.261719 h 33.796875 c 3.910157 0 7.078125 2.785156 7.078125 6.21875 v 29.285156 c 0 3.433594 -3.167968 6.21875 -7.078125 6.21875 h -33.796875 c -3.910156 0 -7.082031 -2.785156 -7.082031 -6.21875 v -29.285156 c 0 -3.433594 3.171875 -6.21875 7.082031 -6.21875 z m 0 0" fill="#3d3846" fill-rule="evenodd" stroke-linecap="round" stroke-linejoin="round" stroke-width="2.03227"/>
        <path d="m 56.796875 53.347656 h 6.40625 c 1.320313 0 2.386719 1.066406 2.386719 2.386719 v 5.378906 c 0 1.320313 -1.066406 2.386719 -2.386719 2.386719 h -6.40625 c -1.320313 0 -2.386719 -1.066406 -2.386719 -2.386719 v -5.378906 c 0 -1.320313 1.066406 -2.386719 2.386719 -2.386719 z m 0 0" fill="#3d3846" fill-rule="evenodd" stroke-linecap="round" stroke-linejoin="round"/>
    </g>
    <path d="m 95.003906 98 c 5.007813 0 8.117188 -2.917969 8.269532 -7.332031 h -5.300782 c -0.210937 1.894531 -1.347656 2.929687 -2.902344 2.929687 c -1.992187 0 -3.292968 -1.6875 -3.292968 -4.859375 c 0 -3.148437 1.3125 -4.832031 3.292968 -4.832031 c 1.625 0 2.679688 1.101562 2.902344 2.925781 h 5.300782 c -0.128907 -4.390625 -3.328126 -7.25 -8.28125 -7.25 c -5.605469 0 -8.992188 3.742188 -8.992188 9.214844 c 0 5.449219 3.363281 9.203125 9.003906 9.203125 z m -2.289062 -25.679688 h -4.753906 v 0.152344 l 5.023437 5.203125 h 4.070313 l 5.011718 -5.203125 v -0.152344 h -4.742187 l -2.308594 2.695313 z m 0 0" fill="#ffffff"/>
</svg>
