<?xml version="1.0" encoding="UTF-8" standalone="no"?>
<svg
   width="48"
   height="48"
   viewBox="0 0 12.699752 12.699752"
   version="1.1"
   id="svg3"
   sodipodi:docname="datespell.svg"
   inkscape:version="1.3.2 (091e20ef0f, 2023-11-25)"
   xmlns:inkscape="http://www.inkscape.org/namespaces/inkscape"
   xmlns:sodipodi="http://sodipodi.sourceforge.net/DTD/sodipodi-0.dtd"
   xmlns="http://www.w3.org/2000/svg"
   xmlns:svg="http://www.w3.org/2000/svg">
  <defs
     id="defs3" />
  <sodipodi:namedview
     id="namedview3"
     pagecolor="#ffffff"
     bordercolor="#999999"
     borderopacity="1"
     inkscape:showpageshadow="2"
     inkscape:pageopacity="0"
     inkscape:pagecheckerboard="0"
     inkscape:deskcolor="#d1d1d1"
     inkscape:zoom="6.2265625"
     inkscape:cx="31.478043"
     inkscape:cy="37.66123"
     inkscape:window-width="1920"
     inkscape:window-height="994"
     inkscape:window-x="0"
     inkscape:window-y="0"
     inkscape:window-maximized="1"
     inkscape:current-layer="svg3" />
  <g
     id="g3"
     transform="matrix(0.77778981,0,0,0.77778981,-0.23528143,-0.23528143)">
    <path
       fill="#1dc99a"
       d="M 15.61,8.466 A 7.144,7.144 0 0 1 8.466,15.61 7.144,7.144 0 0 1 1.323,8.466 7.144,7.144 0 0 1 8.466,1.323 7.144,7.144 0 0 1 15.61,8.466 Z"
       id="path1" />
    <rect
       width="7.9369998"
       height="7.9369998"
       x="4.4980001"
       y="4.4980001"
       fill="#303030"
       rx="1.323"
       ry="1.323"
       style="paint-order:markers stroke fill"
       id="rect1" />
    <path
       fill="#f0f0f0"
       d="m 5.82,10.756 h 3.107 v 0.621 H 5.82 Z"
       id="path2" />
    <path
       fill="#ffffff"
       d="m 6.348,6.429 v 1.867 h 0.283 q 0.484,0 0.738,-0.24 Q 7.625,7.816 7.625,7.359 7.625,6.904 7.371,6.666 7.117,6.428 6.631,6.429 Z M 5.559,5.832 h 0.832 q 0.697,0 1.037,0.1 0.343,0.1 0.587,0.337 0.215,0.207 0.32,0.477 0.104,0.271 0.104,0.613 0,0.347 -0.105,0.62 Q 8.23,8.249 8.014,8.456 7.769,8.694 7.424,8.794 7.08,8.892 6.391,8.892 H 5.56 Z m 5.614,0.096 V 6.576 Q 10.921,6.463 10.681,6.406 10.441,6.349 10.228,6.349 9.945,6.349 9.81,6.427 9.675,6.505 9.675,6.668 q 0,0.123 0.09,0.193 0.092,0.068 0.332,0.117 l 0.336,0.068 q 0.51,0.102 0.726,0.311 0.216,0.209 0.215,0.595 0,0.506 -0.302,0.754 -0.299,0.246 -0.916,0.246 -0.29,0 -0.584,-0.056 Q 9.279,8.841 8.986,8.732 V 8.066 q 0.293,0.156 0.566,0.236 0.274,0.078 0.528,0.078 0.259,0 0.396,-0.086 0.137,-0.086 0.137,-0.246 0,-0.144 -0.094,-0.221 -0.092,-0.078 -0.37,-0.14 L 9.843,7.619 Q 9.383,7.521 9.17,7.306 8.96,7.091 8.96,6.726 8.96,6.269 9.254,6.023 9.55,5.777 10.103,5.777 q 0.252,0 0.519,0.039 0.266,0.037 0.55,0.112 z"
       aria-label="DS"
       id="path3" />
  </g>
</svg>
