<?xml version="1.0" encoding="UTF-8" standalone="no"?>
<svg
   width="48"
   height="48"
   version="1.1"
   id="svg4"
   sodipodi:docname="google-translate.svg"
   inkscape:version="1.3.2 (091e20ef0f, 2023-11-25)"
   xmlns:inkscape="http://www.inkscape.org/namespaces/inkscape"
   xmlns:sodipodi="http://sodipodi.sourceforge.net/DTD/sodipodi-0.dtd"
   xmlns="http://www.w3.org/2000/svg"
   xmlns:svg="http://www.w3.org/2000/svg">
  <defs
     id="defs4" />
  <sodipodi:namedview
     id="namedview4"
     pagecolor="#ffffff"
     bordercolor="#999999"
     borderopacity="1"
     inkscape:showpageshadow="2"
     inkscape:pageopacity="0"
     inkscape:pagecheckerboard="0"
     inkscape:deskcolor="#d1d1d1"
     inkscape:zoom="6.2265625"
     inkscape:cx="27.944793"
     inkscape:cy="42.158093"
     inkscape:window-width="1920"
     inkscape:window-height="994"
     inkscape:window-x="0"
     inkscape:window-y="0"
     inkscape:window-maximized="1"
     inkscape:current-layer="svg4" />
  <rect
     width="42"
     height="42"
     x="3"
     y="3.0000072"
     rx="21"
     ry="21"
     style="stroke-width:0.77778;paint-order:stroke fill markers;fill:#293752;fill-opacity:1"
     id="rect1" />
  <g
     stroke-width="1.5"
     id="g2"
     transform="matrix(0.7777776,0,0,0.7777776,-0.88888742,-0.888881)">
    <rect
       width="22.5"
       height="22.5"
       x="14"
       y="14"
       fill="#ffffff"
       ry="1.5"
       style="paint-order:normal"
       id="rect2" />
    <path
       fill="#535352"
       d="m 18.5,30.5 c -0.006,-0.035 0.12,-0.052 0.471,-0.205 1.377,-0.563 2.736,-1.366 4.337,-2.555 0.375,-0.282 0.685,-0.544 0.685,-0.597 0,-0.047 -0.094,-0.17 -0.211,-0.282 -0.405,-0.375 -1.436,-1.647 -1.857,-2.303 -0.416,-0.639 -1.067,-1.977 -1.067,-2.158 h 2.127 l 0.282,0.588 c 0.34,0.75 1.032,1.81 1.611,2.472 0.234,0.264 0.452,0.492 0.486,0.504 C 27.232,24.5 27.5,22.683 27.5,20.784 V 20 h -9 v -1.5 h 6 V 17 H 26 v 1.5 h 6 V 20 h -3 v 0.901 c 0,1.518 -0.279,3.932 -2.09,5.813 l -0.357,0.369 0.345,0.282 c 0.194,0.153 0.551,0.415 0.809,0.58 0.252,0.17 0.463,0.341 0.463,0.341 l -0.691,1.635 c -0.03,0 -0.464,-0.317 -0.972,-0.704 -0.51,-0.387 -1.24,-0.895 -1.24,-0.895 l -1.222,0.895 c -0.51,0.387 -1.336,0.956 -1.834,1.266 C 21.32,31.034 19.651,32 19.503,32"
       id="path2" />
  </g>
  <path
     fill="#367ff3"
     d="m 21.666665,20.500001 c -0.646339,0 -1.16667,0.520331 -1.16667,1.16667 v 9.333328 h -3.499997 v -3.5 h 1.166668 l -2.91667,-2.916665 -2.91666,2.916665 h 1.166662 v 3.5 l 3.5,3.499999 h 3.499997 v 2.333329 c 0,0.646338 0.520331,1.16667 1.16667,1.16667 h 15.166656 c 0.646338,0 1.16667,-0.520332 1.16667,-1.16667 V 21.666671 c 0,-0.646339 -0.520332,-1.16667 -1.16667,-1.16667 z"
     id="path3"
     style="stroke-width:0.77778" />
  <path
     fill="#f9f9f9"
     d="m 28.666663,24 c -1.21878,3.247229 -2.455447,6.54656 -3.500007,9.333335 h 1.166669 l 0.863338,-2.333336 h 4.106664 l 0.863333,2.333336 h 1.166669 L 29.833327,24 Z m 0.583329,1.458338 1.620114,4.374995 h -3.240223 z"
     style="stroke-width:0.77778;paint-order:normal"
     id="path4" />
</svg>
