<?xml version="1.0" encoding="UTF-8" standalone="no"?>
<svg
   width="48"
   height="48"
   version="1.1"
   id="svg4"
   sodipodi:docname="hexchat.svg"
   inkscape:version="1.3.2 (091e20ef0f, 2023-11-25)"
   xmlns:inkscape="http://www.inkscape.org/namespaces/inkscape"
   xmlns:sodipodi="http://sodipodi.sourceforge.net/DTD/sodipodi-0.dtd"
   xmlns:xlink="http://www.w3.org/1999/xlink"
   xmlns="http://www.w3.org/2000/svg"
   xmlns:svg="http://www.w3.org/2000/svg">
  <defs
     id="defs4">
    <linearGradient
       id="linearGradient4"
       inkscape:collect="always">
      <stop
         style="stop-color:#ffe082;stop-opacity:1;"
         offset="0"
         id="stop4" />
      <stop
         style="stop-color:#ffcc00;stop-opacity:1"
         offset="1"
         id="stop5" />
    </linearGradient>
    <linearGradient
       inkscape:collect="always"
       xlink:href="#linearGradient4"
       id="linearGradient5"
       x1="10.951001"
       y1="34.643448"
       x2="33.494953"
       y2="12.1345"
       gradientUnits="userSpaceOnUse" />
  </defs>
  <sodipodi:namedview
     id="namedview4"
     pagecolor="#ffffff"
     bordercolor="#999999"
     borderopacity="1"
     inkscape:showpageshadow="2"
     inkscape:pageopacity="0"
     inkscape:pagecheckerboard="0"
     inkscape:deskcolor="#d1d1d1"
     inkscape:zoom="4.2205436"
     inkscape:cx="50.467433"
     inkscape:cy="32.223337"
     inkscape:window-width="1920"
     inkscape:window-height="996"
     inkscape:window-x="0"
     inkscape:window-y="0"
     inkscape:window-maximized="1"
     inkscape:current-layer="svg4" />
  <rect
     width="42"
     height="42"
     x="3"
     y="3.0000007"
     fill="#475159"
     rx="21"
     ry="21"
     id="rect1"
     style="stroke-width:0.999969" />
  <path
     fill="#ffffff"
     d="m 40.5,23.999997 c 0,1.176494 -7.249191,13.969913 -8.249683,14.558813 -1.001123,0.588254 -15.500787,0.588254 -16.500006,0 C 14.751108,37.970561 7.5,25.177143 7.5,23.999997 c 0,-1.177141 7.251108,-13.969912 8.250311,-14.5588107 1.000494,-0.5882484 15.500807,-0.5882484 16.500006,0 C 33.249533,10.029441 40.5,22.822856 40.5,23.999997 Z"
     display="block"
     opacity="0.15"
     overflow="visible"
     style="isolation:auto;mix-blend-mode:normal;stroke-width:1.00002;paint-order:fill markers stroke;opacity:0.252"
     id="path1" />
  <path
     fill="#ffcd34"
     d="m 23.999999,11.918084 c -1.442156,0 -2.881108,0.0261 -4.030092,0.07834 a 26.942045,27.449401 0 0 0 -1.485056,0.105655 c -0.206116,0.02222 -0.38854,0.04755 -0.569049,0.08218 -0.179228,0.03458 -0.314946,0.0261 -0.675317,0.232823 -0.361025,0.205432 -0.422474,0.326742 -0.544102,0.464339 a 6.5924456,6.7165908 0 0 0 -0.355236,0.446076 24.295848,24.753374 0 0 0 -0.834077,1.218881 86.138987,87.761108 0 0 0 -2.085443,3.412106 85.735734,87.350261 0 0 0 -1.943377,3.492959 24.117257,24.571419 0 0 0 -0.651627,1.325191 c -0.08321,0.187163 -0.153623,0.355422 -0.21315,0.526946 -0.05956,0.172172 -0.136344,0.284993 -0.136344,0.697164 0,0.412164 0.0768,0.524986 0.136344,0.696499 0.05889,0.171513 0.12994,0.339124 0.21315,0.526949 a 24.240798,24.697289 0 0 0 0.650996,1.325181 c 0.52744,1.010854 1.223875,2.257777 1.944631,3.492314 a 98.659421,100.51732 0 0 0 1.35958,2.255831 l -1.878707,6.117248 4.712458,-2.660812 c 0.115215,0.03449 0.202274,0.04308 0.302132,0.06252 0.178598,0.03521 0.361651,0.06 0.567138,0.08219 0.412229,0.04432 0.910878,0.07757 1.485056,0.104343 1.148984,0.0542 2.587936,0.08024 4.030092,0.08024 1.442165,0 2.880481,-0.02611 4.028833,-0.07956 a 25.796885,26.282678 0 0 0 1.486318,-0.104338 c 0.204835,-0.02277 0.388546,-0.04837 0.568418,-0.08281 0.179865,-0.03455 0.316212,-0.0261 0.677236,-0.232824 0.360367,-0.205434 0.42182,-0.326737 0.54216,-0.463697 a 6.8164834,6.9448475 0 0 0 0.355906,-0.446722 24.266404,24.723375 0 0 0 0.834048,-1.21889 86.145357,87.767598 0 0 0 2.085475,-3.412098 85.742066,87.356713 0 0 0 1.943344,-3.49297 23.585334,24.029478 0 0 0 0.650354,-1.325179 6.4829886,6.6050725 0 0 0 0.214433,-0.526951 c 0.05956,-0.171512 0.136345,-0.284994 0.136345,-0.696499 0,-0.411517 -0.07691,-0.524988 -0.136345,-0.697161 a 6.4817074,6.6037673 0 0 0 -0.213792,-0.526975 24.035327,24.487947 0 0 0 -0.650336,-1.325187 85.742066,87.356713 0 0 0 -1.944003,-3.49231 86.15186,87.774223 0 0 0 -2.085475,-3.412105 24.300965,24.758588 0 0 0 -0.834048,-1.219537 6.5937267,6.7178961 0 0 0 -0.355906,-0.446079 c -0.12034,-0.136944 -0.181793,-0.258901 -0.543449,-0.464983 -0.360386,-0.206732 -0.496082,-0.19759 -0.675313,-0.232821 a 6.9457835,7.0765826 0 0 0 -0.569694,-0.08084 25.793706,26.279437 0 0 0 -1.485041,-0.104997 91.929423,93.660587 0 0 0 -4.029468,-0.08022 z m 0,2.7482 c 1.407603,0 2.817757,0.02663 3.898239,0.07695 0.155547,0.0074 0.239402,0.01952 0.380224,0.02808 l -4.30278,6.525504 -4.355928,-6.519645 c 0.172822,-0.01164 0.284215,-0.0242 0.482652,-0.03391 a 90.798999,92.508874 0 0 1 3.897593,-0.07638 z m 6.803041,2.399961 a 94.018708,95.789216 0 0 1 1.367914,2.267549 83.853795,85.432883 0 0 1 1.881905,3.376243 c 0.247717,0.476067 0.449352,0.886922 0.576091,1.173884 0.02434,0.05222 0.0301,0.07164 0.048,0.116076 -0.01725,0.04435 -0.02376,0.0634 -0.0475,0.117391 -0.128009,0.286949 -0.329006,0.697811 -0.57609,1.172571 a 83.860201,85.43941 0 0 1 -1.882538,3.376898 90.542956,92.248011 0 0 1 -1.555457,2.566244 l -4.60681,-6.895945 z m -13.656008,0.07832 4.814226,7.206358 -4.557536,6.912894 a 90.184404,91.882706 0 0 1 -1.574664,-2.596928 83.860201,85.43941 0 0 1 -1.882557,-3.376223 22.155973,22.573202 0 0 1 -0.576096,-1.173235 c -0.02375,-0.05345 -0.0301,-0.07246 -0.04797,-0.117392 0.01724,-0.0436 0.02437,-0.06255 0.04751,-0.116746 0.12802,-0.286937 0.329013,-0.697812 0.576089,-1.172571 0.496724,-0.950206 1.177802,-2.171692 1.882561,-3.376886 a 95.100563,96.891444 0 0 1 1.318611,-2.188652 z m 6.847215,10.246733 3.918715,5.864863 -0.01537,0.003 c -1.080497,0.05021 -2.490649,0.07641 -3.898243,0.07641 -1.397988,0 -2.796626,-0.0261 -3.873912,-0.075 z"
     display="block"
     font-weight="400"
     overflow="visible"
     style="font-variant-ligatures:normal;font-variant-position:normal;font-variant-caps:normal;font-variant-numeric:normal;font-variant-alternates:normal;font-feature-settings:normal;text-indent:0;text-decoration-line:none;text-decoration-style:solid;text-decoration-color:#000000;text-transform:none;text-orientation:mixed;white-space:normal;shape-padding:0;isolation:auto;mix-blend-mode:normal;stroke-width:1.00002;paint-order:fill markers stroke;fill:url(#linearGradient5)"
     id="path2" />
</svg>
