<?xml version="1.0" encoding="UTF-8" standalone="no"?>
<svg
   width="48"
   height="48"
   version="1.1"
   id="svg5"
   sodipodi:docname="Jellyamp.svg"
   inkscape:version="1.3.2 (091e20ef0f, 2023-11-25)"
   xmlns:inkscape="http://www.inkscape.org/namespaces/inkscape"
   xmlns:sodipodi="http://sodipodi.sourceforge.net/DTD/sodipodi-0.dtd"
   xmlns="http://www.w3.org/2000/svg"
   xmlns:svg="http://www.w3.org/2000/svg">
  <defs
     id="defs5" />
  <sodipodi:namedview
     id="namedview5"
     pagecolor="#ffffff"
     bordercolor="#999999"
     borderopacity="1"
     inkscape:showpageshadow="2"
     inkscape:pageopacity="0"
     inkscape:pagecheckerboard="0"
     inkscape:deskcolor="#d1d1d1"
     inkscape:zoom="5.953125"
     inkscape:cx="22.509186"
     inkscape:cy="37.627297"
     inkscape:window-width="1920"
     inkscape:window-height="994"
     inkscape:window-x="0"
     inkscape:window-y="0"
     inkscape:window-maximized="1"
     inkscape:current-layer="svg5" />
  <rect
     style="fill:#31405e;stroke-width:0.750001"
     width="42"
     height="42"
     x="2.9999154"
     y="2.9999051"
     rx="21"
     ry="21"
     id="rect2" />
  <path
     style="opacity:0.2;stroke-width:0.750001"
     d="m 23.981849,9.7500419 c -0.220285,0.0037 -0.441699,0.04527 -0.618136,0.123047 -0.875056,0.3855881 -2.142968,1.6358591 -3.685431,3.6385451 -0.608907,0.790575 -0.799293,1.055839 -1.549759,2.144467 -2.6257,3.808836 -5.809423,9.736914 -7.49097,13.953645 -1.1123098,2.789276 -1.6378318,4.753693 -1.6376418,6.122857 1.3e-4,0.813833 0.119579,1.142866 0.574198,1.570261 1.2987228,1.220923 5.4990848,2.105147 11.3668238,2.390544 1.524489,0.07397 4.484714,0.07557 6.005658,0.0037 7.032183,-0.335972 11.329676,-1.420715 11.943949,-3.014549 0.148177,-0.384452 0.144363,-1.522735 -0.0092,-2.311485 C 37.492205,27.212855 28.306622,11.45892 24.591135,9.8586379 c -0.170329,-0.07336 -0.389074,-0.111176 -0.609356,-0.10839 z m -4.918792,9.7555491 c 0.354776,0.02276 0.80813,0.109631 1.409142,0.266591 2.921691,0.763054 8.486,3.663695 11.715434,6.105274 0.749065,0.566309 1.975586,1.768455 2.138607,2.094653 0.211011,0.42225 0.225154,0.599421 0.06151,0.952114 -0.350664,0.755826 -1.505765,1.802146 -3.4159,3.099514 -3.667467,2.490969 -8.697856,4.902452 -11.24085,5.387516 -0.994982,0.189795 -1.553085,0.07453 -1.892519,-0.39256 -0.841922,-1.15854 -1.338817,-4.352144 -1.338817,-8.592499 0,-4.932831 0.656917,-8.251811 1.743101,-8.797554 0.208948,-0.105 0.465511,-0.145802 0.820283,-0.123049 z"
     id="path3" />
  <path
     style="fill:#a245e9;stroke-width:0.750001"
     d="m 23.982332,9.0000419 c -0.220293,0.0036 -0.441711,0.04523 -0.618167,0.123038 -0.875071,0.3856 -2.143026,1.6358611 -3.685538,3.6385641 -0.608919,0.790554 -0.799315,1.055829 -1.549805,2.14446 -2.625785,3.808823 -5.809613,9.736922 -7.491216,13.953652 -1.1123568,2.789281 -1.6378848,4.75368 -1.6376948,6.122842 1.3e-4,0.813839 0.119584,1.142875 0.574217,1.570266 1.2987598,1.220917 5.4992698,2.105148 11.3671828,2.39054 1.524547,0.07397 4.484862,0.07556 6.005859,0.0037 7.032405,-0.335971 11.330028,-1.420729 11.944334,-3.014552 0.148163,-0.384422 0.144354,-1.522697 -0.0093,-2.311445 C 37.493008,26.462803 28.307118,10.708862 24.591527,9.1085909 24.421199,9.0352319 24.202433,8.9974059 23.982151,9.0001949 Z M 19.06339,18.755574 c 0.354781,0.02277 0.808138,0.109638 1.40917,0.266601 2.921785,0.763066 8.486269,3.663692 11.715824,6.105268 0.749071,0.566318 1.975635,1.768465 2.138673,2.094659 0.211018,0.422251 0.225154,0.599428 0.06151,0.952121 -0.350688,0.755821 -1.505819,1.80214 -3.416011,3.09951 -3.667581,2.490959 -8.698132,4.90247 -11.241207,5.387526 -0.995015,0.189782 -1.553152,0.07451 -1.892581,-0.392564 -0.841963,-1.158542 -1.33887,-4.352142 -1.33887,-8.592496 0,-4.932829 0.656934,-8.251823 1.743167,-8.797567 0.20895,-0.105 0.465518,-0.145803 0.820309,-0.123058 z"
     id="path4" />
  <path
     style="opacity:0.2;fill:#ffffff;stroke-width:0.750001"
     d="m 23.982332,8.9999009 c -0.220293,0.0037 -0.441711,0.04523 -0.618167,0.12305 -0.875071,0.385591 -2.143027,1.6359811 -3.685539,3.6386721 -0.608918,0.790571 -0.799315,1.055906 -1.549805,2.144534 -2.625785,3.808817 -5.809612,9.73736 -7.491215,13.954091 -1.1123568,2.789283 -1.6378848,4.75388 -1.6376948,6.123034 1.8e-5,0.138462 0.0099,0.245631 0.01761,0.358899 0.08652,-1.34507 0.608106,-3.194241 1.6201188,-5.731939 1.681601,-4.216727 4.865433,-10.145268 7.491212,-13.954098 0.750496,-1.088626 0.940893,-1.353947 1.549803,-2.14453 1.54252,-2.002689 2.810472,-3.253062 3.685548,-3.6386621 0.176452,-0.07775 0.397872,-0.12027 0.618158,-0.123047 0.220285,-0.0037 0.439046,0.03505 0.609384,0.108388 3.715594,1.6002841 12.901544,17.3549281 14.291004,24.5127001 0.05547,0.285385 0.08342,0.612853 0.09964,0.9375 0.02998,-0.50811 0.0022,-1.166223 -0.09964,-1.687503 C 37.493257,26.463236 28.307313,10.708574 24.591712,9.1082979 24.421386,9.0349569 24.202618,8.9971199 23.982336,8.9999009 Z M 16.505765,28.076554 c -0.0011,0.119804 -0.0061,0.228301 -0.0061,0.350095 0,4.240357 0.49691,7.434242 1.338868,8.592772 0.339425,0.467048 0.897561,0.580899 1.892575,0.391116 2.543074,-0.485055 7.573624,-2.895272 11.241213,-5.386225 1.910191,-1.297377 3.065325,-2.343797 3.416008,-3.099612 0.138707,-0.298966 0.141581,-0.480809 0.0132,-0.783698 -0.0054,0.01208 -0.0074,0.02124 -0.0132,0.03372 -0.350683,0.755807 -1.505817,1.802237 -3.416008,3.099611 -3.667589,2.490947 -8.698139,4.901164 -11.241213,5.386223 -0.995014,0.189787 -1.55315,0.07599 -1.892575,-0.391109 -0.81449,-1.120891 -1.301809,-4.157161 -1.332905,-8.192875 z"
     id="path5" />
</svg>
