<?xml version="1.0" encoding="UTF-8" standalone="no"?>
<svg
   width="48"
   height="48"
   fill="none"
   version="1.1"
   id="svg5"
   sodipodi:docname="openai.svg"
   inkscape:version="1.3.2 (091e20ef0f, 2023-11-25)"
   xmlns:inkscape="http://www.inkscape.org/namespaces/inkscape"
   xmlns:sodipodi="http://sodipodi.sourceforge.net/DTD/sodipodi-0.dtd"
   xmlns="http://www.w3.org/2000/svg"
   xmlns:svg="http://www.w3.org/2000/svg">
  <sodipodi:namedview
     id="namedview5"
     pagecolor="#ffffff"
     bordercolor="#999999"
     borderopacity="1"
     inkscape:showpageshadow="2"
     inkscape:pageopacity="0"
     inkscape:pagecheckerboard="0"
     inkscape:deskcolor="#d1d1d1"
     showgrid="true"
     inkscape:zoom="8.4410872"
     inkscape:cx="29.49857"
     inkscape:cy="9.5959203"
     inkscape:window-width="1920"
     inkscape:window-height="996"
     inkscape:window-x="0"
     inkscape:window-y="0"
     inkscape:window-maximized="1"
     inkscape:current-layer="svg5">
    <inkscape:grid
       id="grid5"
       units="px"
       originx="0"
       originy="0"
       spacingx="1"
       spacingy="1"
       empcolor="#0099e5"
       empopacity="0.30196078"
       color="#0099e5"
       opacity="0.14901961"
       empspacing="5"
       dotted="false"
       gridanglex="30"
       gridanglez="30"
       visible="true" />
  </sodipodi:namedview>
  <rect
     width="41.99855"
     x="-44.999691"
     y="3.003937"
     rx="20.999275"
     height="41.99617"
     transform="scale(-1,1)"
     style="display:inline;fill:url(#a-6);stroke-width:2.93982;stroke-opacity:0.55"
     id="rect223"
     ry="20.998085" />
  <path
     style="display:inline;opacity:0.3;fill:#000000;fill-opacity:1;stroke-width:2.93982;stroke-opacity:0.55"
     d="M 3.0126,23.477116 C 3.0084,23.652143 3,23.826171 3,24.002198 c 0,11.633028 9.365695,20.998099 20.999214,20.998099 11.633532,0 20.99937,-9.365071 20.99937,-20.998099 0,-0.176027 -0.008,-0.349055 -0.0126,-0.525082 -0.277299,11.388289 -9.53376,20.473116 -20.986761,20.473116 -11.457195,0 -20.709452,-9.084827 -20.98661,-20.473116"
     id="path225" />
  <path
     d="M 3.0126,24.52318 C 3.0084,24.348153 3,24.175125 3,23.998098 3,12.36517 12.365695,3 23.999214,3 c 11.633532,0 20.99937,9.36517 20.99937,20.998098 0,0.176027 -0.008,0.350055 -0.0126,0.525082 C 44.708685,13.134891 35.452224,4.050065 23.999223,4.050065 c -11.457195,0 -20.709451,9.084826 -20.986609,20.473115"
     style="display:inline;opacity:0.3;fill:#ffffff;fill-opacity:1;stroke-width:2.93982;stroke-opacity:0.55"
     id="path229" />
  <defs
     id="defs5">
    <clipPath
       id="a">
      <path
         fill="#ffffff"
         d="M 0,0 H 64 V 64 H 0 Z"
         id="path5" />
    </clipPath>
    <linearGradient
       gradientTransform="matrix(1.0499636,0,0,1.0499041,-452.98598,-525.93779)"
       gradientUnits="userSpaceOnUse"
       x2="426.69501"
       y2="499.92099"
       y1="547.67499"
       id="a-6"
       x1="389.32001">
      <stop
         stop-color="#18222a"
         style="stop-color:#1e2b35;stop-opacity:1"
         id="stop216" />
      <stop
         stop-color="#566069"
         offset="1"
         style="stop-color:#6d7983;stop-opacity:1"
         id="stop218" />
    </linearGradient>
    <filter
       id="d"
       x="-0.035999998"
       y="-0.036000062"
       width="1.072"
       height="1.0720001"
       color-interpolation-filters="sRGB">
      <feGaussianBlur
         stdDeviation="9"
         id="feGaussianBlur238" />
    </filter>
    <clipPath
       id="a-3">
      <path
         fill="#ffffff"
         d="M 0,0 H 64 V 64 H 0 Z"
         id="path5-6" />
    </clipPath>
  </defs>
  <path
     fill="#ffffff"
     d="m 45.898,29.095 a 7.878,7.878 0 0 0 -0.697,-6.548 8.135,8.135 0 0 0 -3.76,-3.348 8.275,8.275 0 0 0 -5.04,-0.518 8.21,8.21 0 0 0 -3.555,-2.282 8.308,8.308 0 0 0 -4.236,-0.224 8.24,8.24 0 0 0 -3.782,1.895 8.077,8.077 0 0 0 -2.316,3.506 8.145,8.145 0 0 0 -3.125,1.358 8.02,8.02 0 0 0 -2.279,2.509 7.971,7.971 0 0 0 1.004,9.462 7.873,7.873 0 0 0 0.69,6.547 8.141,8.141 0 0 0 3.765,3.35 8.282,8.282 0 0 0 5.042,0.517 8.086,8.086 0 0 0 2.753,1.99 c 1.051,0.462 2.19,0.698 3.34,0.691 1.736,0.002 3.427,-0.54 4.829,-1.548 1.402,-1.008 2.444,-2.43 2.974,-4.06 a 8.153,8.153 0 0 0 3.124,-1.358 8.023,8.023 0 0 0 2.28,-2.508 7.984,7.984 0 0 0 -1.011,-9.431 z M 33.703,45.906 a 6.1,6.1 0 0 1 -3.888,-1.388 l 0.192,-0.107 6.459,-3.678 a 1.048,1.048 0 0 0 0.53,-0.908 v -8.982 l 2.73,1.558 a 0.094,0.094 0 0 1 0.052,0.069 v 7.444 a 5.964,5.964 0 0 1 -1.783,4.233 6.131,6.131 0 0 1 -4.292,1.759 z m -13.058,-5.5 a 5.892,5.892 0 0 1 -0.723,-4.019 l 0.192,0.114 6.466,3.677 a 1.053,1.053 0 0 0 1.055,0 l 7.897,-4.49 v 3.109 a 0.106,0.106 0 0 1 -0.045,0.082 L 28.946,42.6 a 6.156,6.156 0 0 1 -4.611,0.596 6.072,6.072 0 0 1 -3.69,-2.792 z M 18.944,26.527 a 6.043,6.043 0 0 1 3.197,-2.63 v 7.57 a 1.012,1.012 0 0 0 0.525,0.902 l 7.86,4.472 -2.731,1.558 a 0.104,0.104 0 0 1 -0.096,0 l -6.53,-3.715 a 6.016,6.016 0 0 1 -2.827,-3.64 5.933,5.933 0 0 1 0.602,-4.548 z m 22.433,5.142 -7.885,-4.517 2.724,-1.552 a 0.104,0.104 0 0 1 0.096,0 l 6.53,3.722 a 6.03,6.03 0 0 1 2.346,2.412 5.923,5.923 0 0 1 -0.542,6.398 6.068,6.068 0 0 1 -2.719,1.995 v -7.57 a 1.044,1.044 0 0 0 -0.55,-0.888 z m 2.718,-4.031 -0.192,-0.114 -6.452,-3.709 a 1.06,1.06 0 0 0 -1.062,0 l -7.891,4.491 v -3.11 a 0.087,0.087 0 0 1 0.038,-0.081 l 6.53,-3.716 a 6.148,6.148 0 0 1 6.515,0.278 c 0.947,0.652 1.686,1.556 2.132,2.607 0.446,1.051 0.577,2.206 0.382,3.328 z M 27.008,33.15 24.278,31.598 A 0.107,0.107 0 0 1 24.226,31.522 V 24.1 a 5.94,5.94 0 0 1 0.952,-3.215 c 0.62,-0.96 1.505,-1.727 2.55,-2.21 a 6.155,6.155 0 0 1 6.468,0.82 l -0.192,0.107 -6.459,3.678 a 1.05,1.05 0 0 0 -0.53,0.908 z m 1.484,-3.154 3.517,-2 3.523,2 v 3.999 l -3.51,2 -3.524,-2 z"
     clip-path="url(#a-3)"
     id="path4-7"
     transform="matrix(0.74994608,0,0,0.75000818,0.00176121,-5.0621865e-4)"
     style="fill:#00b4b4;fill-opacity:1;stroke-width:1.33341" />
</svg>
