<?xml version="1.0" encoding="UTF-8" standalone="no"?>
<svg
   width="48"
   height="48"
   version="1.1"
   id="svg4"
   sodipodi:docname="org.midori_browser.Midori.svg"
   inkscape:version="1.3.2 (091e20ef0f, 2023-11-25)"
   xmlns:inkscape="http://www.inkscape.org/namespaces/inkscape"
   xmlns:sodipodi="http://sodipodi.sourceforge.net/DTD/sodipodi-0.dtd"
   xmlns="http://www.w3.org/2000/svg"
   xmlns:svg="http://www.w3.org/2000/svg">
  <defs
     id="defs4" />
  <sodipodi:namedview
     id="namedview4"
     pagecolor="#ffffff"
     bordercolor="#999999"
     borderopacity="1"
     inkscape:showpageshadow="2"
     inkscape:pageopacity="0"
     inkscape:pagecheckerboard="0"
     inkscape:deskcolor="#d1d1d1"
     inkscape:zoom="6.2265625"
     inkscape:cx="30.032622"
     inkscape:cy="28.988708"
     inkscape:window-width="1920"
     inkscape:window-height="994"
     inkscape:window-x="0"
     inkscape:window-y="0"
     inkscape:window-maximized="1"
     inkscape:current-layer="svg4" />
  <rect
     width="64"
     height="64"
     fill="none"
     rx="0"
     ry="0"
     style="paint-order:stroke fill markers"
     id="rect1"
     x="0"
     y="0" />
  <g
     id="g4"
     transform="matrix(0.77777778,0,0,0.77777778,-0.88888896,-0.88888896)">
    <rect
       width="54"
       height="54"
       x="5"
       y="5"
       fill="#f0f0f0"
       rx="27"
       ry="27"
       id="rect2" />
    <path
       fill="#73d216"
       d="m 45.43,14.749 c -4.293,2.396 -21.094,-0.077 -28.237,17.863 -1.004,4.737 -0.485,11.267 4.095,11.558 0.947,0.06 1.802,0.702 2.25,1.43 2.924,4.764 7.141,4.35 8.886,2.075 0.334,-0.436 0.97,-0.312 1.423,0.036 5.275,4.054 8.811,-2.362 10.613,-7.394 0.717,-2.2 4.318,-19.447 2.897,-21.291 -0.423,-0.55 -2.276,1.039 -3.89,2.734 C 30.562,35.306 22,25.193 44.951,15.09 l 0.35,-0.42 0.238,0.098"
       id="path2" />
    <path
       fill="none"
       stroke="#45a300"
       stroke-linejoin="round"
       stroke-width="0.782"
       d="m 46.652,14.486 c -4.387,0.814 -24.893,3.122 -29.455,18.36 -1.332,5.157 -0.582,12.172 5.353,11.913 0.42,-0.018 0.464,0.12 0.613,0.474 2.444,5.782 8.458,4.73 9.81,2.464 0.193,-0.323 -0.292,-0.2 0,0 6.124,4.193 9.462,-1.61 11.391,-6.782 2.356,-4.487 3.797,-23.169 2.536,-21.96 -21.482,20.585 -21.441,2.454 -0.248,-4.47"
       id="path3" />
    <path
       fill="none"
       stroke="#45a300"
       stroke-linecap="round"
       stroke-linejoin="bevel"
       stroke-width="0.782"
       d="m 23.16,44.86 c -1.541,-7.027 0.27,-8.263 0.973,-10.152 m 8.775,12.834 c -2.004,-4.241 -1.67,-7.741 -0.247,-10.35"
       id="path4" />
  </g>
</svg>
