<?xml version="1.0" encoding="UTF-8" standalone="no"?>
<svg
   width="48"
   height="48"
   version="1.1"
   id="svg4"
   sodipodi:docname="pcloud.svg"
   inkscape:version="1.3.2 (091e20ef0f, 2023-11-25)"
   xmlns:inkscape="http://www.inkscape.org/namespaces/inkscape"
   xmlns:sodipodi="http://sodipodi.sourceforge.net/DTD/sodipodi-0.dtd"
   xmlns="http://www.w3.org/2000/svg"
   xmlns:svg="http://www.w3.org/2000/svg">
  <defs
     id="defs4" />
  <sodipodi:namedview
     id="namedview4"
     pagecolor="#ffffff"
     bordercolor="#999999"
     borderopacity="1"
     inkscape:showpageshadow="2"
     inkscape:pageopacity="0"
     inkscape:pagecheckerboard="0"
     inkscape:deskcolor="#d1d1d1"
     inkscape:zoom="6.2265625"
     inkscape:cx="29.229611"
     inkscape:cy="20.155583"
     inkscape:window-width="1920"
     inkscape:window-height="994"
     inkscape:window-x="0"
     inkscape:window-y="0"
     inkscape:window-maximized="1"
     inkscape:current-layer="svg4" />
  <g
     id="g4"
     transform="matrix(0.77777778,0,0,0.77777778,-0.88888926,-0.88888899)">
    <path
       fill="#03c7dd"
       d="m 32,5 a 27,27 0 0 0 -27,27 27,27 0 0 0 0.852,6.644 33.56,33.56 0 0 1 2.25,-0.341 c 0.103,-4.502 3.788,-8.1 8.298,-8.104 a 0.071,0.071 0 0 0 0.02,0.002 c 0.072,-6.493 5.363,-11.719 11.867,-11.72 a 11.887,11.887 0 0 1 4.54,0.905 13.963,13.963 0 0 1 7.792,-2.388 v -0.002 c 7.704,0 13.95,6.24 13.95,13.932 a 13.906,13.906 0 0 1 -1.16,5.521 36.567,36.567 0 0 1 4.772,2.028 A 27,27 0 0 0 59,32 27,27 0 0 0 32,5 Z m 26.129,33.742 a 27,27 0 0 1 -0.982,2.998 27,27 0 0 0 0.982,-2.998 z M 5.881,38.795 a 27,27 0 0 0 1.193,3.578 27,27 0 0 1 -1.193,-3.578 z m 51.07,3.52 a 27,27 0 0 1 -1.672,3.341 27,27 0 0 0 1.672,-3.342 z M 7.277,42.783 a 27,27 0 0 0 1.5,2.957 27,27 0 0 1 -1.5,-2.957 z m 47.285,3.943 a 27,27 0 0 1 -1.428,2.037 27,27 0 0 0 1.428,-2.037 z M 9.451,46.748 a 27,27 0 0 0 1.475,2.084 27,27 0 0 1 -1.475,-2.084 z m 42.688,3.15 a 27,27 0 0 1 -1.56,1.645 27,27 0 0 0 1.56,-1.645 z m -40.266,0.014 a 27,27 0 0 0 1.61,1.684 27,27 0 0 1 -1.61,-1.684 z m 37.516,2.674 a 27,27 0 0 1 -1.736,1.36 27,27 0 0 0 1.736,-1.36 z m -34.76,0.015 a 27,27 0 0 0 1.783,1.385 27,27 0 0 1 -1.783,-1.385 z m 31.688,2.235 a 27,27 0 0 1 -1.918,1.09 27,27 0 0 0 1.918,-1.09 z m -28.623,0.008 a 27,27 0 0 0 1.963,1.109 27,27 0 0 1 -1.963,-1.11 z m 25.291,1.779 a 27,27 0 0 1 -2.125,0.822 27,27 0 0 0 2.125,-0.822 z m -21.953,0.008 a 27,27 0 0 0 2.154,0.83 27,27 0 0 1 -2.154,-0.83 z m 18.406,1.297 a 27,27 0 0 1 -2.441,0.548 27,27 0 0 0 2.441,-0.548 z m -14.863,0.003 a 27,27 0 0 0 2.482,0.555 27,27 0 0 1 -2.482,-0.555 z m 3.67,0.792 A 27,27 0 0 0 32,59 27,27 0 0 1 28.244,58.723 Z M 32,59 A 27,27 0 0 0 35.76,58.723 27,27 0 0 1 32,59 Z"
       id="path1" />
    <path
       fill="#ffffff"
       d="m 21.5,15.402 0.002,0.002 A 12.313,12.313 0 0 0 9.205,27.357 12.313,12.313 0 0 0 5.094,29.755 27,27 0 0 0 5,32 a 27,27 0 0 0 0.832,6.647 33.56,33.56 0 0 1 2.27,-0.344 c 0.103,-4.502 3.788,-8.098 8.298,-8.101 0.007,0 0.013,0 0.02,0.002 0.072,-6.494 5.363,-11.721 11.867,-11.723 0.486,0 0.968,0.041 1.449,0.101 A 12.313,12.313 0 0 0 21.5,15.402 Z m 32.883,13.354 c 0.112,0.71 0.187,1.431 0.188,2.172 -0.006,1.9 -0.4,3.78 -1.16,5.523 A 36.56,36.56 0 0 1 58.209,38.494 27,27 0 0 0 59,32 27,27 0 0 0 58.926,30.01 8.975,8.975 0 0 0 54.383,28.756 Z"
       opacity="0.35"
       id="path2" />
    <path
       fill="#f9f9f9"
       d="m 40.619,16.998 c -2.777,0.004 -5.49,0.836 -7.791,2.389 A 11.887,11.887 0 0 0 28.287,18.48 c -6.504,0.002 -11.795,5.228 -11.867,11.721 -0.006,0 -0.013,0 -0.02,-0.002 -4.51,0.004 -8.195,3.602 -8.298,8.104 A 33.56,33.56 0 0 0 5.832,38.647 27,27 0 0 0 32,59 27,27 0 0 0 58.21,38.492 V 38.49 a 36.567,36.567 0 0 0 -4.8,-2.041 13.906,13.906 0 0 0 1.16,-5.522 c 0,-7.692 -6.246,-13.929 -13.95,-13.93 z"
       id="path3" />
    <path
       fill="#00bcd4"
       d="m 31.999,23.672 c -8.192,0 -14.856,6.664 -14.856,14.856 0,8.192 6.664,14.856 14.856,14.856 8.192,0 14.856,-6.664 14.856,-14.856 0,-8.192 -6.664,-14.856 -14.856,-14.856 z m 0,2.475 c 6.827,0 12.381,5.555 12.381,12.382 0,6.827 -5.555,12.38 -12.381,12.38 -6.826,0 -12.381,-5.554 -12.381,-12.38 0,-6.826 5.554,-12.382 12.381,-12.382 z M 27.667,31.1 a 1.857,1.857 0 0 0 -1.858,1.857 v 12.381 a 1.8575,1.8575 0 1 0 3.715,0 v -3.095 h 4.332 c 3.072,0 5.571,-2.5 5.571,-5.572 0,-3.072 -2.5,-5.57 -5.57,-5.57 z m 1.857,3.714 h 4.332 c 1.024,0 1.857,0.834 1.857,1.857 0,1.023 -0.833,1.858 -1.857,1.858 h -4.332 z"
       id="path4" />
  </g>
</svg>
