<?xml version="1.0" encoding="UTF-8" standalone="no"?>
<svg
   width="48"
   height="48"
   version="1"
   id="svg5"
   sodipodi:docname="photoflare.svg"
   inkscape:version="1.3.2 (091e20ef0f, 2023-11-25)"
   xmlns:inkscape="http://www.inkscape.org/namespaces/inkscape"
   xmlns:sodipodi="http://sodipodi.sourceforge.net/DTD/sodipodi-0.dtd"
   xmlns="http://www.w3.org/2000/svg"
   xmlns:svg="http://www.w3.org/2000/svg">
  <defs
     id="defs5" />
  <sodipodi:namedview
     id="namedview5"
     pagecolor="#ffffff"
     bordercolor="#999999"
     borderopacity="1"
     inkscape:showpageshadow="2"
     inkscape:pageopacity="0"
     inkscape:pagecheckerboard="0"
     inkscape:deskcolor="#d1d1d1"
     inkscape:zoom="4.4028446"
     inkscape:cx="42.926793"
     inkscape:cy="20.100641"
     inkscape:window-width="1920"
     inkscape:window-height="994"
     inkscape:window-x="0"
     inkscape:window-y="0"
     inkscape:window-maximized="1"
     inkscape:current-layer="svg5" />
  <g
     id="g6"
     transform="matrix(0.77777778,0,0,0.77777778,-0.88888896,-0.88888896)">
    <circle
       cx="32"
       cy="32"
       r="27"
       id="circle1"
       style="fill:#2b3855;fill-opacity:1" />
    <g
       stroke-width="1.3"
       id="g5">
      <path
         fill="#ffffff"
         d="m 43.05,11.85 -1.379,2.521 -2.521,1.379 2.521,1.379 1.379,2.521 1.379,-2.521 2.521,-1.379 -2.521,-1.379 z m -6.5,2.6 -0.46,0.84 -0.84,0.46 0.84,0.46 0.46,0.84 0.46,-0.84 0.84,-0.46 -0.84,-0.46 z M 32,15.1 c -9.319,0 -16.9,7.581 -16.9,16.9 0,9.319 7.581,16.9 16.9,16.9 9.319,0 16.9,-7.581 16.9,-16.9 H 47.453 C 47.453,40.52 40.521,47.453 32,47.453 23.479,47.453 16.547,40.521 16.547,32 16.547,23.479 23.478,16.547 32,16.547 Z m 14.95,4.55 -0.92,1.68 -1.68,0.92 1.68,0.92 0.92,1.68 0.92,-1.68 1.68,-0.92 -1.68,-0.92 z m 1.95,6.497 -0.688,1.262 -1.262,0.691 1.262,0.688 0.688,1.262 0.69,-1.262 1.26,-0.688 -1.26,-0.69 z"
         id="path1" />
      <path
         fill="#0092ee"
         d="m 31.916,31.912 c 0,0 -1.85,-0.34 -3.482,-0.584 -1.632,-0.244 -3.416,0.176 -3.872,0.706 -0.457,0.53 0.602,1.534 0.84,1.936 0.237,0.402 0.11,0.456 -0.31,0.84 -0.351,0.32 -1.775,0.496 -2.236,0.545 v 0.015 l -0.073,-0.007 -0.072,0.007 v -0.015 c -0.46,-0.049 -1.885,-0.225 -2.235,-0.545 -0.42,-0.384 -0.548,-0.438 -0.31,-0.84 0.237,-0.402 1.296,-1.407 0.84,-1.936 C 20.726,31.71 19.951,31.428 19.018,31.313 19.006,31.541 19,31.77 19,32 c 0,7.18 5.82,13 13,13 0.094,0 0.187,-0.005 0.28,-0.007 0.386,-1.44 0.888,-3.908 0.005,-4.52 -1.266,-0.876 -2.703,0.073 -2.703,0.073 0,0 -1.023,0.56 -1.535,-0.024 -0.511,-0.584 -0.608,-1.51 -0.56,-2.143 0.049,-0.633 0.585,-2.362 1.559,-1.924 0.974,0.439 2.918,0.776 3.336,0.244 1.072,-1.364 -0.466,-4.787 -0.466,-4.787"
         id="path2" />
      <path
         fill="#bee34a"
         d="m 31.916,31.912 c 0,0 6.822,-2.031 7.211,-0.083 0.39,1.948 -2.045,2.045 -0.584,3.02 1.159,0.771 2.131,0.748 2.485,0.705 V 35.53 l 0.072,0.014 0.073,-0.014 v 0.024 c 0.354,0.043 1.326,0.067 2.485,-0.706 1.461,-0.974 -0.974,-1.071 -0.585,-3.02 0.126,-0.626 0.896,-0.841 1.883,-0.846 C 44.436,24.279 38.836,19 32,19 c -0.208,0 -0.415,0.006 -0.621,0.015 -0.288,1.123 -0.528,2.716 0.123,3.545 0.419,0.533 2.363,0.195 3.337,-0.243 0.974,-0.439 1.51,1.29 1.558,1.924 0.049,0.633 -0.048,1.558 -0.56,2.143 -0.511,0.584 -1.534,0.024 -1.534,0.024 0,0 -1.437,-0.95 -2.703,-0.073 -1.266,0.876 0.317,5.576 0.317,5.576"
         id="path3" />
      <path
         fill="#f15976"
         d="m 20.166,33.969 c -0.237,0.402 -0.11,0.457 0.31,0.84 0.351,0.32 1.775,0.496 2.236,0.546 v 0.014 l 0.072,-0.007 0.073,0.007 v -0.014 c 0.46,-0.05 1.884,-0.226 2.235,-0.546 0.42,-0.383 0.548,-0.438 0.31,-0.84 -0.237,-0.402 -1.296,-1.406 -0.84,-1.936 0.457,-0.53 2.241,-0.95 3.873,-0.706 1.631,0.243 3.482,0.584 3.482,0.584 0,0 -1.583,-4.7 -0.317,-5.577 1.267,-0.876 2.704,0.074 2.704,0.074 0,0 1.022,0.56 1.534,-0.025 0.511,-0.584 0.608,-1.51 0.56,-2.143 -0.049,-0.633 -0.585,-2.362 -1.559,-1.923 -0.974,0.438 -2.918,0.775 -3.336,0.243 -0.651,-0.83 -0.411,-2.422 -0.124,-3.545 -6.663,0.314 -12.014,5.643 -12.36,12.297 0.933,0.116 1.709,0.398 1.988,0.721 0.456,0.53 -0.603,1.535 -0.84,1.936"
         id="path4" />
      <path
         fill="#10e7c4"
         d="m 45,32 c 0,-0.343 -0.017,-0.682 -0.044,-1.018 -0.986,0.004 -1.757,0.22 -1.882,0.846 -0.39,1.948 2.046,2.046 0.584,3.02 -1.158,0.772 -2.13,0.748 -2.485,0.706 V 35.53 l -0.072,0.013 A 1.433,1.433 0 0 1 41.028,35.53 v 0.024 c -0.354,0.043 -1.326,0.066 -2.484,-0.706 -1.462,-0.974 0.974,-1.072 0.584,-3.02 -0.39,-1.948 -7.212,0.084 -7.212,0.084 0,0 1.538,3.423 0.466,4.787 -0.418,0.532 -2.362,0.195 -3.336,-0.244 -0.974,-0.439 -1.51,1.29 -1.558,1.924 -0.05,0.633 0.048,1.559 0.56,2.143 0.511,0.584 1.534,0.024 1.534,0.024 0,0 1.437,-0.95 2.703,-0.073 0.883,0.612 0.381,3.08 -0.004,4.52 C 39.33,44.843 45,39.086 45,32"
         id="path5" />
    </g>
  </g>
</svg>
