<?xml version="1.0" encoding="UTF-8" standalone="no"?>
<svg
   width="48"
   height="48"
   viewBox="0 0 12.699752 12.699752"
   version="1.1"
   id="svg5"
   sodipodi:docname="playonlinux.svg"
   inkscape:version="1.3.2 (091e20ef0f, 2023-11-25)"
   xmlns:inkscape="http://www.inkscape.org/namespaces/inkscape"
   xmlns:sodipodi="http://sodipodi.sourceforge.net/DTD/sodipodi-0.dtd"
   xmlns="http://www.w3.org/2000/svg"
   xmlns:svg="http://www.w3.org/2000/svg">
  <defs
     id="defs5" />
  <sodipodi:namedview
     id="namedview5"
     pagecolor="#ffffff"
     bordercolor="#999999"
     borderopacity="1"
     inkscape:showpageshadow="2"
     inkscape:pageopacity="0"
     inkscape:pagecheckerboard="0"
     inkscape:deskcolor="#d1d1d1"
     inkscape:zoom="6.2265625"
     inkscape:cx="30.835634"
     inkscape:cy="30.273526"
     inkscape:window-width="1920"
     inkscape:window-height="994"
     inkscape:window-x="0"
     inkscape:window-y="0"
     inkscape:window-maximized="1"
     inkscape:current-layer="svg5" />
  <g
     stroke-width="0.841"
     id="g5"
     transform="matrix(0.7777898,0,0,0.7777898,-0.23528134,-0.23528134)">
    <path
       fill="#6cc862"
       d="M 15.61,8.466 A 7.143,7.143 0 0 1 8.467,15.61 7.143,7.143 0 0 1 1.323,8.466 7.143,7.143 0 0 1 8.467,1.323 7.143,7.143 0 0 1 15.61,8.466 Z"
       id="path1" />
    <path
       fill="#60a5cf"
       d="m 1.323,8.466 a 7.143,7.143 0 0 0 7.143,7.143 V 8.466 Z"
       id="path2" />
    <path
       fill="#e96565"
       d="M 15.61,8.466 8.466,8.511 v 7.098 a 7.143,7.143 0 0 0 7.143,-7.143 z"
       id="path3" />
    <path
       fill="#ffcd5f"
       d="M 8.466,8.511 V 1.323 a 7.143,7.143 0 0 1 7.144,7.143"
       id="path4" />
    <path
       fill="#ffffff"
       d="M 9.963,4.296 C 9.095,4.063 8.501,5.255 8.363,6.582 8.01,5.016 7.028,3.72 5.99,4.884 5.604,5.317 5.515,5.667 5.574,5.948 5.288,5.923 4.949,6.052 4.563,6.484 3.647,7.51 4.931,8.368 6.455,8.597 4.948,8.972 3.758,9.927 4.891,10.933 c 0.435,0.386 0.786,0.475 1.068,0.417 -0.026,0.286 0.104,0.624 0.537,1.01 1.006,0.894 1.85,-0.312 2.1,-1.788 0.42,1.437 1.399,2.539 2.293,1.535 0.386,-0.432 0.476,-0.783 0.417,-1.064 0.287,0.026 0.625,-0.103 1.012,-0.536 1.01,-1.131 -0.29,-1.943 -1.833,-2.142 1.49,-0.401 2.67,-1.4 1.64,-2.315 C 11.692,5.665 11.34,5.575 11.059,5.633 11.084,5.347 10.955,5.01 10.521,4.623 A 1.413,1.413 0 0 0 9.961,4.296 Z M 8.446,8.454 c 10e-4,0.01 0.002,0.02 0.005,0.03 h -0.01 c 0.003,-0.01 0.003,-0.02 0.005,-0.03 z"
       id="path5" />
  </g>
</svg>
