<?xml version="1.0" encoding="UTF-8" standalone="no"?>
<svg
   width="48"
   height="48"
   version="1.1"
   viewBox="0 0 48 48"
   id="svg4"
   sodipodi:docname="proton.svg"
   inkscape:version="1.3.2 (091e20ef0f, 2023-11-25)"
   xmlns:inkscape="http://www.inkscape.org/namespaces/inkscape"
   xmlns:sodipodi="http://sodipodi.sourceforge.net/DTD/sodipodi-0.dtd"
   xmlns="http://www.w3.org/2000/svg"
   xmlns:svg="http://www.w3.org/2000/svg">
  <defs
     id="defs4" />
  <sodipodi:namedview
     id="namedview4"
     pagecolor="#ffffff"
     bordercolor="#999999"
     borderopacity="1"
     inkscape:showpageshadow="2"
     inkscape:pageopacity="0"
     inkscape:pagecheckerboard="0"
     inkscape:deskcolor="#d1d1d1"
     inkscape:zoom="6.2265625"
     inkscape:cx="25.375157"
     inkscape:cy="25.61606"
     inkscape:window-width="1920"
     inkscape:window-height="994"
     inkscape:window-x="0"
     inkscape:window-y="0"
     inkscape:window-maximized="1"
     inkscape:current-layer="svg4" />
  <rect
     x="3"
     y="3"
     width="42"
     height="42"
     rx="21"
     ry="21"
     fill-rule="evenodd"
     stroke-linecap="round"
     stroke-linejoin="round"
     stroke-width="1.73149"
     style="paint-order:stroke fill markers;fill:#28354f;fill-opacity:1"
     id="rect1" />
  <g
     transform="matrix(0.91303334,0,0,0.91303334,2.0869666,2.0869666)"
     fill="#3b82d8"
     id="g4"
     style="fill:#00ccff">
    <path
       d="m 24,19 a 5,5 0 0 0 -5,5 5,5 0 0 0 5,5 5,5 0 0 0 5,-5 5,5 0 0 0 -5,-5 z m -1,2 h 2 v 2 h 2 v 2 h -2 v 2 h -2 v -2 h -2 v -2 h 2 z"
       id="path1"
       style="fill:#00ccff" />
    <path
       d="m 17,14 c -1.58,0 -3.28,0.385 -4.63,1.2 C 11.02,16.011 10,17.31 10,19 c 0,3.79 3.24,7.49 7.42,10.3 4.18,2.81 9.36,4.71 13.6,4.71 1.58,0 3.28,-0.385 4.63,-1.2 1.35,-0.811 2.37,-2.11 2.37,-3.8 0,-3.79 -3.24,-7.49 -7.42,-10.3 C 26.42,15.9 21.24,14 17,14 Z m 0,1 c 3.92,0 8.99,1.84 13,4.54 4.04,2.7 6.98,6.25 6.98,9.46 0,1.31 -0.734,2.26 -1.88,2.95 C 33.95,32.639 32.4,33 30.98,33 27.06,33 21.99,31.16 17.98,28.46 13.94,25.76 11,22.21 11,19 11,17.69 11.734,16.74 12.88,16.05 14.03,15.361 15.58,15 17,15 Z"
       id="path2"
       style="fill:#00ccff" />
    <path
       d="M 17,34 C 15.42,34 13.72,33.615 12.37,32.8 11.02,31.989 10,30.69 10,29 c 0,-3.79 3.24,-7.49 7.42,-10.3 4.18,-2.81 9.36,-4.71 13.6,-4.71 1.58,0 3.28,0.385 4.63,1.2 1.35,0.811 2.37,2.11 2.37,3.8 0,3.79 -3.24,7.49 -7.42,10.3 C 26.42,32.1 21.24,34 17,34 Z m 0,-1 c 3.92,0 8.99,-1.84 13,-4.54 4.04,-2.7 6.98,-6.25 6.98,-9.46 0,-1.31 -0.734,-2.26 -1.88,-2.95 C 33.95,15.361 32.4,15 30.98,15 c -3.92,0 -8.99,1.84 -13,4.54 C 13.94,22.24 11,25.79 11,29 c 0,1.31 0.734,2.26 1.88,2.95 1.15,0.689 2.7,1.05 4.12,1.05 z"
       id="path3"
       style="fill:#00ccff" />
    <path
       d="M 24,9 A 8,15 0 0 0 16,24 8,15 0 0 0 24,39 8,15 0 0 0 32,24 8,15 0 0 0 24,9 Z m 0,1 a 7,14 0 0 1 7,14 7,14 0 0 1 -7,14 7,14 0 0 1 -7,-14 7,14 0 0 1 7,-14 z"
       id="path4"
       style="fill:#00ccff" />
  </g>
</svg>
