<?xml version="1.0" encoding="UTF-8" standalone="no"?>
<svg
   width="48"
   height="48"
   version="1.1"
   viewBox="0 0 48 48"
   id="svg4"
   sodipodi:docname="protonmail.svg"
   inkscape:version="1.3.2 (091e20ef0f, 2023-11-25)"
   xmlns:inkscape="http://www.inkscape.org/namespaces/inkscape"
   xmlns:sodipodi="http://sodipodi.sourceforge.net/DTD/sodipodi-0.dtd"
   xmlns="http://www.w3.org/2000/svg"
   xmlns:svg="http://www.w3.org/2000/svg">
  <defs
     id="defs4" />
  <sodipodi:namedview
     id="namedview4"
     pagecolor="#ffffff"
     bordercolor="#999999"
     borderopacity="1"
     inkscape:showpageshadow="2"
     inkscape:pageopacity="0"
     inkscape:pagecheckerboard="0"
     inkscape:deskcolor="#d1d1d1"
     inkscape:zoom="6.2265625"
     inkscape:cx="25.535759"
     inkscape:cy="25.61606"
     inkscape:window-width="1920"
     inkscape:window-height="994"
     inkscape:window-x="0"
     inkscape:window-y="0"
     inkscape:window-maximized="1"
     inkscape:current-layer="svg4" />
  <rect
     x="3"
     y="3"
     width="42"
     height="42"
     rx="21"
     ry="21"
     fill-rule="evenodd"
     stroke-linecap="round"
     stroke-linejoin="round"
     stroke-width="1.73149"
     style="paint-order:stroke fill markers;fill:#28354f;fill-opacity:1"
     id="rect1" />
  <path
     d="M 23.999585,9 C 17.905723,9 13,13.631529 13,19.384349 v 6.346097 l 10.999585,7.499926 10.999581,-7.499926 V 19.384349 C 34.999166,13.63133 30.093243,9 23.999585,9 Z m 0,4.615406 c 3.385461,0 6.111048,2.57304 6.111048,5.769238 v 3.46148 H 17.888757 v -3.46148 c 0,-3.196102 2.725474,-5.769238 6.111035,-5.769238 z M 13,28.615456 v 9.230717 C 13,38.485402 13.545101,39 14.222184,39 H 33.777816 C 34.454912,39 35,38.485393 35,37.846173 v -9.230717 l -9.980521,6.706726 c -0.20799,0.140997 -0.457699,0.216346 -0.713735,0.216346 h -0.611108 c -0.256057,0 -0.505762,-0.07535 -0.713737,-0.216346 z"
     stroke-width="1.18751"
     style="fill:#00ccff;paint-order:normal"
     id="path1-3"
     inkscape:transform-center-x="10.117942"
     inkscape:transform-center-y="-20.396487" />
</svg>
