<?xml version="1.0" encoding="UTF-8" standalone="no"?>
<svg
   width="48"
   height="48"
   version="1.1"
   viewBox="0 0 48 48"
   id="svg1"
   sodipodi:docname="protonplus.svg"
   inkscape:version="1.3.2 (091e20ef0f, 2023-11-25)"
   xmlns:inkscape="http://www.inkscape.org/namespaces/inkscape"
   xmlns:sodipodi="http://sodipodi.sourceforge.net/DTD/sodipodi-0.dtd"
   xmlns="http://www.w3.org/2000/svg"
   xmlns:svg="http://www.w3.org/2000/svg">
  <defs
     id="defs1" />
  <sodipodi:namedview
     id="namedview1"
     pagecolor="#ffffff"
     bordercolor="#999999"
     borderopacity="1"
     inkscape:showpageshadow="2"
     inkscape:pageopacity="0"
     inkscape:pagecheckerboard="0"
     inkscape:deskcolor="#d1d1d1"
     inkscape:zoom="6.2265625"
     inkscape:cx="33.40527"
     inkscape:cy="53.400251"
     inkscape:window-width="1920"
     inkscape:window-height="994"
     inkscape:window-x="0"
     inkscape:window-y="0"
     inkscape:window-maximized="1"
     inkscape:current-layer="svg1" />
  <g
     transform="matrix(0.91304348,0,0,0.91304348,2.0869565,2.0869565)"
     id="g1">
    <circle
       cx="24"
       cy="24"
       r="23"
       fill="#ececec"
       id="circle1" />
    <path
       d="m 15,11 v 2 c 1.11,0 2,0.892 2,2 v 7 h -2 v 2 c 1.11,0 2,0.892 2,2 v 1 h 3 l -3,3 v 3 c 0,1.11 -0.892,2 -2,2 v 2 h 10 v -2 c -1.11,0 -2,-0.892 -2,-2 v -6 h 3 c 4.43,0 8,-3.57 8,-8 0,-4.43 -3.57,-8 -8,-8 z m 8,5 h 2 c 1.66,0 3,1.34 3,3 0,1.66 -1.34,3 -3,3 h -2 z m 6,12 v 3 h -3 v 3 h 3 v 3 h 3 v -3 h 3 v -3 h -3 v -3 z"
       fill="#41424e"
       id="path1" />
  </g>
</svg>
