<?xml version="1.0" encoding="UTF-8" standalone="no"?>
<svg
   width="48"
   height="48"
   viewBox="0 0 12.699752 12.699752"
   version="1.1"
   id="svg2"
   sodipodi:docname="skype.svg"
   inkscape:version="1.3.2 (091e20ef0f, 2023-11-25)"
   xmlns:inkscape="http://www.inkscape.org/namespaces/inkscape"
   xmlns:sodipodi="http://sodipodi.sourceforge.net/DTD/sodipodi-0.dtd"
   xmlns="http://www.w3.org/2000/svg"
   xmlns:svg="http://www.w3.org/2000/svg">
  <defs
     id="defs2" />
  <sodipodi:namedview
     id="namedview2"
     pagecolor="#ffffff"
     bordercolor="#999999"
     borderopacity="1"
     inkscape:showpageshadow="2"
     inkscape:pageopacity="0"
     inkscape:pagecheckerboard="0"
     inkscape:deskcolor="#d1d1d1"
     inkscape:zoom="6.2265625"
     inkscape:cx="26.178168"
     inkscape:cy="20.63739"
     inkscape:window-width="1920"
     inkscape:window-height="994"
     inkscape:window-x="0"
     inkscape:window-y="0"
     inkscape:window-maximized="1"
     inkscape:current-layer="svg2" />
  <g
     id="g2"
     transform="matrix(0.77778964,0,0,0.77778964,-0.23565331,-0.23831622)">
    <circle
       cx="8.46698"
       cy="8.4704037"
       r="7.1438417"
       fill="#2d9cf2"
       style="stroke-width:1.0385;paint-order:stroke markers fill"
       id="circle1" />
    <path
       fill="#ffffff"
       d="M 6.53,4.23 A 2.295,2.295 0 0 0 4.233,6.526 c 0,0.392 0.1,0.771 0.273,1.094 a 4.05,4.05 0 0 0 4.804,4.803 c 0.325,0.176 0.699,0.274 1.093,0.274 A 2.295,2.295 0 0 0 12.7,10.4 c 0,-0.394 -0.1,-0.77 -0.274,-1.095 A 4.05,4.05 0 0 0 7.622,4.503 2.333,2.333 0 0 0 6.528,4.23"
       id="path1" />
    <path
       fill="#2d9cf2"
       d="m 8.543,6.045 c 1.194,0 1.81,0.63 1.81,1 0,0.371 -0.178,0.427 -0.47,0.427 -0.57,0 -0.337,-0.686 -1.403,-0.686 -0.353,0 -0.794,0.161 -0.794,0.574 0,0.331 0.39,0.453 1.08,0.623 1.038,0.278 1.817,0.556 1.817,1.51 0,0.925 -0.754,1.39 -1.947,1.39 -1.194,0 -1.956,-0.714 -1.956,-1.084 0,-0.37 0.14,-0.463 0.433,-0.463 0.57,0 0.494,0.778 1.56,0.778 0.354,0 0.877,-0.161 0.877,-0.575 C 9.55,9.209 9.522,9.095 8.765,8.891 7.957,8.781 6.652,8.518 6.652,7.51 c 0,-0.926 0.7,-1.465 1.893,-1.465"
       id="path2" />
  </g>
</svg>
