<?xml version="1.0" encoding="UTF-8" standalone="no"?>
<svg
   width="48"
   height="48"
   version="1.1"
   id="svg4"
   sodipodi:docname="synapse.svg"
   inkscape:version="1.3.2 (091e20ef0f, 2023-11-25)"
   xmlns:inkscape="http://www.inkscape.org/namespaces/inkscape"
   xmlns:sodipodi="http://sodipodi.sourceforge.net/DTD/sodipodi-0.dtd"
   xmlns="http://www.w3.org/2000/svg"
   xmlns:svg="http://www.w3.org/2000/svg">
  <defs
     id="defs4" />
  <sodipodi:namedview
     id="namedview4"
     pagecolor="#ffffff"
     bordercolor="#999999"
     borderopacity="1"
     inkscape:showpageshadow="2"
     inkscape:pageopacity="0"
     inkscape:pagecheckerboard="0"
     inkscape:deskcolor="#d1d1d1"
     inkscape:zoom="4.2094951"
     inkscape:cx="16.866631"
     inkscape:cy="36.108844"
     inkscape:window-width="1920"
     inkscape:window-height="994"
     inkscape:window-x="0"
     inkscape:window-y="0"
     inkscape:window-maximized="1"
     inkscape:current-layer="svg4" />
  <rect
     style="opacity:0.2;stroke-width:0.730462"
     width="41.275856"
     height="41.99966"
     x="-45.000004"
     y="-44.999832"
     rx="20.637928"
     ry="20.99983"
     transform="matrix(0,-1,-1,0,0,0)"
     id="rect1" />
  <rect
     width="41.275856"
     height="41.99966"
     x="-44.27586"
     y="-44.999832"
     rx="20.637928"
     ry="20.99983"
     transform="matrix(0,-1,-1,0,0,0)"
     id="rect2"
     style="fill:#009d9d;fill-opacity:1" />
  <path
     style="opacity:0.2;stroke-width:0.730462"
     d="m 22.894928,10.96551 v 2.954542 a 10.684123,10.499998 0 0 0 -9.41769,8.63167 h 2.258008 a 8.4736127,8.3275831 0 0 1 8.264937,-6.517233 8.4736127,8.3275831 0 0 1 8.259182,6.517233 h 2.25368 A 10.684123,10.499998 0 0 0 25.105432,13.922885 V 10.96551 Z m 1.105255,7.241384 a 6.263106,6.155171 0 0 0 -6.263108,6.155178 6.263106,6.155171 0 0 0 0.103614,1.086198 h 0.63322 1.629101 7.791465 a 4.0525981,3.9827578 0 0 1 -3.894292,2.896553 4.0525981,3.9827578 0 0 1 -3.121479,-1.448281 H 18.29978 a 6.263106,6.155171 0 0 0 5.700403,3.620699 6.263106,6.155171 0 0 0 6.263094,-6.155169 6.263106,6.155171 0 0 0 -0.103601,-1.086214 h -0.633221 -1.629102 -7.791462 a 4.0525981,3.9827578 0 0 1 3.894292,-2.896554 4.0525981,3.9827578 0 0 1 3.121481,1.448279 h 2.57892 a 6.263106,6.155171 0 0 0 -5.700401,-3.620689 z m -10.512864,7.965519 a 10.684123,10.499998 0 0 0 9.407609,8.628832 v 2.957368 h 2.210504 v -2.954538 a 10.684123,10.499998 0 0 0 9.41769,-8.631662 h -2.258003 a 8.4736127,8.3275831 0 0 1 -8.264936,6.517233 8.4736127,8.3275831 0 0 1 -8.259192,-6.517233 z"
     id="path2" />
  <path
     style="fill:#ffffff;stroke-width:0.730462"
     d="m 22.894928,10.241377 v 2.954539 a 10.684123,10.499998 0 0 0 -9.41769,8.631667 h 2.258008 a 8.4736127,8.3275831 0 0 1 8.264937,-6.517238 8.4736127,8.3275831 0 0 1 8.259182,6.517238 h 2.25368 a 10.684123,10.499998 0 0 0 -9.407613,-8.628837 v -2.957369 z m 1.105255,7.241381 a 6.263106,6.155171 0 0 0 -6.263108,6.155166 6.263106,6.155171 0 0 0 0.103614,1.086208 h 0.63322 1.629101 7.791465 a 4.0525981,3.9827578 0 0 1 -3.894292,2.896553 4.0525981,3.9827578 0 0 1 -3.121479,-1.448272 H 18.29978 a 6.263106,6.155171 0 0 0 5.700403,3.620684 6.263106,6.155171 0 0 0 6.263094,-6.155173 6.263106,6.155171 0 0 0 -0.103601,-1.086202 h -0.633221 -1.629102 -7.791462 a 4.0525981,3.9827578 0 0 1 3.894292,-2.896554 4.0525981,3.9827578 0 0 1 3.121481,1.44828 h 2.57892 a 6.263106,6.155171 0 0 0 -5.700401,-3.62069 z M 13.487319,25.44827 a 10.684123,10.499998 0 0 0 9.407609,8.628837 v 2.957377 h 2.210504 v -2.954546 a 10.684123,10.499998 0 0 0 9.41769,-8.631668 h -2.258003 a 8.4736127,8.3275831 0 0 1 -8.264936,6.51724 8.4736127,8.3275831 0 0 1 -8.259192,-6.51724 z"
     id="path3" />
  <path
     style="opacity:0.2;fill:#ffffff;stroke-width:0.730462"
     d="M 23.999992,3 C 12.366089,3 3.0001698,12.20451 3.0001698,23.637924 c 0,0.121467 0.00652,0.24112 0.00863,0.362071 C 3.2048994,12.735686 12.489686,3.7241377 23.999992,3.7241377 c 11.510312,0 20.7951,9.0115483 20.991194,20.2758573 0.0029,-0.120951 0.009,-0.240604 0.009,-0.362071 C 44.999824,12.20451 35.633903,3 23.999992,3 Z"
     id="path4" />
</svg>
