<?xml version="1.0" encoding="UTF-8" standalone="no"?>
<svg
   width="48"
   height="48"
   version="1.1"
   viewBox="0 0 12.699752 12.699752"
   id="svg2"
   sodipodi:docname="goa-account-yahoo.svg"
   inkscape:version="1.3.2 (091e20ef0f, 2023-11-25)"
   xmlns:inkscape="http://www.inkscape.org/namespaces/inkscape"
   xmlns:sodipodi="http://sodipodi.sourceforge.net/DTD/sodipodi-0.dtd"
   xmlns="http://www.w3.org/2000/svg"
   xmlns:svg="http://www.w3.org/2000/svg">
  <defs
     id="defs2" />
  <sodipodi:namedview
     id="namedview2"
     pagecolor="#ffffff"
     bordercolor="#999999"
     borderopacity="1"
     inkscape:showpageshadow="2"
     inkscape:pageopacity="0"
     inkscape:pagecheckerboard="0"
     inkscape:deskcolor="#d1d1d1"
     inkscape:zoom="11.90625"
     inkscape:cx="32"
     inkscape:cy="32.335958"
     inkscape:window-width="1920"
     inkscape:window-height="994"
     inkscape:window-x="0"
     inkscape:window-y="0"
     inkscape:window-maximized="1"
     inkscape:current-layer="svg2" />
  <g
     transform="matrix(0.77777892,0,0,0.77777892,-0.23518945,-218.06267)"
     id="g2">
    <circle
       cx="8.4665003"
       cy="288.53"
       r="7.1436"
       fill="#881fa2"
       style="paint-order:stroke markers fill"
       id="circle1" />
    <g
       fill="#ffffff"
       stroke-width="0.37"
       id="g1">
      <path
         d="m 11.145,287.117 c -0.134,0.013 -0.69,0.138 -0.876,0.178 -0.2,0.054 -2.028,1.465 -2.144,1.812 a 2.48,2.48 0 0 0 -0.04,0.478 l -0.014,0.28 c 0,0.2 0.056,0.522 0.082,0.695 0.12,0.027 0.99,0.004 1.15,0.03 l -0.02,0.359 c -0.157,-0.012 -1.261,-0.009 -1.891,-0.009 -0.32,0 -1.35,0.035 -1.666,0.026 l 0.06,-0.34 c 0.173,-0.014 0.89,0.03 1.049,-0.137 0.078,-0.083 0.053,-0.171 0.053,-0.65 v -0.227 c 0,-0.107 0,-0.307 -0.026,-0.494 -0.066,-0.2 -1.676,-2.21 -2.09,-2.53 -0.12,-0.04 -0.872,-0.115 -1.059,-0.155 l -0.009,-0.307 c 0.093,-0.046 0.93,0.011 1.742,-0.019 0.533,-0.02 1.75,0 1.9,0.018 l -0.038,0.271 c -0.16,0.04 -0.93,0.055 -1.13,0.108 0.52,0.773 1.342,1.77 1.609,2.158 0.146,-0.214 1.436,-1.1 1.475,-1.407 -0.2,-0.04 -0.862,-0.136 -0.969,-0.136 l -0.063,-0.35 c 0.181,-0.028 1.136,0 1.61,0 0.41,0 1.285,0 1.534,0.022 l -0.227,0.328 m 0.869,3.571 -0.309,-0.026 -0.004,-0.67 0.392,0.048 0.351,0.016 -0.097,0.656 -0.333,-0.025 m 0.399,-1.184 -0.578,-0.055 c 0.06,-0.293 0.008,-2.534 0.004,-2.773 l -0.03,-0.471 c 0.16,0.031 0.136,0.015 0.815,0.086 0.413,0.044 0.467,0.063 0.603,0.068 l -0.177,0.558 c -0.152,0.446 -0.59,2.438 -0.637,2.587 z"
         id="path1" />
    </g>
  </g>
</svg>
