<?xml version="1.0" encoding="UTF-8" standalone="no"?>
<svg
   width="48"
   height="48"
   version="1.1"
   id="svg3"
   sodipodi:docname="weechat.svg"
   inkscape:version="1.3.2 (091e20ef0f, 2023-11-25)"
   xmlns:inkscape="http://www.inkscape.org/namespaces/inkscape"
   xmlns:sodipodi="http://sodipodi.sourceforge.net/DTD/sodipodi-0.dtd"
   xmlns="http://www.w3.org/2000/svg"
   xmlns:svg="http://www.w3.org/2000/svg">
  <defs
     id="defs3" />
  <sodipodi:namedview
     id="namedview3"
     pagecolor="#ffffff"
     bordercolor="#999999"
     borderopacity="1"
     inkscape:showpageshadow="2"
     inkscape:pageopacity="0"
     inkscape:pagecheckerboard="0"
     inkscape:deskcolor="#d1d1d1"
     inkscape:zoom="6.2265625"
     inkscape:cx="37.099122"
     inkscape:cy="30.755332"
     inkscape:window-width="1920"
     inkscape:window-height="994"
     inkscape:window-x="0"
     inkscape:window-y="0"
     inkscape:window-maximized="1"
     inkscape:current-layer="svg3" />
  <g
     id="g3"
     transform="translate(-2,-1.999)">
    <path
       d="m 26,4.9997778 c 11.598222,0 21,9.4010002 21,20.9992222 0,11.598222 -9.401778,21 -21,21 -11.598222,0 -21,-9.401778 -21,-21 0,-11.598222 9.401778,-21 21,-21 z"
       id="path1"
       style="stroke-width:0.777778;fill:#cd87de" />
    <path
       d="m 39.222222,17.139333 -16.359778,0.381111 c -1.608444,0.03656 -3.227,0.651 -4.501777,1.678445 -1.228889,1.012667 -1.963111,2.507555 -2.346556,4.027333 l 5.833333,-0.253555 c 0.05211,-0.641667 0.416112,-1.224223 0.884334,-1.649667 0.423111,-0.366333 0.962111,-0.612111 1.526,-0.633111 L 38.271,20.182778 Z"
       id="path2"
       style="stroke-width:0.777778;fill:#00ccff" />
    <path
       fill="#384aaa"
       d="m 15.444,24.875889 -2.473333,6.531 c -0.326667,0.862555 -0.269889,1.946 0.408333,2.615667 0.799556,0.790222 2.014444,0.906111 3.08,0.808888 l 17.373222,-1.585888 3.867889,-11.413889 -4.945889,0.190555 -2.979666,8.433445 -2.663112,0.190555 2.979667,-8.496444 -5.326222,0.253555 -3.170222,8.75 -1.775667,0.063 c -0.513333,0.01867 -0.792556,-0.696889 -0.633889,-1.141 l 1.965445,-5.516777 z"
       id="path3"
       style="stroke-width:0.777778;fill:#3737c8" />
  </g>
</svg>
